<svg xmlns="http://www.w3.org/2000/svg" width="71.452" height="80" viewBox="0 0 71.452 80">
  <g id="expediente" transform="translate(-27.352)">
    <g id="Grupo_116027" data-name="Grupo 116027" transform="translate(28.915 1.563)">
      <g id="Grupo_116023" data-name="Grupo 116023" transform="translate(10.644 28.321)">
        <path id="Trazado_173347" data-name="Trazado 173347" d="M148.31,192.64a14.843,14.843,0,0,1-4.377-.656v35.3a4.124,4.124,0,0,1-4.124,4.124H105.476v4.281a4.124,4.124,0,0,0,4.124,4.124h40.853a4.124,4.124,0,0,0,4.124-4.124v-44.43A14.791,14.791,0,0,1,148.31,192.64Z" transform="translate(-105.476 -191.256)" fill="#c5b9dd"/>
      </g>
      <g id="Grupo_116024" data-name="Grupo 116024" transform="translate(0 3.382)">
        <path id="Trazado_173348" data-name="Trazado 173348" d="M81.083,31.646H41.476a4.124,4.124,0,0,0-4.124,4.124v56.84a4.124,4.124,0,0,0,4.124,4.124H82.329a4.124,4.124,0,0,0,4.124-4.124V57.626" transform="translate(-37.352 -31.646)" fill="#faf7f5"/>
      </g>
      <g id="Grupo_116025" data-name="Grupo 116025" transform="translate(38.629)">
        <ellipse id="Elipse_12496" data-name="Elipse 12496" cx="14.85" cy="14.853" rx="14.85" ry="14.853" fill="#c6412a"/>
      </g>
      <g id="Grupo_116026" data-name="Grupo 116026" transform="translate(10.473 15.722)">
        <path id="Trazado_173349" data-name="Trazado 173349" d="M104.377,110.62h28.156v6.6H104.377Z" transform="translate(-104.377 -110.62)" fill="#ffe6b4"/>
      </g>
    </g>
    <g id="Grupo_116045" data-name="Grupo 116045" transform="translate(27.352)">
      <g id="Grupo_116029" data-name="Grupo 116029" transform="translate(53.485 12.806)">
        <g id="Grupo_116028" data-name="Grupo 116028">
          <path id="Trazado_173350" data-name="Trazado 173350" d="M371.217,95.765a1.563,1.563,0,0,1-1.562-1.562V83.519a1.563,1.563,0,0,1,3.125,0V94.2A1.563,1.563,0,0,1,371.217,95.765Z" transform="translate(-369.655 -81.956)"/>
        </g>
      </g>
      <g id="Grupo_116031" data-name="Grupo 116031" transform="translate(53.478 7.778)">
        <g id="Grupo_116030" data-name="Grupo 116030">
          <circle id="Elipse_12497" data-name="Elipse 12497" cx="1.563" cy="1.563" r="1.563"/>
        </g>
      </g>
      <g id="Grupo_116034" data-name="Grupo 116034">
        <path id="Trazado_173351" data-name="Trazado 173351" d="M98.8,16.415A16.4,16.4,0,0,0,72.425,3.382H33.038a5.693,5.693,0,0,0-5.686,5.686v56.84a5.693,5.693,0,0,0,5.686,5.687H38v2.719A5.693,5.693,0,0,0,43.683,80H84.536a5.693,5.693,0,0,0,5.686-5.687V52.641a1.563,1.563,0,0,0-3.125,0V74.313a2.564,2.564,0,0,1-2.561,2.562H43.683a2.564,2.564,0,0,1-2.561-2.562V71.595h32.77a5.693,5.693,0,0,0,5.687-5.687V32.589a16.472,16.472,0,0,0,7.519-.446v6.372a1.563,1.563,0,0,0,3.125,0V30.839A16.43,16.43,0,0,0,98.8,16.415ZM76.453,65.908a2.565,2.565,0,0,1-2.562,2.562H33.038a2.564,2.564,0,0,1-2.561-2.562V9.069a2.564,2.564,0,0,1,2.561-2.561H69.315A16.329,16.329,0,0,0,66,15.722H39.387a1.563,1.563,0,0,0-1.562,1.562v6.6a1.563,1.563,0,0,0,1.563,1.563H67.543a1.556,1.556,0,0,0,.945-.318,16.508,16.508,0,0,0,7.965,6.59ZM65.981,18.847v3.474H40.95V18.847ZM82.392,29.705A13.29,13.29,0,1,1,95.68,16.415,13.3,13.3,0,0,1,82.392,29.705Z" transform="translate(-27.352)"/>
        <g id="Grupo_116033" data-name="Grupo 116033" transform="translate(59.748 43.991)">
          <g id="Grupo_116032" data-name="Grupo 116032">
            <path id="Trazado_173352" data-name="Trazado 173352" d="M411.3,284.663a1.562,1.562,0,1,1,1.522-1.208A1.577,1.577,0,0,1,411.3,284.663Z" transform="translate(-409.742 -281.541)"/>
          </g>
        </g>
      </g>
      <g id="Grupo_116044" data-name="Grupo 116044" transform="translate(10.473 30.88)">
        <g id="Grupo_116043" data-name="Grupo 116043">
          <g id="Grupo_116036" data-name="Grupo 116036">
            <g id="Grupo_116035" data-name="Grupo 116035">
              <path id="Trazado_173353" data-name="Trazado 173353" d="M124.1,200.758H95.94a1.563,1.563,0,0,1,0-3.125H124.1a1.563,1.563,0,1,1,0,3.125Z" transform="translate(-94.377 -197.633)"/>
            </g>
          </g>
          <g id="Grupo_116038" data-name="Grupo 116038" transform="translate(0 7.411)">
            <g id="Grupo_116037" data-name="Grupo 116037">
              <path id="Trazado_173354" data-name="Trazado 173354" d="M124.1,248.188H95.94a1.563,1.563,0,0,1,0-3.125H124.1a1.563,1.563,0,0,1,0,3.125Z" transform="translate(-94.377 -245.063)"/>
            </g>
          </g>
          <g id="Grupo_116040" data-name="Grupo 116040" transform="translate(0 14.822)">
            <g id="Grupo_116039" data-name="Grupo 116039">
              <path id="Trazado_173355" data-name="Trazado 173355" d="M124.1,295.618H95.94a1.563,1.563,0,0,1,0-3.125H124.1a1.563,1.563,0,0,1,0,3.125Z" transform="translate(-94.377 -292.493)"/>
            </g>
          </g>
          <g id="Grupo_116042" data-name="Grupo 116042" transform="translate(0 22.233)">
            <g id="Grupo_116041" data-name="Grupo 116041">
              <path id="Trazado_173356" data-name="Trazado 173356" d="M124.1,343.048H95.94a1.563,1.563,0,0,1,0-3.125H124.1a1.563,1.563,0,0,1,0,3.125Z" transform="translate(-94.377 -339.923)"/>
            </g>
          </g>
        </g>
      </g>
    </g>
  </g>
</svg>
