<svg xmlns="http://www.w3.org/2000/svg" width="80.148" height="80.154" viewBox="0 0 80.148 80.154">
  <g id="Grupo_115986" data-name="Grupo 115986" transform="translate(-1123.633 -496.763)">
    <path id="Trazado_173238" data-name="Trazado 173238" d="M1123.649,528.541V512.578a1.726,1.726,0,0,1,1.635-.8c3.834.032,7.668.006,11.5.026.494,0,.675-.1.649-.63-.047-.963.008-1.93-.021-2.894a1.666,1.666,0,0,1,.531-1.319q4.851-4.831,9.683-9.681a1.641,1.641,0,0,1,1.245-.519q19.835.014,39.67.009c1.035,0,1.462.431,1.465,1.469,0,1.748.031,3.5-.014,5.242-.016.623.1.826.783.819,3.859-.039,7.72-.022,11.58-.017.982,0,1.422.444,1.423,1.431q.006,7.316,0,14.632c0,1.031-.434,1.461-1.471,1.463-2.452,0-4.9.012-7.355-.008a1.352,1.352,0,0,0-1.087.44c-1.308,1.347-2.652,2.659-3.974,3.992a1.665,1.665,0,0,1-1.134.611c-.989-.246-1.25-.568-1.253-1.565,0-.939-.04-1.88.014-2.816.033-.576-.173-.668-.7-.665-4.669.021-9.338.014-14.007.012-1.167,0-1.586-.426-1.587-1.6q0-7.121,0-14.241c0-1.288.39-1.682,1.664-1.683,4.643,0,9.286-.009,13.928.012.521,0,.723-.086.7-.663-.05-1.224-.043-2.452,0-3.677.018-.531-.1-.695-.668-.694q-18.115.028-36.23,0c-.534,0-.7.107-.691.671.034,2.582.016,5.164.014,7.747,0,1.178-.423,1.609-1.582,1.611q-3.4,0-6.808,0c-1.627,0-1.6,0-1.642,1.664-.018.651.1.869.824.861,3.756-.046,7.512-.022,11.268-.021,1.319,0,1.7.385,1.7,1.73q0,3.873,0,7.747V524.3a20.908,20.908,0,0,1,5.953-2.065c.32-.055.311-.285.309-.531-.006-.861,0-1.721,0-2.582,0-1.053,0-1.07-1.047-1.062a1.3,1.3,0,0,1-1.371-.815,1.283,1.283,0,0,1,.41-1.476c1.571-1.564,3.131-3.139,4.706-4.7a1.286,1.286,0,0,1,2.1-.016c1.577,1.558,3.137,3.133,4.706,4.7a1.293,1.293,0,0,1-1,2.3c-.156-.009-.315.015-.469,0-.392-.05-.544.075-.531.5.033,1.042.028,2.087,0,3.129-.01.4.149.523.521.6a21.219,21.219,0,0,1,16.745,24.123,20.84,20.84,0,0,1-3.673,9.007c-.162.229-.367.4-.042.7.836.786,1.634,1.611,2.438,2.43.2.2.317.23.573.033.893-.689,1.331-.64,2.148.183.407.41.786.848,1.177,1.273l.154-.133V529.4c0-1.288,0-1.288,1.254-1.353a1.673,1.673,0,0,0,.388.022c.707-.124.92.151.879.865-.065,1.144.019,2.3-.033,3.441-.027.587.134.726.72.722,3.86-.03,7.72-.017,11.58-.014,1.048,0,1.485.423,1.486,1.447q.005,7.316,0,14.632c0,1.022-.44,1.444-1.487,1.448-1.226,0-2.452.02-3.677-.01a1.177,1.177,0,0,0-.948.4c-1.353,1.376-2.729,2.73-4.084,4.1a1.343,1.343,0,0,1-1.541.434,1.273,1.273,0,0,1-.789-1.381c.028-.964-.014-1.931.017-2.895.015-.468-.058-.672-.613-.675-.577,0-.664.188-.661.708q.035,5.281,0,10.563a1.619,1.619,0,0,0,.548,1.28c2.155,2.123,4.291,4.266,6.427,6.408.7.7.794,1.377.194,1.982-1.792,1.811-3.62,3.587-5.434,5.376h-.939c-.32-.3-.651-.58-.96-.888q-3.1-3.092-6.2-6.193a1.115,1.115,0,0,0-.848-.442q-15.527.021-31.054,0c-.458,0-.553.143-.548.57.023,1.747-.021,3.495.024,5.24a1.754,1.754,0,0,1-.8,1.712q-13.068,0-26.136.015c-.536,0-.645-.1-.641-.641.027-4.539.016-9.077.016-13.616a1.713,1.713,0,0,1,1.634-.8c2.4.04,4.8,0,7.2.025a1.35,1.35,0,0,0,1.086-.442c1.307-1.347,2.651-2.658,3.973-3.991a1.648,1.648,0,0,1,1.133-.61c.988.245,1.25.568,1.254,1.565,0,.939.04,1.88-.014,2.816-.033.575.171.67.7.666,3.025-.026,6.05-.015,9.075-.011,1.062,0,1.5.452,1.51,1.522,0,.887.052,1.777-.015,2.659-.053.69.152.846.839.844q13.887-.04,27.774-.018h.993c-.633-.6-1.13-1.045-1.589-1.521a1.2,1.2,0,0,1-.082-1.861c.342-.375.193-.538-.078-.8-.712-.689-1.427-1.377-2.1-2.107-.34-.371-.553-.416-1-.106a20.8,20.8,0,0,1-16.617,3.44,21.27,21.27,0,0,1-12.344-33.962c.147-.185.4-.329.376-.643-2.31,0-4.6.015-6.9-.012-.479-.006-.546.174-.535.585.026.964.011,1.93.007,2.895,0,1-.266,1.319-1.254,1.566a1.666,1.666,0,0,1-1.133-.61c-1.322-1.333-2.665-2.644-3.973-3.991a1.351,1.351,0,0,0-1.086-.442c-2.4.021-4.8-.015-7.2.025A1.719,1.719,0,0,1,1123.649,528.541Zm40.163,33.338a11.549,11.549,0,0,0,2.578-.185,18.683,18.683,0,0,0,15.889-21.132c-1.157-7.812-5.743-12.965-13.259-15.449-1.535-.507-1.55-.462-1.55,1.114a2.117,2.117,0,0,1,0,.391c-.1.52.152.7.632.831a16.258,16.258,0,1,1-9.792.3c.548-.193,1.342-.116,1.59-.628.236-.487.032-1.177.071-1.774.033-.5-.084-.61-.6-.491a18.765,18.765,0,0,0,4.449,37.029Zm-26.394-31.8c0-.687,0-1.15,0-1.614,0-1.23.412-1.648,1.619-1.649l10.328,0a1.683,1.683,0,0,0,1.829-1.772c0-3.338-.012-6.677.012-10.015,0-.543-.072-.748-.7-.746q-11.854.041-23.708.01c-.487,0-.66.092-.656.627q.038,5.633,0,11.267c0,.512.133.648.643.641,2.164-.029,4.33.006,6.494-.023a1.982,1.982,0,0,1,1.584.67C1135.649,528.309,1136.465,529.114,1137.417,530.083ZM1190,522.606c.989-1.01,1.818-1.837,2.622-2.687a1.83,1.83,0,0,1,1.449-.611c2.164.023,4.329-.017,6.493.02.59.01.731-.148.727-.731q-.04-5.554.006-11.109c.005-.595-.157-.724-.734-.722q-13.065.032-26.13,0c-.593,0-.728.155-.724.733.028,3.677.034,7.354,0,11.031-.007.675.194.8.823.794,4.641-.028,9.284-.016,13.925-.014,1.122,0,1.54.428,1.545,1.562C1190,521.365,1190,521.854,1190,522.606Zm-52.582,38.758-.2-.127c-.807.845-1.621,1.683-2.417,2.539a1.817,1.817,0,0,1-1.451.606c-2.188-.021-4.377.014-6.566-.013-.522-.006-.644.154-.641.655q.03,4.377-.011,8.755c-.005.523.156.64.654.638q10.631-.028,21.263-.009c.5,0,.658-.121.653-.641-.025-2.892-.031-5.785,0-8.677.007-.6-.161-.728-.735-.722-3.022.03-6.045.017-9.068.012-1.031,0-1.469-.444-1.479-1.468C1137.416,562.4,1137.421,561.879,1137.421,561.363Zm22.537-21.1q0-2.62,0-5.24c0-1.538-.017-3.076.005-4.614.007-.451-.123-.565-.53-.386-.165.073-.34.124-.51.187a13.723,13.723,0,0,0-8.8,15.106,14.043,14.043,0,0,0,1.79,4.865c.43.742,1.062.408,1.586.388.393-.015.183-.513.188-.783.025-1.381.012-2.763.012-4.145,0-1.217,0-1.217-1.218-1.291a1.2,1.2,0,0,1-1.192-1.656c.8-1.74,1.657-3.461,2.567-5.147a1.216,1.216,0,0,1,2.173-.022c.917,1.683,1.761,3.408,2.573,5.145a1.2,1.2,0,0,1-1.078,1.674,3.51,3.51,0,0,1-.781,0c-.462-.059-.554.144-.549.569.022,1.72.026,3.441,0,5.161-.008.465.156.56.577.545a21.859,21.859,0,0,1,2.5.007c.63.05.705-.2.7-.744C1159.945,546.675,1159.958,543.468,1159.958,540.261Zm33.805,10.864.2.115c.828-.862,1.66-1.72,2.483-2.587a1.649,1.649,0,0,1,1.317-.546c.989.024,1.979-.012,2.969,0,.372.006.557-.051.555-.5q-.021-5.783.007-11.565c0-.381-.125-.481-.491-.479q-5.157.022-10.315.009c-.375,0-.486.116-.485.488q.017,5.783,0,11.565c0,.381.125.494.493.48.65-.024,1.3-.019,1.953,0a1.22,1.22,0,0,1,1.314,1.316C1193.776,549.99,1193.763,550.558,1193.763,551.125Zm-32.034-35.487a1.536,1.536,0,0,1,.745,1.559q-.016,15.882-.007,31.765c0,1.64,0,1.6,1.652,1.648.68.019.85-.146.848-.841q-.038-16.234-.023-32.469c0-.679.07-1.294.665-1.632-.613-.653-1.167-1.742-1.876-1.854-.676-.107-1.258,1.079-1.907,1.669A.754.754,0,0,0,1161.729,515.638Zm5.743,14.25v3.661c0,5.452.009,10.9-.018,16.355,0,.592.145.757.728.718a19.01,19.01,0,0,1,2.424,0c.535.033.635-.162.631-.653-.023-2.739-.011-5.477-.011-8.216,0-1.123,0-1.123-1.116-1.16a1.243,1.243,0,0,1-1.215-1.863c.769-1.615,1.578-3.212,2.39-4.806a1.188,1.188,0,0,1,1.314-.747c.128.021.267.108.333-.045a.313.313,0,0,0-.1-.352A13.361,13.361,0,0,0,1167.473,529.888Zm-13.015,23.264c5.741,5.374,14.349,4.313,18.394,0Zm33.043,10.6c-.146.134-.262.233-.37.341-.812.81-1.609,1.636-2.44,2.425-.311.3-.264.462.016.74q3.112,3.081,6.192,6.194c.3.308.469.262.74-.019.795-.826,1.6-1.642,2.434-2.432.31-.295.266-.462-.015-.74-2.075-2.053-4.135-4.123-6.2-6.186C1187.75,563.973,1187.634,563.877,1187.5,563.756Zm-13.7-30.009a.883.883,0,0,0,.171.73c.663,1.349,1.346,2.688,2,4.039.6,1.225.078,2.064-1.268,2.077a4.259,4.259,0,0,1-.547,0c-.35-.042-.437.106-.436.442.011,3.052.005,6.1.01,9.155,0,.161-.072.346.2.426a1.461,1.461,0,0,0,1.691-.65,13.747,13.747,0,0,0-1.828-16.214Zm-32-26.969c1.817,0,3.5-.013,5.189.009.432.006.445-.211.441-.531-.01-1.042,0-2.084,0-3.126v-1.964Zm43.319,54.339c-.206.158-.292.209-.361.278-.919.915-1.832,1.837-2.755,2.749-.366.362.061.472.2.67.213.307.4.2.619-.024.855-.87,1.724-1.726,2.581-2.593.114-.115.335-.218.183-.444S1185.283,561.337,1185.121,561.116Zm-5.993-3.214c-.17.16-.346.307-.5.474-.212.23.063.314.163.417.689.707,1.4,1.4,2.088,2.1.22.225.372.375.677.065.279-.284.233-.433-.024-.679-.712-.684-1.4-1.392-2.1-2.09C1179.343,558.1,1179.246,558.013,1179.128,557.9Zm-6.192-19.835c-.188-.279-.191-.614-.526-.791l-.36.791Zm-17.984,2.871a2.264,2.264,0,0,0-.385.88h.831Z" fill="#060708"/>
    <path id="Trazado_173239" data-name="Trazado 173239" d="M1220.432,531.708v1.2c-1.254.065-1.254.065-1.254,1.353v30.507l-.154.133c-.391-.425-.77-.863-1.177-1.273-.817-.823-1.255-.871-2.148-.183-.256.2-.375.167-.573-.033-.8-.819-1.6-1.644-2.438-2.43-.324-.3-.12-.475.042-.7a21.265,21.265,0,0,0-.354-25.125,20.612,20.612,0,0,0-12.718-8c-.372-.077-.531-.2-.521-.6.026-1.043.031-2.087,0-3.129-.014-.429.138-.554.531-.5.154.019.313,0,.469,0a1.293,1.293,0,0,0,1-2.3c-1.569-1.566-3.129-3.142-4.706-4.7a1.286,1.286,0,0,0-2.1.016c-1.575,1.56-3.135,3.135-4.706,4.7a1.283,1.283,0,0,0-.41,1.476,1.3,1.3,0,0,0,1.371.815c1.047-.008,1.047.009,1.047,1.062,0,.861,0,1.721,0,2.582,0,.245.011.475-.309.531a20.911,20.911,0,0,0-5.953,2.065v-3.031q0-3.873,0-7.747c0-1.345-.377-1.73-1.7-1.73-3.756,0-7.512-.024-11.268.021-.723.008-.842-.209-.824-.861.046-1.663.015-1.664,1.642-1.664q3.4,0,6.808,0c1.158,0,1.581-.432,1.582-1.611,0-2.582.02-5.165-.014-7.747-.008-.563.157-.671.691-.671q18.115.024,36.23,0c.568,0,.686.164.668.694-.041,1.225-.047,2.453,0,3.677.023.577-.178.665-.7.663-4.643-.021-9.286-.013-13.928-.012-1.273,0-1.663.395-1.664,1.683q0,7.121,0,14.241c0,1.178.42,1.6,1.587,1.6,4.669,0,9.338.009,14.007-.012.524,0,.73.09.7.665-.053.936-.017,1.877-.014,2.816C1219.182,531.14,1219.443,531.462,1220.432,531.708Zm-28.172-17.555h6.336c1.81,0,1.782,0,1.818-1.8.012-.592-.146-.722-.725-.718-4.563.026-9.125.015-13.689.015-1.9,0-1.882,0-1.893,1.879,0,.516.139.643.645.637C1187.254,514.139,1189.757,514.153,1192.26,514.153Zm2.5-7.513h-3.754c-1.9,0-1.882,0-1.893,1.878,0,.514.136.642.643.638,2.919-.025,5.839-.012,8.759-.012,1.931,0,1.916,0,1.891-1.957-.005-.443-.124-.564-.563-.558C1198.152,506.655,1196.457,506.641,1194.762,506.641Zm-8.137,1.3c0-1.3,0-1.3-1.279-1.3-1.226,0-1.226,0-1.226,1.2,0,1.3,0,1.3,1.279,1.3C1186.625,509.145,1186.625,509.145,1186.625,507.944Z" transform="translate(-31.675 -4.862)" fill="#fff"/>
    <path id="Trazado_173240" data-name="Trazado 173240" d="M1167.939,598.907v-1.2c.988-.247,1.25-.57,1.253-1.566,0-.965.019-1.93-.007-2.895-.011-.41.056-.591.535-.585,2.294.026,4.588.012,6.9.012.022.315-.229.458-.376.643a21.27,21.27,0,0,0,12.344,33.962,20.8,20.8,0,0,0,16.617-3.44c.448-.31.661-.265,1,.106.669.73,1.384,1.418,2.1,2.107.271.262.421.425.078.8a1.2,1.2,0,0,0,.083,1.861c.46.477.956.918,1.589,1.521h-.993q-13.887,0-27.774.018c-.687,0-.892-.154-.839-.843.068-.881.02-1.772.015-2.659-.005-1.07-.448-1.521-1.51-1.522-3.025,0-6.05-.015-9.075.011-.526,0-.729-.091-.7-.666.053-.936.017-1.877.014-2.816,0-1-.265-1.32-1.253-1.565v-1.2a1.235,1.235,0,0,1,.31-.022c.763.138.972-.135.967-.933-.04-5.928-.022-11.856-.022-17.784C1169.193,598.973,1169.193,598.973,1167.939,598.907Z" transform="translate(-29.268 -63.349)" fill="#ecebeb"/>
    <path id="Trazado_173241" data-name="Trazado 173241" d="M1205.193,616.46a18.765,18.765,0,0,1-4.449-37.029c.52-.118.636-.006.6.491-.039.6.166,1.287-.071,1.774-.248.511-1.042.434-1.59.628a16.3,16.3,0,1,0,9.792-.3c-.48-.133-.731-.311-.632-.831a2.117,2.117,0,0,0,0-.391c0-1.576.015-1.621,1.55-1.114,7.517,2.484,12.1,7.638,13.259,15.449a18.683,18.683,0,0,1-15.889,21.132A11.549,11.549,0,0,1,1205.193,616.46Z" transform="translate(-41.381 -54.581)" fill="#b2b2b1"/>
    <path id="Trazado_173242" data-name="Trazado 173242" d="M1142.3,564.18c-.952-.969-1.768-1.774-2.552-2.608a1.982,1.982,0,0,0-1.584-.67c-2.164.03-4.329-.005-6.494.023-.51.007-.646-.129-.643-.641q.034-5.633,0-11.267c0-.535.17-.628.656-.627q11.854.02,23.708-.01c.627,0,.7.2.7.746-.024,3.338-.012,6.677-.012,10.015a1.683,1.683,0,0,1-1.829,1.772l-10.328,0c-1.207,0-1.617.419-1.619,1.649C1142.3,563.03,1142.3,563.493,1142.3,564.18Zm1.176-5.767h8.291c1.815,0,1.787,0,1.822-1.8.011-.592-.148-.722-.727-.719-5.814.023-11.628.014-17.442.014-1.91,0-1.888,0-1.9,1.878,0,.516.142.642.647.638C1137.273,558.4,1140.376,558.413,1143.478,558.413Zm2.5-5.008h5.786c1.815,0,1.787,0,1.822-1.8.011-.589-.144-.725-.725-.721-4.144.028-8.288.015-12.432.015-1.908,0-1.887,0-1.9,1.877,0,.514.136.646.644.64C1141.448,553.389,1143.716,553.405,1145.983,553.405Zm-9.937-1.214c0-1.29,0-1.29-1.294-1.29-1.214,0-1.214,0-1.214,1.214,0,1.29,0,1.29,1.294,1.29C1136.046,553.405,1136.046,553.405,1136.046,552.191Z" transform="translate(-4.885 -34.098)" fill="#6677d6"/>
    <path id="Trazado_173243" data-name="Trazado 173243" d="M1287.462,542.071c0-.751,0-1.241,0-1.73-.005-1.134-.423-1.562-1.545-1.562-4.642,0-9.284-.014-13.925.014-.63,0-.83-.12-.823-.794.038-3.677.031-7.354,0-11.031,0-.578.131-.734.724-.733q13.065.029,26.13,0c.576,0,.739.128.733.722q-.048,5.555-.006,11.109c0,.583-.137.741-.727.731-2.164-.037-4.329,0-6.493-.02a1.83,1.83,0,0,0-1.449.611C1289.28,540.234,1288.451,541.061,1287.462,542.071Zm1.247-9.583a3.746,3.746,0,1,0-3.679,3.772A3.752,3.752,0,0,0,1288.709,532.488Zm4.959,3.772a3.747,3.747,0,1,0-3.687-3.762A3.754,3.754,0,0,0,1293.667,536.259Zm-13.723-3.727a3.749,3.749,0,1,0-3.808,3.726A3.741,3.741,0,0,0,1279.944,532.532Z" transform="translate(-97.46 -19.466)" fill="#c6412a"/>
    <path id="Trazado_173244" data-name="Trazado 173244" d="M1142.282,686.845c0,.516,0,1.033,0,1.549.01,1.024.449,1.466,1.479,1.468,3.023.005,6.046.018,9.068-.012.575-.006.743.126.735.722-.034,2.892-.029,5.785,0,8.677,0,.521-.152.642-.653.641q-10.631-.019-21.263.009c-.5,0-.659-.115-.654-.638q.044-4.377.011-8.755c0-.5.118-.661.641-.655,2.188.027,4.377-.009,6.566.013a1.817,1.817,0,0,0,1.451-.606c.8-.856,1.61-1.694,2.417-2.539Zm2.546,6.783H1140.3c-1.772,0-1.745,0-1.776,1.771-.01.581.134.735.724.73,3.307-.032,6.615-.015,9.923-.015,1.921,0,1.9,0,1.893-1.889,0-.477-.12-.617-.607-.609C1148.579,693.646,1146.7,693.628,1144.828,693.628Zm-10.077,0c-1.224,0-1.224,0-1.224.893,0,1.593,0,1.593.912,1.593,1.574,0,1.574,0,1.574-.931C1136.014,693.628,1136.014,693.628,1134.751,693.628Z" transform="translate(-4.862 -125.482)" fill="#ffef0f"/>
    <path id="Trazado_173245" data-name="Trazado 173245" d="M1211.17,604.832c0,3.207-.013,6.414.012,9.62,0,.545-.071.793-.7.744a21.887,21.887,0,0,0-2.5-.007c-.422.015-.585-.08-.577-.545.028-1.72.024-3.441,0-5.161-.005-.425.087-.628.549-.569a3.514,3.514,0,0,0,.781,0,1.2,1.2,0,0,0,1.078-1.674c-.812-1.737-1.656-3.462-2.573-5.145a1.216,1.216,0,0,0-2.173.022c-.911,1.687-1.763,3.407-2.567,5.147a1.2,1.2,0,0,0,1.192,1.656c1.218.074,1.218.074,1.218,1.291,0,1.381.014,2.763-.012,4.145,0,.269.205.767-.188.783-.524.02-1.156.354-1.586-.388a14.046,14.046,0,0,1-1.79-4.865,13.723,13.723,0,0,1,8.8-15.106c.17-.063.344-.114.51-.187.407-.179.537-.065.53.386-.022,1.538-.006,3.076-.005,4.614Q1211.171,602.212,1211.17,604.832Z" transform="translate(-51.212 -64.571)" fill="#6677d6"/>
    <path id="Trazado_173246" data-name="Trazado 173246" d="M1322.931,626.651c0-.567.013-1.135,0-1.7a1.22,1.22,0,0,0-1.314-1.316c-.651-.016-1.3-.021-1.953,0-.368.014-.494-.1-.492-.48q.018-5.783,0-11.565c0-.372.11-.489.485-.488q5.157.014,10.315-.009c.366,0,.493.1.491.479q-.023,5.783-.007,11.565c0,.447-.183.5-.555.5-.99-.016-1.98.019-2.969,0a1.649,1.649,0,0,0-1.317.546c-.822.867-1.655,1.726-2.483,2.587Zm1.232-10.542h1.874c1.961,0,1.943,0,1.906-1.949-.009-.465-.168-.551-.585-.545-1.691.02-3.383.008-5.075.008-1.905,0-1.883,0-1.871,1.91,0,.512.178.6.629.585C1322.08,616.088,1323.122,616.109,1324.163,616.109Zm.05,2.522h-1.952c-1.9,0-1.88,0-1.846,1.932.008.444.128.57.57.563,1.691-.024,3.383-.01,5.075-.01,1.95,0,1.936,0,1.882-1.971-.011-.409-.117-.534-.528-.524C1326.347,618.649,1325.279,618.631,1324.212,618.631Z" transform="translate(-129.168 -75.526)" fill="#ffef0f"/>
    <path id="Trazado_173247" data-name="Trazado 173247" d="M1235.875,548.813a.759.759,0,0,1,.1-.154c.649-.59,1.231-1.776,1.907-1.669.709.112,1.263,1.2,1.876,1.854-.595.338-.665.953-.665,1.632q.011,16.234.023,32.469c0,.7-.168.86-.848.841-1.651-.047-1.652-.008-1.652-1.648q0-15.883.007-31.765A1.536,1.536,0,0,0,1235.875,548.813Z" transform="translate(-74.146 -33.175)" fill="#6677d6"/>
    <path id="Trazado_173248" data-name="Trazado 173248" d="M1252.761,594.359a13.36,13.36,0,0,1,5.354,2.89.313.313,0,0,1,.1.352c-.066.153-.2.067-.333.045a1.189,1.189,0,0,0-1.314.747c-.812,1.594-1.621,3.19-2.39,4.806a1.243,1.243,0,0,0,1.215,1.863c1.116.037,1.116.037,1.116,1.16,0,2.739-.012,5.478.011,8.217,0,.491-.1.686-.631.653a19.008,19.008,0,0,0-2.424,0c-.583.039-.73-.126-.728-.718.027-5.451.017-10.9.018-16.355Z" transform="translate(-85.289 -64.471)" fill="#6fc8f3"/>
    <path id="Trazado_173249" data-name="Trazado 173249" d="M1214.45,662.9h18.394C1228.8,667.212,1220.191,668.274,1214.45,662.9Z" transform="translate(-59.993 -109.747)" fill="#c59175"/>
    <path id="Trazado_173250" data-name="Trazado 173250" d="M1305.918,694.142c.133.121.249.217.356.323,2.066,2.063,4.125,4.132,6.2,6.186.281.278.325.445.015.74-.831.789-1.639,1.605-2.434,2.432-.271.282-.436.327-.74.019q-3.075-3.117-6.192-6.194c-.28-.277-.328-.444-.016-.74.832-.789,1.628-1.615,2.44-2.425C1305.656,694.375,1305.772,694.276,1305.918,694.142Z" transform="translate(-118.417 -130.386)" fill="#4e2e8e"/>
    <path id="Trazado_173251" data-name="Trazado 173251" d="M1271.288,605.728a13.747,13.747,0,0,1,1.828,16.214,1.461,1.461,0,0,1-1.691.65c-.275-.08-.2-.266-.2-.426,0-3.052,0-6.1-.01-9.155,0-.336.086-.484.436-.442a4.259,4.259,0,0,0,.547,0c1.346-.013,1.866-.852,1.268-2.077-.659-1.351-1.342-2.69-2.005-4.039A.884.884,0,0,1,1271.288,605.728Z" transform="translate(-97.489 -71.981)" fill="#6677d6"/>
    <path id="Trazado_173252" data-name="Trazado 173252" d="M1177.163,515.348l5.626-5.611V511.7c0,1.042-.006,2.084,0,3.126,0,.32-.01.537-.441.531C1180.666,515.335,1178.979,515.348,1177.163,515.348Z" transform="translate(-35.361 -8.57)" fill="#4e2e8e"/>
    <path id="Trazado_173253" data-name="Trazado 173253" d="M1298.448,686.365c.162.221.322.423.465.636s-.069.329-.183.444c-.857.868-1.726,1.723-2.581,2.593-.217.22-.406.331-.619.024-.137-.2-.564-.308-.2-.67.922-.912,1.836-1.834,2.755-2.749C1298.156,686.574,1298.241,686.523,1298.448,686.365Z" transform="translate(-113.327 -125.249)" fill="#b2b2b1"/>
    <path id="Trazado_173254" data-name="Trazado 173254" d="M1286.01,676.9c.118.11.214.2.306.287.7.7,1.386,1.407,2.1,2.09.256.246.3.394.024.679-.305.311-.457.161-.677-.065-.691-.705-1.4-1.394-2.088-2.1-.1-.1-.375-.187-.163-.417C1285.664,677.2,1285.84,677.055,1286.01,676.9Z" transform="translate(-106.882 -118.993)" fill="#c59175"/>
    <path id="Trazado_173255" data-name="Trazado 173255" d="M1267.167,616.917h-.886l.36-.791C1266.976,616.3,1266.979,616.638,1267.167,616.917Z" transform="translate(-94.231 -78.85)" fill="#6fc8f3"/>
    <path id="Trazado_173256" data-name="Trazado 173256" d="M1215.157,626.915l.446.88h-.831A2.264,2.264,0,0,1,1215.157,626.915Z" transform="translate(-60.205 -85.977)" fill="#6fc8f3"/>
    <path id="Trazado_173257" data-name="Trazado 173257" d="M1165.505,611.063c1.254.065,1.254.065,1.254,1.345,0,5.928-.018,11.856.022,17.784.005.8-.2,1.071-.967.933a1.236,1.236,0,0,0-.31.022c-1.25-.065-1.25-.065-1.25-1.346V612.41C1164.255,611.128,1164.255,611.128,1165.505,611.063Z" transform="translate(-26.834 -75.505)" fill="#060708"/>
    <path id="Trazado_173258" data-name="Trazado 173258" d="M1216.635,528.772c-2.5,0-5.006-.014-7.509.012-.506.005-.648-.122-.645-.637.011-1.879-.01-1.879,1.893-1.879,4.563,0,9.126.012,13.689-.015.579,0,.737.127.725.718-.036,1.8-.007,1.8-1.818,1.8Z" transform="translate(-56.05 -19.481)" fill="#060708"/>
    <path id="Trazado_173259" data-name="Trazado 173259" d="M1228.884,511.521c1.695,0,3.389.015,5.084-.01.439-.006.558.114.563.558.024,1.957.04,1.957-1.891,1.957-2.92,0-5.84-.013-8.759.012-.507,0-.647-.124-.643-.638.011-1.878-.01-1.878,1.893-1.878Z" transform="translate(-65.797 -9.742)" fill="#060708"/>
    <path id="Trazado_173260" data-name="Trazado 173260" d="M1211.026,512.845c0,1.2,0,1.2-1.226,1.2-1.279,0-1.279,0-1.279-1.3,0-1.2,0-1.2,1.226-1.2C1211.026,511.541,1211.026,511.541,1211.026,512.845Z" transform="translate(-56.077 -9.762)" fill="#060708"/>
    <path id="Trazado_173261" data-name="Trazado 173261" d="M1148.336,573.039c-3.1,0-6.2-.012-9.307.012-.5,0-.649-.122-.647-.638.01-1.878-.011-1.878,1.9-1.878,5.814,0,11.628.009,17.442-.014.579,0,.738.127.727.719-.035,1.8-.006,1.8-1.822,1.8Z" transform="translate(-9.743 -48.723)" fill="#060708"/>
    <path id="Trazado_173262" data-name="Trazado 173262" d="M1160.6,558.283c-2.267,0-4.535-.016-6.8.012-.508.006-.647-.126-.644-.64.01-1.876-.011-1.877,1.9-1.877,4.144,0,8.288.013,12.432-.015.581,0,.737.132.725.721-.035,1.8-.006,1.8-1.822,1.8Z" transform="translate(-19.499 -38.975)" fill="#060708"/>
    <path id="Trazado_173263" data-name="Trazado 173263" d="M1140.931,557.1c0,1.214,0,1.214-1.214,1.214-1.294,0-1.294,0-1.294-1.29,0-1.214,0-1.214,1.214-1.214C1140.931,555.807,1140.931,555.807,1140.931,557.1Z" transform="translate(-9.77 -39.004)" fill="#060708"/>
    <path id="Trazado_173264" data-name="Trazado 173264" d="M1308.266,537.424a3.746,3.746,0,1,1-3.812-3.721A3.747,3.747,0,0,1,1308.266,537.424Zm-2.5.013a1.244,1.244,0,1,0-1.233,1.256A1.279,1.279,0,0,0,1305.762,537.437Z" transform="translate(-117.016 -24.402)" fill="#060708"/>
    <path id="Trazado_173265" data-name="Trazado 173265" d="M1330.281,541.2a3.747,3.747,0,1,1,3.8-3.729A3.746,3.746,0,0,1,1330.281,541.2Zm1.3-3.72a1.244,1.244,0,1,0-1.27,1.217A1.276,1.276,0,0,0,1331.583,537.476Z" transform="translate(-134.073 -24.402)" fill="#060708"/>
    <path id="Trazado_173266" data-name="Trazado 173266" d="M1282.434,537.468a3.749,3.749,0,1,1-3.683-3.766A3.756,3.756,0,0,1,1282.434,537.468Zm-2.5-.006a1.244,1.244,0,1,0-1.258,1.231A1.278,1.278,0,0,0,1279.93,537.461Z" transform="translate(-99.949 -24.401)" fill="#060708"/>
    <path id="Trazado_173267" data-name="Trazado 173267" d="M1159.478,707.053c1.875,0,3.75.018,5.625-.012.487-.008.6.132.606.609.01,1.889.028,1.889-1.893,1.889-3.308,0-6.615-.016-9.923.015-.59.006-.734-.149-.724-.73.031-1.771,0-1.771,1.776-1.771Z" transform="translate(-19.512 -138.907)" fill="#060708"/>
    <path id="Trazado_173268" data-name="Trazado 173268" d="M1139.685,707.077c1.263,0,1.263,0,1.262,1.555,0,.932,0,.932-1.574.931-.912,0-.912,0-.912-1.593C1138.461,707.077,1138.461,707.077,1139.685,707.077Z" transform="translate(-9.795 -138.931)" fill="#060708"/>
    <path id="Trazado_173269" data-name="Trazado 173269" d="M1326.579,621.014c-1.041,0-2.083-.02-3.123.009-.451.013-.626-.073-.629-.585-.011-1.91-.034-1.91,1.871-1.91,1.692,0,3.383.012,5.075-.008.417-.005.577.08.585.545.037,1.949.055,1.949-1.906,1.949Z" transform="translate(-131.584 -80.431)" fill="#060708"/>
    <path id="Trazado_173270" data-name="Trazado 173270" d="M1326.622,633.282c1.067,0,2.135.018,3.2-.009.411-.01.517.114.528.524.054,1.971.068,1.971-1.882,1.971-1.692,0-3.384-.015-5.074.01-.442.006-.562-.119-.57-.563-.034-1.933-.05-1.932,1.846-1.932Z" transform="translate(-131.578 -90.176)" fill="#060708"/>
    <path id="Trazado_173271" data-name="Trazado 173271" d="M1310.629,542.3a1.244,1.244,0,1,1-1.255-1.234A1.281,1.281,0,0,1,1310.629,542.3Z" transform="translate(-121.884 -29.267)" fill="#ecebeb"/>
    <path id="Trazado_173272" data-name="Trazado 173272" d="M1336.454,542.346a1.244,1.244,0,1,1-1.217-1.27A1.278,1.278,0,0,1,1336.454,542.346Z" transform="translate(-138.944 -29.272)" fill="#ecebeb"/>
    <path id="Trazado_173273" data-name="Trazado 173273" d="M1284.808,542.327a1.244,1.244,0,1,1-1.23-1.259A1.281,1.281,0,0,1,1284.808,542.327Z" transform="translate(-104.826 -29.267)" fill="#ecebeb"/>
  </g>
</svg>
