<svg xmlns="http://www.w3.org/2000/svg" width="71.833" height="76.089" viewBox="0 0 71.833 76.089">
  <g id="Grupo_115982" data-name="Grupo 115982" transform="translate(-2086.729 -149.909)">
    <path id="Trazado_173134" data-name="Trazado 173134" d="M2109.4,194.935a9.609,9.609,0,0,1-.2,4.171c-.152.4.227.364.4.457a18.289,18.289,0,0,1,4.535,3.418,14.874,14.874,0,0,1,3.78,6.68c.24.948.1,1.273-.789,1.7a1.23,1.23,0,0,1-1.341-1.015c-1.274-4.644-4.394-7.6-8.693-9.476a4.023,4.023,0,0,0-1.725-.333,37.841,37.841,0,0,1-4.231-.011,8.692,8.692,0,0,0-5.623,1.667c-.375.239-.748.484-1.1.754a12.617,12.617,0,0,0-5.333,8.971c-.467,4.764,1.532,8.487,5.2,11.414a1.853,1.853,0,0,0,1.223.426q7.13-.015,14.259,0a1.457,1.457,0,0,0,.95-.312,13.205,13.205,0,0,0,5.192-7.949,1.3,1.3,0,0,1,1.335-1.208c.889.416,1.052.756.86,1.688a15.289,15.289,0,0,1-4.3,7.774h.831q20.427,0,40.855.016c.644,0,.806-.141.8-.8q-.037-14.337-.015-28.674a5.511,5.511,0,0,1,.05-.887,1,1,0,0,1,1.022-.892,1.037,1.037,0,0,1,1.122.771,2.31,2.31,0,0,1,.082.807q0,14.783,0,29.566c0,1.65-.683,2.317-2.352,2.317q-30.2,0-60.391.018a4.853,4.853,0,0,1-3.313-1.189,15.078,15.078,0,0,1-5.632-9.774,14.262,14.262,0,0,1,4.062-12,16.905,16.905,0,0,1,4.665-3.5c.312-.161.369-.282.25-.645a7.868,7.868,0,0,1-.114-3.734,2.291,2.291,0,0,1,1.7-1.867c.369-.116.385-.24.2-.552-.635-1.057-1.248-2.127-1.857-3.2a2.619,2.619,0,0,1,2.37-4.118c.966,0,1.937-.066,2.9.019.8.072.9-.235.9-.936-.022-10.647-.005-21.3-.03-31.943a2.626,2.626,0,0,1,1.27-2.659h54.08a2.519,2.519,0,0,1,1.317,2.49q-.035,17.711-.014,35.422a2.306,2.306,0,0,1-.119,1.022,1.049,1.049,0,0,1-1.113.688,1.026,1.026,0,0,1-.983-.863,5.77,5.77,0,0,1-.06-.96q0-17.377.014-34.754c0-.683-.18-.832-.843-.831q-22.648.03-45.3.017c-.247,0-.494.015-.741.023-1.51-.008-3.021.017-4.529-.041-.613-.023-.709.19-.708.74q.026,11.143.011,22.287c0,3.12.032,6.241-.022,9.36-.014.805.232,1.012.975.927.538-.061,1.089.012,1.633-.017a2.966,2.966,0,0,1,2.609,1.123,2.924,2.924,0,0,1,.017,3.01c-.648,1.094-1.293,2.19-1.948,3.28-.124.207-.169.362.122.43A2.787,2.787,0,0,1,2109.4,194.935Zm-6.824-7.273v0c-1.46,0-2.92-.011-4.38,0-.649.007-.773.219-.46.771.828,1.46,1.681,2.906,2.506,4.368a.638.638,0,0,0,.661.338c1.089-.013,2.178-.019,3.266.007a.741.741,0,0,0,.76-.436c.786-1.4,1.6-2.78,2.4-4.174.385-.676.266-.876-.517-.88C2105.4,187.657,2103.988,187.662,2102.578,187.662Zm-.05,10.588v.021h2.672c2.077,0,2.062,0,2.03-2.112-.009-.568-.184-.779-.777-.77-2.177.032-4.354-.006-6.531.021-2.359.029-2-.451-2.053,2.09-.013.6.246.768.8.758C2099.955,198.234,2101.241,198.25,2102.528,198.25Z" fill="#090b0a"/>
    <path id="Trazado_173135" data-name="Trazado 173135" d="M2161.7,198.842a1.571,1.571,0,0,1,1.362,1.815c.006,2.3.02,4.606-.011,6.908-.007.541.106.72.68.7,1.273-.041,1.274-.006,1.274-1.274q0-4.939,0-9.879c0-1.459.567-2.03,2.007-2.037.668,0,1.337,0,2.005,0,1.4.009,1.943.536,1.945,1.923.007,3.491.015,6.982-.011,10.473,0,.579.079.827.743.8,1.216-.058,1.218-.013,1.218-1.26q0-6.722,0-13.444c0-1.665.462-2.133,2.1-2.134.768,0,1.535-.015,2.3.009a1.424,1.424,0,0,1,1.524,1.4c.068,1.382.045,2.771.023,4.156a1.1,1.1,0,0,1-.946,1.082c-1.012-.136-1.259-.407-1.273-1.441-.011-.791-.044-1.584.011-2.371.042-.607-.271-.622-.712-.6-.4.023-.8-.12-.8.586q.048,6.708,0,13.417c0,.613.284.609.715.586.4-.022.817.129.8-.583-.052-1.728-.024-3.459-.014-5.188.006-1.036.254-1.3,1.27-1.446a1.273,1.273,0,0,1,.976,1.452c-.01,1.733.014,3.467-.014,5.2-.008.458.116.577.573.574,1.386-.007,1.386.016,1.386-1.4q0-8.32,0-16.64c0-1.566.476-2.04,2.028-2.042.718,0,1.436,0,2.154,0a1.592,1.592,0,0,1,1.771,1.727c.021,1.015.005,2.03.005,3.046,0,4.853.014,9.707-.017,14.56,0,.645.185.77.779.746,1.178-.047,1.179-.013,1.179-1.225q0-6.351,0-12.7c0-1.868.408-2.282,2.248-2.282h1.634c1.52,0,2.068.54,2.068,2.038,0,4.482.011,8.964-.013,13.445,0,.572.127.75.718.727,1.231-.047,1.232-.012,1.232-1.238q0-4.308,0-8.617a1.646,1.646,0,0,1,1.851-1.881q1.114-.015,2.229,0a1.642,1.642,0,0,1,1.863,1.868q0,5.126,0,10.251c0,1.285-.561,1.834-1.866,1.834l-40.631,0c-.3,0-.593.015-.889.023-1.451-.078-2.057-.567-2.063-1.737q-.022-4.106,0-8.212a1.571,1.571,0,0,1,1.7-1.708C2159.772,198.832,2160.734,198.844,2161.7,198.842Zm21.416.418c0,2.771.021,5.541-.017,8.311-.008.6.2.673.716.669s.727-.061.724-.668q-.041-8.237,0-16.474c0-.606-.217-.667-.723-.669s-.725.066-.717.668C2183.134,193.818,2183.112,196.539,2183.112,199.26Zm9.34,2.039c0-2.15-.03-4.3.017-6.451.016-.732-.426-.535-.807-.565-.428-.033-.715-.037-.711.58q.046,6.414,0,12.829c0,.645.331.572.728.561s.811.148.792-.576C2192.418,205.551,2192.452,203.425,2192.452,201.3Zm-25.2,1.461c0,1.631.037,3.264-.018,4.893-.023.7.368.583.784.6.439.021.713.011.707-.593q-.05-4.856,0-9.713c.006-.578-.228-.648-.7-.619-.419.027-.813-.079-.792.609C2167.287,199.545,2167.253,201.153,2167.253,202.759Zm33.079.75c0-1.411-.027-2.824.012-4.234.019-.716-.463-.471-.8-.494-.358-.025-.717-.114-.709.514q.051,4.234,0,8.468c-.008.736.479.449.8.477.344.03.73.141.708-.5C2200.3,206.333,2200.332,204.921,2200.332,203.509Zm-40.989,1.1c0,1.013.046,2.03-.016,3.039-.042.691.36.6.781.607s.74.048.726-.58q-.064-3,0-6.005c.013-.635-.326-.588-.736-.571-.376.016-.8-.128-.768.546C2159.38,202.629,2159.343,203.62,2159.343,204.608Z" transform="translate(-49.625 -26.99)" fill="#090b0a"/>
    <path id="Trazado_173136" data-name="Trazado 173136" d="M2122.692,335.277a1.3,1.3,0,0,0-1.335,1.208,13.2,13.2,0,0,1-5.193,7.949,1.456,1.456,0,0,1-.95.312q-7.13-.016-14.259,0a1.854,1.854,0,0,1-1.223-.426c-3.665-2.927-5.663-6.65-5.2-11.414a12.616,12.616,0,0,1,5.333-8.971c.353-.269.726-.514,1.1-.754a8.692,8.692,0,0,1,5.623-1.667,37.845,37.845,0,0,0,4.231.011,4.023,4.023,0,0,1,1.725.333c4.3,1.876,7.419,4.833,8.693,9.476a1.231,1.231,0,0,0,1.341,1.015A11.077,11.077,0,0,1,2122.692,335.277Zm-13.758-6.137v-.006c.792,0,1.585.029,2.376-.009a1.109,1.109,0,0,0-.046-2.215c-.271-.017-.544-.005-.816-.005-1.215,0-1.214,0-1.309-1.176a2.281,2.281,0,0,0-.041-.294,1.025,1.025,0,0,0-1.022-.9,1.041,1.041,0,0,0-1.12.777,2.654,2.654,0,0,0-.074,1.03c.019.379-.05.543-.5.585a3.416,3.416,0,0,0,.308,6.816c.842.015,1.684-.008,2.525.011a1.184,1.184,0,1,1,.009,2.365c-1.386.017-2.772,0-4.158.007-.873,0-1.36.409-1.369,1.112-.01.724.451,1.113,1.333,1.124.173,0,.346,0,.52,0,1.21,0,1.209,0,1.336,1.224a1.834,1.834,0,0,0,.076.361,1.025,1.025,0,0,0,1.114.782.994.994,0,0,0,1.02-.89,4.464,4.464,0,0,0,.047-.961c-.017-.366.092-.5.488-.54a3.418,3.418,0,0,0,3.111-3.525,3.462,3.462,0,0,0-3.518-3.3c-.817-.006-1.634.018-2.45-.009a1.183,1.183,0,1,1,.012-2.365C2107.5,329.125,2108.217,329.14,2108.935,329.14Z" transform="translate(-5.457 -120.987)" fill="#6677d6"/>
    <path id="Trazado_173137" data-name="Trazado 173137" d="M2247.875,301.132c-4.424-.224-7.776-2.211-9.563-6.315s-1.036-7.92,1.862-11.31c.712-.833,1.2-.877,2.007-.16.317.282.456.087.667-.055a8.887,8.887,0,0,1,13.71,5.324c.141.6.229.913.96.95.68.034.924.659.881,1.328a10.409,10.409,0,0,1-6.2,9.3A9.6,9.6,0,0,1,2247.875,301.132Zm-8.229-10.5a11.954,11.954,0,0,0,.085,1.258,8.264,8.264,0,0,0,16.234.522c.122-.509.065-.685-.512-.678-2.376.029-4.752,0-7.128.023a1.927,1.927,0,0,1-1.5-.628c-1.649-1.676-3.342-3.309-4.974-5-.488-.506-.676-.368-.976.145A8.323,8.323,0,0,0,2239.646,290.632Zm11.292-1.116c1.28,0,2.147-.022,3.013.009.437.015.495-.149.417-.524-.876-4.207-6.371-6.464-9.921-4.08-.313.21-.344.338-.071.6a20.424,20.424,0,0,1,1.879,1.9C2247.58,289.08,2249.125,290.1,2250.938,289.516Z" transform="translate(-106.215 -92.954)" fill="#090b0a"/>
    <path id="Trazado_173138" data-name="Trazado 173138" d="M2153.76,177.141c-.961,0-1.923-.01-2.884.009a1.571,1.571,0,0,0-1.7,1.708q-.019,4.106,0,8.212c.006,1.17.612,1.659,2.063,1.737a7.126,7.126,0,0,0-.143,2.226c-.023.265-.022.532-.031.8a2.966,2.966,0,0,0-2.609-1.123c-.543.029-1.095-.044-1.633.017-.743.084-.989-.122-.975-.927.054-3.119.022-6.24.022-9.36q0-11.143-.011-22.287c0-.55.095-.764.708-.74,1.508.057,3.019.032,4.529.041,0,.767.034,1.537-.013,2.3-.037.607.15.809.782.8,3.417-.029,6.833-.016,10.25-.009.289,0,.6-.088.864.111-.271.006-.543.019-.815.019q-5.826,0-11.652,0c-.786,0-1.224.4-1.245,1.063-.022.682.455,1.134,1.238,1.172l.591.028q0,6.535,0,13.071c0,1.02,0,1,1.058,1.027A4.078,4.078,0,0,1,2153.76,177.141Z" transform="translate(-41.689 -5.289)" fill="#fdebd1"/>
    <path id="Trazado_173139" data-name="Trazado 173139" d="M2218.845,360.363c3.934,0,7.868-.006,11.8,0a3.449,3.449,0,1,1,.286,6.884c-3.76.015-7.521,0-11.282,0-4.3,0-8.609.01-12.914-.006a3.443,3.443,0,0,1-.939-6.742,4.882,4.882,0,0,1,1.469-.141Q2213.056,360.36,2218.845,360.363Zm-4.094,2.246h-2.375c-1.83,0-3.66-.009-5.491.009a1.145,1.145,0,0,0-1.287,1.2,1.2,1.2,0,0,0,1.309,1.2c.173.007.346,0,.519,0h13.8c1.788,0,1.771,0,1.774-1.809,0-.477-.116-.622-.609-.617C2219.845,362.623,2217.3,362.609,2214.75,362.609Zm13.513,2.416c.838,0,1.677.011,2.515,0a1.3,1.3,0,0,0,1.4-1.216c0-.711-.535-1.172-1.4-1.179-1.257-.01-2.515,0-3.772,0-1.9,0-1.894,0-1.794,1.946.018.348.109.472.464.463C2226.537,365.01,2227.4,365.024,2228.264,365.024Z" transform="translate(-82.236 -148.405)" fill="#090b0a"/>
    <path id="Trazado_173140" data-name="Trazado 173140" d="M2189.182,303.075c-2.027,0-4.055.012-6.082-.006a1.158,1.158,0,0,1-1.279-1.145,1.176,1.176,0,0,1,1.248-1.1c.2-.013.4-.005.593-.005q4.191,0,8.381,0c1.137,0,2.275-.018,3.411.024a1.014,1.014,0,0,1,1.067,1.086,1.054,1.054,0,0,1-1.036,1.127,3.955,3.955,0,0,1-.592.019Q2192.037,303.077,2189.182,303.075Z" transform="translate(-67.055 -106.415)" fill="#090b0a"/>
    <path id="Trazado_173141" data-name="Trazado 173141" d="M2159.269,170.714l-.591-.028c-.782-.038-1.259-.49-1.238-1.172.021-.666.46-1.062,1.245-1.063q5.826-.009,11.652,0c.272,0,.543-.012.815-.019a1.116,1.116,0,0,1,1.013,1.242c-.039.649-.568,1.011-1.4,1.012q-5.34.005-10.68,0C2159.811,170.688,2159.54,170.705,2159.269,170.714Z" transform="translate(-49.863 -13.061)" fill="#090b0a"/>
    <path id="Trazado_173142" data-name="Trazado 173142" d="M2189.235,286.41c1.978,0,3.957,0,5.935,0,.887,0,1.356.391,1.354,1.1s-.483,1.132-1.349,1.133q-6.009.009-12.018,0c-.832,0-1.359-.482-1.337-1.165.021-.65.525-1.066,1.332-1.068C2185.18,286.406,2187.208,286.41,2189.235,286.41Z" transform="translate(-67.055 -96.256)" fill="#090b0a"/>
    <path id="Trazado_173143" data-name="Trazado 173143" d="M2194.151,317.536c-1.656,0-3.312,0-4.967,0-1.017,0-1.486-.372-1.472-1.137.013-.72.508-1.1,1.449-1.106q5.078-.005,10.156,0a1.226,1.226,0,0,1,1.243.626,1.065,1.065,0,0,1-.058,1.122,1.228,1.228,0,0,1-1.162.5C2197.611,317.532,2195.881,317.536,2194.151,317.536Z" transform="translate(-71.21 -116.622)" fill="#090b0a"/>
    <path id="Trazado_173144" data-name="Trazado 173144" d="M2221.06,214.135c-1.015.143-1.263.41-1.27,1.446-.01,1.729-.038,3.46.014,5.188.021.712-.395.562-.8.583-.43.023-.718.027-.715-.586q.043-6.708,0-13.417c-.005-.706.392-.563.8-.586.441-.025.755-.01.712.6-.055.787-.022,1.581-.011,2.371.014,1.034.261,1.3,1.273,1.441A5.605,5.605,0,0,0,2221.06,214.135Z" transform="translate(-92.775 -40.087)" fill="#6677d6"/>
    <path id="Trazado_173145" data-name="Trazado 173145" d="M2204.08,332.048c-1.186,0-2.371.009-3.556,0a1.115,1.115,0,1,1-.03-2.224q3.593-.019,7.186,0a1.116,1.116,0,1,1-.044,2.224C2206.45,332.056,2205.265,332.048,2204.08,332.048Z" transform="translate(-79.389 -126.861)" fill="#090b0a"/>
    <path id="Trazado_173146" data-name="Trazado 173146" d="M2284.746,183.944c-1.087,0-2.175.008-3.262,0-.8-.008-1.3-.441-1.308-1.1a1.182,1.182,0,0,1,1.3-1.137q3.262-.021,6.524,0a1.185,1.185,0,0,1,1.305,1.125c0,.665-.489,1.1-1.293,1.109C2286.921,183.952,2285.833,183.944,2284.746,183.944Z" transform="translate(-136.413 -22.416)" fill="#090b0a"/>
    <path id="Trazado_173147" data-name="Trazado 173147" d="M2284.785,168.48c1.063,0,2.126-.007,3.189,0,.818.007,1.3.415,1.32,1.083a1.167,1.167,0,0,1-1.276,1.149q-3.3.018-6.6,0a1.167,1.167,0,0,1-1.25-1.1c-.016-.659.49-1.117,1.281-1.125C2282.561,168.472,2283.673,168.48,2284.785,168.48Z" transform="translate(-136.406 -13.094)" fill="#090b0a"/>
    <path id="Trazado_173148" data-name="Trazado 173148" d="M2158.72,289.756a2.787,2.787,0,0,0-1.833-1.672c-.292-.068-.247-.223-.122-.43.655-1.09,1.3-2.186,1.948-3.28Q2158.716,287.065,2158.72,289.756Z" transform="translate(-49.319 -94.821)" fill="#fdebd1"/>
    <path id="Trazado_173149" data-name="Trazado 173149" d="M2128.515,277.957c1.411,0,2.821-.005,4.232,0,.783,0,.9.2.517.88-.794,1.394-1.61,2.776-2.4,4.174a.741.741,0,0,1-.76.436c-1.088-.026-2.177-.019-3.266-.007a.638.638,0,0,1-.661-.338c-.825-1.461-1.678-2.908-2.506-4.368-.313-.552-.189-.764.46-.771,1.46-.015,2.92,0,4.38,0Z" transform="translate(-25.938 -90.294)" fill="#4e2e8e"/>
    <path id="Trazado_173150" data-name="Trazado 173150" d="M2129.169,307.028c-1.286,0-2.573-.016-3.858.008-.554.01-.813-.154-.8-.758.053-2.541-.305-2.061,2.053-2.09,2.177-.027,4.354.011,6.531-.021.593-.009.768.2.777.77.031,2.113.047,2.112-2.03,2.112h-2.672Z" transform="translate(-26.642 -108.778)" fill="#2bb4e5"/>
    <path id="Trazado_173151" data-name="Trazado 173151" d="M2245.283,204.631c0-2.721.022-5.442-.017-8.163-.009-.6.207-.67.717-.668s.726.063.723.669q-.041,8.237,0,16.474c0,.607-.22.665-.724.668s-.724-.068-.716-.669C2245.3,210.172,2245.283,207.4,2245.283,204.631Z" transform="translate(-111.796 -32.361)" fill="#6677d6"/>
    <path id="Trazado_173152" data-name="Trazado 173152" d="M2273.41,215.86c0,2.126-.034,4.253.019,6.377.018.724-.4.565-.792.576s-.732.085-.728-.561q.048-6.414,0-12.829c0-.617.283-.613.71-.58.382.03.823-.167.808.565C2273.38,211.558,2273.41,213.709,2273.41,215.86Z" transform="translate(-130.583 -41.551)" fill="#6677d6"/>
    <path id="Trazado_173153" data-name="Trazado 173153" d="M2191.489,224.626c0-1.607.034-3.214-.016-4.819-.021-.688.373-.583.792-.609.468-.029.7.041.7.619q-.045,4.856,0,9.713c.006.6-.268.614-.707.593-.416-.02-.808.093-.784-.6C2191.526,227.89,2191.489,226.257,2191.489,224.626Z" transform="translate(-73.861 -48.856)" fill="#ffef0f"/>
    <path id="Trazado_173154" data-name="Trazado 173154" d="M2300.146,228.8c0,1.412-.033,2.824.015,4.234.022.639-.365.528-.708.5-.323-.028-.81.258-.8-.477q.046-4.234,0-8.468c-.008-.629.351-.539.709-.514.338.023.82-.222.8.494C2300.119,225.978,2300.146,227.39,2300.146,228.8Z" transform="translate(-149.439 -52.283)" fill="#ffef0f"/>
    <path id="Trazado_173155" data-name="Trazado 173155" d="M2164.659,235.477c0-.989.037-1.979-.012-2.965-.034-.674.392-.53.768-.546.409-.017.749-.064.736.571q-.062,3,0,6.005c.014.628-.307.59-.726.58s-.824.084-.781-.607C2164.706,237.506,2164.659,236.49,2164.659,235.477Z" transform="translate(-54.941 -57.858)" fill="#c6412a"/>
    <path id="Trazado_173156" data-name="Trazado 173156" d="M2130.03,336.447c-.718,0-1.436-.015-2.154,0a1.183,1.183,0,1,0-.012,2.365c.816.026,1.634,0,2.45.009a3.462,3.462,0,0,1,3.518,3.3,3.418,3.418,0,0,1-3.111,3.525c-.4.042-.505.174-.488.54a4.479,4.479,0,0,1-.048.961.994.994,0,0,1-1.02.89,1.025,1.025,0,0,1-1.114-.782,1.816,1.816,0,0,1-.076-.361c-.127-1.224-.126-1.224-1.336-1.224-.173,0-.347,0-.52,0-.882-.011-1.343-.4-1.333-1.124.01-.7.5-1.107,1.37-1.112,1.386-.007,2.772.01,4.158-.007a1.184,1.184,0,1,0-.009-2.365c-.841-.019-1.683,0-2.525-.011a3.416,3.416,0,0,1-.308-6.816c.453-.042.522-.206.5-.585a2.65,2.65,0,0,1,.074-1.03,1.041,1.041,0,0,1,1.12-.777,1.025,1.025,0,0,1,1.022.9,2.281,2.281,0,0,1,.041.294c.095,1.176.094,1.176,1.309,1.176.272,0,.545-.011.816.005a1.109,1.109,0,0,1,.046,2.215c-.79.039-1.584.009-2.376.009Z" transform="translate(-26.553 -128.294)" fill="#090b0a"/>
    <path id="Trazado_173157" data-name="Trazado 173157" d="M2245.13,300.4a8.323,8.323,0,0,1,1.224-4.36c.3-.513.488-.651.976-.145,1.632,1.692,3.325,3.325,4.974,5a1.926,1.926,0,0,0,1.5.628c2.376-.027,4.752.006,7.128-.023.577-.007.634.169.512.678a8.263,8.263,0,0,1-16.233-.522A11.889,11.889,0,0,1,2245.13,300.4Z" transform="translate(-111.699 -102.72)" fill="#6677d6"/>
    <path id="Trazado_173158" data-name="Trazado 173158" d="M2267.29,294.834c-1.813.585-3.358-.436-4.683-2.095a20.364,20.364,0,0,0-1.879-1.9c-.274-.263-.242-.391.071-.6,3.55-2.384,9.044-.127,9.921,4.08.078.376.021.54-.416.524C2269.438,294.813,2268.571,294.834,2267.29,294.834Z" transform="translate(-122.568 -98.273)" fill="#c6412a"/>
    <path id="Trazado_173159" data-name="Trazado 173159" d="M2220.131,367.958c2.548,0,5.1.014,7.643-.012.493-.005.61.14.609.617,0,1.809.014,1.809-1.774,1.809h-13.8c-.173,0-.346.005-.519,0a1.2,1.2,0,0,1-1.309-1.2,1.145,1.145,0,0,1,1.287-1.2c1.83-.018,3.661-.008,5.491-.009Z" transform="translate(-87.617 -153.753)" fill="#6677d6"/>
    <path id="Trazado_173160" data-name="Trazado 173160" d="M2280.47,370.428c-.863,0-1.727-.014-2.589.006-.355.009-.446-.115-.464-.463-.1-1.946-.11-1.946,1.794-1.946,1.257,0,2.515-.007,3.772,0,.868.007,1.4.469,1.4,1.179a1.3,1.3,0,0,1-1.4,1.216C2282.147,370.439,2281.309,370.428,2280.47,370.428Z" transform="translate(-134.443 -153.808)" fill="#c6412a"/>
  </g>
</svg>
