<svg xmlns="http://www.w3.org/2000/svg" width="85" height="84.948" viewBox="0 0 85 84.948">
  <g id="Grupo_115985" data-name="Grupo 115985" transform="translate(-757.364 -499.189)">
    <path id="Trazado_173202" data-name="Trazado 173202" d="M831.386,539.068c0,11.046.012,22.092-.023,33.138,0,.858.238,1,1.028.988,2.768-.052,5.537-.023,8.306-.019,1.192,0,1.672.457,1.642,1.647a19.9,19.9,0,0,1-.146,3.923,6.792,6.792,0,0,1-6.694,5.388q-20.553.006-41.105,0a6.8,6.8,0,0,1-6.854-6.905c0-1.313,0-1.313-1.344-1.313-8.135,0-16.271-.051-24.406.032a4.41,4.41,0,0,1-4.426-4.463q.1-20.25,0-40.5a4.409,4.409,0,0,1,4.464-4.423c8.277.088,16.556.024,24.834.049.677,0,.9-.107.9-.854q-.06-7.364,0-14.728c0-.682-.113-.909-.858-.9-2.825.052-5.652.023-8.478.02-1.185,0-1.664-.462-1.635-1.655a19.95,19.95,0,0,1,.157-4.008,6.822,6.822,0,0,1,6.6-5.294q20.638-.009,41.277,0a6.784,6.784,0,0,1,6.761,6.822Q831.393,522.543,831.386,539.068Zm-11.534-29.118a2.957,2.957,0,0,1-1.333.2c-9.129,0-18.258.007-27.387-.022-.722,0-.874.182-.87.882q.051,7.317,0,14.634c-.006.774.185.977.962.964,2.895-.048,4.538,1.633,4.538,4.546q0,16.046,0,32.092c0,2.966.014,5.933.022,8.9-.533,2.414-2,3.741-4.163,3.765-1.372.015-1.372.015-1.34,1.4a4.17,4.17,0,0,0,3.675,4.059,4.118,4.118,0,0,0,4.405-3.12,13.346,13.346,0,0,0,.133-3.151c.031-1.523.409-1.932,1.91-1.932,9.1,0,18.2-.012,27.3.02.793,0,.954-.215.954-.973q-.032-32.823-.018-65.646c0-.257.008-.514-.007-.77a4.176,4.176,0,0,0-3.7-3.86,4.123,4.123,0,0,0-4.364,3.066,13.723,13.723,0,0,0-.136,3.406A2.023,2.023,0,0,1,819.852,509.951Zm-26.831,41.276q0-9.972,0-19.944c0-1.5-.438-1.95-1.917-1.95q-14.51,0-29.02,0c-1.5,0-1.948.437-1.948,1.917q0,19.987,0,39.974c0,1.5.439,1.95,1.916,1.951q14.51,0,29.02,0c1.5,0,1.949-.44,1.949-1.919Q793.022,561.241,793.021,551.226Zm26.016-49.3h-1.006c-11.325,0-22.65.048-33.974-.037-2.524-.019-5,1.59-4.755,4.928.036.495.17.6.634.6q18.57-.018,37.141,0c.477,0,.65-.116.615-.609A7.328,7.328,0,0,1,819.037,501.931Zm-19.149,79.463h35.164c2.885,0,4.53-1.675,4.572-4.562.01-.717-.121-.941-.905-.94q-18.27.046-36.541.022a3.081,3.081,0,0,1-.427,0c-.425-.061-.541.131-.513.531A7.436,7.436,0,0,1,799.888,581.394Z" transform="translate(0 0)" fill="#070606"/>
    <path id="Trazado_173203" data-name="Trazado 173203" d="M852.772,590.792c-.008-2.966-.021-5.932-.022-8.9q0-16.046,0-32.092c0-2.913-1.643-4.594-4.538-4.546-.777.013-.968-.189-.962-.964q.058-7.316,0-14.634c0-.7.148-.885.87-.882,9.129.029,18.258.018,27.387.022a2.956,2.956,0,0,0,1.333-.2c.306.175.346.5.446.792a53.417,53.417,0,0,1,2.321,9.813,16.7,16.7,0,0,1,.31,4.816c-.036-.106-.08-.209-.108-.317a12.327,12.327,0,0,0-24.176,4.7,12.259,12.259,0,0,0,15.55,10.038c4.9-1.447,7.749-4.837,8.826-9.78.251.3.153.659.133.984-.1,1.523-.158,3.053-.362,4.563a53.216,53.216,0,0,1-1.73,8.456c-.306,1-.319,2.147-1.148,2.955a12.353,12.353,0,1,0-13.539,19.909,1.688,1.688,0,0,1-.22.258,30.9,30.9,0,0,1-6.818,3.942A9.89,9.89,0,0,1,852.772,590.792Z" transform="translate(-56.988 -18.643)" fill="#b2b9e5"/>
    <path id="Trazado_173204" data-name="Trazado 173204" d="M876.922,551.712c.829-.808.843-1.954,1.148-2.955a53.214,53.214,0,0,0,1.73-8.456c.2-1.51.264-3.04.362-4.563.021-.325.119-.685-.133-.984a14.691,14.691,0,0,0-.092-4.644,16.7,16.7,0,0,0-.31-4.816,53.409,53.409,0,0,0-2.321-9.813c-.1-.294-.14-.616-.446-.792a2.023,2.023,0,0,0,.587-1.533,13.72,13.72,0,0,1,.136-3.406,4.123,4.123,0,0,1,4.364-3.066,4.177,4.177,0,0,1,3.7,3.86c.015.256.007.513.007.77q0,32.823.018,65.646c0,.758-.16.975-.954.973-9.1-.032-18.2-.02-27.3-.02-1.5,0-1.879.409-1.91,1.932a13.341,13.341,0,0,1-.133,3.151,4.118,4.118,0,0,1-4.405,3.12,4.17,4.17,0,0,1-3.675-4.059c-.032-1.388-.032-1.388,1.34-1.4,2.162-.024,3.629-1.352,4.163-3.765a9.891,9.891,0,0,0,3.552-1.066,30.9,30.9,0,0,0,6.818-3.942,1.691,1.691,0,0,0,.22-.258,13.323,13.323,0,0,0,6.369.666,12.467,12.467,0,0,0,10.424-11.6A12.74,12.74,0,0,0,876.922,551.712Z" transform="translate(-57.009 -4.738)" fill="#b2b9e5"/>
    <path id="Trazado_173205" data-name="Trazado 173205" d="M797.823,603.444q0,10.014,0,20.029c0,1.479-.448,1.919-1.949,1.919q-14.51,0-29.02,0c-1.477,0-1.916-.448-1.916-1.951q0-19.987,0-39.974c0-1.48.445-1.917,1.948-1.917q14.51,0,29.02,0c1.478,0,1.916.446,1.917,1.95Q797.824,593.472,797.823,603.444Zm-16.538-9.564q6.758,0,13.516,0c1.171,0,1.647-.483,1.649-1.663q.007-3.807,0-7.613c0-1.191-.471-1.68-1.631-1.68q-13.431,0-26.862,0c-1.174,0-1.646.479-1.648,1.662q-.007,3.763,0,7.527c0,1.337.44,1.768,1.8,1.768Q774.7,593.881,781.285,593.88Zm-10.825,2.741c-.854,0-1.708-.006-2.562,0-1.075.01-1.58.495-1.587,1.546q-.015,2.562,0,5.124a1.355,1.355,0,0,0,1.5,1.544q2.6.02,5.21,0a1.342,1.342,0,0,0,1.5-1.46q.024-2.647,0-5.295a1.343,1.343,0,0,0-1.5-1.458C772.169,596.611,771.314,596.621,770.46,596.621Zm15.03,4.145c0-.854.007-1.708,0-2.562-.011-1.07-.5-1.574-1.554-1.58q-2.562-.015-5.125,0a1.355,1.355,0,0,0-1.537,1.508q-.019,2.6,0,5.209a1.339,1.339,0,0,0,1.465,1.494q2.648.024,5.3,0a1.346,1.346,0,0,0,1.454-1.508C785.5,602.474,785.49,601.62,785.49,600.766Zm2.742-.082c0,.882-.01,1.765,0,2.647a1.343,1.343,0,0,0,1.455,1.5q2.647.025,5.3,0a1.342,1.342,0,0,0,1.463-1.5q.02-2.6,0-5.209a1.339,1.339,0,0,0-1.456-1.5q-2.648-.025-5.3,0a1.341,1.341,0,0,0-1.463,1.5C788.222,598.975,788.232,599.829,788.232,600.683Zm-17.818,13.747c.854,0,1.708.008,2.562,0a1.36,1.36,0,0,0,1.549-1.5q.021-2.6,0-5.21a1.339,1.339,0,0,0-1.456-1.5q-2.647-.025-5.3,0a1.338,1.338,0,0,0-1.462,1.5q-.019,2.6,0,5.209a1.36,1.36,0,0,0,1.54,1.508C768.706,614.439,769.56,614.431,770.414,614.431Zm15.076-4.024c0-.854,0-1.708,0-2.562-.008-1.131-.484-1.626-1.589-1.631q-2.519-.012-5.039,0c-1.076.005-1.581.494-1.588,1.544q-.015,2.562,0,5.124a1.356,1.356,0,0,0,1.5,1.545q2.6.02,5.209,0a1.361,1.361,0,0,0,1.5-1.544C785.5,612.058,785.49,611.232,785.49,610.407Zm6.9-4.2c-.883,0-1.765-.01-2.648,0a1.341,1.341,0,0,0-1.505,1.454q-.024,2.647,0,5.294a1.34,1.34,0,0,0,1.495,1.464q2.6.02,5.21,0a1.341,1.341,0,0,0,1.506-1.454q.025-2.647,0-5.295a1.343,1.343,0,0,0-1.5-1.464C794.1,606.2,793.243,606.212,792.389,606.211Zm-22,17.81c.854,0,1.708.007,2.562,0,1.068-.011,1.572-.5,1.578-1.557q.015-2.562,0-5.124a1.357,1.357,0,0,0-1.513-1.533q-2.6-.018-5.21,0a1.338,1.338,0,0,0-1.49,1.468c-.015,1.736-.012,3.473,0,5.209a1.359,1.359,0,0,0,1.512,1.535C768.677,624.031,769.532,624.021,770.386,624.021Zm15.1-4.068c0-.854.007-1.708,0-2.562-.01-1.073-.5-1.58-1.547-1.587q-2.562-.015-5.124,0a1.353,1.353,0,0,0-1.543,1.5q-.02,2.6,0,5.209a1.339,1.339,0,0,0,1.458,1.5q2.647.025,5.3,0a1.346,1.346,0,0,0,1.46-1.5C785.5,621.661,785.49,620.807,785.49,619.953Zm2.742-.078c0,.854-.006,1.708,0,2.562.01,1.07.5,1.575,1.553,1.581q2.562.015,5.124,0a1.359,1.359,0,0,0,1.538-1.51q.019-2.6,0-5.209a1.34,1.34,0,0,0-1.467-1.492q-2.647-.023-5.3,0a1.341,1.341,0,0,0-1.452,1.506C788.222,618.167,788.232,619.021,788.232,619.875Z" transform="translate(-4.802 -52.217)" fill="#6677d6"/>
    <path id="Trazado_173206" data-name="Trazado 173206" d="M857.012,506.618a7.327,7.327,0,0,0-1.345,4.881c.035.493-.139.61-.615.609q-18.57-.019-37.141,0c-.464,0-.6-.1-.634-.6-.241-3.338,2.231-4.947,4.755-4.928,11.324.084,22.65.037,33.974.037Z" transform="translate(-37.975 -4.687)" fill="#b2b9e5"/>
    <path id="Trazado_173207" data-name="Trazado 173207" d="M873.553,714.271a7.436,7.436,0,0,0,1.349-4.952c-.028-.4.088-.592.513-.531a3.081,3.081,0,0,0,.427,0q18.271,0,36.541-.022c.785,0,.916.223.905.94-.042,2.887-1.687,4.562-4.572,4.562H873.553Z" transform="translate(-73.665 -132.876)" fill="#b2b9e5"/>
    <path id="Trazado_173208" data-name="Trazado 173208" d="M891.127,622.946a12.74,12.74,0,0,1,3.253,8.978,12.467,12.467,0,0,1-10.424,11.6,13.324,13.324,0,0,1-6.369-.666,12.35,12.35,0,1,1,13.539-19.909Zm-5.176,13.9a4.628,4.628,0,0,1-2.219,2.365c-.626.305-.291.919-.273,1.374.013.329.412.15.632.1a9.557,9.557,0,0,0,.242-18.629c-.3-.075-.787-.362-.86.032-.081.436-.393,1.081.333,1.412a4.392,4.392,0,0,1,2.146,2.319,7.1,7.1,0,0,1,.2,2.288c-.008.174.11.462-.2.471a8.366,8.366,0,0,1-2.38-.053c-.388-.105-.1-.869-.158-1.333a1.406,1.406,0,0,0-1.4-1.335,1.372,1.372,0,0,0-1.33,1.309,11.744,11.744,0,0,0-.009,1.2c.02,1.061.482,1.529,1.568,1.6a4.026,4.026,0,0,1,3.774,3.158A8.284,8.284,0,0,1,885.951,636.848Zm-7.816-11.026a4.673,4.673,0,0,1,2.222-2.365c.631-.306.337-.937.269-1.367-.064-.4-.512-.12-.782-.053a9.543,9.543,0,0,0,0,18.592c.27.067.717.356.782-.05.07-.429.362-1.061-.268-1.367a4.675,4.675,0,0,1-2.222-2.365,7.179,7.179,0,0,1-.2-2.288c.007-.174-.11-.462.2-.471a7.774,7.774,0,0,1,2.377.057c.405.121.094.924.167,1.414a1.374,1.374,0,0,0,1.392,1.244,1.325,1.325,0,0,0,1.322-1.219,7.489,7.489,0,0,0,.019-1.2c-.012-1.137-.457-1.612-1.569-1.685a4.032,4.032,0,0,1-3.774-3.157A8.48,8.48,0,0,1,878.134,625.823Z" transform="translate(-71.213 -75.972)" fill="#070606"/>
    <path id="Trazado_173209" data-name="Trazado 173209" d="M894.214,553.821a14.69,14.69,0,0,1,.092,4.644c-1.076,4.943-3.926,8.333-8.826,9.78a12.326,12.326,0,1,1-2.358-24.144,12.42,12.42,0,0,1,10.985,9.4C894.134,553.612,894.178,553.716,894.214,553.821Zm-8.192,8.1a4.631,4.631,0,0,1-2.219,2.365c-.626.3-.291.919-.273,1.373.013.329.412.151.633.1a9.557,9.557,0,0,0,.242-18.629c-.3-.075-.787-.362-.86.032-.081.435-.393,1.081.333,1.412a4.39,4.39,0,0,1,2.146,2.318,7.1,7.1,0,0,1,.2,2.288c-.008.174.11.462-.2.471a8.377,8.377,0,0,1-2.38-.053c-.388-.106-.1-.87-.158-1.333a1.406,1.406,0,0,0-1.4-1.335,1.372,1.372,0,0,0-1.33,1.309,11.781,11.781,0,0,0-.009,1.2c.02,1.061.482,1.529,1.568,1.6a4.026,4.026,0,0,1,3.774,3.158A8.284,8.284,0,0,1,886.022,561.925ZM878.205,550.9a4.674,4.674,0,0,1,2.222-2.365c.631-.306.337-.937.269-1.367-.064-.4-.512-.12-.782-.053a9.543,9.543,0,0,0,0,18.592c.27.067.717.356.782-.05.07-.43.362-1.061-.268-1.367a4.673,4.673,0,0,1-2.222-2.365,7.179,7.179,0,0,1-.2-2.288c.007-.174-.11-.462.2-.471a7.774,7.774,0,0,1,2.377.057c.405.121.094.924.167,1.414a1.373,1.373,0,0,0,1.392,1.244,1.324,1.324,0,0,0,1.322-1.219,7.438,7.438,0,0,0,.019-1.2c-.012-1.137-.457-1.612-1.569-1.685a4.032,4.032,0,0,1-3.774-3.157A8.482,8.482,0,0,1,878.205,550.9Z" transform="translate(-71.284 -28.45)" fill="#070606"/>
    <path id="Trazado_173210" data-name="Trazado 173210" d="M783.658,596.254q-6.587,0-13.174,0c-1.361,0-1.8-.431-1.8-1.768q0-3.764,0-7.527c0-1.183.474-1.662,1.648-1.662q13.431,0,26.862,0c1.159,0,1.629.489,1.631,1.68q.006,3.807,0,7.613c0,1.18-.478,1.662-1.649,1.663Q790.416,596.258,783.658,596.254Zm.094-2.739c3.882,0,7.763-.012,11.645.013.555,0,.72-.133.7-.7-.042-1.4-.035-2.8,0-4.194.011-.485-.128-.613-.612-.612q-11.73.023-23.46,0c-.48,0-.626.122-.614.609.033,1.369.05,2.741-.005,4.108-.026.643.148.8.788.789C776.046,593.5,779.9,593.515,783.752,593.515Z" transform="translate(-7.175 -54.592)" fill="#070606"/>
    <path id="Trazado_173211" data-name="Trazado 173211" d="M772.828,622.724c.854,0,1.708-.01,2.562,0a1.343,1.343,0,0,1,1.5,1.458q.025,2.647,0,5.295a1.342,1.342,0,0,1-1.5,1.46q-2.6.019-5.21,0a1.355,1.355,0,0,1-1.5-1.544q-.015-2.562,0-5.124c.006-1.051.512-1.536,1.587-1.546C771.119,622.718,771.974,622.724,772.828,622.724Zm.015,2.74c-1.427,0-1.427,0-1.427,1.4,0,1.341,0,1.341,1.314,1.341,1.427,0,1.427,0,1.427-1.4C774.156,625.464,774.156,625.464,772.843,625.464Z" transform="translate(-7.169 -78.32)" fill="#070606"/>
    <path id="Trazado_173212" data-name="Trazado 173212" d="M806.844,626.866c0,.854.01,1.708,0,2.562a1.346,1.346,0,0,1-1.454,1.508q-2.647.025-5.3,0a1.339,1.339,0,0,1-1.465-1.494q-.019-2.6,0-5.209a1.355,1.355,0,0,1,1.537-1.508q2.562-.016,5.125,0c1.055.006,1.543.51,1.554,1.58C806.851,625.158,806.844,626.013,806.844,626.866Zm-4.037-1.405c-1.443,0-1.443,0-1.443,1.468,0,1.271,0,1.271,1.3,1.271,1.443,0,1.443,0,1.443-1.468C804.1,625.461,804.1,625.461,802.807,625.461Z" transform="translate(-26.156 -78.318)" fill="#070606"/>
    <path id="Trazado_173213" data-name="Trazado 173213" d="M828.578,626.78c0-.854-.01-1.708,0-2.562a1.341,1.341,0,0,1,1.463-1.5q2.647-.024,5.3,0a1.339,1.339,0,0,1,1.456,1.5q.019,2.6,0,5.209a1.342,1.342,0,0,1-1.463,1.5q-2.647.024-5.3,0a1.343,1.343,0,0,1-1.455-1.5C828.569,628.545,828.578,627.662,828.578,626.78Zm4.16-1.323c-1.42,0-1.42,0-1.42,1.405,0,1.335,0,1.335,1.32,1.335,1.42,0,1.42,0,1.42-1.405C834.058,625.457,834.058,625.457,832.739,625.457Z" transform="translate(-45.148 -78.314)" fill="#070606"/>
    <path id="Trazado_173214" data-name="Trazado 173214" d="M772.779,657.141c-.854,0-1.708.008-2.562,0a1.36,1.36,0,0,1-1.54-1.508q-.019-2.6,0-5.209a1.338,1.338,0,0,1,1.462-1.5q2.648-.024,5.3,0a1.339,1.339,0,0,1,1.456,1.5q.019,2.6,0,5.209a1.36,1.36,0,0,1-1.548,1.5C774.488,657.149,773.634,657.141,772.779,657.141Zm.078-5.48c-1.443,0-1.443,0-1.443,1.468,0,1.271,0,1.271,1.3,1.271,1.443,0,1.443,0,1.443-1.468C774.154,651.661,774.154,651.661,772.857,651.661Z" transform="translate(-7.167 -94.928)" fill="#070606"/>
    <path id="Trazado_173215" data-name="Trazado 173215" d="M806.846,653.123c0,.825.008,1.651,0,2.476a1.361,1.361,0,0,1-1.5,1.544q-2.6.02-5.21,0a1.356,1.356,0,0,1-1.5-1.545q-.015-2.562,0-5.124c.007-1.05.512-1.539,1.588-1.544q2.519-.011,5.039,0c1.1.006,1.581.5,1.589,1.631C806.851,651.415,806.846,652.269,806.846,653.123Zm-4.145,1.284c1.405,0,1.405,0,1.405-1.42,0-1.32,0-1.32-1.335-1.32-1.405,0-1.405,0-1.405,1.42C801.366,654.407,801.366,654.407,802.7,654.407Z" transform="translate(-26.158 -94.934)" fill="#070606"/>
    <path id="Trazado_173216" data-name="Trazado 173216" d="M832.73,648.928c.854,0,1.708-.01,2.562,0a1.343,1.343,0,0,1,1.5,1.464q.024,2.647,0,5.295a1.341,1.341,0,0,1-1.506,1.454q-2.6.019-5.21,0a1.34,1.34,0,0,1-1.495-1.464q-.023-2.647,0-5.294a1.341,1.341,0,0,1,1.505-1.454C830.965,648.918,831.847,648.928,832.73,648.928Zm1.323,4.139c0-1.4,0-1.4-1.427-1.4-1.314,0-1.314,0-1.314,1.341,0,1.4,0,1.4,1.427,1.4C834.052,654.407,834.052,654.407,834.052,653.066Z" transform="translate(-45.142 -94.934)" fill="#070606"/>
    <path id="Trazado_173217" data-name="Trazado 173217" d="M772.751,683.348c-.854,0-1.708.01-2.562,0a1.359,1.359,0,0,1-1.511-1.535c-.011-1.737-.014-3.473,0-5.21a1.338,1.338,0,0,1,1.49-1.468q2.6-.02,5.21,0a1.357,1.357,0,0,1,1.513,1.533q.016,2.562,0,5.124c-.006,1.056-.51,1.546-1.578,1.557C774.459,683.354,773.605,683.348,772.751,683.348Zm1.4-4.069c0-1.411,0-1.411-1.415-1.411-1.325,0-1.325,0-1.325,1.329,0,1.411,0,1.411,1.414,1.411C774.154,680.608,774.154,680.608,774.154,679.279Z" transform="translate(-7.167 -111.544)" fill="#070606"/>
    <path id="Trazado_173218" data-name="Trazado 173218" d="M806.844,679.281c0,.854.011,1.708,0,2.562a1.346,1.346,0,0,1-1.46,1.5q-2.647.024-5.3,0a1.339,1.339,0,0,1-1.458-1.5q-.018-2.6,0-5.209a1.353,1.353,0,0,1,1.543-1.5q2.562-.015,5.124,0c1.05.006,1.537.514,1.547,1.587C806.851,677.573,806.844,678.427,806.844,679.281Zm-5.48-.1c0,1.426,0,1.426,1.4,1.426,1.341,0,1.341,0,1.341-1.314,0-1.426,0-1.426-1.4-1.426C801.364,677.87,801.364,677.87,801.364,679.183Z" transform="translate(-26.156 -111.545)" fill="#070606"/>
    <path id="Trazado_173219" data-name="Trazado 173219" d="M828.579,679.2c0-.854-.01-1.708,0-2.562a1.341,1.341,0,0,1,1.452-1.506q2.648-.025,5.3,0a1.34,1.34,0,0,1,1.467,1.492q.02,2.6,0,5.209a1.359,1.359,0,0,1-1.538,1.51q-2.562.016-5.124,0c-1.054-.006-1.543-.511-1.553-1.581C828.572,680.907,828.579,680.053,828.579,679.2Zm4.151-1.334c-1.411,0-1.411,0-1.411,1.415,0,1.325,0,1.325,1.329,1.325,1.411,0,1.411,0,1.411-1.414C834.059,677.865,834.059,677.865,832.73,677.865Z" transform="translate(-45.149 -111.541)" fill="#070606"/>
    <path id="Trazado_173220" data-name="Trazado 173220" d="M882.937,641.808a4.675,4.675,0,0,0,2.222,2.365c.629.306.337.938.268,1.367-.066.406-.513.117-.782.05a9.543,9.543,0,0,1,0-18.592c.27-.067.718-.35.782.053.068.43.362,1.061-.269,1.367a4.672,4.672,0,0,0-2.222,2.365,6.229,6.229,0,0,0-2.878,4.618A6.586,6.586,0,0,0,882.937,641.808Z" transform="translate(-76.014 -80.931)" fill="#ffef0f"/>
    <path id="Trazado_173221" data-name="Trazado 173221" d="M909.6,630.8a4.392,4.392,0,0,0-2.146-2.319c-.726-.331-.414-.977-.333-1.412.073-.394.559-.107.86-.032a9.557,9.557,0,0,1-.242,18.629c-.221.049-.62.227-.632-.1-.018-.454-.353-1.068.273-1.374a4.628,4.628,0,0,0,2.219-2.365,6.2,6.2,0,0,0,2.876-4.582C912.911,634.849,911.542,631.807,909.6,630.8Z" transform="translate(-94.862 -80.947)" fill="#ffef0f"/>
    <path id="Trazado_173222" data-name="Trazado 173222" d="M887.654,648.639a6.586,6.586,0,0,1-2.88-6.407,6.229,6.229,0,0,1,2.878-4.618,8.48,8.48,0,0,0-.062,3.724,4.032,4.032,0,0,0,3.774,3.157c1.112.073,1.557.548,1.569,1.685a7.49,7.49,0,0,1-.019,1.2,1.325,1.325,0,0,1-1.322,1.219,1.374,1.374,0,0,1-1.392-1.244c-.073-.49.238-1.293-.167-1.414a7.774,7.774,0,0,0-2.377-.057c-.308.009-.191.3-.2.471A7.181,7.181,0,0,0,887.654,648.639Z" transform="translate(-80.732 -87.763)" fill="#fff"/>
    <path id="Trazado_173223" data-name="Trazado 173223" d="M904.976,637.612c1.941,1.009,3.31,4.052,2.874,6.444a6.2,6.2,0,0,1-2.876,4.582,8.285,8.285,0,0,0,.069-3.724,4.026,4.026,0,0,0-3.774-3.158c-1.086-.071-1.548-.539-1.568-1.6a11.762,11.762,0,0,1,.009-1.2,1.372,1.372,0,0,1,1.33-1.309,1.406,1.406,0,0,1,1.4,1.335c.055.463-.23,1.227.158,1.333a8.368,8.368,0,0,0,2.38.053c.308-.009.19-.3.2-.471A7.1,7.1,0,0,0,904.976,637.612Z" transform="translate(-90.237 -87.762)" fill="#fff"/>
    <path id="Trazado_173224" data-name="Trazado 173224" d="M882.937,566.939a4.674,4.674,0,0,0,2.222,2.365c.629.306.337.938.268,1.367-.066.406-.513.117-.782.05a9.543,9.543,0,0,1,0-18.592c.27-.067.718-.35.782.053.068.43.362,1.061-.269,1.367a4.674,4.674,0,0,0-2.222,2.365,6.23,6.23,0,0,0-2.878,4.618A6.586,6.586,0,0,0,882.937,566.939Z" transform="translate(-76.014 -33.464)" fill="#ffef0f"/>
    <path id="Trazado_173225" data-name="Trazado 173225" d="M909.6,555.929a4.39,4.39,0,0,0-2.146-2.318c-.726-.331-.414-.977-.333-1.412.073-.394.559-.107.86-.032a9.557,9.557,0,0,1-.242,18.629c-.221.049-.62.227-.632-.1-.018-.454-.353-1.068.273-1.373a4.63,4.63,0,0,0,2.219-2.366,6.2,6.2,0,0,0,2.876-4.582C912.911,559.98,911.542,556.938,909.6,555.929Z" transform="translate(-94.862 -33.48)" fill="#ffef0f"/>
    <path id="Trazado_173226" data-name="Trazado 173226" d="M887.654,573.77a6.586,6.586,0,0,1-2.88-6.407,6.23,6.23,0,0,1,2.878-4.618,8.482,8.482,0,0,0-.062,3.725,4.032,4.032,0,0,0,3.774,3.157c1.112.073,1.557.548,1.569,1.685a7.451,7.451,0,0,1-.019,1.2,1.324,1.324,0,0,1-1.322,1.219,1.373,1.373,0,0,1-1.392-1.244c-.073-.49.238-1.293-.167-1.414a7.774,7.774,0,0,0-2.377-.057c-.308.009-.191.3-.2.471A7.18,7.18,0,0,0,887.654,573.77Z" transform="translate(-80.732 -40.295)" fill="#fff"/>
    <path id="Trazado_173227" data-name="Trazado 173227" d="M904.976,562.743c1.941,1.009,3.31,4.052,2.874,6.444a6.2,6.2,0,0,1-2.876,4.582,8.285,8.285,0,0,0,.069-3.724,4.026,4.026,0,0,0-3.774-3.158c-1.086-.071-1.548-.539-1.568-1.6a11.763,11.763,0,0,1,.009-1.2,1.372,1.372,0,0,1,1.33-1.309,1.406,1.406,0,0,1,1.4,1.335c.055.463-.23,1.227.158,1.333a8.375,8.375,0,0,0,2.38.053c.308-.009.19-.3.2-.471A7.1,7.1,0,0,0,904.976,562.743Z" transform="translate(-90.237 -40.294)" fill="#fff"/>
    <path id="Trazado_173228" data-name="Trazado 173228" d="M788.468,598.243c-3.853,0-7.706-.017-11.559.016-.641.006-.814-.147-.788-.789.055-1.367.038-2.739.005-4.108-.012-.488.134-.61.614-.609q11.73.022,23.46,0c.483,0,.623.127.612.612-.032,1.4-.04,2.8,0,4.194.018.564-.147.7-.7.7C796.231,598.231,792.349,598.243,788.468,598.243Z" transform="translate(-11.891 -59.32)" fill="#fff"/>
    <path id="Trazado_173229" data-name="Trazado 173229" d="M777.6,630.216c1.314,0,1.314,0,1.314,1.341,0,1.4,0,1.4-1.427,1.4-1.314,0-1.314,0-1.314-1.341C776.171,630.216,776.171,630.216,777.6,630.216Z" transform="translate(-11.924 -83.073)" fill="#fff"/>
    <path id="Trazado_173230" data-name="Trazado 173230" d="M807.564,630.216c1.3,0,1.3,0,1.3,1.271,0,1.468,0,1.468-1.443,1.468-1.3,0-1.3,0-1.3-1.271C806.121,630.216,806.121,630.216,807.564,630.216Z" transform="translate(-30.913 -83.073)" fill="#fff"/>
    <path id="Trazado_173231" data-name="Trazado 173231" d="M837.491,630.216c1.32,0,1.32,0,1.32,1.335,0,1.405,0,1.405-1.42,1.405-1.32,0-1.32,0-1.32-1.335C836.071,630.216,836.071,630.216,837.491,630.216Z" transform="translate(-49.901 -83.073)" fill="#fff"/>
    <path id="Trazado_173232" data-name="Trazado 173232" d="M777.614,656.42c1.3,0,1.3,0,1.3,1.271,0,1.468,0,1.468-1.443,1.468-1.3,0-1.3,0-1.3-1.271C776.171,656.42,776.171,656.42,777.614,656.42Z" transform="translate(-11.924 -99.686)" fill="#fff"/>
    <path id="Trazado_173233" data-name="Trazado 173233" d="M807.456,659.16c-1.335,0-1.335,0-1.335-1.319,0-1.42,0-1.42,1.405-1.42,1.335,0,1.335,0,1.335,1.32C808.861,659.16,808.861,659.16,807.456,659.16Z" transform="translate(-30.913 -99.686)" fill="#fff"/>
    <path id="Trazado_173234" data-name="Trazado 173234" d="M838.811,657.819c0,1.341,0,1.341-1.313,1.341-1.427,0-1.427,0-1.427-1.4,0-1.341,0-1.341,1.313-1.341C838.811,656.42,838.811,656.42,838.811,657.819Z" transform="translate(-49.901 -99.686)" fill="#fff"/>
    <path id="Trazado_173235" data-name="Trazado 173235" d="M778.911,684.035c0,1.329,0,1.329-1.326,1.329-1.415,0-1.415,0-1.415-1.411,0-1.329,0-1.329,1.325-1.329C778.911,682.624,778.911,682.624,778.911,684.035Z" transform="translate(-11.924 -116.3)" fill="#fff"/>
    <path id="Trazado_173236" data-name="Trazado 173236" d="M806.121,683.938c0-1.314,0-1.314,1.341-1.314,1.4,0,1.4,0,1.4,1.426,0,1.314,0,1.314-1.341,1.314C806.121,685.364,806.121,685.364,806.121,683.938Z" transform="translate(-30.913 -116.3)" fill="#fff"/>
    <path id="Trazado_173237" data-name="Trazado 173237" d="M837.482,682.624c1.329,0,1.329,0,1.329,1.326,0,1.414,0,1.414-1.411,1.414-1.329,0-1.329,0-1.329-1.325C836.071,682.624,836.071,682.624,837.482,682.624Z" transform="translate(-49.901 -116.3)" fill="#fff"/>
  </g>
</svg>
