<svg xmlns="http://www.w3.org/2000/svg" xmlns:xlink="http://www.w3.org/1999/xlink" width="1030" height="624" viewBox="0 0 1030 624">
  <defs>
    <linearGradient id="linear-gradient" x1="0.54" y1="0.541" x2="0.581" y2="0.592" gradientUnits="objectBoundingBox">
      <stop offset="0" stop-color="#d5e6f8"/>
      <stop offset="1" stop-color="#b5cde6"/>
    </linearGradient>
    <linearGradient id="linear-gradient-2" x1="0.338" y1="0.252" x2="0.703" y2="0.816" gradientUnits="objectBoundingBox">
      <stop offset="0" stop-color="#105b91"/>
      <stop offset="1" stop-color="#0a3c5f"/>
    </linearGradient>
    <linearGradient id="linear-gradient-3" x1="0.646" y1="0.658" x2="0.681" y2="0.699" xlink:href="#linear-gradient"/>
    <linearGradient id="linear-gradient-4" x1="0.927" y1="0.484" x2="0.248" y2="0.509" xlink:href="#linear-gradient-2"/>
    <linearGradient id="linear-gradient-5" x1="0.26" y1="0.287" x2="0.566" y2="0.774" gradientUnits="objectBoundingBox">
      <stop offset="0" stop-color="#632e40"/>
      <stop offset="1" stop-color="#48202d"/>
    </linearGradient>
    <linearGradient id="linear-gradient-6" x1="0.446" y1="0.532" x2="0.809" y2="0.628" xlink:href="#linear-gradient"/>
    <linearGradient id="linear-gradient-7" x1="0.53" y1="0.847" x2="0.465" y2="0.091" xlink:href="#linear-gradient"/>
    <linearGradient id="linear-gradient-8" x1="0.421" y1="0.181" x2="0.573" y2="0.762" xlink:href="#linear-gradient-2"/>
    <linearGradient id="linear-gradient-9" x1="0.365" y1="0.472" x2="0.633" y2="0.704" gradientUnits="objectBoundingBox">
      <stop offset="0" stop-color="#072c47"/>
      <stop offset="1" stop-color="#104e7a"/>
    </linearGradient>
    <linearGradient id="linear-gradient-10" x1="0.561" y1="0.175" x2="0.421" y2="0.706" gradientUnits="objectBoundingBox">
      <stop offset="0" stop-color="#38251b"/>
      <stop offset="1" stop-color="#1c120d"/>
    </linearGradient>
    <linearGradient id="linear-gradient-11" x1="0.65" y1="0.059" x2="0.499" y2="0.518" gradientUnits="objectBoundingBox">
      <stop offset="0" stop-color="#4d3529"/>
      <stop offset="1" stop-color="#38251b"/>
    </linearGradient>
  </defs>
  <g id="Grupo_116095" data-name="Grupo 116095" transform="translate(-285 -928)">
    <rect id="Rectángulo_42345" data-name="Rectángulo 42345" width="1030" height="624" rx="20" transform="translate(285 928)" fill="#f3f9ff"/>
    <g id="Grupo_115967" data-name="Grupo 115967" transform="translate(29 -52.51)">
      <g id="Grupo_115938" data-name="Grupo 115938" transform="translate(31 -27.778)">
        <g id="Grupo_115511" data-name="Grupo 115511" transform="translate(451 1093.778)">
          <g id="Grupo_115479" data-name="Grupo 115479" transform="translate(18.09 11.731)">
            <g id="Grupo_115474" data-name="Grupo 115474">
              <path id="Trazado_165076" data-name="Trazado 165076" d="M3107.791,243.89c-37.287,28.687-59.514,64.79-59.514,104.017a103.483,103.483,0,0,0,.672,11.6h-.672c0,16.43-.045,133.977-.045,110.767,0-44.672,24.162-79.131,59.559-104.928Z" transform="translate(-3048.232 -179.046)" fill="#4e2e8e" fill-rule="evenodd"/>
              <path id="Trazado_165077" data-name="Trazado 165077" d="M3567.684,191V312.174c-136.94-53.885-243.025-53.885-379.963,0V191c55.688-30.3,121.691-43.276,188.682-43.831C3444.433,146.6,3512.612,160.179,3567.684,191Z" transform="translate(-3094.22 -147.152)" fill="#6677d6" fill-rule="evenodd" opacity="0.5"/>
              <path id="Trazado_165078" data-name="Trazado 165078" d="M3180.393,288.541c-77.605,30.1-128.988,82.534-128.99,142.182V372.885c0-59.648,51.385-112.078,128.99-142.183Z" transform="translate(-3049.277 -174.698)" fill="#6677d6" fill-rule="evenodd" opacity="0.5"/>
              <path id="Trazado_165079" data-name="Trazado 165079" d="M3562.454,205.558V398.031c-52.437-17.144-112.539-26.887-176.428-26.887s-123.993,9.743-176.429,26.887V205.558C3321.35,152.571,3450.036,158.027,3562.454,205.558Z" transform="translate(-3101.433 -153.971)" fill="#4e2e8e" fill-rule="evenodd"/>
              <path id="Trazado_165080" data-name="Trazado 165080" d="M3767.217,224.033c51.174,30.623,82.852,73.007,82.852,119.841,0,39.471.046,145.526.046,122.364,0-53.931-35.214-92.973-82.9-119.865Z" transform="translate(-3285.277 -172.499)" fill="#6677d6" fill-rule="evenodd" opacity="0.5"/>
            </g>
            <g id="Grupo_115476" data-name="Grupo 115476" transform="translate(42.415 13.053)">
              <path id="Trazado_165081" data-name="Trazado 165081" d="M3360.229,166.625c-94.347,0-178.68,27.317-234.588,70.217l1.884,3.238c.521-.4,1.048-.789,1.574-1.183l-.1-.169c55.907-42.9,140.241-70.216,234.586-70.216,76.212,0,145.878,17.831,199.312,47.3C3509.046,185.219,3438.05,166.625,3360.229,166.625Z" transform="translate(-3116.167 -166.625)" fill="aqua" fill-rule="evenodd"/>
              <g id="Grupo_115475" data-name="Grupo 115475" transform="translate(0 62.213)">
                <circle id="Elipse_5963" data-name="Elipse 5963" cx="10.081" cy="10.081" r="10.081" fill="#1854ab"/>
                <path id="Trazado_165082" data-name="Trazado 165082" d="M3123.067,263.92a7.077,7.077,0,1,0,7.076,7.076A7.076,7.076,0,0,0,3123.067,263.92Z" transform="translate(-3112.986 -260.916)" fill="#41ffff" fill-rule="evenodd"/>
                <path id="Trazado_165083" data-name="Trazado 165083" d="M3124.761,269.059a3.632,3.632,0,1,0,3.632,3.632A3.631,3.631,0,0,0,3124.761,269.059Z" transform="translate(-3114.68 -262.61)" fill="#fff" fill-rule="evenodd"/>
              </g>
            </g>
            <g id="Grupo_115478" data-name="Grupo 115478" transform="translate(217.484 113.038)">
              <path id="Trazado_165084" data-name="Trazado 165084" d="M3520.718,318.663c66.972,8.471,124.524,34.334,160.576,68.078l-1.612,2c-.336-.312-.678-.623-1.017-.934l.083-.1c-36.052-33.745-93.6-59.607-160.575-68.078-54.1-6.842-105.062-1.158-145.487,13.774C3413.5,317.751,3465.476,311.675,3520.718,318.663Z" transform="translate(-3372.687 -315.789)" fill="aqua" fill-rule="evenodd"/>
              <g id="Grupo_115477" data-name="Grupo 115477" transform="translate(301.22 65.488)">
                <path id="Trazado_165085" data-name="Trazado 165085" d="M3829.722,413.541a6.8,6.8,0,1,1-7.6,5.9A6.8,6.8,0,0,1,3829.722,413.541Z" transform="translate(-3822.064 -413.487)" fill="#1854ab" fill-rule="evenodd"/>
                <path id="Trazado_165086" data-name="Trazado 165086" d="M3830.466,416.55a4.776,4.776,0,1,1-5.338,4.139A4.776,4.776,0,0,1,3830.466,416.55Z" transform="translate(-3823.061 -414.484)" fill="#41ffff" fill-rule="evenodd"/>
                <path id="Trazado_165087" data-name="Trazado 165087" d="M3831.318,420a2.451,2.451,0,1,1-2.74,2.124A2.452,2.452,0,0,1,3831.318,420Z" transform="translate(-3824.205 -415.628)" fill="#fff" fill-rule="evenodd"/>
              </g>
            </g>
          </g>
          <path id="Trazado_165088" data-name="Trazado 165088" d="M3689.94,627.079l-110.646,62.809c-18.172,8.576-26.02,14.65-46.363,2.8l-172.382-100.4c-1.7-.993-2.606-1.38-3.039-3.15-.653-2.685.479-5.667,7.831-9.453l124.616-69.337c8.126-3.122,13.46-3.972,19.994-.528l185.415,106.566C3699.118,619.36,3696.008,623.773,3689.94,627.079Z" transform="translate(-3132.057 -254.257)" fill="#104e79" fill-rule="evenodd"/>
          <g id="Grupo_115505" data-name="Grupo 115505">
            <g id="Grupo_115483" data-name="Grupo 115483" transform="translate(230.279 92.246)">
              <g id="Grupo_115480" data-name="Grupo 115480" transform="translate(137.129)">
                <path id="Trazado_165089" data-name="Trazado 165089" d="M3597.362,267.977l181.1,102c5.058,2.809,5.266,5.312,5.089,12.981l-15.43,147.091c-.35,4.342-.983,6.517-1.981,7.21L3758.3,542.5l-177-108.226c-3.987-2.392-5.01-4.253-4.849-11.356l12.02-152.889,5.284-2.573A4.451,4.451,0,0,1,3597.362,267.977Z" transform="translate(-3571.697 -267.268)" fill-rule="evenodd" fill="url(#linear-gradient)"/>
                <path id="Trazado_165090" data-name="Trazado 165090" d="M3589.784,272.01,3769.3,373.117a8.9,8.9,0,0,1,3.537,3.04c1.3,2.233,1.052,6.464,1,8.971l-15.177,144.692c-.186,1.766-.905,7.166-1.825,7.667-.773.42-3.161-.7-3.785-1.085l-.027-.015L3573.712,435.41a9.8,9.8,0,0,1-3.006-2.481c-1.445-2.022-1.371-5.563-1.323-7.928l15.442-149.47C3585.319,271.068,3585.963,269.979,3589.784,272.01Z" transform="translate(-3569.364 -268.508)" fill="#0a3c5f" fill-rule="evenodd"/>
                <path id="Trazado_165091" data-name="Trazado 165091" d="M3702.605,341.064l-18.74-10.627q-44.234-25.084-88.758-50.325c-2.33-.838-2.83.467-3.227,4.059l-1.285,12.57c-3.785,37.3-8.493,80.367-12.28,117.671-.021,2.173.089,4.918,1.28,6.584a9.369,9.369,0,0,0,2.873,2.37l172.2,96.9.025.015c.6.367,2.878,1.439,3.617,1.036.879-.479,1.567-5.637,1.744-7.325l13.478-123.59c.048-2.394.282-6.436-.956-8.572a8.518,8.518,0,0,0-3.381-2.9Z" transform="translate(-3572.314 -271.422)" fill-rule="evenodd" fill="url(#linear-gradient-2)"/>
              </g>
              <g id="Grupo_115482" data-name="Grupo 115482" transform="translate(0 153.929)">
                <path id="Trazado_165092" data-name="Trazado 165092" d="M3688.351,620.761,3580.608,681.92c-18.31,10.341-26.359,13.473-45.685,2.244L3368.575,586.97c-2.22-1.517-3.6-2.447-3.64-4.262l-.148-6.873c.674-1.9,3.032,1.27,7.786-1.178L3493.8,507.2c7.906-3.037,13.094-3.863,19.45-.513L3693.43,607.45l3.363-1.368c-.267,6.4.975,6.294-3.5,11.047A19.94,19.94,0,0,1,3688.351,620.761Z" transform="translate(-3364.787 -499.419)" fill-rule="evenodd" fill="url(#linear-gradient-3)"/>
                <path id="Trazado_165093" data-name="Trazado 165093" d="M3693.661,602.466,3513.418,498.874c-6.387-3.357-11.607-1.906-18.045.562L3374.2,566.859c-10.7,5.507-7.167,8.007,1.4,12.993l157.877,91.99c18.753,9.573,22.408,13.065,51.3-2.723l103.751-58.895C3690.448,609.175,3696.906,605.186,3693.661,602.466Z" transform="translate(-3365.699 -496.908)" fill-rule="evenodd" fill="url(#linear-gradient-4)"/>
                <path id="Trazado_165094" data-name="Trazado 165094" d="M3681.439,617.566l-88.651,50.324c-14.183,6.732-24.19.195-28.633-2.218l-142.36-82.966c-7.342-4.55-15.273-8.7-5.178-14.419l92.287-51.349c6.02-2.313,9.969-2.941,14.806-.391l161.748,93.1C3688.237,611.851,3685.933,615.118,3681.439,617.566Z" transform="translate(-3380.3 -502.839)" fill="#2190df" fill-rule="evenodd" opacity="0.15"/>
                <g id="Grupo_115481" data-name="Grupo 115481" transform="translate(42.656 25.213)">
                  <path id="Trazado_165095" data-name="Trazado 165095" d="M3600.842,605.3l.009,2.093,9.576,5.57-.008-2.1-9.578-5.56Zm-81.436-47.545.009,2.093,9.577,5.57-.008-2.1-9.578-5.559Zm-90.982,21.7v2.094l9.578,5.57-.008-2.1-9.57-5.56Zm12.839-7.415v2.093l9.578,5.572-.009-2.1-9.569-5.562Zm12.84-7.414v2.1l9.576,5.562-.009-2.094-9.568-5.569Zm12.83-7.408v2.1l9.578,5.569v-2.1l-9.578-5.561Zm12.839-7.414v2.1l9.578,5.562-.01-2.094-9.568-5.57ZM3492.6,542.4l.008,2.1,9.569,5.56v-2.1l-9.576-5.56Zm-50.92,44.4v2.093l9.578,5.57-.008-2.1-9.57-5.56Zm12.839-7.416v2.093l9.579,5.571-.01-2.1-9.569-5.562Zm12.84-7.413v2.1l9.577,5.561-.009-2.094-9.568-5.569Zm12.829-7.408v2.095l9.579,5.57v-2.1l-9.579-5.562Zm12.84-7.414v2.1l9.578,5.562-.01-2.095-9.568-5.57Zm12.831-7.406.009,2.1,9.568,5.56v-2.1l-9.577-5.56Zm-9.5,68.984v2.093l9.578,5.57-.008-2.1-9.57-5.56ZM3509.2,611.3V613.4l9.578,5.571-.009-2.1L3509.2,611.3Zm12.839-7.414v2.1l9.576,5.562-.008-2.093-9.568-5.57Zm12.829-7.408v2.1l9.579,5.57v-2.1l-9.579-5.562Zm12.84-7.414v2.1l9.578,5.562-.009-2.095-9.569-5.57Zm12.831-7.406.008,2.1,9.569,5.56v-2.1l-9.577-5.56Zm-77.892,29.085.008,2.1,9.569,5.561v-2.1l-9.576-5.562Zm12.839-7.414v2.1l9.578,5.559V608.9l-9.578-5.569Zm12.839-7.408v2.095l9.577,5.57-.008-2.1-9.57-5.563Zm12.831-7.414.008,2.1,9.568,5.561v-2.095l-9.576-5.57ZM3534,581.1,3534,583.2l9.569,5.572v-2.1L3534,581.1Zm12.831-7.414.008,2.1,9.579,5.561-.008-2.093-9.579-5.57Zm-77.892,29.084.01,2.1,9.576,5.57-.008-2.1-9.578-5.57Zm12.839-7.406.008,2.094,9.578,5.569-.008-2.093-9.579-5.57Zm12.84-7.416.008,2.1,9.578,5.561-.008-2.093-9.578-5.572Zm12.83-7.406.008,2.095,9.578,5.57v-2.094l-9.586-5.571Zm12.839-7.414.008,2.1,9.578,5.56-.007-2.093-9.578-5.57Zm12.83-7.408.01,2.095,9.577,5.57v-2.093l-9.586-5.571Zm-77.883,29.086v2.1l9.579,5.561v-2.1l-9.579-5.569Zm12.84-7.407v2.093l9.578,5.572-.01-2.1-9.568-5.562Zm12.839-7.414v2.093l9.577,5.57-.008-2.1-9.569-5.56Zm12.83-7.408.008,2.095,9.57,5.57v-2.1l-9.578-5.562Zm12.84-7.414.008,2.094,9.569,5.57v-2.1l-9.577-5.561ZM3509.86,627v2.093l9.577,5.57-.008-2.1-9.57-5.56Zm12.839-7.416v2.093l9.579,5.572-.01-2.1-9.569-5.561Zm12.84-7.415v2.1l9.577,5.562-.009-2.094-9.568-5.57Zm12.829-7.408v2.1l9.578,5.569v-2.1l-9.578-5.562Zm12.84-7.414v2.1l9.579,5.561-.01-2.095-9.569-5.57Zm12.831-7.406.009,2.1,9.568,5.56v-2.1l-9.577-5.56Zm-50.918,44.4v2.094L3532.7,642l-.007-2.1-9.569-5.56Zm12.839-7.415v2.093l9.577,5.571-.009-2.1-9.568-5.561Zm12.839-7.415v2.1l9.577,5.562-.008-2.094-9.569-5.57Zm12.83-7.408V614.2l9.578,5.57v-2.1l-9.578-5.562Zm12.839-7.414v2.1l9.578,5.562-.009-2.095-9.569-5.57Zm12.832-7.406.007,2.1,9.569,5.56v-2.1l-9.576-5.559Zm-9.5,68.984v2.093l9.577,5.57-.009-2.1-9.569-5.559Zm12.839-7.416v2.093l9.577,5.571-.009-2.1-9.568-5.562Zm12.839-7.414v2.1l9.577,5.562-.008-2.093-9.569-5.57Zm12.829-7.408v2.1l9.579,5.57v-2.1l-9.579-5.561Zm12.84-7.414v2.1l9.578,5.562-.01-2.095-9.568-5.57Zm12.831-7.406.008,2.1,9.569,5.56v-2.1l-9.577-5.56Zm-77.892,29.084.008,2.1,9.569,5.561v-2.1l-9.577-5.562Zm12.84-7.414v2.1l9.575,5.56v-2.093l-9.575-5.57Zm12.837-7.408v2.095l9.579,5.57-.008-2.1-9.571-5.563Zm12.832-7.414.008,2.1,9.568,5.562v-2.095l-9.576-5.57Zm12.837-7.406.01,2.093,9.569,5.572v-2.1l-9.578-5.562Zm12.831-7.414.008,2.1,9.579,5.561-.009-2.093-9.578-5.569Zm-77.892,29.084.01,2.1,9.576,5.57-.008-2.1-9.578-5.57Zm12.839-7.406.009,2.093,9.578,5.569-.008-2.093-9.579-5.57Zm12.84-7.416.008,2.1,9.578,5.562-.008-2.093-9.578-5.571Zm12.83-7.406.008,2.095,9.578,5.57V633.66l-9.586-5.571Zm12.839-7.414.009,2.1,9.579,5.559-.009-2.093-9.578-5.57Zm12.83-7.408.01,2.095,9.576,5.57v-2.093l-9.586-5.571Zm-77.883,29.086v2.1l9.578,5.561v-2.1l-9.578-5.569Zm12.839-7.407v2.093l9.578,5.571-.01-2.1-9.568-5.562Zm12.839-7.414v2.093l9.577,5.57-.008-2.1-9.569-5.56Zm12.83-7.408.008,2.1,9.57,5.57v-2.1l-9.578-5.562Zm12.84-7.414.008,2.094,9.568,5.57v-2.1Z" transform="translate(-3428.424 -537.118)" fill="#0d4d7a" fill-rule="evenodd"/>
                  <path id="Trazado_165096" data-name="Trazado 165096" d="M3615.127,611.008l.008,2.1,9.132-5.277-.01-2.093-9.13,5.268Zm-81.436-47.546.008,2.1,9.132-5.277-.01-2.093-9.131,5.268Zm-90.99,21.7.008,2.1,9.132-5.278v-2.093l-9.14,5.267Zm12.838-7.414.009,2.1,9.131-5.279v-2.094l-9.14,5.27Zm12.839-7.407.008,2.094,9.132-5.27-.007-2.093-9.133,5.269Zm12.84-7.416v2.1l9.14-5.277-.011-2.095-9.13,5.269Zm12.83-7.405.009,2.094,9.131-5.271-.007-2.093-9.133,5.27Zm12.839-7.416v2.1l9.141-5.277-.01-2.093-9.131,5.268Zm-50.926,44.4.008,2.1,9.133-5.278v-2.093l-9.141,5.268Zm12.838-7.414.009,2.1,9.131-5.279v-2.093l-9.14,5.269Zm12.839-7.406.008,2.094,9.133-5.27-.009-2.093-9.132,5.269Zm12.84-7.416v2.1l9.14-5.278-.009-2.095-9.131,5.269Zm12.83-7.406.01,2.095,9.131-5.271-.008-2.093-9.133,5.269Zm12.839-7.416v2.1l9.14-5.277-.01-2.094-9.131,5.268Zm-9.505,68.984.008,2.1,9.133-5.278v-2.093l-9.14,5.267Zm12.837-7.414.009,2.1,9.131-5.279v-2.093l-9.14,5.269Zm12.839-7.406.008,2.093,9.133-5.27-.008-2.093-9.133,5.269Zm12.84-7.416v2.1l9.139-5.277-.009-2.1-9.13,5.269Zm12.83-7.406.01,2.095,9.131-5.271-.008-2.093-9.132,5.27Zm12.84-7.416v2.1l9.139-5.277-.009-2.093-9.13,5.268Zm-77.893,29.086v2.1l9.14-5.277-.009-2.1-9.131,5.27Zm12.84-7.406v2.093l9.14-5.268-.008-2.1-9.132,5.278Zm12.832-7.414.008,2.1,9.13-5.27-.008-2.1-9.13,5.271Zm12.837-7.408v2.095l9.139-5.269-.007-2.1-9.132,5.278Zm12.839-7.414v2.1l9.132-5.269-.008-2.1-9.124,5.27Zm12.832-7.406.008,2.093,9.13-5.269-.008-2.1-9.13,5.279Zm-77.893,29.084.008,2.1,9.132-5.279v-2.093l-9.14,5.269Zm12.839-7.406.008,2.093,9.133-5.269v-2.1l-9.141,5.277Zm12.84-7.414.008,2.093,9.131-5.269-.009-2.094-9.13,5.271Zm12.837-7.407v2.093l9.14-5.269-.008-2.1-9.132,5.279Zm12.832-7.416.007,2.093,9.133-5.269-.009-2.093-9.131,5.269Zm12.838-7.406v2.093l9.141-5.27-.009-2.1-9.132,5.279Zm-77.891,29.084v2.1l9.139-5.269-.009-2.1-9.13,5.277Zm12.829-7.414.01,2.1,9.131-5.279v-2.093l-9.141,5.269Zm12.84-7.416.008,2.1,9.132-5.269-.008-2.1-9.132,5.27Zm12.839-7.406v2.1l9.14-5.278-.01-2.095-9.131,5.269Zm12.838-7.414v2.1l9.132-5.27-.008-2.1-9.125,5.27Zm3.277,61.834.008,2.1,9.132-5.278v-2.093l-9.14,5.267Zm12.838-7.414.01,2.1,9.131-5.279v-2.093l-9.14,5.269Zm12.838-7.406.009,2.094,9.132-5.27-.008-2.093-9.134,5.269Zm12.84-7.416v2.1l9.14-5.277-.01-2.095-9.131,5.269Zm12.83-7.406.01,2.095,9.131-5.271-.008-2.093-9.132,5.269Zm12.839-7.416v2.1l9.14-5.277-.009-2.093-9.131,5.268Zm-50.925,44.4.007,2.1,9.133-5.278v-2.093l-9.14,5.268Zm12.838-7.414.008,2.1,9.132-5.279v-2.093l-9.14,5.269Zm12.839-7.406.008,2.094,9.132-5.27-.007-2.093-9.132,5.269Zm12.839-7.416v2.1l9.14-5.278-.009-2.1-9.131,5.27Zm12.83-7.406.009,2.095,9.131-5.271-.008-2.093-9.132,5.269Zm12.839-7.416v2.1l9.14-5.277-.01-2.094-9.13,5.268Zm-9.506,68.984.008,2.1,9.132-5.278V666.7l-9.14,5.267Zm12.838-7.414.009,2.1,9.131-5.278v-2.094l-9.14,5.27Zm12.84-7.406.008,2.093,9.132-5.27-.008-2.093-9.132,5.27Zm12.839-7.416v2.1l9.141-5.278-.011-2.095-9.13,5.269Zm12.83-7.405.009,2.095,9.132-5.271-.009-2.093-9.132,5.27Zm12.839-7.416v2.1l9.14-5.277-.009-2.093-9.131,5.268ZM3578.368,664v2.1l9.14-5.277-.008-2.095L3578.368,664Zm12.839-7.406v2.093l9.14-5.268-.007-2.1-9.133,5.278Zm12.832-7.414.008,2.1,9.13-5.27-.008-2.1-9.13,5.271Zm12.838-7.408v2.095l9.14-5.27-.008-2.1-9.132,5.278Zm12.839-7.414v2.1l9.132-5.27-.01-2.1-9.123,5.27Zm12.831-7.406.008,2.093,9.131-5.269-.009-2.1-9.13,5.279Zm-77.893,29.084.008,2.1,9.132-5.279v-2.093l-9.14,5.269Zm12.84-7.406.008,2.093,9.132-5.269v-2.1l-9.14,5.277Zm12.839-7.414.008,2.093,9.131-5.269-.008-2.094-9.131,5.27Zm12.838-7.406V635.9l9.14-5.269-.008-2.1-9.132,5.279ZM3616,626.389l.009,2.093,9.132-5.27-.01-2.093L3616,626.389Zm12.838-7.406v2.093l9.142-5.27-.01-2.1-9.132,5.279Zm-77.891,29.084v2.1l9.14-5.269-.009-2.1-9.131,5.277Zm12.83-7.414.01,2.1,9.131-5.279v-2.093l-9.141,5.269Zm12.839-7.416.008,2.1,9.133-5.269-.008-2.1-9.132,5.27Zm12.839-7.406v2.1l9.142-5.278-.01-2.1-9.131,5.27Zm12.838-7.414v2.1l9.133-5.271-.008-2.1Z" transform="translate(-3433.131 -537.262)" fill="#0a3c5f" fill-rule="evenodd"/>
                  <path id="Trazado_165097" data-name="Trazado 165097" d="M3519.406,555.163l9.578,5.56,9.131-5.268-9.577-5.572-9.132,5.28Zm81.436,47.545,9.578,5.56L3619.55,603l-9.576-5.572-9.132,5.279Zm-90.982,21.7,9.57,5.56,9.14-5.267-9.578-5.572-9.132,5.279Zm12.839-7.416,9.131-5.277,9.579,5.569-9.141,5.269-9.569-5.561Zm12.84-7.415,9.568,5.57,9.133-5.269-9.578-5.571-9.123,5.271Zm12.829-7.408,9.133-5.277,9.576,5.57-9.131,5.269-9.578-5.562Zm12.84-7.414,9.569,5.57,9.132-5.269-9.578-5.57-9.123,5.269Zm12.831-7.406,9.131-5.279,9.576,5.571-9.131,5.268-9.577-5.56Zm-50.918,44.4,9.132-5.279,9.578,5.571-9.14,5.268-9.569-5.56Zm12.839-7.415,9.568,5.561,9.14-5.269-9.579-5.569-9.13,5.278Zm12.839-7.415,9.123-5.271,9.578,5.572-9.132,5.269-9.569-5.569Zm12.83-7.408,9.578,5.561,9.131-5.27-9.577-5.569-9.132,5.277Zm12.839-7.414,9.123-5.269,9.578,5.57-9.132,5.269-9.569-5.57Zm12.832-7.406,9.131-5.279,9.576,5.571-9.131,5.268-9.576-5.56Zm-9.5,68.984,9.569,5.56,9.14-5.267-9.578-5.572-9.131,5.279Zm12.839-7.416,9.13-5.277,9.578,5.569-9.14,5.27-9.568-5.562Zm12.839-7.414,9.569,5.57,9.132-5.27-9.578-5.571-9.123,5.271Zm12.829-7.408,9.133-5.277,9.576,5.57-9.13,5.269-9.579-5.562Zm12.84-7.414,9.568,5.57,9.132-5.27-9.577-5.57-9.123,5.269Zm12.831-7.406,9.131-5.279,9.577,5.571-9.131,5.268-9.577-5.56Zm-77.892,29.085,9.131-5.269,9.578,5.562-9.132,5.269-9.577-5.561Zm12.84-7.414,9.575,5.57,9.133-5.278-9.578-5.561-9.13,5.27Zm12.837-7.408,9.124-5.268,9.578,5.559-9.13,5.271-9.571-5.563Zm12.832-7.414,9.576,5.57,9.132-5.278-9.577-5.562-9.131,5.27Zm12.837-7.406,9.132-5.27,9.569,5.562-9.123,5.27-9.578-5.562Zm12.831-7.414,9.578,5.57,9.131-5.279-9.578-5.56-9.13,5.269Zm-77.892,29.084,9.578,5.57,9.14-5.269-9.586-5.57-9.132,5.269Zm12.839-7.406,9.133-5.279,9.586,5.572-9.14,5.277-9.579-5.57Zm12.84-7.416,9.578,5.571,9.131-5.27-9.578-5.57-9.131,5.269Zm12.83-7.406,9.132-5.277,9.586,5.57-9.132,5.279-9.586-5.571Zm12.839-7.414,9.578,5.57,9.131-5.269-9.578-5.57-9.132,5.27Zm12.83-7.408,9.141-5.277,9.578,5.569-9.133,5.279-9.586-5.571Zm-77.883,29.086,9.578,5.569,9.13-5.277-9.576-5.562-9.133,5.27Zm12.839-7.407,9.131-5.277,9.578,5.57-9.14,5.269-9.568-5.562Zm12.839-7.414,9.569,5.56,9.132-5.27-9.578-5.561-9.123,5.271Zm12.83-7.408,9.131-5.277,9.578,5.569-9.131,5.27-9.578-5.562Zm12.84-7.414,9.13-5.269,9.57,5.562-9.125,5.269-9.576-5.562Zm-159.588-33.256,9.57,5.56,9.14-5.267-9.578-5.571-9.132,5.279Zm12.839-7.415,9.131-5.277,9.578,5.569-9.14,5.27-9.569-5.562Zm12.84-7.414,9.568,5.569,9.133-5.269-9.579-5.571-9.122,5.271Zm12.83-7.408,9.132-5.277,9.576,5.57-9.13,5.269-9.578-5.562Zm12.839-7.414,9.568,5.57,9.133-5.27-9.579-5.57-9.122,5.269ZM3492.6,539.8l9.131-5.279,9.576,5.571-9.131,5.268-9.576-5.56Zm-50.92,44.4,9.132-5.279,9.578,5.571-9.14,5.268-9.57-5.559Zm12.839-7.416,9.569,5.561,9.14-5.269-9.578-5.57-9.131,5.277Zm12.84-7.414,9.123-5.272,9.578,5.572-9.132,5.269-9.568-5.569Zm12.829-7.408,9.579,5.562,9.131-5.269-9.576-5.57-9.133,5.277Zm12.84-7.414,9.123-5.269,9.578,5.57-9.132,5.269-9.568-5.57Zm12.831-7.406,9.131-5.279,9.577,5.571-9.131,5.268-9.577-5.559Zm-9.5,68.984,9.132-5.279,9.578,5.572-9.14,5.267-9.57-5.56Zm12.839-7.416,9.569,5.562,9.14-5.269-9.578-5.57-9.131,5.277Zm12.839-7.414,9.122-5.271,9.578,5.572-9.132,5.269-9.568-5.57Zm12.829-7.408,9.579,5.562,9.13-5.269-9.576-5.57-9.132,5.277Zm12.84-7.414,9.122-5.269,9.579,5.57-9.132,5.27-9.569-5.57Zm12.831-7.406,9.577,5.56,9.131-5.268-9.577-5.571-9.131,5.279Zm-77.892,29.085,9.576,5.562,9.132-5.27-9.578-5.561-9.13,5.269Zm12.839-7.414,9.131-5.27,9.579,5.561-9.132,5.278-9.578-5.57Zm12.839-7.408,9.57,5.563,9.13-5.271-9.577-5.56-9.122,5.268Zm12.831-7.414,9.13-5.27,9.579,5.562-9.133,5.278-9.576-5.57ZM3534,578.506l9.578,5.561,9.123-5.27-9.569-5.562-9.132,5.27Zm12.831-7.414,9.131-5.269,9.579,5.56-9.13,5.279-9.579-5.569Zm-77.892,29.084,9.133-5.269,9.586,5.57-9.14,5.269-9.578-5.57Zm12.839-7.406,9.579,5.57,9.14-5.277-9.587-5.572-9.132,5.279Zm12.84-7.416,9.13-5.269,9.578,5.57-9.13,5.271-9.578-5.572Zm12.83-7.406,9.586,5.571,9.132-5.279-9.586-5.57-9.132,5.277Zm12.839-7.414,9.131-5.27,9.578,5.57-9.13,5.269-9.578-5.57Zm12.83-7.408,9.14-5.278,9.578,5.57L3542.7,568.7l-9.586-5.571Zm-77.883,29.086,9.579,5.569,9.13-5.278-9.576-5.562-9.133,5.27Zm12.84-7.407,9.13-5.277,9.579,5.57-9.141,5.269-9.568-5.562Zm12.839-7.414,9.569,5.56,9.132-5.27-9.578-5.561-9.123,5.271Zm12.83-7.408,9.131-5.277,9.578,5.57-9.131,5.269-9.578-5.561Zm12.84-7.414,9.13-5.269,9.571,5.561-9.124,5.27Z" transform="translate(-3428.424 -534.522)" fill="#1466a0" fill-rule="evenodd"/>
                </g>
              </g>
            </g>
            <g id="Grupo_115484" data-name="Grupo 115484" transform="translate(394.083 135.731)">
              <path id="Trazado_165098" data-name="Trazado 165098" d="M3679.584,484.045c-35.944-19.895-67.372-68.09-70.218-107.686-2.844-39.572,23.971-55.556,59.917-35.662,35.922,19.883,67.373,68.114,70.215,107.686C3742.345,487.979,3715.508,503.927,3679.584,484.045Z" transform="translate(-3609.158 -332.141)" fill="#2190df" fill-rule="evenodd" opacity="0.15"/>
              <path id="Trazado_165099" data-name="Trazado 165099" d="M3685.486,476.991c-28.073-15.538-52.618-53.179-54.841-84.1-2.222-30.907,18.722-43.39,46.8-27.853,28.055,15.529,52.62,53.2,54.839,84.1C3734.5,480.063,3713.544,492.519,3685.486,476.991Z" transform="translate(-3616.189 -340.783)" fill="#2190df" fill-rule="evenodd" opacity="0.15"/>
              <path id="Trazado_165100" data-name="Trazado 165100" d="M3690.749,471.855c-20.2-11.181-37.866-38.27-39.465-60.525s13.473-31.225,33.676-20.043,37.867,38.283,39.464,60.525S3710.94,483.029,3690.749,471.855Z" transform="translate(-3623.009 -350.056)" fill="#2190df" fill-rule="evenodd" opacity="0.15"/>
            </g>
            <path id="Trazado_165101" data-name="Trazado 165101" d="M3645.264,446.968c-24.338-29.713-36.8-47.659-44.2-64.319-2.972-4.787-2.625-15.392-5.12-22.178,24.237-3.628,33.025,4.968,54.906-1.633,20.836,9.738,28.328,19.017,32.762,39.028,2.965,13.381,5.059,30.184,12.556,52.834C3688.413,458.085,3660.9,460.337,3645.264,446.968Z" transform="translate(-3210.72 -205.212)" fill="#4e2e8e" fill-rule="evenodd"/>
            <g id="Grupo_115485" data-name="Grupo 115485" transform="translate(351.746)">
              <path id="Trazado_165102" data-name="Trazado 165102" d="M3571.488,132.076c-7.075-1.094-12.67,3.772-15.5,10.274-3.313,7.6-3.153,17.443-1.734,22.609,4.612,16.788-3.514,24.1-6.5,31.922a34.087,34.087,0,0,0-1.725,12.937c.2,6.013,3.666,9.108,6.569,14.491a47.46,47.46,0,0,0,4.232,14.883c7.961,15.924,34.744,23.613,60.453,22.436,20.574-.941,40.46-8.223,49.464-16.591,9.882-9.183,11.158-32.5-5.438-34.871-3.866-.553-8.368-1.394-11.668-5.394-2.27-2.75-.076-10,.468-19.653.529-9.348-1.6-19.183-15.191-22.462-5.206-1.256-10.278-1.774-14.621-4.625-9.489-6.228-6.017-17.8-16.309-24.61-6.214-4.112-16.215-5.005-27.136-1.973C3575.082,131.653,3573.295,131.877,3571.488,132.076Z" transform="translate(-3545.998 -129.65)" fill-rule="evenodd" fill="url(#linear-gradient-5)"/>
              <path id="Trazado_165103" data-name="Trazado 165103" d="M3566.838,146.395c-.59,4.564,1.082,8.537,3.793,12.363,6.325,8.927,9.649,8.229,13.109,19.6,5.692-3.8,9.6-4.377,11.239-.647,2.637,6,.974,9.543,1.589,15.749,1,10.085,13.052-3.738,22.5,3.99,9.292,7.6,2.917,12.932,6.5,23.688,1.344,4.026,2.387,9.319,6.145,11.1,11.689,5.535,16.165,19.465-4.644,26.381-12.889,4.284-31.609,3.211-47.25-2.12-20.649-7.039-33.385-37.5-28.116-51.974,2.182-5.988,8.071-10.462,8.1-15.14C3559.915,173.306,3556.811,162.994,3566.838,146.395Z" transform="translate(-3547.49 -135.171)" fill="#48202d" fill-rule="evenodd"/>
            </g>
            <path id="Trazado_165104" data-name="Trazado 165104" d="M3634.874,309.983l2.683,4.681c-4.517,14.021-44.54,24.038-54.523,7.194l-2.773-7.347c-.495-8.833-14.142-18.218-16.37-29.165-.466-2.291-.379-3.832-.8-6.163-10.236-3.994-13.1-16.406-10.1-25.14a67.12,67.12,0,0,0,3.373-13.477,54.773,54.773,0,0,1-.378-7.08,11.485,11.485,0,0,1,.769-4.136c1.464-4.127,5.265-5.624,13.77-6,16.851-.747,35.446,2.965,44.875,8.707,3.771,2.3,6.708,4.949,8.276,9.421,3.893,11.1-2.913,31.192-1.751,44.74C3623.118,300.143,3634.943,309.259,3634.874,309.983Z" transform="translate(-3196.187 -160.511)" fill="#6677d6" fill-rule="evenodd"/>
            <g id="Grupo_115489" data-name="Grupo 115489" transform="translate(362.974 17.263)">
              <path id="Trazado_165105" data-name="Trazado 165105" d="M3600.219,200.721a42.763,42.763,0,0,0,1.628,20.944c-5.877,5.441-16.329,3.129-18.758-1.8.514-3.19,1.111-6.119,1.456-9.393Z" transform="translate(-3569.456 -170.345)" fill="#e7a376" fill-rule="evenodd"/>
              <g id="Grupo_115488" data-name="Grupo 115488">
                <g id="Grupo_115487" data-name="Grupo 115487">
                  <path id="Trazado_165106" data-name="Trazado 165106" d="M3569.235,155.4a23.282,23.282,0,0,0-3.814,15.947,6.852,6.852,0,0,1-.548,3.809c-2.74,6.185-2.494,8.1-1.137,13.059,1.32,4.82,1.231,7.339,2.875,8.993,1.688,1.7,4.213,2.091,6.354,2.226,4.386.276,11.917-2.617,16.295-5.011,3.245-1.774,3.12-2.988,4.491-6.064,4.581-3.984,1.613-6.893.078-7.19-4.4-.855-5.114,4.216-7.722,5.338C3586.539,177.6,3569.56,162.56,3569.235,155.4Z" transform="translate(-3562.75 -155.405)" fill="#f0b186" fill-rule="evenodd"/>
                  <path id="Trazado_165107" data-name="Trazado 165107" d="M3572.4,155.4c2.464,10.941,16.754,19.223,16.872,31.107C3585.369,174.161,3571.508,165.708,3572.4,155.4Z" transform="translate(-3565.919 -155.405)" fill="#e7a376" fill-rule="evenodd"/>
                  <g id="Grupo_115486" data-name="Grupo 115486" transform="translate(1.026 13.791)">
                    <path id="Trazado_165108" data-name="Trazado 165108" d="M3569.156,181.563a9.525,9.525,0,0,0-1.551-2.262c-.956-.929-2.094-1.43-3.324-3.321a9.086,9.086,0,0,0,2.56,3.823A11.339,11.339,0,0,0,3569.156,181.563Z" transform="translate(-3564.281 -175.979)" fill="#401c28" fill-rule="evenodd"/>
                    <path id="Trazado_165109" data-name="Trazado 165109" d="M3579.143,188.992a6.957,6.957,0,0,1,3.138,1.022c.924.6,1.787,1.7,3.221,2.275a13.744,13.744,0,0,1-3.808-1.556C3580.758,190.265,3580.168,189.371,3579.143,188.992Z" transform="translate(-3569.18 -180.269)" fill="#401c28" fill-rule="evenodd"/>
                    <path id="Trazado_165110" data-name="Trazado 165110" d="M3568.708,205.262a8.453,8.453,0,0,1,2.09,1.1,10.6,10.6,0,0,0,4.971,1.619c-3.169.569-5.505.646-7.37-.789C3568.132,206.988,3567.657,204.947,3568.708,205.262Z" transform="translate(-3565.526 -185.623)" fill="#ec8780" fill-rule="evenodd"/>
                    <path id="Trazado_165111" data-name="Trazado 165111" d="M3570.436,187.262c-2.552,4.806-6.335,4.912-2.235,8.379C3562.541,192.741,3567.43,191.629,3570.436,187.262Z" transform="translate(-3564.715 -179.699)" fill="#e7a376" fill-rule="evenodd"/>
                  </g>
                </g>
                <path id="Trazado_165112" data-name="Trazado 165112" d="M3568.493,180.828c-.363,0-.658.415-.658.926s.3.927.658.927.659-.415.659-.927S3568.857,180.828,3568.493,180.828Z" transform="translate(-3564.426 -163.787)" fill="#401c28" fill-rule="evenodd"/>
                <path id="Trazado_165113" data-name="Trazado 165113" d="M3582.9,190.337c-.392,0-.667.341-.667.893s.318,1,.71,1,.71-.447.71-1A.812.812,0,0,0,3582.9,190.337Z" transform="translate(-3569.173 -166.922)" fill="#401c28" fill-rule="evenodd"/>
              </g>
            </g>
            <g id="Grupo_115492" data-name="Grupo 115492" transform="translate(272.273 72.359)">
              <g id="Grupo_115491" data-name="Grupo 115491" transform="translate(0 93.843)">
                <g id="Grupo_115490" data-name="Grupo 115490" transform="translate(36.841)">
                  <path id="Trazado_165114" data-name="Trazado 165114" d="M3494.922,390.931c-1.96,1.231-3.12,4.218-6.817,4.685l-4.632,4.208.319,11.555c4.509-1.242,8.39-2.783,12.3-3.2s9.816-.745,12.088-1.331,10.011-8.2,10.331-8.839,3.017-6.87,2.449-7.562-.936-3.632-3.408-4.154C3515.687,385.9,3496.882,389.7,3494.922,390.931Z" transform="translate(-3482.753 -380.458)" fill="#f0b186" fill-rule="evenodd"/>
                  <path id="Trazado_165115" data-name="Trazado 165115" d="M3498.252,402.908a38.149,38.149,0,0,1,8.253.833c3.967.909,5.813,3.175,6.057,3.111,2.272-.585,10.011-8.2,10.331-8.839s3.017-6.87,2.45-7.562-.936-3.631-3.408-4.154a2.031,2.031,0,0,0-.378-.03c-4.248,4.772-5.707,6.79-9.3,6.418-4.466-.464-6.626,4.884-14.179,7.715C3495.728,401.28,3496.994,402.632,3498.252,402.908Z" transform="translate(-3487.133 -380.458)" fill="#cb885c" fill-rule="evenodd"/>
                  <path id="Trazado_165116" data-name="Trazado 165116" d="M3543.747,386.348c-4.818,2.268-7.339,11.341-10.7,14.75-3.589,3.638-3.186,3.019-7.926,4.348-9.071,1.3-10.616,1.254-19.648-.3a6.542,6.542,0,0,0,2.883-1.623c3.828-2.934,10.81-8.764,12.944-10.982,2.368-2.463-4.74-4.93-4.254-5.566,7.7-10.085,14.812-4.7,20.531-9.373Z" transform="translate(-3490.004 -377.6)" fill="#e7a376" fill-rule="evenodd"/>
                  <path id="Trazado_165117" data-name="Trazado 165117" d="M3547.086,388.683c-4.818,2.268-7.925,11.128-11.289,14.538-3.589,3.638-3.187,3.019-7.926,4.348-5.763.826-8.292,1.614-14.049.58,5.868-3.241,11.425-7.843,15.861-10.386,4.6-2.638,10.824-10.789,15.265-13.725Z" transform="translate(-3492.758 -379.723)" fill="#f0b186" fill-rule="evenodd"/>
                  <path id="Trazado_165118" data-name="Trazado 165118" d="M3519.969,390.073c-1.129.084-4.157-1.117-6.256-.082-3.542,1.748-6.642,3.517-7.985.233,3.275-2.775,4.594-3.315,6.97-5.233.993-.153,9.2-3.962,13.1-4.348,3.188-.316,4.726.6,9.269-.135C3536.927,393.895,3520.816,390.009,3519.969,390.073Z" transform="translate(-3490.09 -378.559)" fill="#e7a376" fill-rule="evenodd"/>
                  <path id="Trazado_165119" data-name="Trazado 165119" d="M3514.775,391.872c3.982.594,9.447,1.816,10.293-2.791-4-1.565-7.018-3.14-9.886-4.185-.99.176-10.7-.779-14.4.493a21.6,21.6,0,0,0-4.454,2.062,31.981,31.981,0,0,0-5.063,4.658c-1.212,1.272-5.366,1.42-8.868,1.973a74,74,0,0,1,.838,10.756c-.054,1.93,6.764-4.051,7.793-4.064,1.878-.024,9.331-2.848,11.2-3.5C3507.544,395.427,3512.667,391.558,3514.775,391.872Z" transform="translate(-3482.398 -379.946)" fill="#f0b186" fill-rule="evenodd"/>
                </g>
                <path id="Trazado_165120" data-name="Trazado 165120" d="M3471.9,395.489c1.606,5.851,1.77,10.03,2.078,16.082-3.543.816-5.182,1.745-8.467,3.3-2.172,5.956-28.9,7.129-36.9,9.106l-1.17-25.774c8.738-3.365,33.1-6.686,37.009-2.343C3467.087,395.857,3469.273,395.738,3471.9,395.489Z" transform="translate(-3427.437 -382.938)" fill="#6677d6" fill-rule="evenodd"/>
              </g>
              <path id="Trazado_165121" data-name="Trazado 165121" d="M3549.189,332.742l4.3-3.473c1.252-4.347,3.961-5.763,7.284-8.906l28.937-27.372c2.23-15.257,5.923-39.53,12.159-49.7,2.592-4.226,5.745-5.385,9.583-5.678,5.094-.389,11.873,5.837,11.93,14.91.084,13.058-9.635,35.469-16.083,50.5a23.131,23.131,0,0,1-5.869,8.524l-.938.955-27.677,20.88c-4.6,3.327-7.385,5.419-10.954,5.328l-5.465,3.447C3553.973,334.525,3550.5,333.874,3549.189,332.742Z" transform="translate(-3467.578 -237.599)" fill="#4e2e8e" fill-rule="evenodd"/>
            </g>
            <g id="Grupo_115494" data-name="Grupo 115494" transform="translate(0 332.67)">
              <path id="Trazado_165122" data-name="Trazado 165122" d="M3027.842,694.337c-8.752,5.052-8.8,13.243-.13,18.28l159.183,92.5c8.695,5.055,22.808,5.042,31.56-.01l70.769-40.859c8.752-5.055,8.822-13.229.127-18.281l-159.18-92.506c-8.67-5.039-22.809-5.039-31.559.015Z" transform="translate(-3021.244 -633.774)" fill="#0a3d61" fill-rule="evenodd"/>
              <path id="Trazado_165123" data-name="Trazado 165123" d="M3028.091,715.37c108.338,47.847,145.719,91.767,261.511,51.636,4.409-2.548,6.615-5.885,6.607-9.216l.063,9.028c.01,3.333-2.195,6.669-6.605,9.217l-70.77,40.859c-8.7,5.018-22.917,5.059-31.558.013L3028.158,724.4c-3.188-1.687-6.2-4.293-6.515-7.458,0-7.283,0-3.351-.021-10.634C3021.646,710.267,3024.875,713.511,3028.091,715.37Z" transform="translate(-3021.369 -652.441)" fill-rule="evenodd" fill="url(#linear-gradient-6)"/>
              <path id="Trazado_165124" data-name="Trazado 165124" d="M3028.22,670.6c-8.753,5.052-8.8,13.243-.129,18.28l159.182,92.5c8.7,5.055,22.809,5.043,31.56-.01l70.768-40.859c8.752-5.055,8.822-13.227.127-18.281l-159.18-92.506c-8.67-5.039-22.809-5.039-31.559.015Z" transform="translate(-3021.369 -625.947)" fill-rule="evenodd" fill="url(#linear-gradient-7)"/>
              <path id="Trazado_165125" data-name="Trazado 165125" d="M3285.729,724.879,3138.929,640l-.143-.011-.519-.3a28.229,28.229,0,0,0-13.756-3.255,28.592,28.592,0,0,0-13.855,3.274l-70.766,40.859c-2.946,1.7-4.636,3.805-4.641,5.778,0,1.942,1.645,4.01,4.52,5.68l150.977,88.056Z" transform="translate(-3025.862 -629.403)" fill-rule="evenodd" fill="url(#linear-gradient-8)"/>
              <g id="Grupo_115493" data-name="Grupo 115493" transform="translate(212.281 118.368)">
                <path id="Trazado_165126" data-name="Trazado 165126" d="M3361.084,810.253c-9.351,4.13-12.577,7.92-22.571,4.457a.968.968,0,0,1-.571-.8l0,1.013a.962.962,0,0,0,.57.8l6.108,3.527a3.012,3.012,0,0,0,2.724,0l13.739-7.985a.945.945,0,0,0,.562-.643c0-.628,0-.523,0-1.152A1,1,0,0,1,3361.084,810.253Z" transform="translate(-3337.938 -804.821)" fill="#b4cce5" fill-rule="evenodd"/>
                <path id="Trazado_165127" data-name="Trazado 165127" d="M3361.075,806.388a.834.834,0,0,1,.012,1.578l-13.739,7.984a3,3,0,0,1-2.724,0l-6.108-3.526a.833.833,0,0,1-.01-1.578l13.738-7.985a3,3,0,0,1,2.724,0Z" transform="translate(-3337.941 -802.534)" fill="#eaf4ff" fill-rule="evenodd"/>
              </g>
              <path id="Trazado_165128" data-name="Trazado 165128" d="M3104.177,655.333a.26.26,0,0,1,0,.491l-17.468,10.184a.935.935,0,0,1-.849,0l-1.9-1.1a.26.26,0,0,1,0-.491l17.466-10.185a.935.935,0,0,1,.849,0Z" transform="translate(-3041.864 -635.24)" fill="#0d4d7a" fill-rule="evenodd"/>
            </g>
            <g id="Grupo_115495" data-name="Grupo 115495" transform="translate(71.173 374.111)">
              <path id="Trazado_165129" data-name="Trazado 165129" d="M3236.54,698.628c-25.076-14.476-65.6-14.476-90.516,0s-24.781,37.955.3,52.432c25.092,14.488,65.62,14.488,90.533.01S3261.632,713.117,3236.54,698.628Z" transform="translate(-3127.424 -687.771)" fill="#2190df" fill-rule="evenodd" opacity="0.15"/>
              <path id="Trazado_165130" data-name="Trazado 165130" d="M3232.718,711.105c-18.039-10.414-47.191-10.414-65.114,0s-17.825,27.3.213,37.717,47.2,10.422,65.125.007S3250.768,721.527,3232.718,711.105Z" transform="translate(-3136.261 -692.889)" fill="#2190df" fill-rule="evenodd" opacity="0.15"/>
              <path id="Trazado_165131" data-name="Trazado 165131" d="M3229.984,720.03c-13.005-7.507-34.023-7.507-46.943,0s-12.851,19.684.153,27.191,34.031,7.514,46.951.005S3243,727.544,3229.984,720.03Z" transform="translate(-3142.581 -696.55)" fill="#2190df" fill-rule="evenodd" opacity="0.15"/>
            </g>
            <g id="Grupo_115504" data-name="Grupo 115504" transform="translate(103.532 63.683)">
              <g id="Grupo_115496" data-name="Grupo 115496" transform="translate(150.753 146.656)">
                <path id="Trazado_165132" data-name="Trazado 165132" d="M3439.173,481.549c-1.2,4.236-.848,10.432-.017,15.253-13.624,3.663-17.279-2.455-27.746-10.614,3.747.9,6.5-4.351,10.613-3.084C3427.52,484.8,3436.348,483.019,3439.173,481.549Z" transform="translate(-3404.166 -456.008)" fill="#106f86" fill-rule="evenodd"/>
                <path id="Trazado_165133" data-name="Trazado 165133" d="M3402.518,443.446c-5.345,15.08,1.346,31.8,9.5,38.673,5.6,4.729,16.2,7.005,23.637,2.128-14.855,1.754-19.7-21.1-18.211-38.722C3414.733,445.057,3405.208,444,3402.518,443.446Z" transform="translate(-3400.601 -443.446)" fill="#1989a5" fill-rule="evenodd"/>
              </g>
              <g id="Grupo_115503" data-name="Grupo 115503">
                <g id="Grupo_115497" data-name="Grupo 115497" transform="translate(2.646 185.768)">
                  <path id="Trazado_165134" data-name="Trazado 165134" d="M3282.156,535.441c-5.172,20.485-19.722,96.553-28.583,113a164.68,164.68,0,0,0-9.852,23.074,23.423,23.423,0,0,1-4.387,3.235c-9.412,5.47-23.558,6.548-34.883,3.236.366-2.4.717-4.56,1.055-6.411,2.968-16.309,8.872-31.851,16.345-40.639,2.271-11.657,8.509-55.033,9.123-77.081.221-7.955-6.025-36.528,10.949-52.061Z" transform="translate(-3187.824 -501.796)" fill-rule="evenodd" fill="url(#linear-gradient-9)"/>
                  <path id="Trazado_165135" data-name="Trazado 165135" d="M3220.754,676.277c-3.883,4.149-7.83,8.746-11.8,13.632-7.4-.132-14.74-1.833-20.408-5.106-10.7-6.175-11.753-15.831-3.127-22.659l-.353-.3c1-.741,2.066-1.485,3.208-2.239,6.02-9.815,37.034-55.6,47.576-74.673,2.188-14.127,4.792-39.2,28.885-52.636,6.234,8.8,27.9,20.518,41.827,18.012-5.008,16.167-16.142,37.8-31.162,59.354C3256.391,636.932,3232.429,663.8,3220.754,676.277Z" transform="translate(-3179.646 -511.851)" fill="#4e2e8e" fill-rule="evenodd"/>
                </g>
                <path id="Trazado_165136" data-name="Trazado 165136" d="M3285.273,395.121c.841,18.12-17.3,54.017-20.856,73.583,1.968,16.417,49.728,30.326,71.778,11.8,22.627-36.39,50.639-94.727,40.691-121.788-1.5-4.087-4.492-5.6-7.629-8.125-8.132-6.533-49.495-27.812-62.247-29.325C3269.988,316.465,3284.439,377.135,3285.273,395.121Z" transform="translate(-3204.949 -256.419)" fill="#cee0f3" fill-rule="evenodd"/>
                <path id="Trazado_165137" data-name="Trazado 165137" d="M3343.846,404.545c3.9-12.832,9.448-36.952,4.111-46.839-1.921-3.557-4.857-5.593-7.769-7.932-7.547-6.063-49.857-27.884-61.692-29.288-23.481-3.039-27.124,14-28.215,35.32-2.3,44.962-27.158,93.906-73.182,115.022-3.537,8.156-.081,16.4,7.1,23.435,10.349-.316,22.828-5.2,31.979-13.3-11.052,10.592-17.463,14.953-26.3,18.074a78.733,78.733,0,0,0,25.376,11.848C3265.52,524.412,3331.786,444.252,3343.846,404.545Z" transform="translate(-3175.699 -256.135)" fill="#6677d6" fill-rule="evenodd"/>
                <path id="Trazado_165138" data-name="Trazado 165138" d="M3406.718,421.768c3.9-12.833,10.213-37.407,4.111-46.839-3.5-5.4-18.022-1-20.435,1.854-23.488,18.895-21.461,83.019-24,108.061C3386.1,465.386,3401.449,439.116,3406.718,421.768Z" transform="translate(-3238.571 -273.358)" fill="#072c47" fill-rule="evenodd" opacity="0.5"/>
                <g id="Grupo_115498" data-name="Grupo 115498" transform="translate(100.056)">
                  <path id="Trazado_165139" data-name="Trazado 165139" d="M3377.684,291.8c-2.225,1.1-13.519-.5-13.188.513.146,4.524,1.368,7.457,1.971,12.988-.293,5.008-28.794,6.606-29.541-6.525.492-5.567,1.116-12.566-.5-15.174-2.63-4.251-8.035-8.989-9.949-15.435-3.058-10.3-1.946-21.748,7.661-29.375,17.542-13.931,39.973-4.018,45.657,16.355,1.109,3.978-2.028,6.133-1.917,9.535.021.666.9,1.36,1.618,2.837C3380.488,269.561,3380.41,290.45,3377.684,291.8Z" transform="translate(-3324.968 -227.178)" fill="#e7a376" fill-rule="evenodd"/>
                  <path id="Trazado_165140" data-name="Trazado 165140" d="M3377.634,291.913c-1.182.633-6.059.215-9.689-1.178-2.289-.879-3.946-2.841-4.3-2.986-1.5-.607-4.845-5.352.331-12.9,5.046-7.362-25.518,11.483-27.134,8.868-2.629-4.251-7.127-8.989-9.041-15.435-3.058-10.3-2.248-21.445,7.357-29.073,17.542-13.93,39.368-4.321,45.053,16.053,1.109,3.978-2.028,6.133-1.918,9.535.022.666.9,1.36,1.618,2.837C3380.9,269.673,3380.314,290.472,3377.634,291.913Z" transform="translate(-3325.378 -227.29)" fill="#e7a376" fill-rule="evenodd"/>
                  <path id="Trazado_165141" data-name="Trazado 165141" d="M3380.417,295.374c-6.285-5.859-12.352,12.778-2.238,12.582C3374.234,303.778,3377.23,297.163,3380.417,295.374Z" transform="translate(-3340.732 -247.596)" fill="#da9569" fill-rule="evenodd"/>
                  <path id="Trazado_165142" data-name="Trazado 165142" d="M3381.444,298.362c.943-2.605.147-3.554-1-3.272-1.26.311-3.048,2.119-3.979,4.819-1.5,4.356.65,9.858,4.857,7.709-3.618.208-3.28-4.152-2.194-6.843C3379.862,298.948,3381,297.654,3381.444,298.362Z" transform="translate(-3341.788 -247.862)" fill="#f0b186" fill-rule="evenodd"/>
                  <path id="Trazado_165143" data-name="Trazado 165143" d="M3381.139,301.756c1.011,1.884,1.362,3,1.036,3.65-.227.45-.925.963-2.066-.142A6.493,6.493,0,0,1,3381.139,301.756Z" transform="translate(-3343.147 -250.076)" fill="#da9569" fill-rule="evenodd"/>
                  <path id="Trazado_165144" data-name="Trazado 165144" d="M3336.977,286.156c-2.918-6.123-8.095-9.9-10.5-17.989-3.058-10.3-1.946-21.748,7.661-29.375,13.784-10.948,30.591-7.17,39.914,4.84.5.774-4.78,3.256-3.031,7.127,2.5,6.559,2.448,9.5,1.439,10.939-3.909,5.576-3.98,6.371-3.768,14.861l-2.209,1.783c-.912-6.661-3.875-6.137-6.754-3.913-5.025,3.884-6.958,12.708-15.323,14.438A7.333,7.333,0,0,1,3336.977,286.156Z" transform="translate(-3324.968 -227.178)" fill-rule="evenodd" fill="url(#linear-gradient-10)"/>
                  <path id="Trazado_165145" data-name="Trazado 165145" d="M3388.858,295.484c.667,4.161.951,6.793,2.757,8.88.689.795,2.492,1.062,4.285,1.4a25.277,25.277,0,0,1,.931-4.586,8.529,8.529,0,0,1,3.574-5.048,5.321,5.321,0,0,1-.167,2.711,6.612,6.612,0,0,0-1.376,3.139,13.5,13.5,0,0,0-.5,4.187c.444.044.816.12,1.125.167.16.023.176-1.186.49-1.161.147,3.447.195,8.063-.585,8.37-1,.392-6.851-.8-9.855-2.017-3.133-1.269-2.211-1.957-2.5-5.657-.241-3.047-.231-6.5-.651-9.756Z" transform="translate(-3345.216 -248.008)" fill="#29121a" fill-rule="evenodd"/>
                  <path id="Trazado_165146" data-name="Trazado 165146" d="M3326.791,259.893c3.116-2.272,10.213-4.551,23.558-5.494,9.235-.651,15.656-2.777,21.268-5.769,8.444-4.5,7.117-13.818,3.549-16.984-6.889-6.113-24.7-5.475-36.552.628C3329.955,236.734,3325.172,245.573,3326.791,259.893Z" transform="translate(-3325.466 -225.55)" fill-rule="evenodd" fill="url(#linear-gradient-11)"/>
                  <path id="Trazado_165147" data-name="Trazado 165147" d="M3385.959,243.8c-2.6,3.262-13.782-4.279-29.432-1.4,3.352-10.336,5.288-12.529,9.989-15.554,6.126-3.943,16.441-2.332,19.679,3.1C3389.3,235.146,3388.055,241.171,3385.959,243.8Z" transform="translate(-3335.373 -224.657)" fill="#452f24" fill-rule="evenodd"/>
                  <path id="Trazado_165148" data-name="Trazado 165148" d="M3341.824,324.728c.459,6.424,16.706,11.263,28.525,6.921l-.212-1.249c1.329.989,6.106,8.016,6.161,10.9-12.793,3.05-32.363,2.544-37.255-7.462C3337.973,331.643,3339.389,327.453,3341.824,324.728Z" transform="translate(-3329.49 -257.65)" fill="#ecf5ff" fill-rule="evenodd"/>
                </g>
                <g id="Grupo_115502" data-name="Grupo 115502" transform="translate(113.457 96.03)">
                  <g id="Grupo_115501" data-name="Grupo 115501" transform="translate(0 141.174)">
                    <g id="Grupo_115499" data-name="Grupo 115499" transform="translate(0 9.199)">
                      <path id="Trazado_165149" data-name="Trazado 165149" d="M3356.013,636.556c.2-1.878.767-1.368,1.824-2.058a3.341,3.341,0,0,1,.471-.257l15.364-6.32c9.652-3.095,11.39,14.859,11.176,28.26l-13.138,5.612-16.089-11.287Z" transform="translate(-3348.476 -603.898)" fill="#15778e" fill-rule="evenodd"/>
                      <path id="Trazado_165150" data-name="Trazado 165150" d="M3367.943,688.7l3.348-30.4,1.372-9.737,64.17-28.4-4.317,40.186a8.972,8.972,0,0,1-.685,2.693,5.9,5.9,0,0,1-.806,1.337,4.846,4.846,0,0,1-.5.524,4.28,4.28,0,0,1-1.152.757l-64.172,28.4C3366.871,693.321,3367.648,691.452,3367.943,688.7Z" transform="translate(-3351.636 -601.456)" fill="#ffef0f" fill-rule="evenodd"/>
                      <path id="Trazado_165151" data-name="Trazado 165151" d="M3352.873,643.846l13.115,9.52-4.317,40.185c-.594,5.532-4.768,7.329-9.314,4.029l-.168-.122c-4.548-3.3-7.75-10.449-7.157-15.981l2.7-25.138-.068-.048,1.573-14.654c.559-5.2,3.733-7.691,7.7-6.693a16.778,16.778,0,0,1,10.011,7.631,23.7,23.7,0,0,1,2.877,13.809l-1.26,11.954-3.576-2.6,1.26-11.951a13.573,13.573,0,0,0-1.059-6.36c-1.166-2.864-5.782-9.149-9.895-7.353A4.577,4.577,0,0,0,3352.873,643.846Z" transform="translate(-3344.961 -606.259)" fill="#c6412a" fill-rule="evenodd"/>
                      <path id="Trazado_165152" data-name="Trazado 165152" d="M3418.314,683.518l-2.611-1.905-1.061,10.155,2.612,1.907.747-5.787Z" transform="translate(-3367.934 -621.717)" fill="#f1920e" fill-rule="evenodd"/>
                      <path id="Trazado_165153" data-name="Trazado 165153" d="M3421.225,592.772a6.805,6.805,0,0,1,2.767-.51c2.884.158,5.773,2.407,7.582,4.3a23.623,23.623,0,0,1,3.989,5.8,23.018,23.018,0,0,1,2.5,10.441c-.011.4-.035.792-.075,1.176l-1.267,11.982L3406.1,652.9l-5.7,2.525-27.856-1.1-.283-.3.434-5.574c.352-3.262.024-13.168-1.321-16.4-1.866-4.48-8.948-13.068-14.314-10.884Z" transform="translate(-3348.948 -592.256)" fill="#c6412a" fill-rule="evenodd"/>
                      <path id="Trazado_165154" data-name="Trazado 165154" d="M3419.123,684.108l-.966-.706-1.062,10.157.967.705.748-5.787Z" transform="translate(-3368.743 -622.306)" fill="#f1920e" fill-rule="evenodd"/>
                      <path id="Trazado_165155" data-name="Trazado 165155" d="M3427.835,678.59l-4.95,2.548-3.237,1.152-.968-.7,8.188-3.7Z" transform="translate(-3369.266 -620.488)" fill="#ffd463" fill-rule="evenodd"/>
                      <path id="Trazado_165156" data-name="Trazado 165156" d="M3427.788,678.936l-8.187,3.7-1.063,10.156,8.188-3.7Z" transform="translate(-3369.219 -620.834)" fill="#ffc426" fill-rule="evenodd"/>
                    </g>
                    <path id="Trazado_165157" data-name="Trazado 165157" d="M3432.834,600.6c.006-.181,0-.355-.007-.523,0-.023,0-.047,0-.068a4.253,4.253,0,0,0-.057-.475c0-.027-.01-.056-.015-.084a4,4,0,0,0-.1-.421l-.011-.036a3.372,3.372,0,0,0-.166-.428,2.991,2.991,0,0,0-.318-.526c-.03-.039-.059-.076-.09-.113a2.719,2.719,0,0,0-.42-.42c1.91,1.483,4.968,2.239,6.032,4.236.469.879-.3,4.975-.441,6.062l-4.822-3.744.37-2.8c.026-.21.044-.41.051-.606C3432.833,600.64,3432.833,600.623,3432.834,600.6Z" transform="translate(-3373.54 -584.79)" fill="#783c18" fill-rule="evenodd"/>
                    <path id="Trazado_165158" data-name="Trazado 165158" d="M3421.384,592.023l4.822,3.744a8.738,8.738,0,0,0-6.34.353l-.207-.192-11.238,4.616-.031-.024c-4.766,1.965-8.271,6.728-9.776,11.725,0,.008-.405-.325-.407-.318l0,.016,0,.015-.006.017,0,.015-.005.015,0,.015,0,.015h0l0,.015,0,.015,0,.015-.005.015,0,.016h0l0,.015-.005.016,0,.015h0l0,.017,0,.015h0l0,.015-.006.016,0,.015h0l0,.015,0,.015h0l0,.016,0,.015,0,.017h0l0,.015,0,.015h0l0,.016,0,.015,0,.015h0l0,.015h0l0,.015,0,.016,0,.015h0l0,.015h0l0,.017,0,.015,0,.015,0,.017,0,.015,0,.015-.006.016,0,.015,0,.015,0,.014,0,.017,0,.016,0,.015,0,.015,0,.015-.006.015,0,.015h0l0,.017,0,.015,0,.015,0,.015,0,.015,0,.015,0,.015,0,.017-.005.015,0,.015,0,.015,0,.016c-.005.026-.01.053-.017.078-.069.328-.128.654-.171.979l-.371,2.8-4.821-3.745c.482-3.658.579-5.5,2.672-8.939.53-.825,2.715-3.9,3.647-4.456.548-.8,3.449-2.53,4.438-2.942.029-.013.057-.024.088-.035l11.827-4.858C3417.148,590.994,3419.629,590.661,3421.384,592.023Z" transform="translate(-3360.658 -582.675)" fill="#31accb" fill-rule="evenodd"/>
                    <path id="Trazado_165159" data-name="Trazado 165159" d="M3410.61,602.237l11.827-4.858c5.063-2.081,8.606.623,7.894,6.023l-.369,2.8-3.239,1.331.368-2.8c.46-3.494-1.836-5.245-5.11-3.9l-11.827,4.858a12.249,12.249,0,0,0-6.775,8.782l-.368,2.8-3.248,1.335.37-2.8C3400.844,610.407,3405.547,604.317,3410.61,602.237Z" transform="translate(-3363.029 -584.515)" fill="#1989a5" fill-rule="evenodd"/>
                    <path id="Trazado_165160" data-name="Trazado 165160" d="M3407.937,614.366c-1.779,2.718-2.418,3.471-2.89,6.458a17.011,17.011,0,0,0,2.368.818c.725.143,2.333-1.221,2.428-1.925.022-.166-.354-2.385-.354-2.385Z" transform="translate(-3364.771 -590.346)" fill="#e7a376" fill-rule="evenodd"/>
                    <g id="Grupo_115500" data-name="Grupo 115500" transform="translate(39.731)">
                      <path id="Trazado_165161" data-name="Trazado 165161" d="M3424.015,578.532c1.087,3.687,3.1,5.406,4.231,7.351,1.329,2.283,2.215,3.53,2.03,5.444-.516,5.364-1.4,9.445-3.059,11-3,2.808-14.871,6.474-20.06,7.617.558-2.573,1.259-5.4.314-8.27-.782-2.362-2.559-4.288-3.1-6.75-.625-2.835,1.131-6.123,1.235-10.953Z" transform="translate(-3404.234 -578.532)" fill="#e7a376" fill-rule="evenodd"/>
                      <path id="Trazado_165162" data-name="Trazado 165162" d="M3411.818,610.827c-1.795.515-3.419.932-4.661,1.207.558-2.573,1.259-5.4.314-8.27-.782-2.362-2.559-4.288-3.1-6.75-.625-2.835,1.131-6.123,1.235-10.953l3.985-1.179-.1.728c.01,4.788-.352,6.368.289,8.3,1.513,4.565,2.915,5.1,3.218,7.87A22.785,22.785,0,0,1,3411.818,610.827Z" transform="translate(-3404.234 -580.626)" fill="#f0b186" fill-rule="evenodd"/>
                    </g>
                  </g>
                  <path id="Trazado_165163" data-name="Trazado 165163" d="M3414.977,372.28c9.114,8.739-2.768,53.913-6.373,81.076l7.939,53.56c-1.131,9.167-16.126,11.653-19.719,7.856l-15.143-58.081c.69-13.574,4.98-51.776,6.459-64.718C3389.79,377.515,3401.638,359.489,3414.977,372.28Z" transform="translate(-3357.067 -367.92)" fill="#6677d6" fill-rule="evenodd"/>
                </g>
              </g>
            </g>
          </g>
          <g id="Grupo_115510" data-name="Grupo 115510" transform="translate(18.135 188.968)">
            <path id="Trazado_165164" data-name="Trazado 165164" d="M3048.97,416.369h-.672V530.943h.081c.8,21.78,8.457,42.541,21.716,61.541V470.108C3058.432,453.39,3051.1,435.308,3048.97,416.369Z" transform="translate(-3048.298 -413.147)" fill="#4e2e8e" fill-rule="evenodd" opacity="0.5"/>
            <path id="Trazado_165165" data-name="Trazado 165165" d="M3852.132,411.563l.135,11.486-.119,105.017v3.807h-.08c-1.618,44.021-31.229,83.889-78.546,113.441V522.946c42.531-26.566,70.872-61.546,77.317-100.308C3851.455,418.933,3851.777,415.295,3852.132,411.563Z" transform="translate(-3287.401 -411.563)" fill="#6677d6" fill-rule="evenodd" opacity="0.5"/>
            <path id="Trazado_165166" data-name="Trazado 165166" d="M3741.329,634.625c-40.773,50.824-122.582,87.514-219.6,94.526V606.792c97.01-7.011,178.824-43.7,219.6-94.519Z" transform="translate(-3204.387 -444.766)" fill="#4e2e8e" fill-rule="evenodd"/>
            <path id="Trazado_165167" data-name="Trazado 165167" d="M3779.461,583.087c-27.454,54.19-98.941,96.843-189.423,112.885v-70.42c90.474-16.041,161.962-58.683,189.423-112.863Z" transform="translate(-3226.907 -444.904)" fill="#6677d6" fill-rule="evenodd"/>
            <path id="Trazado_165168" data-name="Trazado 165168" d="M3297.65,774.008c-88.654-9.5-162.923-43.952-202-90.845V535.651c39.076,46.891,113.344,81.347,202,90.841Z" transform="translate(-3063.912 -452.474)" fill="#ffef0f" fill-rule="evenodd" opacity="0.25"/>
            <path id="Trazado_165169" data-name="Trazado 165169" d="M3232.777,731.824c-86.336-20.457-151.792-65.836-171.822-121.4v-70.4c20.038,55.553,85.49,100.929,171.822,121.383Z" transform="translate(-3052.471 -453.919)" fill="#4e2e8e" fill-rule="evenodd"/>
            <g id="Grupo_115507" data-name="Grupo 115507" transform="translate(49.913 156.831)">
              <path id="Trazado_165170" data-name="Trazado 165170" d="M3337.622,732.3c100.021,0,189.427-27.317,248.7-70.216l-2-3.237c-.552.4-1.112.789-1.669,1.183l.1.168c-59.269,42.9-148.675,70.216-248.7,70.216-80.8,0-154.651-17.831-211.3-47.3C3179.854,713.7,3255.12,732.3,3337.622,732.3Z" transform="translate(-3122.762 -649.92)" fill="aqua" fill-rule="evenodd"/>
              <g id="Grupo_115506" data-name="Grupo 115506" transform="translate(452.867)">
                <circle id="Elipse_5964" data-name="Elipse 5964" cx="10.081" cy="10.081" r="10.081" fill="#1854ab"/>
                <path id="Trazado_165171" data-name="Trazado 165171" d="M3809.934,664.169a7.077,7.077,0,1,0-7.077-7.077A7.077,7.077,0,0,0,3809.934,664.169Z" transform="translate(-3799.853 -647.01)" fill="#41ffff" fill-rule="evenodd"/>
                <path id="Trazado_165172" data-name="Trazado 165172" d="M3811.629,662.417a3.632,3.632,0,1,0-3.632-3.632A3.632,3.632,0,0,0,3811.629,662.417Z" transform="translate(-3801.547 -648.704)" fill="#fff" fill-rule="evenodd"/>
              </g>
            </g>
            <g id="Grupo_115509" data-name="Grupo 115509" transform="translate(51.484 71.584)">
              <path id="Trazado_165173" data-name="Trazado 165173" d="M3294.963,597.6c-66.972-8.471-124.524-34.334-160.577-68.078l1.612-2c.336.312.678.623,1.017.933l-.084.1c36.052,33.744,93.6,59.607,160.576,68.078,54.1,6.842,105.061,1.158,145.487-13.774C3402.177,598.512,3350.205,604.588,3294.963,597.6Z" transform="translate(-3128.165 -521.378)" fill="aqua" fill-rule="evenodd"/>
              <g id="Grupo_115508" data-name="Grupo 115508">
                <path id="Trazado_165174" data-name="Trazado 165174" d="M3131.056,531.909a6.8,6.8,0,1,1,7.6-5.9A6.8,6.8,0,0,1,3131.056,531.909Z" transform="translate(-3125.106 -518.356)" fill="#1854ab" fill-rule="evenodd"/>
                <path id="Trazado_165175" data-name="Trazado 165175" d="M3132.308,530.9a4.776,4.776,0,1,1,5.337-4.14A4.776,4.776,0,0,1,3132.308,530.9Z" transform="translate(-3126.103 -519.353)" fill="#41ffff" fill-rule="evenodd"/>
                <path id="Trazado_165176" data-name="Trazado 165176" d="M3133.744,529.732a2.451,2.451,0,1,1,2.739-2.123A2.451,2.451,0,0,1,3133.744,529.732Z" transform="translate(-3127.246 -520.497)" fill="#fff" fill-rule="evenodd"/>
              </g>
            </g>
          </g>
        </g>
      </g>
      <g id="Grupo_113260" data-name="Grupo 113260" transform="translate(627 1035.262)">
        <g id="Grupo_78489" data-name="Grupo 78489" transform="translate(0)">
          <ellipse id="Elipse_4758" data-name="Elipse 4758" cx="23.5" cy="23" rx="23.5" ry="23" transform="translate(5 5.574)" fill="#ffef0f" opacity="0.18"/>
          <ellipse id="Elipse_4759" data-name="Elipse 4759" cx="28.5" cy="29" rx="28.5" ry="29" transform="translate(0 -0.426)" fill="#ffef0f" opacity="0.154"/>
        </g>
        <ellipse id="Elipse_4753" data-name="Elipse 4753" cx="17.5" cy="18" rx="17.5" ry="18" transform="translate(11 10.574)" fill="#ffef0f"/>
        <path id="Trazado_146139" data-name="Trazado 146139" d="M3.49-4.842H7.674v2.929H3.49V2.9H.282V-1.913H-3.926V-4.842H.282v-4.58H3.49Z" transform="translate(26.644 32.14)" fill="#12263f"/>
      </g>
      <g id="Grupo_113261" data-name="Grupo 113261" transform="translate(417 1204.426)">
        <g id="Grupo_78489-2" data-name="Grupo 78489" transform="translate(0)">
          <ellipse id="Elipse_4758-2" data-name="Elipse 4758" cx="23.5" cy="23" rx="23.5" ry="23" transform="translate(5 5.574)" fill="#ffef0f" opacity="0.18"/>
          <ellipse id="Elipse_4759-2" data-name="Elipse 4759" cx="28.5" cy="29" rx="28.5" ry="29" transform="translate(0 -0.426)" fill="#ffef0f" opacity="0.154"/>
        </g>
        <path id="Trazado_173345" data-name="Trazado 173345" d="M17.5,0A17.755,17.755,0,0,1,35,18,17.755,17.755,0,0,1,17.5,36,17.755,17.755,0,0,1,0,18,17.755,17.755,0,0,1,17.5,0Z" transform="translate(11 10.574)" fill="#ffef0f"/>
        <path id="Trazado_146139-2" data-name="Trazado 146139" d="M3.49-4.842H7.674v2.929H3.49V2.9H.282V-1.913H-3.926V-4.842H.282v-4.58H3.49Z" transform="translate(26.644 32.14)" fill="#12263f"/>
      </g>
      <g id="Grupo_113262" data-name="Grupo 113262" transform="translate(1084 1204.426)">
        <g id="Grupo_78489-3" data-name="Grupo 78489" transform="translate(0)">
          <ellipse id="Elipse_4758-3" data-name="Elipse 4758" cx="23.5" cy="23" rx="23.5" ry="23" transform="translate(5 5.574)" fill="#ffef0f" opacity="0.18"/>
          <ellipse id="Elipse_4759-3" data-name="Elipse 4759" cx="28.5" cy="29" rx="28.5" ry="29" transform="translate(0 -0.426)" fill="#ffef0f" opacity="0.154"/>
        </g>
        <ellipse id="Elipse_4753-2" data-name="Elipse 4753" cx="17.5" cy="18" rx="17.5" ry="18" transform="translate(11 10.574)" fill="#ffef0f"/>
        <path id="Trazado_146139-3" data-name="Trazado 146139" d="M3.49-4.842H7.674v2.929H3.49V2.9H.282V-1.913H-3.926V-4.842H.282v-4.58H3.49Z" transform="translate(26.644 32.14)" fill="#12263f"/>
      </g>
      <g id="Grupo_115876" data-name="Grupo 115876" transform="translate(474 1110.426)">
        <g id="Grupo_78489-4" data-name="Grupo 78489" transform="translate(0)">
          <ellipse id="Elipse_4758-4" data-name="Elipse 4758" cx="23.5" cy="23" rx="23.5" ry="23" transform="translate(5 5.574)" fill="#ffef0f" opacity="0.18"/>
          <ellipse id="Elipse_4759-4" data-name="Elipse 4759" cx="28.5" cy="29" rx="28.5" ry="29" transform="translate(0 -0.426)" fill="#ffef0f" opacity="0.154"/>
        </g>
        <ellipse id="Elipse_4753-3" data-name="Elipse 4753" cx="17.5" cy="18" rx="17.5" ry="18" transform="translate(11 10.574)" fill="#ffef0f"/>
        <path id="Trazado_146139-4" data-name="Trazado 146139" d="M3.49-4.842H7.674v2.929H3.49V2.9H.282V-1.913H-3.926V-4.842H.282v-4.58H3.49Z" transform="translate(26.644 32.14)" fill="#12263f"/>
      </g>
      <g id="Grupo_113263" data-name="Grupo 113263" transform="translate(999 1093.426)">
        <g id="Grupo_78489-5" data-name="Grupo 78489" transform="translate(0)">
          <ellipse id="Elipse_4758-5" data-name="Elipse 4758" cx="23.5" cy="23" rx="23.5" ry="23" transform="translate(5 5.574)" fill="#ffef0f" opacity="0.18"/>
          <ellipse id="Elipse_4759-5" data-name="Elipse 4759" cx="28.5" cy="29" rx="28.5" ry="29" transform="translate(0 -0.426)" fill="#ffef0f" opacity="0.154"/>
        </g>
        <ellipse id="Elipse_4753-4" data-name="Elipse 4753" cx="17.5" cy="18" rx="17.5" ry="18" transform="translate(11 10.574)" fill="#ffef0f"/>
        <path id="Trazado_146139-5" data-name="Trazado 146139" d="M3.49-4.842H7.674v2.929H3.49V2.9H.282V-1.913H-3.926V-4.842H.282v-4.58H3.49Z" transform="translate(26.644 32.14)" fill="#12263f"/>
      </g>
      <g id="Grupo_113264" data-name="Grupo 113264" transform="translate(789 1020.426)">
        <g id="Grupo_78489-6" data-name="Grupo 78489" transform="translate(0)">
          <ellipse id="Elipse_4758-6" data-name="Elipse 4758" cx="23.5" cy="23" rx="23.5" ry="23" transform="translate(5 5.574)" fill="#ffef0f" opacity="0.18"/>
          <ellipse id="Elipse_4759-6" data-name="Elipse 4759" cx="28.5" cy="29" rx="28.5" ry="29" transform="translate(0 -0.426)" fill="#ffef0f" opacity="0.154"/>
        </g>
        <ellipse id="Elipse_4753-5" data-name="Elipse 4753" cx="17.5" cy="18" rx="17.5" ry="18" transform="translate(11 10.574)" fill="#ffef0f"/>
        <path id="Trazado_146139-6" data-name="Trazado 146139" d="M3.49-4.842H7.674v2.929H3.49V2.9H.282V-1.913H-3.926V-4.842H.282v-4.58H3.49Z" transform="translate(26.644 32.14)" fill="#12263f"/>
      </g>
    </g>
  </g>
</svg>
