<svg xmlns="http://www.w3.org/2000/svg" width="79.628" height="87.215" viewBox="0 0 79.628 87.215">
  <g id="Grupo_115997" data-name="Grupo 115997" transform="translate(-1490.248 -788.68)">
    <path id="Trazado_173302" data-name="Trazado 173302" d="M1601.084,788.68c2.3.8,3.158,2.471,3.053,4.825-.078,1.752-.015,3.51-.016,5.265,0,1.318-.142,1.529-1.333,2-1.113-.4-1.3-.663-1.306-1.874q-.008-2.939,0-5.877c0-1.428-.355-1.787-1.813-1.787h-45.222a5.276,5.276,0,0,0-.6.009c-.921.1-1.289.745-1.194,2.07.066.92.78.454,1.152.455q20.481.042,40.964.027a5.2,5.2,0,0,1,1.181.09c2,.473,3.054,2,3.055,4.406q0,22.229,0,44.458a2.66,2.66,0,0,1-.115,1.008,1.167,1.167,0,0,1-1.242.826,1.148,1.148,0,0,1-1.19-1,5.9,5.9,0,0,1-.056-1.017q0-22.144-.007-44.288a1.68,1.68,0,0,0-.084-.918c-.179-.969-.906-1.017-1.68-1.017q-22.647,0-45.3,0c-1.419,0-1.793.376-1.793,1.817q0,6.046,0,12.091c0,1.124-.224,1.411-1.308,1.778a1.49,1.49,0,0,1-1.316-1.681c.007-4.19-.021-8.379.013-12.569a3.793,3.793,0,0,1,4.093-3.973c.767.015,1.068-.1,1.031-.971a4.008,4.008,0,0,1,2.992-4.157Z" transform="translate(-34.268)" fill="#0b0a0a"/>
    <path id="Trazado_173303" data-name="Trazado 173303" d="M1548.455,824.905c1.084-.367,1.307-.654,1.308-1.778q.007-6.045,0-12.091c0-1.44.374-1.817,1.793-1.817q22.648,0,45.3,0c.774,0,1.5.048,1.68,1.017a.5.5,0,0,1-.28.4c-1.477.587-1.781,1.761-1.78,3.223q.036,28.207.016,56.415c0,.255.016.512-.007.765a1.022,1.022,0,0,1-.791.991,5.564,5.564,0,0,1-1.332.225q-8.466-.021-16.932-.014a10.8,10.8,0,0,1-2.24-1.137c1.789,0,3.367,0,4.944,0a1.5,1.5,0,0,0,1.243-.419,1.244,1.244,0,0,0,.227-1.35,1.276,1.276,0,0,0-1.288-.8,46.507,46.507,0,0,0-5.022.027,12.355,12.355,0,0,1-8.983-2.425,30.776,30.776,0,0,0-2.875-1.7l.049-.149h21.759c1.959,0,3.918.009,5.876,0,1-.007,1.569-.5,1.552-1.3-.016-.769-.627-1.256-1.6-1.272-.2,0-.4,0-.6,0h-27.848a3.389,3.389,0,0,1-2.032-1.383.262.262,0,0,1,.03-.22c.342-.338.515-.841,1.18-.816a2.593,2.593,0,0,0,2.348-1.285,1.126,1.126,0,0,1,1.108-.549q12.647.026,25.293.011a9.319,9.319,0,0,0,1.02-.033,1.149,1.149,0,0,0,1.075-1.127,1.206,1.206,0,0,0-.774-1.287,2.48,2.48,0,0,0-1.088-.124q-11.923,0-23.845,0h-1.026a9.673,9.673,0,0,0,.871-3.451c.031-.7.285-.8.9-.8q11.455.029,22.909.012c.312,0,.625,0,.936-.028a1.156,1.156,0,0,0,1.12-1.175,1.208,1.208,0,0,0-.9-1.287,2.907,2.907,0,0,0-1.01-.08q-11.88,0-23.76.008a1.477,1.477,0,0,1-1.409-.662,10.645,10.645,0,0,0-2.241-2.2c-.545-.424-1.1-.837-1.827-1.39h1.045q14.008,0,28.018,0a8.517,8.517,0,0,0,1.02-.035,1.149,1.149,0,0,0,1.063-1.139,1.208,1.208,0,0,0-.791-1.277,2.559,2.559,0,0,0-1.089-.118q-16.521,0-33.043,0a4.565,4.565,0,0,1-1.724-.337c-1.979-.778-3.982-1.5-6.241-.795v-.977q0-5.025,0-10.05c0-1.146-.262-1.479-1.308-1.749Zm25.683-5.418q8.386,0,16.771,0c.606,0,1.2,0,1.568-.614.578-.983-.13-1.957-1.448-1.957q-16.856-.006-33.713,0c-1.043,0-1.671.486-1.685,1.277s.609,1.276,1.65,1.294c.2,0,.4,0,.6,0Zm-2.346,13.627q7.066,0,14.132,0a9.084,9.084,0,0,0,.935-.034,1.252,1.252,0,0,0,.575-2.244,1.882,1.882,0,0,0-1.294-.3q-14.345,0-28.69,0a3.229,3.229,0,0,0-.84.074,1.255,1.255,0,0,0,.2,2.472c.282.022.567.023.85.023Zm-2.6-6.813h5.874c2.128,0,4.256.011,6.384-.012a1.287,1.287,0,0,0,1.389-1.287,1.351,1.351,0,0,0-1.348-1.271c-.169-.013-.34,0-.51,0h-23.5a2.445,2.445,0,0,0-1.005.108,1.207,1.207,0,0,0-.825,1.334,1.173,1.173,0,0,0,1.111,1.1c.282.026.566.028.85.028Q1563.408,826.3,1569.2,826.3Z" transform="translate(-36.486 -12.874)" fill="#f8f5f5"/>
    <path id="Trazado_173304" data-name="Trazado 173304" d="M1511.969,857.863c1.046.27,1.306.6,1.308,1.749q.008,5.025,0,10.05v.977c2.259-.7,4.262.017,6.241.795a4.564,4.564,0,0,0,1.724.337q16.521-.012,33.043,0a2.56,2.56,0,0,1,1.09.118,1.208,1.208,0,0,1,.79,1.277,1.149,1.149,0,0,1-1.063,1.139,8.507,8.507,0,0,1-1.02.035q-14.009,0-28.018,0h-1.044c.728.553,1.282.966,1.827,1.391a10.645,10.645,0,0,1,2.241,2.2,1.477,1.477,0,0,0,1.409.662q11.88-.024,23.76-.008a2.906,2.906,0,0,1,1.01.079,1.208,1.208,0,0,1,.9,1.287,1.156,1.156,0,0,1-1.12,1.175c-.31.029-.624.028-.936.028q-11.454,0-22.909-.012c-.617,0-.87.1-.9.8a9.677,9.677,0,0,1-.871,3.451h1.026q11.923,0,23.845,0a2.482,2.482,0,0,1,1.089.124,1.207,1.207,0,0,1,.774,1.287,1.149,1.149,0,0,1-1.075,1.127,9.289,9.289,0,0,1-1.02.033q-12.647,0-25.293-.011a1.126,1.126,0,0,0-1.107.549,2.592,2.592,0,0,1-2.347,1.285c-.665-.026-.838.478-1.18.816a.262.262,0,0,0-.03.22,3.39,3.39,0,0,0,2.033,1.383h27.848c.2,0,.4,0,.6,0,.972.017,1.583.5,1.6,1.273.016.791-.557,1.288-1.552,1.3-1.958.013-3.917,0-5.876,0H1527l-.049.149a30.789,30.789,0,0,1,2.875,1.7,12.355,12.355,0,0,0,8.983,2.425,46.5,46.5,0,0,1,5.022-.027,1.276,1.276,0,0,1,1.288.8,1.244,1.244,0,0,1-.227,1.35,1.5,1.5,0,0,1-1.243.419c-1.578,0-3.156,0-4.944,0a10.807,10.807,0,0,0,2.24,1.137l7.149,3.544c1.684.862,3.383,1.7,5.049,2.594a4.885,4.885,0,1,1-4.908,8.421q-6.581-4.267-13.073-8.673a6.707,6.707,0,0,0-4.237-1.31c-2.915.116-5.838.013-8.757.044a1.461,1.461,0,0,1-1.663-1.208c.344-1.168.591-1.358,1.788-1.358q3.032,0,6.065,0l.036-.157-3.655-2.046c-.775-.462-1.552-.921-2.324-1.389a.53.53,0,0,0-.619-.045,4.13,4.13,0,0,1-3.056.225c-.259-.056-.6-.424-.793.01s-.59.9-.019,1.357a3.745,3.745,0,0,1-.337,3.407,18.734,18.734,0,0,1-2.177,3.183,1.431,1.431,0,0,0,.948.157c4.03.017,8.06-.01,12.089.05a7.832,7.832,0,0,1,6.07,3.114,11.279,11.279,0,0,1,2.26,4.693c.291,1.244-.253,1.917-1.515,1.917q-21.713,0-43.425,0c-1.3,0-1.82-.6-1.507-1.877.954-3.9,3.035-6.8,7.176-7.731a21.527,21.527,0,0,1,4.244-.168,1.346,1.346,0,0,0,.881-.132,37.707,37.707,0,0,1-3.652-2.471c-.418-.34-.819-.7-1.239-1.037-2.542-2.042-3.02-4.641-2.072-7.631a18.816,18.816,0,0,1,2.335-4.5,2.615,2.615,0,0,1,2.17-1.158,1.357,1.357,0,0,0,1.122-.586,11.337,11.337,0,0,1,1.065-1.1c.774-.74,1.178-.774,2.1-.21a1.416,1.416,0,0,1-.311,2.085c-.191.166-.349.372-.545.532-.389.316-.282.491.112.715,2.744,1.554,5.476,3.127,8.212,4.694.973.573,1.952,1.136,2.915,1.724.428.262.652.211.755-.31.132-.664.311-1.319.463-1.979.477-2.075.957-4.153,2.544-5.732,1.063-1.059,2.137-2.109,3.229-3.138.413-.389.463-.618-.1-.91-.951-.5-1.871-1.055-2.8-1.587-2.663-1.547-5.343-3.066-7.978-4.659-.73-.441-.889-.248-1.064.471a27.56,27.56,0,0,1-1.53,5.449c-.528,1.11-1,1.3-2.168.911a1.508,1.508,0,0,1-.241-1.92c.866-1.7.978-3.638,1.549-5.435a2.912,2.912,0,0,0,0-2.484,2.3,2.3,0,0,1,.188-2.2,17.431,17.431,0,0,1,2.653-4.02,1.331,1.331,0,0,0,.312-1.092q0-6.083,0-12.165C1510.659,858.476,1510.94,858.117,1511.969,857.863Zm12.624,19.48-.181-.175a22.36,22.36,0,0,0-8.61-4.193,2.345,2.345,0,0,0-2.359.683l10.948,6.27c.92.542,1.838,1.09,2.763,1.622.159.091.331.3.53.159.18-.125.11-.365.1-.553a2.247,2.247,0,0,0-.33-1.123,8.847,8.847,0,0,0-2.859-2.7Zm-18.278,30.87c1.864.755,3.683,1.966,5.94.583l-3.309-1.814a4.251,4.251,0,0,0-.4-.3q-5.108-2.954-10.221-5.9c-.14-.081-.271-.209-.442-.151a2.464,2.464,0,0,0,.742,2.414A22.458,22.458,0,0,0,1506.315,908.213Zm42.775,6.5a2.4,2.4,0,0,0,.905.6,2.248,2.248,0,0,0,3.231-2.1c-.008-1.409-.985-1.975-2.086-2.444q-5.615-2.809-11.23-5.616c-1.777-.886-1.76-.867-2.762.827-.29.49-.284.715.227,1.05,3.056,2,6.08,4.055,9.125,6.076C1547.346,913.661,1548.226,914.175,1549.09,914.711Zm-19.237-2.261a3.781,3.781,0,0,0-1.809-.352q-4.207,0-8.414-.005c-6.884,0-13.768-.013-20.652.018a5.152,5.152,0,0,0-4.6,2.544,4.785,4.785,0,0,0-1.079,2.049h39.716c.114,0,.227,0,.34,0,.319.012.5-.058.333-.436A6.123,6.123,0,0,0,1529.853,912.45Zm-2.881-27.857c-.085-.284-.353-.346-.563-.468q-6.423-3.729-12.851-7.45c-.676-.389-1.4-1.2-2.037-1.016s-.821,1.275-1.282,1.914-.312,1.008.361,1.391q6.969,3.969,13.9,8c.647.376,1.017.3,1.341-.362.26-.533.589-1.032.885-1.547C1526.812,884.911,1526.886,884.759,1526.972,884.593Zm-26.53,10.523a.8.8,0,0,0-.6.487c-.3.542-.59,1.1-.944,1.609-.385.553-.24.812.325,1.133,4.278,2.429,8.53,4.9,12.8,7.341.69.394,1.436,1.285,2.1.977.614-.285.874-1.322,1.3-2.022.3-.491.186-.817-.315-1.105q-7.093-4.086-14.174-8.192A5.23,5.23,0,0,0,1500.443,895.116Zm24.6,1.724c-.252-.042-.3.158-.379.292-.235.387-.425.8-.689,1.17-.343.477-.182.7.282.967,2.974,1.7,5.93,3.425,8.9,5.137,1.473.85,1.461.836,2.311-.629.294-.506.314-.789-.274-1.121-3.254-1.834-6.482-3.714-9.72-5.579C1525.319,896.992,1525.169,896.913,1525.039,896.84Zm-4.753,2.171c.11.019.348-.127.5-.389.822-1.415,1.688-2.807,2.427-4.265.379-.748-.4-1.136-.833-1.562s-.632.131-.865.327a7.6,7.6,0,0,0-2.647,4.409c-.236,1.15-.213,1.25.954,1.428C1519.906,898.972,1519.99,898.979,1520.286,899.011Z" transform="translate(0 -43.366)" fill="#0b0a0a"/>
    <path id="Trazado_173305" data-name="Trazado 173305" d="M1595.34,867.19l-7.149-3.544q8.466,0,16.932.014a5.576,5.576,0,0,0,1.332-.225,1.023,1.023,0,0,0,.791-.991c.023-.253.007-.51.007-.765q0-28.208-.016-56.415c0-1.463.3-2.636,1.78-3.223a.5.5,0,0,0,.28-.4,1.68,1.68,0,0,1,.084.918q.007,22.143.007,44.288a5.9,5.9,0,0,0,.056,1.017,1.148,1.148,0,0,0,1.19,1,1.167,1.167,0,0,0,1.242-.826,2.661,2.661,0,0,0,.115-1.008q0-22.229,0-44.458c0-2.41-1.052-3.934-3.055-4.406a5.213,5.213,0,0,0-1.181-.09q-20.482-.006-40.964-.027c-.372,0-1.086.465-1.152-.455-.095-1.325.273-1.966,1.194-2.07a5.29,5.29,0,0,1,.6-.009h45.222c1.457,0,1.815.358,1.813,1.787q-.005,2.939,0,5.877c0,1.211.193,1.474,1.306,1.874v2.387c-1.149.412-1.307.655-1.307,2.042q0,24.087,0,48.174a5.662,5.662,0,0,1-.058,1.1c-.151.756-.878,1.094-2,.963-.777-.091-.382-.7-.39-1.049-.045-1.9-.01-3.8-.026-5.7a1.4,1.4,0,0,0-1.239-1.561c-.771-.031-1.318.578-1.359,1.518-.01.227,0,.454,0,.681q0,5.107,0,10.214c0,1.5-.374,1.875-1.838,1.875-1.787,0-3.574,0-5.362,0-1.118,0-1.444.272-1.667,1.367q-2.271-.008-4.542-.013C1595.756,867.054,1595.52,867,1595.34,867.19Z" transform="translate(-47.248 -4.284)" fill="#d3d0d5"/>
    <path id="Trazado_173306" data-name="Trazado 173306" d="M1659.129,887.105c.224-1.095.55-1.365,1.667-1.367,1.787,0,3.575,0,5.362,0,1.464,0,1.837-.378,1.838-1.875q0-5.107,0-10.214c0-.227-.007-.454,0-.681.04-.94.588-1.549,1.359-1.518a1.4,1.4,0,0,1,1.239,1.561c.016,1.9-.018,3.8.026,5.7.008.346-.387.958.39,1.049,1.121.131,1.848-.207,2-.963a5.662,5.662,0,0,0,.058-1.1q0-24.087,0-48.174c0-1.387.158-1.63,1.307-2.042,1.207.495,1.333.681,1.333,2.006q0,24.291,0,48.582a3.952,3.952,0,0,1-2.923,4.158,3.606,3.606,0,0,1-1.431.087c-.679-.079-.8.2-.769.8a7.764,7.764,0,0,1-.1,2.115,3.793,3.793,0,0,1-3.753,3.059c-2.013.008-4.027-.019-6.04.011A1.358,1.358,0,0,1,1659.129,887.105Z" transform="translate(-105.861 -24.322)" fill="#0b0a0a"/>
    <path id="Trazado_173307" data-name="Trazado 173307" d="M1533.973,939c-2.736-1.567-5.469-3.14-8.212-4.694-.394-.224-.5-.4-.112-.715.2-.16.354-.366.545-.532a1.416,1.416,0,0,0,.311-2.085,12.376,12.376,0,0,0,1.731-1.735c1.164.393,1.64.2,2.168-.911a27.562,27.562,0,0,0,1.53-5.449c.175-.719.335-.911,1.064-.471,2.635,1.593,5.315,3.112,7.978,4.659a11.412,11.412,0,0,1-1.793,1.8,12.547,12.547,0,0,0-3.075,3.681,20.665,20.665,0,0,0-1.753,5.638A1.2,1.2,0,0,1,1533.973,939Z" transform="translate(-22.038 -83.679)" fill="#6677d6"/>
    <path id="Trazado_173308" data-name="Trazado 173308" d="M1570.67,977.691l3.655,2.046-.036.157q-3.033,0-6.065,0c-1.2,0-1.444.19-1.788,1.358l-2.913,0a3.745,3.745,0,0,0,.337-3.407c1.976,0,3.951,0,5.926-.007C1570.083,977.841,1570.413,977.956,1570.67,977.691Z" transform="translate(-45.931 -118.479)" fill="#d3d0d5"/>
    <path id="Trazado_173309" data-name="Trazado 173309" d="M1586.195,832.415h-16.26c-.2,0-.4,0-.6,0-1.041-.018-1.664-.507-1.65-1.294s.641-1.277,1.685-1.277q16.857,0,33.713,0c1.318,0,2.026.974,1.448,1.957-.363.618-.962.615-1.568.614Q1594.58,832.414,1586.195,832.415Z" transform="translate(-48.542 -25.802)" fill="#0b0a0a"/>
    <path id="Trazado_173310" data-name="Trazado 173310" d="M1583.873,868.931h-14.132c-.283,0-.568,0-.85-.023a1.255,1.255,0,0,1-.2-2.472,3.229,3.229,0,0,1,.84-.074q14.345-.005,28.69-.005a1.882,1.882,0,0,1,1.294.3,1.252,1.252,0,0,1-.575,2.244,9.067,9.067,0,0,1-.935.034Q1590.94,868.932,1583.873,868.931Z" transform="translate(-48.567 -48.69)" fill="#0b0a0a"/>
    <path id="Trazado_173311" data-name="Trazado 173311" d="M1581.274,850.669q-5.789,0-11.577,0c-.284,0-.568,0-.85-.028a1.173,1.173,0,0,1-1.111-1.1,1.206,1.206,0,0,1,.825-1.334,2.446,2.446,0,0,1,1.006-.108h23.495c.17,0,.342-.01.51,0a1.351,1.351,0,0,1,1.348,1.271,1.287,1.287,0,0,1-1.388,1.287c-2.128.023-4.256.011-6.385.012Z" transform="translate(-48.563 -37.242)" fill="#0b0a0a"/>
    <path id="Trazado_173312" data-name="Trazado 173312" d="M1501.3,1005.745a5.152,5.152,0,0,1,4.6-2.544c6.884-.031,13.768-.017,20.652-.018q4.207,0,8.414.005a3.781,3.781,0,0,1,1.809.352c.414,1.523-.084,2.171-1.694,2.2-.2,0-.4,0-.6,0Z" transform="translate(-6.929 -134.457)" fill="#c47c6c"/>
    <path id="Trazado_173313" data-name="Trazado 173313" d="M1499.49,1006.35l33.19,0c.2,0,.4,0,.6,0,1.609-.031,2.108-.679,1.694-2.2a6.123,6.123,0,0,1,3.83,3.818c.167.378-.014.448-.333.436-.113,0-.227,0-.34,0H1498.41A4.787,4.787,0,0,1,1499.49,1006.35Z" transform="translate(-5.116 -135.062)" fill="#a45947"/>
    <path id="Trazado_173314" data-name="Trazado 173314" d="M1560.1,914.443c-.087.166-.16.318-.245.465-.3.516-.625,1.015-.885,1.547-.324.665-.695.738-1.341.362q-6.932-4.035-13.9-8c-.673-.383-.832-.738-.361-1.391s.64-1.729,1.281-1.914,1.361.627,2.037,1.016q6.435,3.709,12.851,7.45C1559.745,914.1,1560.013,914.159,1560.1,914.443Z" transform="translate(-33.126 -73.217)" fill="#6677d6"/>
    <path id="Trazado_173315" data-name="Trazado 173315" d="M1514.608,957.693a5.215,5.215,0,0,1,.493.227q7.087,4.1,14.173,8.192c.5.288.613.615.315,1.105-.426.7-.686,1.738-1.3,2.023-.663.308-1.409-.583-2.1-.977-4.272-2.439-8.525-4.912-12.8-7.341-.565-.321-.71-.58-.325-1.133.354-.509.639-1.067.944-1.609A.8.8,0,0,1,1514.608,957.693Z" transform="translate(-14.166 -105.944)" fill="#6677d6"/>
    <path id="Trazado_173316" data-name="Trazado 173316" d="M1627.548,993.164c-.864-.536-1.743-1.05-2.591-1.613-3.044-2.021-6.068-4.073-9.125-6.076-.51-.334-.516-.56-.226-1.05,1-1.693.985-1.712,2.762-.827q5.619,2.8,11.23,5.616a3.157,3.157,0,0,1-.347,1.549A10.461,10.461,0,0,1,1627.548,993.164Z" transform="translate(-78.458 -121.819)" fill="#6677d6"/>
    <path id="Trazado_173317" data-name="Trazado 173317" d="M1548.365,947.219a1.2,1.2,0,0,0,.383-.815,20.67,20.67,0,0,1,1.753-5.638,12.545,12.545,0,0,1,3.075-3.681,11.413,11.413,0,0,0,1.793-1.8c.933.533,1.852,1.092,2.8,1.588.561.292.511.521.1.91-1.093,1.028-2.166,2.078-3.229,3.137-1.586,1.579-2.067,3.656-2.543,5.732-.152.66-.331,1.315-.463,1.979-.1.521-.327.572-.755.311C1550.317,948.355,1549.338,947.793,1548.365,947.219Z" transform="translate(-36.43 -91.899)" fill="#4e2e8e"/>
    <path id="Trazado_173318" data-name="Trazado 173318" d="M1581.378,962.3c.131.072.28.152.427.237,3.238,1.864,6.465,3.745,9.72,5.579.588.332.568.615.274,1.121-.85,1.464-.838,1.479-2.311.629-2.966-1.712-5.922-3.439-8.9-5.137-.464-.265-.625-.491-.282-.967.263-.366.453-.783.688-1.17C1581.081,962.462,1581.126,962.262,1581.378,962.3Z" transform="translate(-56.339 -108.831)" fill="#6677d6"/>
    <path id="Trazado_173319" data-name="Trazado 173319" d="M1519.007,980.028a22.456,22.456,0,0,1-7.691-5.17,2.465,2.465,0,0,1-.742-2.414c.171-.058.3.07.442.151q5.113,2.947,10.221,5.9a4.2,4.2,0,0,1,.4.3A4.827,4.827,0,0,1,1519.007,980.028Z" transform="translate(-12.692 -115.181)" fill="#6677d6"/>
    <path id="Trazado_173320" data-name="Trazado 173320" d="M1563.351,905.185l-10.948-6.27a2.344,2.344,0,0,1,2.359-.683,22.36,22.36,0,0,1,8.61,4.193l.181.175,0-.006C1563.412,903.452,1563.777,904.349,1563.351,905.185Z" transform="translate(-38.961 -68.623)" fill="#6677d6"/>
    <path id="Trazado_173321" data-name="Trazado 173321" d="M1568.163,957.425c-.3-.032-.381-.039-.464-.052-1.167-.177-1.19-.278-.954-1.428a7.605,7.605,0,0,1,2.647-4.409c.234-.2.427-.757.865-.327s1.212.814.833,1.562c-.739,1.457-1.605,2.85-2.427,4.265C1568.511,957.3,1568.273,957.443,1568.163,957.425Z" transform="translate(-47.877 -101.78)" fill="#4e2e8e"/>
    <path id="Trazado_173322" data-name="Trazado 173322" d="M1647.932,1003.572a10.458,10.458,0,0,0,1.7-2.4,3.154,3.154,0,0,0,.347-1.549c1.1.469,2.077,1.035,2.086,2.444a2.248,2.248,0,0,1-3.231,2.1A2.4,2.4,0,0,1,1647.932,1003.572Z" transform="translate(-98.842 -132.227)" fill="#4e2e8e"/>
    <path id="Trazado_173323" data-name="Trazado 173323" d="M1570.744,975.147c-.257.265-.587.151-.884.152-1.975.01-3.951.006-5.926.007-.571-.456-.163-.937.019-1.357s.534-.066.793-.01a4.131,4.131,0,0,0,3.056-.225.53.53,0,0,1,.619.045C1569.192,974.226,1569.968,974.685,1570.744,975.147Z" transform="translate(-46.005 -115.935)" fill="#f8f5f5"/>
    <path id="Trazado_173324" data-name="Trazado 173324" d="M1581.742,912.642c.426-.836.061-1.733.2-2.592a8.849,8.849,0,0,1,2.859,2.7,2.243,2.243,0,0,1,.33,1.123c.014.188.084.428-.1.553-.2.138-.371-.067-.53-.159C1583.579,913.731,1582.662,913.184,1581.742,912.642Z" transform="translate(-57.352 -76.079)" fill="#4e2e8e"/>
    <path id="Trazado_173325" data-name="Trazado 173325" d="M1533.305,990.723a4.827,4.827,0,0,0,2.631-1.232l3.309,1.814C1536.988,992.689,1535.169,991.478,1533.305,990.723Z" transform="translate(-26.99 -125.876)" fill="#4e2e8e"/>
    <path id="Trazado_173326" data-name="Trazado 173326" d="M1581.981,909.772l-.181-.175Z" transform="translate(-57.388 -75.795)" fill="#a45947"/>
  </g>
</svg>
