<svg xmlns="http://www.w3.org/2000/svg" width="89" height="89" viewBox="0 0 89 89">
  <g id="Grupo_116095" data-name="Grupo 116095" transform="translate(-585 -2905.239)">
    <g id="Grupo_116016" data-name="Grupo 116016" transform="translate(-58 1903.239)">
      <g id="Elipse_12495" data-name="Elipse 12495" transform="translate(643 1002)" fill="none" stroke="#fcf8f8" stroke-width="4">
        <circle cx="44.5" cy="44.5" r="44.5" stroke="none"/>
        <circle cx="44.5" cy="44.5" r="42.5" fill="none"/>
      </g>
      <g id="Grupo_116003" data-name="Grupo 116003" transform="translate(-466.842 245.624)">
        <g id="Grupo_116003-2" data-name="Grupo 116003" transform="translate(1124.842 771.376)">
          <path id="Trazado_173330" data-name="Trazado 173330" d="M1173.882,799.631a1.039,1.039,0,0,1-1.191.856q-3.893-.033-7.786,0a1.468,1.468,0,0,1-1.425-.813c-.618-1.1-1.26-2.189-1.885-3.287a1.242,1.242,0,0,1,.643-1.982.742.742,0,0,0,.382-.4q4.113-7.808,8.222-15.618a3.607,3.607,0,0,0,.147-1.781c0-.3-.307-.156-.468-.156-2.517-.01-5.035-.007-7.553-.007-.741,0-1.483.013-2.224-.006-.31-.008-.467.052-.579.392a3.993,3.993,0,0,1-2.641,2.674c-.288.1-.441.2-.422.556.039.7.02,1.4.007,2.107,0,.271.029.408.367.42,1.57.06,1.984.507,1.984,2.07,0,.468,0,.937,0,1.405,0,.806-.148,1.006-.916,1.275-.751-.274-.9-.488-.909-1.291,0-.41-.019-.82,0-1.228.019-.341-.122-.439-.443-.427a17.1,17.1,0,0,1-1.812.008c-.5-.035-.608.151-.606.624.017,4.6.01,9.2.01,13.807,0,1.775.012,3.549-.009,5.324-.005.412.117.544.526.521a10.612,10.612,0,0,1,1.636.013c.567.056.71-.132.707-.7-.026-4.368-.015-8.737-.013-13.105,0-.832.164-1.061.889-1.29.774.216.936.432.936,1.273q0,6.619,0,13.237c0,.358.006.547.48.628a3.131,3.131,0,0,1,2.613,3.014,13.325,13.325,0,0,1,.009,1.522c-.022.376.118.452.467.451a6.507,6.507,0,0,1,1.861.088,2.791,2.791,0,0,1,2.111,2.507,13.983,13.983,0,0,1,.031,1.988c-.027.485.108.613.6.611,5.486-.019,10.973-.012,16.459-.012.985,0,1.412.282,1.4.925-.011.621-.434.9-1.374.9-1.289,0-1.289,0-1.289,1.309q0,4.159,0,8.317c0,.868-.12.75.79.763.351,0,.7-.013,1.053.026a.849.849,0,0,1,.817.893.877.877,0,0,1-.845.881,3.97,3.97,0,0,1-.585.008q-18.187,0-36.373-.015c-.575,0-.764.146-.677.7a2.274,2.274,0,0,1-.015.642,1.223,1.223,0,0,1-1.948.923c-.623-.4-1.228-.828-1.824-1.265a.438.438,0,0,0-.614,0c-.563.417-1.152.8-1.725,1.2a1.265,1.265,0,0,1-1.371.156,1.248,1.248,0,0,1-.691-1.193c-.042-1.155-.049-1.135-1.2-1.159a42.525,42.525,0,0,1-4.736-.094,6.98,6.98,0,0,1-1.642-13.374,7.538,7.538,0,0,1,2.847-.546c3.573,0,7.146-.01,10.719.011.475,0,.586-.14.568-.585a15.412,15.412,0,0,1,.036-2.047,2.83,2.83,0,0,1,2.771-2.572c.537-.02,1.254.237,1.561-.12.265-.308.086-1,.094-1.526a3.2,3.2,0,0,1,2.835-3.368c.235-.048.289-.127.273-.331-.009-.116,0-.234,0-.351q0-9.752,0-19.5c0-1.38.507-1.909,1.9-1.923.353,0,.474-.082.458-.452-.031-.7-.018-1.406,0-2.108a.416.416,0,0,0-.337-.493,4.037,4.037,0,0,1-2.746-2.792.365.365,0,0,0-.412-.3q-5.037.012-10.074,0c-.248,0-.333.065-.335.325a4.289,4.289,0,0,0,.448,2.183c2.65,4.952,5.251,9.93,7.864,14.9a1.171,1.171,0,0,0,.62.632,1.163,1.163,0,0,1,.592,1.7c-.685,1.243-1.407,2.467-2.123,3.692a1.162,1.162,0,0,1-1.063.605q-7.233,0-14.467,0a1.188,1.188,0,0,1-1.1-.644c-.691-1.2-1.4-2.381-2.072-3.586a1.211,1.211,0,0,1,.651-1.818.8.8,0,0,0,.445-.408q4.109-7.815,8.227-15.625a3.85,3.85,0,0,0,.153-1.778c.011-.288-.26-.166-.4-.168-.9-.012-1.8,0-2.694-.007-.65,0-1.012-.31-1.024-.855-.012-.576.354-.9,1.035-.9q7.5,0,14.995.008c.441,0,.664-.079.826-.549a4.006,4.006,0,0,1,2.842-2.617c.089-.026.2,0,.238-.123h1.64c.118.2.345.143.516.2a3.987,3.987,0,0,1,2.563,2.535c.16.471.386.55.827.549q7.438-.022,14.876-.007a1.312,1.312,0,0,1,.634.058.857.857,0,0,1,.5,1.015.8.8,0,0,1-.826.681c-.957.008-1.914.016-2.87,0-.324-.007-.409.081-.429.414a4.046,4.046,0,0,0,.521,2.22q3.936,7.382,7.807,14.8a1.183,1.183,0,0,0,.629.618,1.148,1.148,0,0,1,.586,1.655c-.7,1.281-1.437,2.538-2.179,3.794a1.081,1.081,0,0,1-.979.539c-.625,0-1.25-.022-1.874.011a1.015,1.015,0,0,1-1.192-.853c.132-.539.4-1.02,1.02-.9a2.091,2.091,0,0,0,2.593-1.575,3.316,3.316,0,0,1,.259-.457c.325-.572.325-.575-.317-.575q-7.813,0-15.626.009c-.146,0-.307-.056-.484.1.393.682.806,1.358,1.175,2.059a.71.71,0,0,0,.736.421c2.38-.012,4.76,0,7.14,0C1173.46,798.713,1173.619,798.83,1173.882,799.631ZM1153.5,815.8c-.28.781-.459.905-1.34.906q-6.765,0-13.53,0a2.217,2.217,0,0,0-2.428,2.209c-.039,1.991-.036,3.983,0,5.974a2.239,2.239,0,0,0,2.181,2.238c.306.019.46-.033.457-.4-.014-1.913-.006-3.827,0-5.74,0-.247-.022-.375-.335-.395-.652-.04-.974-.4-.94-.94.032-.51.392-.809,1.013-.81q7.848,0,15.7,0a.973.973,0,0,1,.614.145.843.843,0,0,1,.351.977.913.913,0,0,1-.994.645c-2.245-.007-4.49.005-6.735-.011-.378,0-.546.051-.54.494.029,1.854.028,3.709.01,5.564,0,.4.137.481.507.48q16.546-.013,33.092,0c.343,0,.5-.062.469-.444a5.744,5.744,0,0,1,0-1.17c.058-.49-.151-.563-.586-.562q-8.961.02-17.922.008a4.67,4.67,0,0,1-.585-.014.8.8,0,0,1-.756-.875c0-.529.388-.871,1.025-.877,1.132-.012,2.265,0,3.4,0,4.92,0,9.84-.012,14.759.016.589,0,.732-.165.673-.708a6.56,6.56,0,0,1,0-1.345c.046-.469-.121-.568-.572-.567q-8.99.024-17.981.01a3.993,3.993,0,0,1-.527-.008.863.863,0,0,1-.772-.936.811.811,0,0,1,.828-.812c.194-.014.39-.007.586-.007q8.463,0,16.927,0c.482,0,1.109.21,1.409-.086s.033-.929.1-1.406c.078-.554-.15-.654-.664-.654q-11.626.025-23.252.011c-.945,0-1.117-.113-1.4-.906.266-.751.478-.9,1.29-.9,2.5,0,5-.017,7.5.012.542.006.791-.1.718-.692a10.793,10.793,0,0,1-.01-1.287c0-1.1-.362-1.456-1.481-1.457q-5.885,0-11.77,0c-1.191,0-2.381,0-3.572.013a1.108,1.108,0,0,0-1.225,1.235c-.006.546.024,1.095-.01,1.639-.025.413.115.53.525.526,1.5-.017,3.006,0,4.509.009C1153.022,814.9,1153.23,815.049,1153.5,815.8Zm-19.542.9a5.186,5.186,0,0,0-5.042,6.688c.751,2.511,2.932,3.923,5.826,3.754.346-.02.268-.162.158-.367a4.791,4.791,0,0,1-.491-2.37c.018-1.773.01-3.547,0-5.32a5.539,5.539,0,0,1,.222-1.435c.081-.31.463-.651.275-.868C1134.76,816.611,1134.287,816.718,1133.957,816.7Zm-.93-22.341c2.082,0,4.048-.014,6.014.011.431.006.551-.091.548-.538-.02-3.785-.011-7.57-.015-11.355,0-.118.057-.26-.09-.39Zm46.347,0-6.449-12.255c-.059.03-.086.037-.086.045-.007,3.961-.008,7.922-.022,11.883,0,.321.15.331.392.33C1175.219,794.357,1177.229,794.36,1179.374,794.36Zm-37.854-12.217-.125.014v5.138c0,2.187,0,4.373.007,6.56,0,.19-.154.507.264.506,2.062,0,4.124,0,6.282,0Zm29.487.054-.136-.031-6.415,12.194c2.053,0,4-.017,5.95.012.477.007.617-.1.614-.6-.024-3.689-.013-7.379-.013-11.069Zm-22.12,13.954c-.249-.013-.4-.029-.548-.029q-6.061,0-12.121,0c-1.21,0-2.421.018-3.63,0-.448-.008-.447.132-.252.456.352.584.694,1.175,1.022,1.773a.6.6,0,0,0,.6.362q6.529-.01,13.058,0c.17,0,.367.049.476-.139C1147.944,797.788,1148.395,797,1148.886,796.15Zm-3.75,32.938a1.049,1.049,0,0,0,.073-.225c0-2.631,0-5.262.012-7.893,0-.336-.154-.375-.427-.373-1.228.01-2.456.023-3.683,0-.416-.009-.52.12-.517.525.018,2.514.008,5.028.012,7.543,0,.122-.066.274.126.382.483-.332.986-.66,1.468-1.016a1.057,1.057,0,0,1,1.389-.008C1144.085,828.381,1144.6,828.719,1145.136,829.088Zm11.07-19.384v.008c1.324,0,2.649-.015,3.974.008.435.008.657-.079.6-.572a10.839,10.839,0,0,1-.009-1.109,1.473,1.473,0,0,0-1.549-1.6q-3.01-.023-6.019.009a1.471,1.471,0,0,0-1.563,1.58,10.769,10.769,0,0,1-.009,1.109c-.056.492.164.58.6.572C1153.556,809.689,1154.881,809.7,1156.206,809.7Zm2.347-34.151a2.292,2.292,0,0,0-2.353-2.369,2.378,2.378,0,1,0,2.353,2.369Z" transform="translate(-1126.888 -771.404)" fill="#0d0b0c"/>
          <path id="Trazado_173331" data-name="Trazado 173331" d="M1240.358,827.7c-.725.23-.888.459-.889,1.29,0,4.369-.012,8.737.013,13.105,0,.568-.14.756-.707.7a10.626,10.626,0,0,0-1.636-.013c-.41.023-.531-.109-.526-.521.021-1.774.009-3.549.009-5.324,0-4.6.007-9.2-.01-13.807,0-.474.1-.66.607-.624a17.163,17.163,0,0,0,1.812-.008c.321-.012.463.086.443.427-.023.408-.008.819,0,1.228.007.8.159,1.017.909,1.291Q1240.367,826.567,1240.358,827.7Z" transform="translate(-1208.722 -809.506)" fill="#ac473a"/>
          <path id="Trazado_173332" data-name="Trazado 173332" d="M1281.531,872.157c-.263-.8-.422-.919-1.257-.92-2.38,0-4.76-.012-7.14,0a.71.71,0,0,1-.736-.421c-.369-.7-.782-1.377-1.175-2.059.177-.158.338-.1.484-.1q7.813-.008,15.626-.009c.642,0,.642,0,.317.575a3.283,3.283,0,0,0-.259.457,2.091,2.091,0,0,1-2.593,1.575c-.616-.116-.888.364-1.02.9Z" transform="translate(-1234.536 -843.93)" fill="#c6412a"/>
          <path id="Trazado_173333" data-name="Trazado 173333" d="M1182.983,946.081c.282.792.454.906,1.4.906q11.626,0,23.252-.011c.514,0,.743.1.664.653-.067.477.2,1.109-.1,1.406s-.927.085-1.409.086q-8.463.009-16.927,0c-.2,0-.391-.007-.586.007a.811.811,0,0,0-.828.812.863.863,0,0,0,.772.936,3.972,3.972,0,0,0,.527.009q8.99,0,17.981-.01c.45,0,.618.1.572.567a6.562,6.562,0,0,0,0,1.345c.059.543-.084.711-.673.708-4.919-.029-9.84-.016-14.759-.016-1.132,0-2.265-.008-3.4,0-.636.007-1.03.348-1.025.877a.8.8,0,0,0,.756.875,4.707,4.707,0,0,0,.585.013q8.961,0,17.922-.008c.435,0,.644.072.586.562a5.753,5.753,0,0,0,0,1.17c.033.382-.125.444-.469.444q-16.546-.013-33.092,0c-.37,0-.511-.077-.507-.48.018-1.854.019-3.709-.01-5.564-.007-.443.161-.5.539-.494,2.245.016,4.49,0,6.735.011a.913.913,0,0,0,.994-.645.843.843,0,0,0-.351-.977.975.975,0,0,0-.614-.145q-7.849,0-15.7,0c-.621,0-.981.3-1.013.809-.034.545.288.9.94.94.312.019.336.148.335.395-.009,1.913-.017,3.827,0,5.74,0,.366-.151.418-.457.4a2.239,2.239,0,0,1-2.181-2.238c-.034-1.99-.038-3.983,0-5.974a2.217,2.217,0,0,1,2.428-2.209q6.765-.009,13.53,0c.882,0,1.061-.125,1.341-.906Z" transform="translate(-1154.132 -901.683)" fill="#fff"/>
          <path id="Trazado_173334" data-name="Trazado 173334" d="M1215.26,933.384h-2.24c-.269-.753-.478-.9-1.291-.9-1.5-.007-3.006-.026-4.509-.009-.41,0-.55-.113-.525-.526.033-.544,0-1.093.009-1.639a1.108,1.108,0,0,1,1.225-1.235c1.191-.014,2.381-.013,3.572-.013q5.885,0,11.77,0c1.119,0,1.478.355,1.481,1.457a10.845,10.845,0,0,0,.01,1.287c.073.6-.176.7-.718.692-2.5-.028-5-.014-7.5-.012C1215.738,932.482,1215.527,932.633,1215.26,933.384Z" transform="translate(-1186.409 -888.986)" fill="#ac473a"/>
          <path id="Trazado_173335" data-name="Trazado 173335" d="M1139.235,949.568c.329.017.8-.09.952.083.187.216-.194.558-.275.867a5.548,5.548,0,0,0-.222,1.435c.006,1.773.015,3.547,0,5.32a4.791,4.791,0,0,0,.491,2.37c.11.205.188.346-.158.367-2.895.169-5.075-1.243-5.826-3.754A5.187,5.187,0,0,1,1139.235,949.568Z" transform="translate(-1132.166 -904.271)" fill="#4e2e8e"/>
          <path id="Trazado_173336" data-name="Trazado 173336" d="M1151.042,825.71l6.458-12.272c.147.13.09.272.09.39,0,3.785-.005,7.57.015,11.355,0,.446-.118.543-.548.538C1155.09,825.7,1153.124,825.71,1151.042,825.71Z" transform="translate(-1144.903 -802.754)" fill="#fffeff"/>
          <path id="Trazado_173337" data-name="Trazado 173337" d="M1314.146,825.76c-2.146,0-4.156,0-6.165,0-.242,0-.393-.009-.392-.33q.022-5.941.022-11.883c0-.008.027-.015.086-.045Z" transform="translate(-1261.66 -802.804)" fill="#fffeff"/>
          <path id="Trazado_173338" data-name="Trazado 173338" d="M1184.029,813.653l6.428,12.217c-2.158,0-4.22,0-6.282,0-.418,0-.263-.316-.264-.506-.01-2.187-.007-4.373-.007-6.56v-5.138Z" transform="translate(-1169.397 -802.914)" fill="#fffeff"/>
          <path id="Trazado_173339" data-name="Trazado 173339" d="M1281.24,813.775v.51c0,3.69-.011,7.379.013,11.069,0,.5-.137.6-.614.6-1.949-.029-3.9-.012-5.951-.012l6.415-12.194Z" transform="translate(-1237.122 -802.982)" fill="#fffeff"/>
          <path id="Trazado_173340" data-name="Trazado 173340" d="M1164.5,868.673c-.491.851-.943,1.638-1.4,2.421-.11.188-.306.139-.476.139q-6.529,0-13.058,0a.6.6,0,0,1-.6-.362q-.491-.9-1.022-1.773c-.195-.324-.2-.463.252-.456,1.21.02,2.42,0,3.63,0q6.06,0,12.121,0C1164.105,868.644,1164.255,868.659,1164.5,868.673Z" transform="translate(-1142.505 -843.927)" fill="#c6412a"/>
          <path id="Trazado_173341" data-name="Trazado 173341" d="M1185.352,973.428c-.537-.369-1.051-.707-1.547-1.069a1.057,1.057,0,0,0-1.389.008c-.482.356-.985.684-1.468,1.016-.192-.108-.126-.261-.126-.382,0-2.514.005-5.028-.012-7.543,0-.4.1-.534.517-.525,1.227.026,2.455.012,3.683,0,.273,0,.429.037.428.373-.012,2.631-.008,5.262-.012,7.893A1.044,1.044,0,0,1,1185.352,973.428Z" transform="translate(-1167.104 -915.744)" fill="#c6412a"/>
          <path id="Trazado_173342" data-name="Trazado 173342" d="M1228.788,912.5c-1.325,0-2.65-.015-3.974.009-.436.008-.656-.079-.6-.572a10.7,10.7,0,0,0,.009-1.109,1.471,1.471,0,0,1,1.563-1.58q3.009-.027,6.019-.009a1.473,1.473,0,0,1,1.549,1.6,10.837,10.837,0,0,0,.009,1.109c.056.493-.166.58-.6.572-1.324-.023-2.649-.008-3.974-.008Z" transform="translate(-1199.47 -874.196)" fill="#752f23"/>
          <path id="Trazado_173343" data-name="Trazado 173343" d="M1237.68,780.773a2.35,2.35,0,1,1-2.353-2.369A2.305,2.305,0,0,1,1237.68,780.773Z" transform="translate(-1206.015 -776.624)" fill="#c6412a"/>
        </g>
      </g>
    </g>
  </g>
</svg>
