<svg xmlns="http://www.w3.org/2000/svg" width="93.137" height="93.1" viewBox="0 0 93.137 93.1">
  <g id="Grupo_113884" data-name="Grupo 113884" transform="translate(-967.985 -18.995)">
    <path id="Trazado_162953" data-name="Trazado 162953" d="M997.285,110.256a1.839,1.839,0,0,1-2.138,1.816c-8.177,0-16.354-.017-24.531.023a2.876,2.876,0,0,1-2.631-1.113V34.629L983.62,19h53.993a2.861,2.861,0,0,1,1.113,2.632q-.046,23.219-.021,46.438v1.008c.341.034.371-.271.49-.436a50.548,50.548,0,0,0,4.543-7.4,9.243,9.243,0,0,1,9.491-5.126,9.157,9.157,0,0,1,2.548,17.39,66.084,66.084,0,0,0-14.739,10.3c-.4.353-.386.55-.014.907,1.072,1.026,2.114,2.085,3.154,3.143a9.111,9.111,0,0,1,0,13.349c-.615.627-1.241,1.244-1.863,1.865-1.335,1.333-2.035,1.361-3.49.129-.238.221-.106.506-.108.75-.013,2.06,0,4.12-.011,6.18a1.759,1.759,0,0,1-1.893,1.94q-12.45.011-24.9,0c-1.163,0-1.744-.559-1.959-1.814.285-1.371.835-1.819,2.252-1.819,7.361,0,14.722-.009,22.083.014.624,0,.81-.13.8-.781-.042-2.544-.032-5.089,0-7.633a1.488,1.488,0,0,0-.508-1.18c-1.408-1.376-2.79-2.778-4.182-4.171q-8.289-8.29-16.576-16.581c-1.1-1.1-1.1-2.034-.02-3.128.895-.9,1.78-1.821,2.724-2.671a8.987,8.987,0,0,1,11.929-.073c1.113.977,2.132,2.063,3.186,3.108,1.19,1.179,1.207,1.2,2.322-.08.492-.566,1.134-1,1.132-1.952q-.042-24.945-.006-49.89c0-.614-.116-.806-.774-.8q-23.674.031-47.347,0c-.728,0-.814.234-.81.864.028,3.847.016,7.694.013,11.541,0,1.491-.666,2.156-2.158,2.157-3.817,0-7.634.02-11.45-.016-.715-.007-.956.107-.955.9q.039,34.759,0,69.519c0,.73.206.873.893.871,7.512-.025,15.025-.016,22.537-.015C996.452,108.437,997.007,108.89,997.285,110.256Zm25.121-36.569a5.9,5.9,0,0,0-4.375,2.19c-.515.523-.551.758-.008,1.3q10.668,10.6,21.284,21.254c1.234,1.234,1.234,1.233,2.457-.022a5.349,5.349,0,0,0,.016-7.724q-7.684-7.738-15.417-15.426A5.219,5.219,0,0,0,1022.405,73.687Zm35.017-8.32a5.663,5.663,0,0,0-4.034-5.463,5.593,5.593,0,0,0-6.255,2.727c-.391.714-.711,1.467-1.112,2.175a76.3,76.3,0,0,1-10.154,13.779c-.339.372-.486.589-.019.98a14.915,14.915,0,0,1,1.607,1.6c.363.412.577.409,1,.03a71.574,71.574,0,0,1,15.93-11.138A5.422,5.422,0,0,0,1057.422,65.367ZM974.409,33.538c2.523,0,5,0,7.485-.006.256,0,.638.17.637-.363-.008-2.585,0-5.171,0-7.749Z" fill="#080708"/>
    <path id="Trazado_162954" data-name="Trazado 162954" d="M1008.552,121.525c-.278-1.366-.833-1.819-2.25-1.819-7.513,0-15.025-.01-22.537.015-.687,0-.894-.141-.893-.871q.033-34.759,0-69.519c0-.8.24-.912.955-.9,3.816.036,7.633.019,11.45.016,1.492,0,2.157-.666,2.158-2.157,0-3.847.015-7.694-.013-11.541,0-.63.081-.865.809-.864q23.674.039,47.347,0c.658,0,.775.19.774.8q-.026,24.945.006,49.89c0,.948-.64,1.386-1.132,1.952-1.115,1.282-1.132,1.259-2.322.08-1.054-1.044-2.073-2.13-3.186-3.108a8.987,8.987,0,0,0-11.929.073c-.945.85-1.83,1.767-2.724,2.671-1.083,1.094-1.079,2.027.02,3.128q8.283,8.3,16.576,16.581c1.392,1.392,2.775,2.794,4.182,4.171a1.487,1.487,0,0,1,.508,1.18c-.027,2.544-.037,5.089,0,7.633.011.651-.176.783-.8.781-7.361-.023-14.722-.016-22.083-.014-1.417,0-1.967.448-2.252,1.819h-4.484c-.241-1.208-.862-1.82-1.848-1.819s-1.6.608-1.85,1.82Zm6.04-68.355q-12.953,0-25.905,0c-1.493,0-2.158.666-2.161,2.156q-.006,3.318,0,6.635a1.856,1.856,0,0,0,2.112,2.114q26,0,51.992,0a1.843,1.843,0,0,0,2.067-2.065c.007-2.181,0-4.363,0-6.544,0-1.674-.621-2.3-2.294-2.3Zm-6.193,50.9c-1.362,0-2.725,0-4.087,0-1.322,0-2.141.691-2.152,1.8s.813,1.834,2.115,1.836c2.694,0,5.389.018,8.083-.011.619-.007.91.114,1.1.793a9.1,9.1,0,1,0-.036-5.06c-.136.469-.3.681-.851.66C1011.185,104.035,1009.791,104.071,1008.4,104.071Zm6.17-32.722h25.723a6.589,6.589,0,0,0,.817-.014,1.818,1.818,0,0,0,0-3.608,6.687,6.687,0,0,0-.817-.014H988.934a6.638,6.638,0,0,0-.817.014,1.818,1.818,0,0,0,0,3.608,6.589,6.589,0,0,0,.817.014Zm-.048,7.272h25.723a7.9,7.9,0,0,0,.818-.009,1.812,1.812,0,0,0,.441-3.512,2.661,2.661,0,0,0-1.073-.111q-25.814-.005-51.628,0a6.026,6.026,0,0,0-.636.008,1.812,1.812,0,0,0-.526,3.479,2.6,2.6,0,0,0,1.157.148Q1001.658,78.622,1014.52,78.62Zm-11.109,3.636q-7.317,0-14.634,0c-1.417,0-2.237.656-2.252,1.792s.818,1.842,2.2,1.843q14.725,0,29.449,0c1.329,0,2.144-.684,2.159-1.793.016-1.143-.814-1.841-2.2-1.841Q1010.774,82.254,1003.411,82.256Zm-3.585,7.272q-5.59,0-11.18,0c-1.307,0-2.131.72-2.121,1.831s.829,1.8,2.151,1.8q11.134,0,22.269,0c1.307,0,2.128-.719,2.12-1.832s-.825-1.8-2.15-1.8Q1005.371,89.524,999.827,89.528Zm17.462-44.721c.6,0,1.207.021,1.809,0a1.809,1.809,0,0,0,1.786-1.785,1.784,1.784,0,0,0-1.729-1.835q-1.9-.059-3.8,0a1.791,1.791,0,0,0-1.742,1.824,1.812,1.812,0,0,0,1.776,1.8C1016.021,44.83,1016.655,44.806,1017.289,44.807Zm10.821,0c.6,0,1.207.014,1.809,0a1.814,1.814,0,1,0,.048-3.628q-1.808-.039-3.618,0a1.8,1.8,0,0,0-1.829,1.833,1.823,1.823,0,0,0,1.871,1.795C1026.964,44.821,1027.537,44.807,1028.11,44.807Zm10.957,0c.6,0,1.207.018,1.809,0a1.813,1.813,0,0,0,1.823-1.84,1.792,1.792,0,0,0-1.782-1.785q-1.854-.047-3.709,0a1.8,1.8,0,0,0-1.78,1.789,1.817,1.817,0,0,0,1.829,1.836C1037.86,44.825,1038.464,44.807,1039.067,44.807Zm-18.727,46.537a1.819,1.819,0,1,0-1.839,1.82A1.823,1.823,0,0,0,1020.339,91.344Z" transform="translate(-11.267 -11.269)" fill="#fff"/>
    <path id="Trazado_162955" data-name="Trazado 162955" d="M1107.037,388.954q.371-1.817,1.85-1.82c.986,0,1.607.611,1.848,1.819-.2,1.209-.818,1.819-1.848,1.819S1107.241,390.166,1107.037,388.954Z" transform="translate(-105.269 -278.698)" fill="#0d0d0e"/>
    <path id="Trazado_162956" data-name="Trazado 162956" d="M1177.1,244.1a5.219,5.219,0,0,1,3.956,1.568q7.717,7.7,15.417,15.426a5.349,5.349,0,0,1-.017,7.724c-1.222,1.256-1.223,1.256-2.457.022q-10.634-10.634-21.284-21.254c-.543-.539-.507-.774.008-1.3A5.9,5.9,0,0,1,1177.1,244.1Z" transform="translate(-154.691 -170.414)" fill="#6677d6"/>
    <path id="Trazado_162957" data-name="Trazado 162957" d="M1267.964,192.294a5.423,5.423,0,0,1-3.033,4.691A71.572,71.572,0,0,0,1249,208.124c-.426.379-.64.383-1-.03a14.913,14.913,0,0,0-1.607-1.6c-.467-.39-.32-.608.019-.98a76.3,76.3,0,0,0,10.154-13.779c.4-.708.721-1.461,1.112-2.175a5.593,5.593,0,0,1,6.255-2.727A5.663,5.663,0,0,1,1267.964,192.294Z" transform="translate(-210.542 -126.927)" fill="#c6412a"/>
    <path id="Trazado_162958" data-name="Trazado 162958" d="M994.428,53.559l8.119-8.118c0,2.578,0,5.164,0,7.749,0,.532-.381.362-.637.363C999.432,53.563,996.951,53.559,994.428,53.559Z" transform="translate(-20.019 -20.021)" fill="#eaf7fd"/>
    <path id="Trazado_162959" data-name="Trazado 162959" d="M1025.977,113.274h25.814c1.672,0,2.292.622,2.293,2.3,0,2.181.006,4.363,0,6.544a1.843,1.843,0,0,1-2.067,2.065q-26,0-51.992,0a1.856,1.856,0,0,1-2.112-2.114q-.008-3.318,0-6.635c0-1.49.668-2.155,2.161-2.156Q1013.024,113.272,1025.977,113.274Zm7.885,3.636c-5.3,0-10.6.011-15.9-.015-.627,0-.859.134-.8.787a10.483,10.483,0,0,1,0,2c-.072.72.178.886.884.884q15.216-.036,30.433-.017c.484,0,.97-.021,1.453.007.389.023.536-.1.52-.505a20.717,20.717,0,0,1,.006-2.361c.05-.645-.159-.8-.794-.792C1044.4,116.922,1039.131,116.91,1033.862,116.91Zm-26.28,0c-1.726,0-3.453.043-5.176-.02-.752-.027-.927.235-.871.916a12.88,12.88,0,0,1,0,2c-.045.6.155.763.751.757,2.785-.031,5.57-.008,8.356-.017.932,0,2.19.316,2.712-.158.6-.544.11-1.823.2-2.777.052-.561-.138-.723-.7-.711C1011.094,116.933,1009.338,116.91,1007.582,116.91Z" transform="translate(-22.652 -71.374)" fill="#040506"/>
    <path id="Trazado_162960" data-name="Trazado 162960" d="M1068.511,300.133c1.393,0,2.787-.036,4.177.018.55.021.715-.191.851-.66a9.082,9.082,0,1,1,.036,5.06c-.2-.68-.486-.8-1.1-.793-2.694.029-5.389.016-8.083.011-1.3,0-2.126-.724-2.115-1.836s.829-1.795,2.152-1.8C1065.787,300.13,1067.149,300.133,1068.511,300.133Zm8.7,3.636a5.308,5.308,0,0,0,5.989,3.53,5.478,5.478,0,0,0,4.517-5.712,5.546,5.546,0,0,0-5.143-5.087c-2.274-.147-4.923,1.509-5.3,3.634,1.608,0,3.212-.008,4.815,0a1.823,1.823,0,1,1,0,3.63C1080.493,303.777,1078.889,303.769,1077.21,303.769Z" transform="translate(-71.38 -207.331)" fill="#c6412a"/>
    <path id="Trazado_162961" data-name="Trazado 162961" d="M1025.965,176.754h-25.632a6.591,6.591,0,0,1-.817-.014,1.818,1.818,0,0,1,0-3.608,6.635,6.635,0,0,1,.817-.014h51.356a6.686,6.686,0,0,1,.817.014,1.818,1.818,0,0,1,0,3.608,6.592,6.592,0,0,1-.817.014Z" transform="translate(-22.664 -116.674)" fill="#050506"/>
    <path id="Trazado_162962" data-name="Trazado 162962" d="M1025.894,206.688q-12.862,0-25.723,0a2.6,2.6,0,0,1-1.157-.148,1.812,1.812,0,0,1,.526-3.479,6.026,6.026,0,0,1,.636-.008q25.814,0,51.628,0a2.662,2.662,0,0,1,1.073.111,1.812,1.812,0,0,1-.441,3.512,7.9,7.9,0,0,1-.818.009Z" transform="translate(-22.641 -139.337)" fill="#050506"/>
    <path id="Trazado_162963" data-name="Trazado 162963" d="M1014.808,233q7.363,0,14.725,0c1.387,0,2.216.7,2.2,1.841-.015,1.109-.831,1.793-2.159,1.793q-14.725,0-29.449,0c-1.385,0-2.218-.7-2.2-1.843s.835-1.792,2.252-1.792Q1007.491,232.994,1014.808,233Z" transform="translate(-22.664 -162.008)" fill="#050607"/>
    <path id="Trazado_162964" data-name="Trazado 162964" d="M1011.224,262.924q5.544,0,11.089,0c1.325,0,2.141.691,2.15,1.8s-.812,1.832-2.12,1.832q-11.134,0-22.269,0c-1.322,0-2.142-.694-2.151-1.8s.815-1.83,2.121-1.831Q1005.634,262.92,1011.224,262.924Z" transform="translate(-22.664 -184.665)" fill="#050607"/>
    <path id="Trazado_162965" data-name="Trazado 162965" d="M1113.089,67.469c-.633,0-1.268.023-1.9-.006a1.812,1.812,0,0,1-1.776-1.8,1.791,1.791,0,0,1,1.742-1.824q1.9-.056,3.8,0a1.784,1.784,0,0,1,1.729,1.835,1.809,1.809,0,0,1-1.786,1.785C1114.3,67.49,1113.692,67.469,1113.089,67.469Z" transform="translate(-107.067 -33.931)" fill="#08090a"/>
    <path id="Trazado_162966" data-name="Trazado 162966" d="M1157.9,67.483c-.573,0-1.146.014-1.719,0a1.823,1.823,0,0,1-1.871-1.795,1.8,1.8,0,0,1,1.829-1.833q1.808-.039,3.618,0a1.814,1.814,0,1,1-.048,3.628C1159.1,67.5,1158.5,67.483,1157.9,67.483Z" transform="translate(-141.055 -33.944)" fill="#08090a"/>
    <path id="Trazado_162967" data-name="Trazado 162967" d="M1202.844,67.477c-.6,0-1.207.018-1.809,0a1.816,1.816,0,0,1-1.829-1.836,1.8,1.8,0,0,1,1.78-1.789q1.853-.047,3.709,0a1.792,1.792,0,0,1,1.782,1.785,1.813,1.813,0,0,1-1.823,1.84C1204.051,67.5,1203.447,67.477,1202.844,67.477Z" transform="translate(-175.045 -33.939)" fill="#08090a"/>
    <path id="Trazado_162968" data-name="Trazado 162968" d="M1125.765,264.74a1.819,1.819,0,1,1-1.841-1.817A1.823,1.823,0,0,1,1125.765,264.74Z" transform="translate(-116.693 -184.664)" fill="#0d0d0e"/>
    <path id="Trazado_162969" data-name="Trazado 162969" d="M1093.836,128.192c5.269,0,10.538.012,15.807-.016.635,0,.843.147.794.792a20.717,20.717,0,0,0-.006,2.361c.015.408-.132.528-.52.505-.483-.028-.969-.007-1.453-.007q-15.217,0-30.433.017c-.706,0-.955-.165-.884-.884a10.483,10.483,0,0,0,0-2c-.061-.653.171-.79.8-.787C1083.238,128.2,1088.537,128.192,1093.836,128.192Z" transform="translate(-82.627 -82.656)" fill="#ffef0f"/>
    <path id="Trazado_162970" data-name="Trazado 162970" d="M1018.854,128.173c1.756,0,3.512.023,5.268-.013.564-.012.754.15.7.711-.089.954.4,2.233-.2,2.777-.522.474-1.779.155-2.712.158-2.786.008-5.571-.014-8.356.017-.6.007-.8-.161-.751-.757a12.88,12.88,0,0,0,0-2c-.055-.681.119-.943.871-.916C1015.4,128.216,1017.129,128.173,1018.854,128.173Z" transform="translate(-33.925 -82.636)" fill="#6677d6"/>
    <path id="Trazado_162971" data-name="Trazado 162971" d="M1123.755,315.072c1.679,0,3.283.008,4.886,0a1.823,1.823,0,1,0,0-3.63c-1.6-.01-3.207,0-4.815,0,.373-2.126,3.022-3.782,5.3-3.634a5.546,5.546,0,0,1,5.143,5.087,5.478,5.478,0,0,1-4.517,5.712A5.308,5.308,0,0,1,1123.755,315.072Z" transform="translate(-117.925 -218.634)" fill="#6677d6"/>
  </g>
</svg>
