<svg xmlns="http://www.w3.org/2000/svg" width="84.206" height="84.196" viewBox="0 0 84.206 84.196">
  <g id="Grupo_115984" data-name="Grupo 115984" transform="translate(-420.056 -496.283)">
    <path id="Trazado_173182" data-name="Trazado 173182" d="M420.073,633.516a2,2,0,0,1,2.13-.829c.516.06.741-.116.908-.65a6.663,6.663,0,0,1,6.359-4.77c1.2-.034,2.411-.023,3.616-.007.371,0,.536-.075.533-.492-.023-3.441.151-6.894-.87-10.255-.412-1.357-.928-2.673-1.444-3.989a26.784,26.784,0,0,1-1.667-11.91,9.762,9.762,0,0,1,8.771-8.669,9.487,9.487,0,0,1,9.926,7.33,23.035,23.035,0,0,1-.059,7.919,35.368,35.368,0,0,1-2.362,7.8,22.324,22.324,0,0,0-1.362,8.2c.018,1.15.031,2.3-.01,3.451-.019.522.149.641.646.628q1.807-.049,3.615.008a6.686,6.686,0,0,1,6.238,4.713c.165.542.363.769.942.711a2.425,2.425,0,0,1,1.294.1,1.279,1.279,0,0,1,.8,1.23c.006,2.712,0,5.423.012,8.135a1.77,1.77,0,0,1-.861,1.382q-18.25,0-36.5.016c-.563,0-.681-.11-.674-.674C420.092,639.764,420.073,636.64,420.073,633.516Zm31.711-.848c.6.126.607-.115.361-.553a4.285,4.285,0,0,0-4.118-2.153q-8.938.01-17.876.006a7.082,7.082,0,0,0-1.305.1,3.952,3.952,0,0,0-2.892,2.185c-.141.274-.224.486.231.407Zm-12.706-10.855c.685,0,1.372-.041,2.052.013.554.043.7-.188.725-.685a25.064,25.064,0,0,1,.527-3.891,59.621,59.621,0,0,1,2.251-6.743,23.117,23.117,0,0,0,1.059-10.349c-.4-3.128-3.581-5.558-6.917-5.437a6.968,6.968,0,0,0-6.371,6.031,23.923,23.923,0,0,0,1.566,11.009,32.8,32.8,0,0,1,2.194,7.606c.117.815-.211,1.96.421,2.362C437.189,622.112,438.229,621.81,439.077,621.813Zm-.021,18.98c5.174,0,10.348-.012,15.522.015.653,0,.851-.18.819-.826-.062-1.229-.092-2.463-.048-3.691.024-.679-.222-.8-.839-.8-6.789.02-13.578.013-20.366.013-3.5,0-7.008.011-10.512-.011-.546,0-.771.107-.756.712.029,1.229.009,2.463-.064,3.69-.042.706.141.924.888.919C428.818,640.776,433.938,640.793,439.057,640.793Zm.034-13.537h.656c2.1,0,2.082,0,2.034-2.118-.011-.488-.179-.592-.62-.582-.928.021-1.857-.008-2.785-.009-2.163,0-2.151,0-2.023,2.208.023.394.142.519.526.508C437.615,627.239,438.353,627.255,439.09,627.256Z" transform="translate(0 -63.082)" fill="#0c0909"/>
    <path id="Trazado_173183" data-name="Trazado 173183" d="M538.876,496.284h21.208c1.446,0,1.865.411,1.866,1.831,0,2.137.013,4.274-.009,6.411a1.424,1.424,0,0,0,.457,1.149c1.454,1.412,2.865,2.869,4.316,4.286a2.069,2.069,0,0,1,.671,1.594q-.017,26.8-.01,53.6c0,1.31-.48,1.772-1.875,1.774q-6.453.009-12.906,0H523.413c-1.849,0-2.23-.375-2.23-2.189,0-.9-.023-1.809.01-2.712.016-.441-.132-.554-.555-.542-1.013.029-2.028.018-3.041.007-1.348-.015-1.84-.5-1.84-1.83q0-30.784,0-61.569c0-1.349.466-1.806,1.829-1.806Zm-14.922,38q0,14.548,0,29.1c0,.426-.118.816.615.815q19.726-.037,39.452-.006c.526,0,.626-.166.626-.651q-.017-25.151,0-50.3c0-.54-.142-.69-.681-.681-1.917.033-3.836.017-5.753.011-1.217,0-1.69-.473-1.694-1.68-.006-1.836-.036-3.672.015-5.507.02-.725-.145-.947-.918-.945q-15.37.044-30.74,0c-.718,0-.947.138-.944.914C523.964,515,523.954,524.641,523.954,534.285Zm35.238-31.833c0-.927.006-1.638,0-2.348-.014-1.206.155-1.064-1.029-1.064q-19.313-.006-38.626-.022c-.827,0-1.027.194-1.025,1.025q.039,28.518.02,57.036c0,1.669,0,1.616,1.653,1.69.839.038,1.023-.2,1.022-1.027q-.039-27.039-.019-54.077c0-1.513.443-1.954,1.955-1.954q17.094,0,34.188-.008A2.225,2.225,0,0,1,559.191,502.452Zm.138,4.232v2.611c0,.228.005.458.321.459.9,0,1.807,0,2.747,0Z" transform="translate(-63.123)" fill="#0c0909"/>
    <path id="Trazado_173184" data-name="Trazado 173184" d="M462.83,627.231c-.849,0-1.888.3-2.493-.084-.632-.4-.3-1.547-.421-2.362a32.8,32.8,0,0,0-2.194-7.606,23.923,23.923,0,0,1-1.566-11.009,6.968,6.968,0,0,1,6.371-6.031c3.336-.121,6.516,2.309,6.917,5.437a23.117,23.117,0,0,1-1.059,10.349,59.621,59.621,0,0,0-2.251,6.743,25.064,25.064,0,0,0-.527,3.891c-.023.5-.171.728-.725.685C464.2,627.192,463.514,627.232,462.83,627.231Z" transform="translate(-23.752 -68.501)" fill="#6677d6"/>
    <path id="Trazado_173185" data-name="Trazado 173185" d="M444.384,725.22c-5.119,0-10.238-.017-15.357.019-.747.005-.931-.213-.888-.919.073-1.227.094-2.461.064-3.69-.015-.6.21-.715.756-.712,3.5.022,7.008.011,10.512.011,6.789,0,13.578.007,20.366-.013.618,0,.864.121.839.8-.044,1.228-.015,2.463.048,3.691.033.646-.166.83-.819.826C454.731,725.208,449.558,725.22,444.384,725.22Z" transform="translate(-5.327 -147.509)" fill="#4e2e8e"/>
    <path id="Trazado_173186" data-name="Trazado 173186" d="M437.394,706.374c-.456.079-.373-.133-.231-.407a3.952,3.952,0,0,1,2.892-2.185,7.076,7.076,0,0,1,1.305-.1q8.938-.009,17.876-.006a4.285,4.285,0,0,1,4.118,2.153c.246.437.236.679-.361.553a3.084,3.084,0,0,0-2.748-1.252q-9.959-.065-19.919-.005A4.031,4.031,0,0,0,437.394,706.374Z" transform="translate(-11.21 -136.796)" fill="#6677d6"/>
    <path id="Trazado_173187" data-name="Trazado 173187" d="M438.059,709.131a4.031,4.031,0,0,1,2.933-1.249q9.959-.052,19.919.005a3.084,3.084,0,0,1,2.748,1.252Z" transform="translate(-11.875 -139.553)" fill="#ebebeb"/>
    <path id="Trazado_173188" data-name="Trazado 173188" d="M470.576,690.476c-.737,0-1.475-.016-2.212.007-.384.012-.5-.114-.526-.508-.128-2.21-.14-2.211,2.023-2.208.929,0,1.858.03,2.785.009.44-.01.609.094.62.582.048,2.117.067,2.117-2.034,2.118Z" transform="translate(-31.486 -126.302)" fill="#4e2e8e"/>
    <path id="Trazado_173189" data-name="Trazado 173189" d="M539.8,550.082c0-9.644.01-19.288-.02-28.932,0-.776.227-.915.944-.914q15.37.035,30.74,0c.772,0,.938.22.918.945-.052,1.834-.022,3.671-.015,5.507,0,1.207.477,1.676,1.694,1.68,1.918.006,3.836.021,5.753-.011.539-.009.681.141.681.681q-.021,25.151,0,50.3c0,.485-.1.651-.626.651q-19.726-.024-39.452.006c-.733,0-.615-.389-.615-.815Q539.8,564.63,539.8,550.082ZM556.07,533.8q5.876,0,11.753,0c1.393,0,1.811-.411,1.816-1.808q.013-3.616,0-7.232c-.005-1.369-.462-1.819-1.824-1.82q-11.753,0-23.505,0c-1.339,0-1.839.493-1.843,1.827q-.01,3.575,0,7.15c0,1.417.459,1.882,1.851,1.882Q550.193,533.8,556.07,533.8Zm4.036,5.429H575.96c1.84,0,1.8,0,1.855-1.867.018-.687-.163-.846-.845-.844q-16.306.036-32.612.017c-1.9,0-1.867,0-1.911,1.915-.015.67.2.8.82.793C548.88,539.215,554.493,539.225,560.106,539.225Zm.006,2.737H544.259c-1.795,0-1.76,0-1.811,1.765-.021.725.145.948.918.946,10.815-.029,21.631-.017,32.446-.027.644,0,1.5.294,1.875-.138.316-.365.046-1.2.123-1.82.082-.662-.2-.742-.776-.74C571.393,541.971,565.753,541.962,560.112,541.962ZM553.3,558.268h8.956c1.96,0,1.927,0,1.97-1.938.015-.694-.192-.847-.865-.844-6.3.028-12.6.016-18.9.016-2.023,0-2,0-2.012,2.064,0,.6.186.718.743.714C546.561,558.256,549.93,558.268,553.3,558.268Zm0,9.507h8.953c1.962,0,1.922,0,1.975-1.947.02-.726-.228-.823-.872-.82-6.3.024-12.594.015-18.891.015-2.027,0-2,0-2.014,2.046,0,.6.19.722.747.718C546.564,567.763,549.931,567.776,553.3,567.776Zm.087,6.771h-9.036c-1.9,0-1.862,0-1.9,1.911-.015.668.2.8.823.8,6.325-.022,12.65-.014,18.975-.014,1.982,0,1.955,0,1.977-2,.007-.6-.176-.71-.733-.706C560.122,574.559,556.754,574.546,553.386,574.546Zm16.4-19.951c-.206-.3-.366-.543-.542-.777-.423-.564-.677-1.563-1.24-1.623-.544-.058-1.161.706-1.771,1.068-.355.211-.412.37-.161.729.782,1.119,1.51,2.274,2.282,3.4a1.413,1.413,0,0,0,2.542.13c2.2-2.614,4.372-5.248,6.583-7.906a16.7,16.7,0,0,1-1.378-1.186c-.52-.551-.84-.46-1.3.112C573.174,550.562,571.493,552.539,569.781,554.595Zm0,9.5c-.206-.3-.363-.55-.542-.784-.429-.558-.675-1.56-1.244-1.614-.55-.053-1.163.7-1.772,1.067-.365.217-.392.389-.145.741.752,1.072,1.456,2.177,2.188,3.262.849,1.259,1.774,1.3,2.747.124q2.619-3.154,5.242-6.3c.384-.462,1.057-.912,1.078-1.39.025-.569-.845-.811-1.256-1.265-.462-.51-.765-.535-1.244.067C573.2,560.048,571.5,562.035,569.78,564.1Zm0,9.5c-.2-.294-.371-.539-.541-.782-.391-.558-.7-1.459-1.2-1.582-.571-.14-1.151.673-1.766,1.006-.391.212-.466.4-.179.8.76,1.068,1.456,2.182,2.192,3.268.831,1.227,1.737,1.256,2.705.1q2.552-3.059,5.1-6.124c.451-.544,1.254-1.139,1.211-1.653s-.978-.916-1.476-1.413c-.362-.36-.541-.236-.818.1C573.3,569.394,571.576,571.448,569.779,573.6Z" transform="translate(-78.97 -15.797)" fill="#fff"/>
    <path id="Trazado_173190" data-name="Trazado 173190" d="M564.527,507.749a2.225,2.225,0,0,0-1.863-.751q-17.094.016-34.188.008c-1.511,0-1.954.441-1.955,1.954q0,27.039.019,54.077c0,.823-.183,1.064-1.022,1.027-1.651-.074-1.653-.021-1.653-1.69q0-28.518-.02-57.036c0-.831.2-1.026,1.025-1.025q19.313.043,38.626.022c1.185,0,1.016-.141,1.029,1.064C564.534,506.111,564.527,506.822,564.527,507.749Z" transform="translate(-68.459 -5.297)" fill="#6677d6"/>
    <path id="Trazado_173191" data-name="Trazado 173191" d="M643.762,526.838l3.068,3.071c-.94,0-1.843,0-2.747,0-.316,0-.321-.231-.321-.459Z" transform="translate(-147.556 -20.154)" fill="#4e2e8e"/>
    <path id="Trazado_173192" data-name="Trazado 173192" d="M561.266,539.028q-5.876,0-11.753,0c-1.392,0-1.849-.466-1.851-1.882q-.006-3.575,0-7.15c0-1.334.5-1.827,1.843-1.827q11.753,0,23.505,0c1.362,0,1.818.45,1.824,1.82q.013,3.616,0,7.232c-.005,1.4-.423,1.807-1.816,1.808Q567.142,539.031,561.266,539.028Zm.008-2.7c3.367,0,6.734-.016,10.1.014.623.006.792-.169.77-.783-.048-1.339-.031-2.682-.006-4.023.008-.453-.112-.615-.591-.614q-10.266.02-20.532,0c-.47,0-.607.144-.6.605.028,1.286.048,2.575-.006,3.859-.03.72.132.976.923.964C554.649,536.3,557.962,536.326,561.274,536.326Z" transform="translate(-84.167 -21.029)" fill="#0c0909"/>
    <path id="Trazado_173193" data-name="Trazado 173193" d="M565.27,570.773c-5.613,0-11.226-.01-16.84.014-.621,0-.835-.123-.82-.793.044-1.914.011-1.915,1.911-1.915q16.306,0,32.612-.017c.682,0,.864.157.845.844-.05,1.866-.015,1.867-1.855,1.867Z" transform="translate(-84.134 -47.345)" fill="#0c0909"/>
    <path id="Trazado_173194" data-name="Trazado 173194" d="M565.277,584.044c5.64,0,11.281.008,16.921-.013.575,0,.858.078.776.74-.076.617.194,1.455-.123,1.82-.374.432-1.23.137-1.875.138-10.816.01-21.631,0-32.446.027-.774,0-.94-.221-.918-.946.051-1.764.016-1.765,1.811-1.765Z" transform="translate(-84.135 -57.878)" fill="#0c0909"/>
    <path id="Trazado_173195" data-name="Trazado 173195" d="M558.469,626.58c-3.369,0-6.738-.012-10.106.012-.557,0-.747-.118-.743-.714.014-2.064-.011-2.064,2.012-2.064,6.3,0,12.6.011,18.9-.016.673,0,.88.15.865.844-.043,1.937-.01,1.938-1.97,1.938Z" transform="translate(-84.141 -84.108)" fill="#0c0909"/>
    <path id="Trazado_173196" data-name="Trazado 173196" d="M558.469,654.538c-3.368,0-6.735-.012-10.1.012-.557,0-.75-.122-.747-.718.012-2.046-.013-2.046,2.014-2.046,6.3,0,12.594.01,18.891-.015.644,0,.892.094.872.82-.053,1.946-.013,1.947-1.975,1.947Z" transform="translate(-84.141 -102.56)" fill="#0c0909"/>
    <path id="Trazado_173197" data-name="Trazado 173197" d="M558.551,679.765c3.368,0,6.736.013,10.1-.013.557,0,.74.111.733.706-.022,2,0,2-1.977,2-6.325,0-12.65-.009-18.975.014-.626,0-.838-.133-.823-.8.041-1.91.008-1.911,1.9-1.911Z" transform="translate(-84.136 -121.016)" fill="#0c0909"/>
    <path id="Trazado_173198" data-name="Trazado 173198" d="M620.421,608.519c1.712-2.056,3.392-4.033,5.017-6.053.46-.572.779-.662,1.3-.112a16.7,16.7,0,0,0,1.378,1.186c-2.211,2.659-4.386,5.292-6.583,7.906a1.413,1.413,0,0,1-2.542-.13c-.773-1.125-1.5-2.281-2.282-3.4-.251-.359-.194-.519.161-.729.61-.362,1.227-1.126,1.771-1.068.563.06.816,1.059,1.24,1.623C620.055,607.976,620.215,608.223,620.421,608.519Z" transform="translate(-129.609 -69.721)" fill="#0c0909"/>
    <path id="Trazado_173199" data-name="Trazado 173199" d="M620.42,636.41c1.72-2.063,3.423-4.05,5.053-6.1.479-.6.782-.577,1.244-.067.411.454,1.281.7,1.256,1.265-.021.478-.694.928-1.078,1.39q-2.621,3.153-5.242,6.3c-.973,1.172-1.9,1.135-2.747-.124-.732-1.086-1.437-2.19-2.188-3.262-.247-.352-.22-.524.145-.741.609-.363,1.222-1.121,1.772-1.068.57.054.816,1.056,1.244,1.614C620.057,635.86,620.214,636.111,620.42,636.41Z" transform="translate(-129.611 -88.109)" fill="#0c0909"/>
    <path id="Trazado_173200" data-name="Trazado 173200" d="M620.434,664.229c1.8-2.153,3.524-4.207,5.229-6.279.277-.337.456-.462.818-.1.5.5,1.433.906,1.476,1.413s-.76,1.109-1.211,1.653q-2.542,3.067-5.1,6.124c-.968,1.16-1.874,1.131-2.705-.1-.736-1.086-1.432-2.2-2.192-3.268-.287-.4-.211-.591.179-.8.614-.334,1.2-1.146,1.766-1.006.5.123.806,1.024,1.2,1.582C620.063,663.69,620.231,663.935,620.434,664.229Z" transform="translate(-129.626 -106.425)" fill="#0c0909"/>
    <path id="Trazado_173201" data-name="Trazado 173201" d="M566.607,541.661c-3.312,0-6.625-.029-9.937.021-.79.012-.953-.244-.923-.964.054-1.284.034-2.573.006-3.859-.01-.462.126-.606.6-.605q10.266.021,20.532,0c.479,0,.6.162.591.614-.026,1.341-.042,2.684.006,4.024.022.614-.147.789-.77.783C573.342,541.645,569.974,541.661,566.607,541.661Z" transform="translate(-89.5 -26.365)" fill="#c6412a"/>
  </g>
</svg>
