<svg xmlns="http://www.w3.org/2000/svg" width="89" height="87.581" viewBox="0 0 89 87.581">
  <g id="Grupo_115981" data-name="Grupo 115981" transform="translate(-1764.138 -153.554)">
    <path id="Trazado_173100" data-name="Trazado 173100" d="M1852.263,217.04c.543-.122.945-.415.86-1.014-.088-.627-.557-.808-1.156-.806-3.475.011-6.95.022-10.425-.005a2.779,2.779,0,0,0-2.58,1.149c-.323.483-.8.264-1.2.252s-.3-.451-.332-.7c-.127-.923-.188-1.855-.29-2.783-.39-3.533-.844-7.06-1.167-10.6a9.212,9.212,0,0,0-6.834-8.344c-1.312-.369-2.623-.756-3.954-1.048-3.206-.7-6.306-1.554-8.3-4.5a2.128,2.128,0,0,0-2.631-.825c0-.5.031-.936-.009-1.369a.836.836,0,0,1,.5-.887,11.927,11.927,0,0,0,5.382-6.947c.123-.4.249-.547.681-.566a4.1,4.1,0,0,0,4.124-3.818,4.039,4.039,0,0,0-3.805-4.374c-.434-.05-.556-.179-.513-.577a2.946,2.946,0,0,0,0-.7,4.343,4.343,0,0,1,1.36-3.8,6.37,6.37,0,0,0-.923-9.474c-.694-.53-1.419-1.02-2.153-1.493-.755-.487-1.208-.306-1.523.556a3.016,3.016,0,0,1-3.349,2.317c-3.884,0-7.767-.014-11.651.007a5.823,5.823,0,0,0-5.839,5.475c-.115,2.3-.063,4.611-.052,6.917,0,.518-.079.715-.679.787a4.1,4.1,0,0,0-3.643,4.451,4.033,4.033,0,0,0,4.021,3.716c.509.009.673.172.812.637a10.978,10.978,0,0,0,4.622,6.367,2.316,2.316,0,0,1,1.213,2.615.529.529,0,0,1-.072.141,2.187,2.187,0,0,0-2.5.757c-.818.912-1.717,1.751-2.552,2.649a2.339,2.339,0,0,1-1.167.7c-2.893.757-5.8,1.456-8.667,2.312a8.623,8.623,0,0,0-6.56,7.379c-.571,3.919-.934,7.868-1.407,11.8-.031.258.23.748-.312.74-.448-.006-.965.249-1.329-.342a2.343,2.343,0,0,0-2.164-1.071q-5.388.016-10.775,0c-.581,0-1.083.121-1.179.77-.088.593.284.907.836,1.027.013.349.038.7.038,1.046q0,9.662,0,19.325c0,.553-.029,1.105-.045,1.658-.58.095-.917.439-.827,1.021s.529.768,1.1.767c3.65-.009,7.3,0,10.95-.006a2.309,2.309,0,0,0,1.963-.957,1.04,1.04,0,0,1,.939-.469c1.264-.015,2.578.254,3.727-.572.119-.086.342-.035.516-.036,1.255,0,2.511-.006,3.767,0a4.685,4.685,0,0,1,3.129.911,8.432,8.432,0,0,0,6.487,2,.787.787,0,0,1,.809.346,3.808,3.808,0,0,0,3.331,1.569c5.548-.011,11.1,0,16.645-.009a10.858,10.858,0,0,0,1.217-.1c1.753-.2,3.2-1.175,4.743-1.906a7.677,7.677,0,0,1,3.45-.787c2.014.025,4.03.019,6.045,0a1.9,1.9,0,0,1,1.639.55,1.822,1.822,0,0,0,1.439.518c.729-.014,1.46.006,2.19,0a.714.714,0,0,1,.734.325,2.48,2.48,0,0,0,2.319,1.116c3.533-.015,7.067-.009,10.6,0,.56,0,1.1-.048,1.228-.706s-.308-.948-.862-1.115Q1852.259,228.031,1852.263,217.04Z" transform="translate(0)" fill="#fefefe"/>
    <path id="Trazado_173101" data-name="Trazado 173101" d="M1852.255,239.022c.554.167.985.471.862,1.115s-.668.707-1.228.706c-3.533-.007-7.067-.013-10.6,0a2.48,2.48,0,0,1-2.319-1.116.714.714,0,0,0-.734-.325c-.73.008-1.46-.013-2.19,0a1.822,1.822,0,0,1-1.439-.518,1.9,1.9,0,0,0-1.639-.55c-2.015.019-4.03.025-6.045,0a7.677,7.677,0,0,0-3.45.787c-1.54.731-2.99,1.7-4.743,1.906a10.858,10.858,0,0,1-1.217.1c-5.548.006-11.1,0-16.645.009a3.808,3.808,0,0,1-3.331-1.569.787.787,0,0,0-.809-.346,8.432,8.432,0,0,1-6.487-2,4.685,4.685,0,0,0-3.129-.911c-1.255-.007-2.511,0-3.767,0-.175,0-.4-.05-.516.036-1.149.826-2.463.556-3.727.572a1.04,1.04,0,0,0-.939.469,2.309,2.309,0,0,1-1.963.957c-3.65,0-7.3,0-10.95.006-.568,0-1.007-.19-1.1-.767s.247-.926.827-1.021q5.693.016,11.386.034c.651,0,.964-.3.942-.965-.023-.7-.007-1.4-.008-2.1q-.009-8.936-.014-17.87c0-.654-.077-1.166-.912-1.162-3.8.02-7.591.025-11.386.036-.553-.12-.924-.433-.836-1.027.1-.649.6-.771,1.179-.77q5.387.013,10.775,0a2.343,2.343,0,0,1,2.164,1.071c.364.591.881.336,1.329.342.542.008.281-.482.312-.74.473-3.934.836-7.883,1.407-11.8a8.623,8.623,0,0,1,6.56-7.379c2.863-.856,5.774-1.556,8.667-2.312a2.339,2.339,0,0,0,1.167-.7c.835-.9,1.734-1.737,2.552-2.649a2.187,2.187,0,0,1,2.5-.757.529.529,0,0,0,.072-.141,2.316,2.316,0,0,0-1.213-2.615,10.978,10.978,0,0,1-4.622-6.367c-.138-.464-.3-.627-.812-.637a4.033,4.033,0,0,1-4.021-3.716,4.1,4.1,0,0,1,3.643-4.451c.6-.072.682-.269.679-.787-.011-2.306-.063-4.616.052-6.917a5.823,5.823,0,0,1,5.839-5.475c3.884-.02,7.767-.005,11.651-.007a3.016,3.016,0,0,0,3.349-2.317c.315-.862.768-1.044,1.523-.556.734.473,1.459.963,2.153,1.493a6.37,6.37,0,0,1,.923,9.474,4.343,4.343,0,0,0-1.36,3.8,2.946,2.946,0,0,1,0,.7c-.043.4.079.527.513.577a4.039,4.039,0,0,1,3.805,4.374,4.1,4.1,0,0,1-4.124,3.818c-.432.018-.558.162-.681.566a11.927,11.927,0,0,1-5.382,6.947.836.836,0,0,0-.5.887c.04.433.009.871.009,1.369a2.128,2.128,0,0,1,2.631.825c1.995,2.949,5.094,3.8,8.3,4.5,1.33.292,2.641.678,3.954,1.048a9.212,9.212,0,0,1,6.834,8.344c.323,3.539.776,7.066,1.167,10.6.1.927.163,1.859.29,2.783.034.244-.08.684.332.7s.877.23,1.2-.252a2.779,2.779,0,0,1,2.58-1.149c3.475.027,6.95.016,10.425.005.6,0,1.068.179,1.156.806.084.6-.317.892-.86,1.014L1841.324,217c-.617,0-.98.219-.979.923q.017,10.11,0,20.22c0,.617.243.91.88.907Q1846.741,239.028,1852.255,239.022Zm-37.242-26.613c.541.822.97,1.475,1.4,2.127s.891,1.3,1.3,1.969a3.693,3.693,0,0,1-6.153,4.082c-.307-.425-.593-.865-.87-1.311a.738.738,0,0,0-.708-.39c-3.884.013-7.767-.006-11.651.021a1.877,1.877,0,0,0-.177,3.741,5.938,5.938,0,0,0,.873.041q5.343,0,10.687,0c.263,0,.526,0,.787.022a.762.762,0,0,1,.776.78.824.824,0,0,1-.71.946,3.627,3.627,0,0,1-.785.034q-7.139,0-14.279,0a1.894,1.894,0,0,0-2.109,1.545,1.853,1.853,0,0,0,2,2.176c4.789.011,9.578,0,14.367.008a2.258,2.258,0,0,1,1.033.115.825.825,0,0,1,.477.935.717.717,0,0,1-.662.7,7.156,7.156,0,0,1-.874.034q-6.044,0-12.089.005a5.491,5.491,0,0,0-1.129.1,1.684,1.684,0,0,0-1.417,1.561,1.785,1.785,0,0,0,1.035,1.939,2.509,2.509,0,0,0,1.194.2c4.322-.005,8.644,0,12.965-.01.66,0,1.216.119,1.209.9s-.58.875-1.23.871c-2.657-.016-5.314-.007-7.972-.007-.584,0-1.17-.025-1.751.012a1.926,1.926,0,0,0-1.9,1.9,1.853,1.853,0,0,0,1.81,1.872,7.371,7.371,0,0,0,.788.016q7.928,0,15.856,0c.35,0,.7-.023,1.049-.043,1.7-.1,3.053-1.078,4.516-1.766a9.071,9.071,0,0,1,4.122-.949c2.043.044,4.088-.015,6.131.027.628.013.767-.18.764-.783q-.035-8.1,0-16.205c0-.554-.116-.755-.711-.738-1.517.044-3.036.02-4.555.013a5.621,5.621,0,0,1-4.564-2.181c-.693-.864-1.339-1.766-2.01-2.648a3.837,3.837,0,0,0-2.462-1.528A38.611,38.611,0,0,0,1815.013,212.409ZM1795.1,222.665c-1.126-3.4.425-5.524,3.984-5.524,3.213,0,6.432.129,9.635-.048,1.947-.107,3.243.378,4.131,2.177a1.887,1.887,0,0,0,2.756.786,1.979,1.979,0,0,0,.4-2.915c-.826-1.271-1.682-2.521-2.506-3.793a3.81,3.81,0,0,0-3.467-1.812c-2.278.018-4.568.154-6.831-.031a8.628,8.628,0,0,0-8.039,3.23,5.993,5.993,0,0,1-4.743,2.083q-3.066.044-6.132.019c-.533,0-.707.152-.7.694.033,1.547.011,3.095.011,4.643,0,3.855.013,7.71-.014,11.564,0,.606.144.83.77.779.667-.054,1.344.013,2.014-.017a8.027,8.027,0,0,1,5.755,1.868,6.064,6.064,0,0,0,4.39,1.1c.246-.011.391-.089.37-.355-.041-.541.3-.992.37-1.51-3.371-.372-4.646-2.385-3.475-5.518.131-.352-.035-.373-.228-.5a3.69,3.69,0,0,1-1.888-4.06A3.779,3.779,0,0,1,1795.1,222.665Zm13.538-55.862c-1.867,0-3.734.018-5.6-.012a1.178,1.178,0,0,0-1.147.579,22.026,22.026,0,0,1-2.029,2.841,6.763,6.763,0,0,0-1.614,5.111,10.294,10.294,0,0,0,15,9.042,9.8,9.8,0,0,0,5.3-6.8c.628-2.795.64-5.52-1.609-7.788a13.41,13.41,0,0,1-1.669-2.345,1.306,1.306,0,0,0-1.292-.646C1812.2,166.826,1810.417,166.8,1808.637,166.8Zm-11.649,43.942c-1.636-1.273-3.185-2.507-4.769-3.694a1.567,1.567,0,0,1-.662-1.494c.148-3.321.248-6.643.385-9.964.021-.51-.12-.6-.6-.463-1.059.311-2.151.516-3.2.869a7,7,0,0,0-5.105,6.04c-.5,3.869-.9,7.751-1.344,11.628-.02.17-.114.441.037.488.686.211,1.094.934,1.915.92,2.129-.038,4.258-.025,6.387-.01a5.494,5.494,0,0,0,4.065-1.71A17.057,17.057,0,0,1,1796.989,210.746Zm23.045.094a6.868,6.868,0,0,1,3.956,3.121c.344.506.725.988,1.1,1.475a4.144,4.144,0,0,0,3.474,1.7c1.781,0,3.563,0,5.343,0,1.584,0,1.854-.345,1.675-1.88-.473-4.054-.959-8.107-1.349-12.168-.346-3.6-2.08-6.059-5.191-7.056-1.079-.346-2.185-.61-3.276-.922-.437-.125-.633-.06-.61.473.139,3.3.229,6.593.385,9.888a1.718,1.718,0,0,1-.725,1.644C1823.251,208.289,1821.729,209.513,1820.034,210.84Zm-11.105-45.852q4.857,0,9.715,0a1.264,1.264,0,0,0,.911-.182c3.391-2.759,2.824-6.738-.317-8.6-.292-.174-.5-.349-.768.069a4.818,4.818,0,0,1-4.468,2.2c-3.763-.044-7.527-.022-11.29-.01a4.18,4.18,0,0,0-4.338,3.317,21.427,21.427,0,0,0-.1,2.44c-.049.609.15.788.769.783C1802.335,164.972,1805.632,164.988,1808.928,164.988Zm13.924,29.372c-.829-.231-1.558-.415-2.275-.641a.9.9,0,0,0-1.2.449c-1.52,2.409-3.1,4.781-4.649,7.172a1.991,1.991,0,0,1-2.121,1.046c-.812-.135-1.26.272-1.183,1.118.053.579.127,1.157.2,1.734.182,1.443.387,2.884.542,4.33a.972.972,0,0,0,.745.85c.349.134.365-.211.466-.377C1816.52,204.848,1819.657,199.65,1822.852,194.36Zm-18.714,15.416c.277-.082.733.232.8-.361.247-2.025.515-4.048.751-6.075.067-.574-.479-1.172-.944-1.034a2.015,2.015,0,0,1-2.468-1.114c-1.2-1.863-2.414-3.71-3.631-5.559-.446-.677-.776-1.637-1.408-1.929-.69-.319-1.585.355-2.415.481-.61.093-.49.335-.249.733q4.345,7.169,8.66,14.355C1803.453,209.631,1803.668,209.9,1804.138,209.777Zm-25.446,15.741v7.707c0,1.926,0,1.926,1.888,1.916,1.133-.006,1.258-.127,1.259-1.244q0-7.795,0-15.589c0-2.635.3-2.361-2.386-2.4-.607-.009-.783.141-.775.764C1778.711,219.62,1778.692,222.569,1778.692,225.517Zm59.9,2.56v-7.7c0-1.969,0-1.969-1.935-1.947-1.109.013-1.22.127-1.22,1.279q0,7.783,0,15.565c0,2.69-.26,2.316,2.39,2.385.713.018.782-.244.777-.842C1838.573,233.907,1838.589,230.992,1838.589,228.077Zm-34.456-27.314c1.081-1.9,2.086-3.692,3.127-5.466.21-.358.041-.517-.17-.73-1.578-1.6-3.163-3.188-4.719-4.805-.344-.357-.527-.283-.822.035-.773.833-1.561,1.654-2.379,2.444-.325.313-.28.527-.055.865,1.095,1.646,2.162,3.311,3.242,4.967C1802.925,198.943,1803.5,199.808,1804.133,200.763Zm8.773-.11c.1-.052.168-.066.2-.108,1.662-2.527,3.314-5.06,4.985-7.581.192-.289.115-.448-.094-.659-.842-.849-1.679-1.7-2.5-2.571-.246-.259-.41-.327-.7-.03q-2.406,2.481-4.848,4.927a.461.461,0,0,0-.106.667C1810.876,197.074,1811.887,198.865,1812.906,200.652Zm-.415-14.014a12.808,12.808,0,0,1-6.526.362c-1.357-.28-1.392-.267-1.344,1.132.019.574-.254,1.2.294,1.725,1.111,1.071,2.185,2.181,3.256,3.293.27.28.424.359.739.027,1.082-1.141,2.2-2.248,3.311-3.361a.782.782,0,0,0,.275-.6C1812.482,188.377,1812.491,187.54,1812.491,186.638Zm-3.94,23.143a7.683,7.683,0,0,1,1.047.008c.758.1.859-.221.746-.891-.209-1.229-.344-2.471-.489-3.711-.192-1.635-.222-1.655-1.875-1.569-.391.021-.541.117-.586.538-.134,1.27-.355,2.53-.5,3.8C1806.689,209.78,1806.706,209.781,1808.551,209.781Zm0-13.175c-.714,1.248-1.361,2.378-2.007,3.51a1.157,1.157,0,0,0,.9,1.717,19.016,19.016,0,0,0,2.264,0c.637-.038,1.27-.98,1.007-1.449C1810.015,199.145,1809.3,197.92,1808.548,196.606Zm-12.026-22.558h-.02c0-.612-.024-1.225.007-1.836.027-.523-.152-.663-.666-.55a2.394,2.394,0,0,0-1.926,2.187,2.351,2.351,0,0,0,1.809,2.364c.551.15.894.148.807-.592A13.48,13.48,0,0,1,1796.522,174.049Zm24.072-.114h-.026c0,.612.027,1.226-.009,1.836-.025.423.082.574.528.513a2.421,2.421,0,0,0,2.093-2.232,2.365,2.365,0,0,0-1.9-2.38c-.475-.107-.723-.052-.69.513C1820.62,172.767,1820.594,173.352,1820.594,173.935Zm-1.945-4.76.168-.041q0-.425,0-.85c0-1.59,0-1.59-1.6-1.447-.022,0-.042.027-.135.092Zm-18.531-2.368c-.575,0-.978,0-1.379,0-.2,0-.448-.035-.445.27a9.167,9.167,0,0,0,.087,2.188Z" transform="translate(0)" fill="#0d0b0b"/>
    <path id="Trazado_173102" data-name="Trazado 173102" d="M1766.607,331.758c3.8-.011,7.591-.016,11.386-.036.835,0,.913.508.912,1.162q0,8.935.014,17.87c0,.7-.015,1.4.008,2.1.022.669-.291.967-.942.965q-5.693-.019-11.386-.034c.016-.553.045-1.106.045-1.658q.005-9.662,0-19.325C1766.646,332.455,1766.62,332.106,1766.607,331.758Zm10.159,8.57c0-1.84.01-3.68,0-5.519-.008-.985-.345-1.306-1.316-1.308-1.606,0-3.213.006-4.819-.005-.621,0-1.162.138-1.171.86s.514.894,1.144.889c1.227-.01,2.454.022,3.679-.013.572-.016.766.17.755.747-.032,1.605-.011,3.212-.011,4.818,0,1.81,0,3.621,0,5.431,0,.5.158.863.7.93a.844.844,0,0,0,.956-.711,2.745,2.745,0,0,0,.081-.776C1776.769,343.891,1776.766,342.109,1776.766,340.328Zm-1.736,10.029c0,.26-.009.521,0,.78a.723.723,0,0,0,.613.734.755.755,0,0,0,.89-.381,2.246,2.246,0,0,0,.033-2.08.761.761,0,0,0-.95-.409.714.714,0,0,0-.592.749C1775.034,349.952,1775.028,350.155,1775.03,350.357Z" transform="translate(-1.62 -117.23)" fill="#4e2e8e"/>
    <path id="Trazado_173103" data-name="Trazado 173103" d="M1998.862,361.087q-5.514.014-11.027.033c-.636,0-.88-.29-.88-.907q.011-10.11,0-20.22c0-.7.362-.925.979-.923l10.939.035Q1998.866,350.1,1998.862,361.087Zm-10.331-13.856v1.05c0,1.721-.005,3.441.005,5.162a.883.883,0,0,0,.885.991c.593.014.877-.384.892-.966.005-.2,0-.408,0-.612,0-3.354.028-6.708-.021-10.061-.012-.8.231-.976.982-.952,1.69.055,3.383.029,5.075.01.775-.009,1.177-.539.941-1.2-.194-.543-.664-.584-1.15-.583-2.1,0-4.2,0-6.3,0-1.012,0-1.307.291-1.31,1.293C1988.526,343.324,1988.531,345.278,1988.531,347.232Zm1.764,10.309h.021c0-.058,0-.117,0-.175.031-.656-.116-1.189-.92-1.168-.688.018-.912.512-.871,1.7.023.674.351,1.063,1,1.065a.809.809,0,0,0,.764-.725A3.713,3.713,0,0,0,1990.295,357.54Z" transform="translate(-146.606 -122.065)" fill="#4e2e8e"/>
    <path id="Trazado_173104" data-name="Trazado 173104" d="M1871.246,325.632a38.6,38.6,0,0,1,4.364.127,3.837,3.837,0,0,1,2.462,1.528c.671.882,1.317,1.784,2.01,2.648a5.621,5.621,0,0,0,4.564,2.181c1.518.007,3.037.031,4.555-.013.6-.017.713.184.711.738q-.029,8.1,0,16.2c0,.6-.136.8-.764.783-2.043-.041-4.089.018-6.131-.027a9.07,9.07,0,0,0-4.122.949c-1.463.687-2.821,1.666-4.516,1.766-.349.021-.7.043-1.049.043q-7.928,0-15.856,0a7.371,7.371,0,0,1-.788-.016,1.853,1.853,0,0,1-1.81-1.872,1.926,1.926,0,0,1,1.9-1.9c.582-.037,1.168-.012,1.751-.012,2.658,0,5.315-.01,7.972.007.65,0,1.223-.087,1.23-.871s-.549-.9-1.209-.9c-4.322.013-8.644,0-12.965.01a2.509,2.509,0,0,1-1.194-.2,1.785,1.785,0,0,1-1.035-1.939,1.684,1.684,0,0,1,1.417-1.561,5.49,5.49,0,0,1,1.129-.1q6.044-.01,12.089-.005a7.159,7.159,0,0,0,.874-.034.717.717,0,0,0,.662-.7.825.825,0,0,0-.477-.935,2.258,2.258,0,0,0-1.033-.115c-4.789,0-9.578,0-14.367-.008a1.853,1.853,0,0,1-2-2.176,1.894,1.894,0,0,1,2.109-1.545q7.14-.009,14.279,0a3.626,3.626,0,0,0,.785-.034.824.824,0,0,0,.71-.946.762.762,0,0,0-.776-.78c-.261-.021-.525-.022-.787-.022q-5.344,0-10.687,0a5.932,5.932,0,0,1-.873-.041,1.877,1.877,0,0,1,.177-3.741c3.884-.027,7.767-.008,11.651-.021a.738.738,0,0,1,.708.39c.277.445.563.886.87,1.311a3.693,3.693,0,0,0,6.153-4.082c-.408-.671-.866-1.313-1.3-1.969S1871.787,326.454,1871.246,325.632Z" transform="translate(-56.233 -113.223)" fill="#f3a28d"/>
    <path id="Trazado_173105" data-name="Trazado 173105" d="M1832.522,334.06a3.778,3.778,0,0,0-3.431,2.859,3.689,3.689,0,0,0,1.888,4.06c.193.127.359.149.228.5-1.172,3.132.1,5.146,3.475,5.518-.065.518-.411.969-.37,1.51.021.267-.124.345-.37.355a6.064,6.064,0,0,1-4.39-1.1,8.027,8.027,0,0,0-5.755-1.868c-.67.03-1.346-.038-2.014.017-.626.051-.774-.173-.77-.779.027-3.854.014-7.709.014-11.564,0-1.548.022-3.1-.01-4.643-.011-.542.163-.7.7-.694q3.065.028,6.132-.019a5.993,5.993,0,0,0,4.743-2.083,8.628,8.628,0,0,1,8.039-3.23c2.263.185,4.553.049,6.831.031a3.81,3.81,0,0,1,3.468,1.812c.824,1.272,1.681,2.522,2.506,3.793a1.979,1.979,0,0,1-.4,2.915,1.887,1.887,0,0,1-2.756-.786c-.887-1.8-2.184-2.284-4.131-2.177-3.2.177-6.422.048-9.635.048C1832.947,328.536,1831.4,330.659,1832.522,334.06Z" transform="translate(-37.423 -111.395)" fill="#f3a28d"/>
    <path id="Trazado_173106" data-name="Trazado 173106" d="M1874.247,192.265c1.779,0,3.559.023,5.338-.013a1.306,1.306,0,0,1,1.292.646,13.4,13.4,0,0,0,1.669,2.345c2.249,2.267,2.237,4.993,1.608,7.788a9.8,9.8,0,0,1-5.3,6.8,10.294,10.294,0,0,1-15-9.042,6.763,6.763,0,0,1,1.614-5.111,22.049,22.049,0,0,0,2.029-2.841,1.177,1.177,0,0,1,1.147-.579C1870.513,192.283,1872.38,192.265,1874.247,192.265Zm-.065,11.951c-1.106,0-2.212.011-3.318,0-.738-.01-1.054.331-1.037,1.064a4.339,4.339,0,0,0,8.658-.035c.006-.683-.286-1.032-.986-1.027C1876.395,204.222,1875.289,204.216,1874.183,204.216Zm-.926-4.564c0,.611-.021,1.222.007,1.831.025.552.286.975.892.977a.869.869,0,0,0,.9-.972q.039-1.83,0-3.662c-.011-.547-.255-.959-.891-.96s-.871.4-.9.955C1873.234,198.43,1873.257,199.042,1873.257,199.652Zm-5.161-1.968h0c0,.2.007.408,0,.612a.826.826,0,0,0,.867.974.865.865,0,0,0,.9-.968c0-.408.021-.817-.006-1.224a.847.847,0,0,0-.888-.885.793.793,0,0,0-.865.878C1868.094,197.276,1868.1,197.48,1868.1,197.684Zm12.125.091h0c0-.2-.005-.407,0-.61.018-.6-.266-.969-.86-.97a.861.861,0,0,0-.9.956c-.012.406-.021.815,0,1.22a.859.859,0,0,0,.879.9.821.821,0,0,0,.872-.883C1880.225,198.182,1880.221,197.978,1880.221,197.775Z" transform="translate(-65.61 -25.462)" fill="#f3a28d"/>
    <path id="Trazado_173107" data-name="Trazado 173107" d="M1830.689,290.616a17.059,17.059,0,0,0-2.881,2.609,5.494,5.494,0,0,1-4.065,1.71c-2.129-.015-4.259-.028-6.387.01-.822.015-1.229-.709-1.915-.92-.151-.047-.057-.318-.037-.488.443-3.876.844-7.758,1.344-11.628a7,7,0,0,1,5.105-6.04c1.044-.352,2.136-.558,3.2-.869.475-.14.617-.047.6.463-.138,3.321-.237,6.643-.385,9.964a1.567,1.567,0,0,0,.662,1.494C1827.5,288.11,1829.053,289.343,1830.689,290.616Z" transform="translate(-33.7 -79.871)" fill="#6677d6"/>
    <path id="Trazado_173108" data-name="Trazado 173108" d="M1927.564,290.685c1.7-1.327,3.217-2.551,4.778-3.723a1.718,1.718,0,0,0,.725-1.644c-.156-3.294-.246-6.592-.385-9.888-.022-.533.173-.6.61-.473,1.09.312,2.2.576,3.276.922,3.111,1,4.845,3.46,5.191,7.056.391,4.062.876,8.115,1.349,12.168.179,1.535-.09,1.879-1.675,1.88-1.781,0-3.562,0-5.343,0a4.144,4.144,0,0,1-3.474-1.7c-.371-.487-.752-.969-1.1-1.475A6.868,6.868,0,0,0,1927.564,290.685Zm13.12-2.239c-.226-2.07-.428-4.356-.746-6.626a5.114,5.114,0,0,0-1.481-2.914c-.43-.433-.886-.6-1.357-.119-.431.442-.305.892.1,1.3a3.544,3.544,0,0,1,1.026,2.081c.279,2.159.5,4.325.728,6.49.068.638.147,1.306.972,1.288S1940.724,289.259,1940.684,288.446Zm.556,4.994a6.018,6.018,0,0,0-.069-.822c-.132-.515-.376-.942-1.006-.868-.6.07-.725.5-.7,1.015.009.174.01.349.017.523.025.6.289,1.054.926,1.031A.763.763,0,0,0,1941.24,293.439Z" transform="translate(-107.53 -79.845)" fill="#6677d6"/>
    <path id="Trazado_173109" data-name="Trazado 173109" d="M1874.575,169.711c-3.3,0-6.593-.016-9.89.014-.619.006-.818-.173-.769-.783a21.4,21.4,0,0,1,.1-2.44,4.18,4.18,0,0,1,4.338-3.317c3.763-.012,7.527-.035,11.29.01a4.818,4.818,0,0,0,4.468-2.2c.269-.418.475-.243.768-.069,3.141,1.866,3.707,5.844.317,8.6a1.264,1.264,0,0,1-.911.182Q1879.433,169.717,1874.575,169.711Z" transform="translate(-65.647 -4.723)" fill="#4e2e8e"/>
    <path id="Trazado_173110" data-name="Trazado 173110" d="M1913.8,271.481c-3.2,5.29-6.333,10.488-9.478,15.681-.1.167-.117.512-.466.377a.972.972,0,0,1-.745-.85c-.155-1.446-.36-2.887-.542-4.33-.073-.577-.146-1.155-.2-1.734-.077-.846.371-1.253,1.183-1.118a1.991,1.991,0,0,0,2.12-1.046c1.55-2.391,3.129-4.763,4.649-7.172a.9.9,0,0,1,1.2-.449C1912.241,271.065,1912.97,271.249,1913.8,271.481Z" transform="translate(-90.947 -77.12)" fill="#fefefe"/>
    <path id="Trazado_173111" data-name="Trazado 173111" d="M1862.319,286.853c-.47.121-.685-.146-.9-.5q-4.317-7.185-8.66-14.355c-.241-.4-.36-.64.249-.733.83-.126,1.725-.8,2.415-.481.632.292.962,1.252,1.408,1.929,1.217,1.849,2.436,3.7,3.631,5.559a2.015,2.015,0,0,0,2.468,1.114c.465-.139,1.01.46.944,1.034-.236,2.026-.5,4.049-.751,6.075C1863.052,287.085,1862.6,286.771,1862.319,286.853Z" transform="translate(-58.181 -77.077)" fill="#fefefe"/>
    <path id="Trazado_173112" data-name="Trazado 173112" d="M1806.658,345.471c0-2.949.019-5.9-.016-8.845-.007-.623.169-.773.775-.764,2.687.038,2.384-.236,2.386,2.4q.007,7.794,0,15.589c0,1.117-.125,1.238-1.259,1.244-1.888.01-1.888.01-1.888-1.916Z" transform="translate(-27.967 -119.954)" fill="#fefefe"/>
    <path id="Trazado_173113" data-name="Trazado 173113" d="M1975.736,352.885c0,2.915-.015,5.83.013,8.745.006.6-.064.86-.777.842-2.651-.069-2.389.305-2.39-2.385q-.005-7.783,0-15.565c0-1.152.111-1.266,1.22-1.279,1.935-.022,1.935-.022,1.935,1.947Z" transform="translate(-137.147 -124.808)" fill="#fefefe"/>
    <path id="Trazado_173114" data-name="Trazado 173114" d="M1871.076,269.961c-.631-.955-1.207-1.82-1.775-2.69-1.081-1.656-2.148-3.321-3.242-4.967-.225-.338-.27-.552.055-.865.818-.789,1.606-1.61,2.379-2.444.3-.318.478-.393.822-.035,1.556,1.618,3.141,3.208,4.719,4.805.21.213.38.372.17.73C1873.162,266.269,1872.157,268.064,1871.076,269.961Z" transform="translate(-66.943 -69.198)" fill="#fefefe"/>
    <path id="Trazado_173115" data-name="Trazado 173115" d="M1900.639,269.82c-1.019-1.787-2.03-3.578-3.065-5.355a.462.462,0,0,1,.106-.667q2.436-2.452,4.847-4.927c.287-.3.451-.228.7.03q1.234,1.3,2.5,2.571c.209.211.286.37.094.659-1.67,2.521-3.323,5.054-4.985,7.581C1900.807,269.754,1900.737,269.768,1900.639,269.82Z" transform="translate(-87.733 -69.168)" fill="#fefefe"/>
    <path id="Trazado_173116" data-name="Trazado 173116" d="M1890.272,250.284c0,.9-.009,1.739.005,2.576a.781.781,0,0,1-.275.6c-1.111,1.113-2.229,2.22-3.311,3.361-.315.332-.469.253-.738-.027-1.071-1.112-2.145-2.222-3.256-3.293-.549-.529-.275-1.152-.295-1.726-.047-1.4-.013-1.413,1.344-1.132A12.807,12.807,0,0,0,1890.272,250.284Z" transform="translate(-77.781 -63.646)" fill="#f3a28d"/>
    <path id="Trazado_173117" data-name="Trazado 173117" d="M1890.637,306.043c-1.845,0-1.862,0-1.657-1.825.143-1.269.364-2.529.5-3.8.044-.421.195-.517.586-.538,1.653-.087,1.683-.067,1.875,1.569.146,1.239.28,2.482.489,3.711.114.67.013,1-.746.891A7.686,7.686,0,0,0,1890.637,306.043Z" transform="translate(-82.086 -96.261)" fill="#e44732"/>
    <path id="Trazado_173118" data-name="Trazado 173118" d="M1889.838,279.429c.754,1.313,1.467,2.538,2.161,3.775.264.47-.37,1.412-1.007,1.449a19.007,19.007,0,0,1-2.264,0,1.157,1.157,0,0,1-.9-1.717C1888.477,281.807,1889.125,280.677,1889.838,279.429Z" transform="translate(-81.29 -82.823)" fill="#e44732"/>
    <path id="Trazado_173119" data-name="Trazado 173119" d="M1853.808,208.815a13.453,13.453,0,0,0,.012,1.573c.087.74-.256.742-.807.592a2.351,2.351,0,0,1-1.809-2.364,2.4,2.4,0,0,1,1.926-2.187c.513-.113.692.027.666.55-.031.611-.007,1.224-.007,1.836Z" transform="translate(-57.285 -34.766)" fill="#f3a28d"/>
    <path id="Trazado_173120" data-name="Trazado 173120" d="M1929.127,208.7c0-.583.026-1.168-.007-1.749-.032-.566.215-.62.69-.513a2.364,2.364,0,0,1,1.9,2.38,2.421,2.421,0,0,1-2.093,2.232c-.445.061-.553-.091-.528-.513.036-.61.009-1.224.009-1.836Z" transform="translate(-108.533 -34.77)" fill="#f3a28d"/>
    <path id="Trazado_173121" data-name="Trazado 173121" d="M1920.49,194.615l-1.572-2.247c.093-.064.113-.09.135-.092,1.605-.143,1.605-.143,1.6,1.447q0,.425,0,.85Z" transform="translate(-101.842 -25.44)" fill="#4e2e8e"/>
    <path id="Trazado_173122" data-name="Trazado 173122" d="M1865.779,192.3l-1.738,2.46a9.166,9.166,0,0,1-.086-2.188c0-.3.249-.267.445-.27C1864.8,192.295,1865.2,192.3,1865.779,192.3Z" transform="translate(-65.661 -25.492)" fill="#4e2e8e"/>
    <path id="Trazado_173123" data-name="Trazado 173123" d="M1782.261,343.741c0,1.781,0,3.562,0,5.344a2.745,2.745,0,0,1-.081.776.844.844,0,0,1-.956.711c-.546-.068-.705-.432-.7-.93,0-1.81,0-3.621,0-5.431,0-1.606-.021-3.213.011-4.818.011-.577-.183-.763-.755-.747-1.226.035-2.453,0-3.679.013-.629.005-1.153-.171-1.144-.889s.55-.864,1.171-.86c1.606.011,3.213,0,4.819.005.971,0,1.308.324,1.316,1.308C1782.271,340.062,1782.26,341.9,1782.261,343.741Z" transform="translate(-7.114 -120.643)" fill="#fefefe"/>
    <path id="Trazado_173124" data-name="Trazado 173124" d="M1791.239,383.521c0-.2.005-.4,0-.607a.714.714,0,0,1,.592-.749.761.761,0,0,1,.95.409,2.246,2.246,0,0,1-.034,2.08.755.755,0,0,1-.89.381.723.723,0,0,1-.613-.734C1791.231,384.042,1791.24,383.781,1791.239,383.521Z" transform="translate(-17.83 -150.394)" fill="#fefefe"/>
    <path id="Trazado_173125" data-name="Trazado 173125" d="M1991.565,349.164c0-1.954,0-3.908,0-5.862,0-1,.3-1.29,1.31-1.292,2.1-.006,4.2,0,6.3,0,.486,0,.956.04,1.15.583.235.656-.167,1.186-.941,1.2-1.692.02-3.385.046-5.075-.01-.75-.024-.994.152-.982.952.049,3.353.021,6.707.021,10.061,0,.2,0,.408,0,.612-.015.582-.3.98-.892.966a.883.883,0,0,1-.885-.991c-.011-1.721,0-3.441-.005-5.162Z" transform="translate(-149.641 -123.997)" fill="#f3a28d"/>
    <path id="Trazado_173126" data-name="Trazado 173126" d="M1993.313,390.489a3.713,3.713,0,0,1-.008.7.809.809,0,0,1-.764.725c-.647,0-.975-.392-1-1.065-.041-1.186.183-1.68.871-1.7.8-.021.951.512.92,1.168,0,.058,0,.117,0,.175Z" transform="translate(-149.624 -155.013)" fill="#f3a28d"/>
    <path id="Trazado_173127" data-name="Trazado 173127" d="M1885.676,227.226c1.106,0,2.212.005,3.318,0,.7,0,.991.344.986,1.027a4.339,4.339,0,0,1-8.658.035c-.017-.733.3-1.074,1.037-1.064C1883.464,227.237,1884.57,227.226,1885.676,227.226Zm-2.365,1.8a2.493,2.493,0,0,0,2.459,1.509,2.449,2.449,0,0,0,2.21-1.509Z" transform="translate(-77.104 -48.472)" fill="#0d0b0b"/>
    <path id="Trazado_173128" data-name="Trazado 173128" d="M1891.332,208.532c0-.61-.023-1.222.006-1.831.026-.55.263-.956.9-.955s.879.412.891.96q.037,1.831,0,3.662a.869.869,0,0,1-.9.972c-.606,0-.866-.425-.892-.978C1891.31,209.754,1891.332,209.143,1891.332,208.532Z" transform="translate(-83.685 -34.342)" fill="#0d0b0b"/>
    <path id="Trazado_173129" data-name="Trazado 173129" d="M1876.245,205.269c0-.2,0-.408,0-.612a.792.792,0,0,1,.865-.878.847.847,0,0,1,.888.885c.027.406.011.816.006,1.224a.865.865,0,0,1-.9.968.826.826,0,0,1-.867-.974c.008-.2,0-.408,0-.612Z" transform="translate(-73.759 -33.047)" fill="#0d0b0b"/>
    <path id="Trazado_173130" data-name="Trazado 173130" d="M1908.307,205.362c0,.2,0,.407,0,.61a.821.821,0,0,1-.873.883.859.859,0,0,1-.879-.9c-.025-.405-.016-.814,0-1.22a.861.861,0,0,1,.9-.956c.594,0,.878.373.86.97-.006.2,0,.407,0,.61Z" transform="translate(-93.696 -33.049)" fill="#0d0b0b"/>
    <path id="Trazado_173131" data-name="Trazado 173131" d="M1958.512,295.355c.041.813.083,1.482-.754,1.5s-.9-.65-.972-1.288c-.23-2.165-.449-4.331-.728-6.49a3.546,3.546,0,0,0-1.025-2.081c-.409-.407-.535-.857-.1-1.3.472-.484.927-.314,1.358.119a5.115,5.115,0,0,1,1.481,2.914C1958.083,291,1958.285,293.285,1958.512,295.355Z" transform="translate(-125.358 -86.754)" fill="#fefefe"/>
    <path id="Trazado_173132" data-name="Trazado 173132" d="M1964.134,325.832a.763.763,0,0,1-.829.88c-.637.023-.9-.431-.926-1.031-.007-.174-.007-.349-.017-.523-.028-.519.1-.944.7-1.015.63-.075.875.353,1.006.868A6.048,6.048,0,0,1,1964.134,325.832Z" transform="translate(-130.424 -112.238)" fill="#fefefe"/>
    <path id="Trazado_173133" data-name="Trazado 173133" d="M1887.139,232.495h4.669A2.449,2.449,0,0,1,1889.6,234,2.493,2.493,0,0,1,1887.139,232.495Z" transform="translate(-80.932 -51.941)" fill="#e44732"/>
  </g>
</svg>
