<svg xmlns="http://www.w3.org/2000/svg" width="61.576" height="77.753" viewBox="0 0 61.576 77.753">
  <g id="Grupo_115983" data-name="Grupo 115983" transform="translate(-136.281 -495.401)">
    <path id="Trazado_173161" data-name="Trazado 173161" d="M196.679,514.377c.952.321,1.162.59,1.162,1.591q0,26.256,0,52.512c0,2.392-1.034,3.708-3.592,4.674H139.728a16.479,16.479,0,0,1-1.593-.8,4.506,4.506,0,0,1-1.847-3.723c-.014-.961,0-1.923,0-2.884q0-32.751,0-65.5a4.472,4.472,0,0,1,2.9-4.589,3.991,3.991,0,0,1,1.4-.258q26.452.006,52.9.006a4.322,4.322,0,0,1,4.331,4.423c.057,3.389.016,6.78.015,10.171a1.246,1.246,0,0,1-1.16,1.417c-.934-.232-1.178-.539-1.179-1.549,0-3.24,0-6.479,0-9.719,0-1.691-.772-2.464-2.44-2.464q-13.971,0-27.942-.015c-.544,0-.714.1-.713.688q.027,35.913,0,71.826c0,.563.126.705.7.7q14.009-.031,28.018-.02a3.21,3.21,0,0,0,.823-.083c1.1-.3,1.556-1.038,1.556-2.518q0-26.043,0-52.086C195.5,514.954,195.648,514.729,196.679,514.377Zm-34.57,19.94q0-17.917.017-35.833c0-.683-.182-.818-.833-.816-6.731.025-13.463.015-20.195.016-1.687,0-2.468.759-2.468,2.433q0,34.163,0,68.326c0,1.671.784,2.432,2.47,2.433,6.706,0,13.413-.012,20.119.018.721,0,.911-.154.909-.9Q162.087,552.158,162.108,534.317Z" transform="translate(0 0)" fill="#080c09"/>
    <path id="Trazado_173162" data-name="Trazado 173162" d="M257.411,519.281c-1.031.352-1.179.577-1.179,1.807q0,26.043,0,52.085c0,1.48-.453,2.222-1.556,2.518a3.21,3.21,0,0,1-.823.083q-14.009.007-28.018.02c-.573,0-.7-.141-.7-.7q.024-35.913,0-71.826c0-.591.169-.69.713-.688q13.971.027,27.942.015c1.668,0,2.437.773,2.44,2.464.006,3.24,0,6.479,0,9.719,0,1.01.245,1.317,1.179,1.549Q257.412,517.8,257.411,519.281ZM240.643,530.37q-5.233,0-10.465,0c-.878,0-1.324.372-1.344,1.089-.02.737.468,1.188,1.336,1.189q10.465.008,20.93,0a1.645,1.645,0,0,0,.592-.08,1.058,1.058,0,0,0,.731-1.253,1.094,1.094,0,0,0-1.241-.953Q245.914,530.373,240.643,530.37Zm-.014,6.985q-5.233,0-10.465,0c-.926,0-1.457.534-1.311,1.331.132.724.648.952,1.332.951q10.465-.005,20.93,0a2.119,2.119,0,0,0,.378-.015,1.124,1.124,0,0,0,.93-1.332c-.137-.726-.641-.945-1.329-.943C247.605,537.358,244.117,537.353,240.629,537.355Zm-.011,13.976H230.3c-.981,0-1.463.369-1.471,1.119s.485,1.158,1.439,1.159q10.351,0,20.7,0c.952,0,1.466-.4,1.475-1.129s-.5-1.152-1.444-1.153Q245.812,551.327,240.617,551.331Zm0,9.267q5.233,0,10.465,0c.873,0,1.378-.434,1.372-1.154-.006-.694-.5-1.126-1.321-1.126q-10.5,0-21.006,0a1.3,1.3,0,0,0-.662.113,1.086,1.086,0,0,0-.589,1.336,1.152,1.152,0,0,0,1.276.835C233.637,560.59,237.126,560.6,240.614,560.6ZM236.3,512.266a5.687,5.687,0,0,0-2.775,10.782,5.22,5.22,0,0,0,6.134-.975,1.171,1.171,0,0,0,.02-1.695,1.054,1.054,0,0,0-1.612.074,3.1,3.1,0,0,1-3.89.338,3.4,3.4,0,0,1,3.654-5.732c.742.387,1.365.278,1.716-.3a1.213,1.213,0,0,0-.6-1.7A5.124,5.124,0,0,0,236.3,512.266Zm11.052,7.092c-.753-2.182-1.427-4.158-2.117-6.127-.289-.824-.877-1.147-1.569-.9a1.188,1.188,0,0,0-.6,1.648q1.482,4.317,2.984,8.627a1.344,1.344,0,0,0,1.348,1.018,1.361,1.361,0,0,0,1.318-1.06c.2-.6.394-1.195.592-1.792.752-2.269,1.512-4.534,2.252-6.807.315-.967-.191-1.715-1.09-1.674-.637.029-.919.444-1.1.982C248.72,515.221,248.072,517.174,247.349,519.358Zm-12.051,48.4c1.695,0,3.39.006,5.084,0,.9,0,1.39-.416,1.388-1.133s-.5-1.15-1.388-1.152q-5.084-.01-10.168,0c-.893,0-1.379.424-1.379,1.154s.457,1.126,1.38,1.131C231.908,567.766,233.6,567.761,235.3,567.761Zm-.062-23.42c-1.669,0-3.339,0-5.008,0-.906,0-1.387.4-1.394,1.123s.48,1.155,1.367,1.156q5.084.006,10.169,0c.89,0,1.393-.413,1.4-1.129s-.5-1.148-1.374-1.15C238.676,544.337,236.956,544.341,235.236,544.34Z" transform="translate(-60.732 -4.904)" fill="#fff"/>
    <path id="Trazado_173163" data-name="Trazado 173163" d="M167.175,539.214q0,17.841.019,35.681c0,.742-.188.9-.909.9-6.706-.03-13.413-.017-20.119-.018-1.686,0-2.47-.762-2.47-2.433q0-34.163,0-68.326c0-1.674.781-2.432,2.468-2.433,6.732,0,13.463.009,20.195-.016.651,0,.835.133.833.816Q167.157,521.3,167.175,539.214Zm-15.991,15.31,2.986-.006c.179.871.518,1.187,1.373,1.191,2.15.012,4.3.027,6.451,0a2.51,2.51,0,0,0,2.531-2.567c.019-.987.011-1.973,0-2.96a2.473,2.473,0,0,0-2.645-2.654q-6.413-.008-12.826,0a2.481,2.481,0,0,0-2.688,2.614c-.023.809,0,1.619,0,2.428,0,2.268.9,3.159,3.18,3.148C150.6,555.708,150.865,555.513,151.184,554.523Zm4.253-45.61a9.037,9.037,0,0,0,.021,18.074,9.037,9.037,0,1,0-.021-18.074Zm-.042,34.682c2.176,0,4.351.006,6.527,0a2.462,2.462,0,0,0,2.605-2.613q.016-1.442,0-2.884a2.5,2.5,0,0,0-2.578-2.672q-6.489-.038-12.978,0a2.459,2.459,0,0,0-2.595,2.5c-.049,1.06-.047,2.126,0,3.186a2.424,2.424,0,0,0,2.645,2.489C151.145,543.6,153.27,543.6,155.395,543.6Zm.109,24.153c2.15,0,4.3.013,6.451,0a2.454,2.454,0,0,0,2.572-2.572c.014-.936.006-1.872,0-2.808a2.55,2.55,0,0,0-2.765-2.8q-6.337-.018-12.674,0a2.517,2.517,0,0,0-2.722,2.686c-.019.936-.016,1.872,0,2.808a2.471,2.471,0,0,0,2.686,2.688C151.2,567.758,153.353,567.749,155.5,567.748Z" transform="translate(-5.067 -4.897)" fill="#6677d6"/>
    <path id="Trazado_173164" data-name="Trazado 173164" d="M248.631,590.386q5.27,0,10.54,0a1.094,1.094,0,0,1,1.241.953,1.058,1.058,0,0,1-.731,1.253,1.644,1.644,0,0,1-.592.08q-10.465,0-20.93,0c-.868,0-1.357-.452-1.336-1.189.02-.717.465-1.088,1.344-1.089Q243.4,590.383,248.631,590.386Z" transform="translate(-68.721 -64.921)" fill="#080c09"/>
    <path id="Trazado_173165" data-name="Trazado 173165" d="M248.607,612.452c3.488,0,6.976,0,10.465-.005.688,0,1.192.217,1.329.943a1.124,1.124,0,0,1-.93,1.332,2.119,2.119,0,0,1-.378.015q-10.465,0-20.93,0c-.684,0-1.2-.227-1.332-.951-.146-.8.385-1.33,1.311-1.331Q243.374,612.448,248.607,612.452Z" transform="translate(-68.711 -80.002)" fill="#080c09"/>
    <path id="Trazado_173166" data-name="Trazado 173166" d="M248.6,656.62q5.195,0,10.389,0c.946,0,1.453.409,1.444,1.153s-.523,1.129-1.475,1.129q-10.351,0-20.7,0c-.955,0-1.448-.4-1.439-1.159s.49-1.119,1.471-1.119Z" transform="translate(-68.719 -110.193)" fill="#080c09"/>
    <path id="Trazado_173167" data-name="Trazado 173167" d="M248.575,680.974c-3.488,0-6.976-.006-10.465,0a1.152,1.152,0,0,1-1.276-.835,1.086,1.086,0,0,1,.589-1.336,1.3,1.3,0,0,1,.662-.113q10.5,0,21.006,0c.823,0,1.315.432,1.321,1.126.006.72-.5,1.153-1.372,1.154Q253.807,680.978,248.575,680.974Z" transform="translate(-68.693 -125.281)" fill="#080c09"/>
    <path id="Trazado_173168" data-name="Trazado 173168" d="M247.538,533.191a5.124,5.124,0,0,1,2.641.787,1.213,1.213,0,0,1,.6,1.7c-.351.579-.974.688-1.716.3a3.4,3.4,0,0,0-3.654,5.732,3.1,3.1,0,0,0,3.89-.338,1.054,1.054,0,0,1,1.612-.074A1.171,1.171,0,0,1,250.9,543a5.22,5.22,0,0,1-6.134.975,5.687,5.687,0,0,1,2.775-10.782Z" transform="translate(-71.974 -25.829)" fill="#080c09"/>
    <path id="Trazado_173169" data-name="Trazado 173169" d="M285.832,540.246c.724-2.183,1.371-4.136,2.018-6.089.178-.538.46-.953,1.1-.982.9-.04,1.4.708,1.09,1.674-.74,2.272-1.5,4.538-2.252,6.807-.2.6-.392,1.2-.591,1.792a1.361,1.361,0,0,1-1.318,1.06,1.344,1.344,0,0,1-1.348-1.018q-1.495-4.313-2.984-8.627a1.188,1.188,0,0,1,.6-1.648c.692-.243,1.281.08,1.569.9C284.405,536.089,285.08,538.064,285.832,540.246Z" transform="translate(-99.216 -25.792)" fill="#080c09"/>
    <path id="Trazado_173170" data-name="Trazado 173170" d="M243.286,703.589c-1.695,0-3.389.006-5.084,0-.922,0-1.38-.39-1.38-1.13s.486-1.152,1.379-1.154q5.084-.01,10.168,0c.89,0,1.386.43,1.388,1.152s-.489,1.129-1.388,1.133C246.675,703.595,244.981,703.589,243.286,703.589Z" transform="translate(-68.721 -140.732)" fill="#080c09"/>
    <path id="Trazado_173171" data-name="Trazado 173171" d="M243.222,634.536c1.72,0,3.44,0,5.16,0,.876,0,1.383.435,1.374,1.151s-.511,1.128-1.4,1.129q-5.084,0-10.169,0c-.887,0-1.374-.423-1.367-1.156s.488-1.121,1.394-1.123C239.883,634.533,241.553,634.536,243.222,634.536Z" transform="translate(-68.719 -95.099)" fill="#080c09"/>
    <path id="Trazado_173172" data-name="Trazado 173172" d="M161.342,522.624a9.037,9.037,0,1,1-9.009,8.992A9.071,9.071,0,0,1,161.342,522.624Zm-5.573,12.7a5.927,5.927,0,0,1,1.5-1.553c.493-.3.568-.576.371-1.137a3.635,3.635,0,0,1,1.081-4.125,3.923,3.923,0,0,1,6.555,2.908c.018,1.869.039,1.84,1.209,3.371.491.642.649.438.9-.117a6.557,6.557,0,0,0-.8-7.253,6.412,6.412,0,0,0-7-2.271A6.681,6.681,0,0,0,155.768,535.326Zm5.656,3.016a5.192,5.192,0,0,0,2.246-.384c.546-.225,1.384-.337,1.454-.926s-.6-1.05-1.094-1.446a1.53,1.53,0,0,0-1.707-.378,3.033,3.033,0,0,1-2.22-.07.842.842,0,0,0-.788.012,5.3,5.3,0,0,0-1.615,1.463c-.278.378-.2.6.211.825A6.439,6.439,0,0,0,161.424,538.342ZM161.386,533a1.593,1.593,0,1,0-1.666-1.589A1.607,1.607,0,0,0,161.386,533Z" transform="translate(-10.972 -18.607)" fill="#080c09"/>
    <path id="Trazado_173173" data-name="Trazado 173173" d="M161.109,614.52c-2.125,0-4.25.005-6.375,0a2.424,2.424,0,0,1-2.645-2.489c-.045-1.061-.047-2.126,0-3.186a2.459,2.459,0,0,1,2.595-2.5q6.489-.031,12.978,0a2.5,2.5,0,0,1,2.578,2.672q.014,1.442,0,2.884a2.462,2.462,0,0,1-2.605,2.613C165.46,614.526,163.285,614.52,161.109,614.52Zm.053-2.283c2.05,0,4.1-.016,6.15.011.5.007.673-.128.65-.635-.037-.808-.025-1.62,0-2.429.01-.39-.125-.542-.521-.541q-6.264.011-12.528,0c-.4,0-.535.14-.524.531.02.784.036,1.571,0,2.353-.029.548.117.739.708.727C157.112,612.211,159.137,612.236,161.161,612.236Z" transform="translate(-10.781 -75.821)" fill="#080c09"/>
    <path id="Trazado_173174" data-name="Trazado 173174" d="M161.246,690.825c-2.15,0-4.3.009-6.451,0a2.47,2.47,0,0,1-2.686-2.688c-.016-.936-.019-1.872,0-2.808a2.517,2.517,0,0,1,2.722-2.686q6.337-.021,12.674,0a2.55,2.55,0,0,1,2.765,2.8c0,.936.012,1.872,0,2.808a2.454,2.454,0,0,1-2.571,2.572C165.547,690.838,163.4,690.825,161.246,690.825Zm-.058-2.287c2.045,0,4.091-.012,6.136.009.468,0,.694-.085.667-.618-.041-.806-.031-1.616,0-2.423.015-.437-.153-.569-.571-.568q-6.212.014-12.425,0c-.494,0-.593.2-.58.632.024.782.031,1.566,0,2.348-.021.492.14.643.641.636C157.1,688.522,159.143,688.538,161.188,688.538Z" transform="translate(-10.81 -127.973)" fill="#080c09"/>
    <path id="Trazado_173175" data-name="Trazado 173175" d="M156.933,651.609c-.32.989-.589,1.184-1.641,1.19-2.278.011-3.179-.88-3.18-3.148,0-.81-.018-1.62,0-2.428a2.481,2.481,0,0,1,2.688-2.614q6.413-.007,12.826,0a2.473,2.473,0,0,1,2.645,2.654c.009.986.017,1.973,0,2.96a2.51,2.51,0,0,1-2.531,2.567c-2.15.032-4.3.017-6.451,0-.855,0-1.194-.321-1.373-1.191a1.182,1.182,0,0,1,1.36-1.1c2,.013,4-.015,5.994.016.573.009.756-.172.723-.736-.044-.756-.03-1.518,0-2.276.015-.438-.092-.628-.585-.626q-6.222.027-12.444,0c-.462,0-.552.183-.54.583.022.682.006,1.366.006,2.049,0,.983,0,1.019.966.983A1.318,1.318,0,0,1,156.933,651.609Z" transform="translate(-10.816 -101.982)" fill="#080c09"/>
    <path id="Trazado_173176" data-name="Trazado 173176" d="M161.94,656.514A1.318,1.318,0,0,0,160.4,655.4c-.964.035-.965,0-.966-.983,0-.683.016-1.366-.006-2.049-.012-.4.078-.585.54-.583q6.222.025,12.444,0c.492,0,.6.188.585.626-.026.758-.04,1.519,0,2.276.033.564-.151.745-.724.736-2-.031-4,0-5.994-.016a1.182,1.182,0,0,0-1.36,1.1Z" transform="translate(-15.822 -106.888)" fill="#ffef0f"/>
    <path id="Trazado_173177" data-name="Trazado 173177" d="M160.673,540.221a6.681,6.681,0,0,1,3.806-10.178,6.412,6.412,0,0,1,7,2.271,6.557,6.557,0,0,1,.8,7.253c-.248.555-.406.759-.9.117-1.171-1.531-1.191-1.5-1.209-3.371a3.923,3.923,0,0,0-6.555-2.908,3.635,3.635,0,0,0-1.081,4.125c.2.561.122.838-.371,1.137A5.925,5.925,0,0,0,160.673,540.221Z" transform="translate(-15.876 -23.502)" fill="#ffef0f"/>
    <path id="Trazado_173178" data-name="Trazado 173178" d="M172.663,565.168a6.439,6.439,0,0,1-3.513-.9c-.407-.229-.489-.447-.211-.825a5.307,5.307,0,0,1,1.615-1.463.842.842,0,0,1,.788-.012,3.033,3.033,0,0,0,2.22.07,1.53,1.53,0,0,1,1.707.378c.5.4,1.165.858,1.094,1.446s-.908.7-1.454.926A5.192,5.192,0,0,1,172.663,565.168Z" transform="translate(-22.211 -45.433)" fill="#fff"/>
    <path id="Trazado_173179" data-name="Trazado 173179" d="M177.339,548.524a1.593,1.593,0,1,1-.072-3.184,1.593,1.593,0,1,1,.072,3.184Z" transform="translate(-26.925 -34.134)" fill="#fff"/>
    <path id="Trazado_173180" data-name="Trazado 173180" d="M166.177,617.226c-2.025,0-4.05-.025-6.073.015-.591.012-.737-.179-.708-.727.041-.782.025-1.569,0-2.353-.01-.391.127-.532.524-.531q6.264.016,12.528,0c.4,0,.531.151.521.541-.021.809-.033,1.62,0,2.429.023.507-.153.642-.65.635C170.277,617.21,168.227,617.226,166.177,617.226Z" transform="translate(-15.797 -80.81)" fill="#ffef0f"/>
    <path id="Trazado_173181" data-name="Trazado 173181" d="M166.182,693.513c-2.045,0-4.091-.016-6.136.012-.5.007-.662-.144-.641-.637.033-.781.026-1.566,0-2.348-.013-.432.086-.634.58-.632q6.212.026,12.425,0c.419,0,.586.132.571.568-.028.807-.039,1.618,0,2.423.027.532-.2.622-.667.617C170.273,693.5,168.227,693.513,166.182,693.513Z" transform="translate(-15.804 -132.947)" fill="#ffef0f"/>
  </g>
</svg>
