<svg xmlns="http://www.w3.org/2000/svg" width="70.772" height="70.764" viewBox="0 0 70.772 70.764">
  <g id="Grupo_115978" data-name="Grupo 115978" transform="translate(-440.617 -154.089)">
    <path id="Trazado_173007" data-name="Trazado 173007" d="M504.52,172.627v-.807c0-4.682-.055-9.366.026-14.047a3.656,3.656,0,0,0-3.715-3.685c-11.672.055-23.343.034-35.015.014a3.948,3.948,0,0,0-2.976,1.249q-4.241,4.281-8.52,8.523c-2.448,2.425-2.323,2.282-2.273,5.532.009.574-.156.761-.718.83a12.5,12.5,0,0,0-10.7,12.067q-.02,18.433,0,36.865a5.658,5.658,0,0,0,5.7,5.681q6.846.01,13.692,0a4.993,4.993,0,0,0,.991-.072,5.679,5.679,0,0,0,4.714-5.823c0-.948,0-.948.979-.948h43.714c-.029-.291-.042-.526-.077-.758-.885-5.9-2.179-11.728-2.613-17.7a28.981,28.981,0,0,0-3.663-11.769.643.643,0,0,1,.158-.935c1.9-1.867,3.792-3.738,5.65-5.645a5.192,5.192,0,0,0-5.352-8.568Z" transform="translate(0)" fill="#fff"/>
    <path id="Trazado_173008" data-name="Trazado 173008" d="M504.52,172.627a5.192,5.192,0,0,1,5.352,8.568c-1.858,1.906-3.752,3.778-5.65,5.645a.643.643,0,0,0-.158.935,28.981,28.981,0,0,1,3.663,11.769c.434,5.975,1.728,11.8,2.613,17.7.035.232.048.468.077.758H466.7c-.978,0-.978,0-.979.948a5.679,5.679,0,0,1-4.714,5.823,4.993,4.993,0,0,1-.991.072q-6.846.007-13.692,0a5.658,5.658,0,0,1-5.7-5.681q-.007-18.432,0-36.865a12.5,12.5,0,0,1,10.7-12.067c.562-.069.727-.255.718-.83-.05-3.251-.175-3.108,2.273-5.532q4.281-4.24,8.52-8.523a3.948,3.948,0,0,1,2.976-1.249c11.672.02,23.343.041,35.015-.014a3.656,3.656,0,0,1,3.715,3.685c-.081,4.681-.026,9.364-.026,14.047ZM483.6,156.4c-5.752,0-11.5.007-17.255-.012-.49,0-.633.1-.627.613.03,2.424.017,4.848.012,7.272a3.413,3.413,0,0,1-3.549,3.535c-2.234,0-4.468,0-6.7,0-1.158,0-1.158,0-1.158,1.126s0,1.117,1.079,1.329a12.571,12.571,0,0,1,10.331,12.577q0,16.077-.014,32.154c0,.583.122.736.724.735q12.585-.034,25.17-.015c1.494,0,1.466,0,1.507-1.5.016-.591-.089-.787-.749-.784-7.867.029-15.734.012-23.6.032-.586,0-.788-.084-.786-.747q.041-14.116,0-28.233c0-.6.152-.727.736-.724,5.086.025,10.172.011,15.259.022a1.284,1.284,0,0,0,1-.379,6.534,6.534,0,0,1,4.679-1.908c1.569-.01,3.138-.015,4.706.007a1.167,1.167,0,0,0,.924-.388q3.261-3.293,6.555-6.552a1.251,1.251,0,0,0,.394-.994q-.018-7.771-.008-15.542c0-1.261-.352-1.62-1.59-1.62ZM453.148,192.9a10.26,10.26,0,1,0-10.237-10.32A10.317,10.317,0,0,0,453.148,192.9Zm-10.217-2.992c-.016.217-.027.3-.027.384q0,14.435.007,28.871a3.409,3.409,0,0,0,3.552,3.406q6.7.015,13.4,0a3.438,3.438,0,0,0,3.573-3.606q.008-14.222,0-28.443c0-.157.117-.369-.117-.493a11.357,11.357,0,0,1-1.778,1.954,1.041,1.041,0,0,0-.388.921c.014,2.234.01,4.467.006,6.7a2.27,2.27,0,0,1-2.454,2.431q-5.561,0-11.122,0a2.259,2.259,0,0,1-2.4-2.417c0-2.234,0-4.468-.005-6.7,0-.249.09-.525-.158-.732A13.977,13.977,0,0,1,442.931,189.906Zm59.16-.918c-2.582,2.579-5.1,5.1-7.622,7.607a.761.761,0,0,0-.225.564c-.019.467.222,1.121-.1,1.351s-.955.052-1.444.109c-.57.066-.762-.088-.75-.71.043-2.374.023-4.75.015-7.125a2.331,2.331,0,0,0-1.759-2.376c-.415-.114-.531-.031-.529.406.016,3.349-.015,6.7.023,10.046a5.412,5.412,0,0,0,1.967,4.18c.828.711,1.7,1.365,2.546,2.059a.685.685,0,0,0,.708.134q5.095-1.407,10.2-2.772c.436-.116.532-.323.491-.748-.112-1.157-.186-2.317-.382-3.464A30.252,30.252,0,0,0,502.091,188.987Zm-7.841,4.63c.545-.568.933-.987,1.336-1.39q6.3-6.3,12.595-12.6a2.877,2.877,0,1,0-4.007-4.128c-3.759,3.732-7.495,7.489-11.25,11.226-.279.278-.3.421,0,.72a4.457,4.457,0,0,1,1.334,3.408C494.23,191.7,494.25,192.545,494.25,193.617Zm7.252,22.091c1.854,0,3.707-.017,5.56.012.5.008.656-.107.565-.626-.575-3.286-1.143-6.574-1.665-9.868-.08-.5-.216-.569-.653-.448q-4.712,1.3-9.432,2.578c-.329.089-.488.213-.483.61q.037,3.6,0,7.2c0,.432.095.563.545.556C497.8,215.692,499.649,215.708,501.5,215.708ZM482.972,190.6a9.476,9.476,0,0,1,.144-4.111c.143-.472-.121-.428-.42-.428q-5.951,0-11.9-.006c-.4,0-.524.1-.515.509.027,1.139.042,2.281,0,3.42-.022.538.13.661.661.658,3.825-.025,7.65-.013,11.475-.015C482.6,190.623,482.783,190.606,482.972,190.6ZM453.1,199.768c1.759,0,3.517-.01,5.275.008.387,0,.534-.084.528-.5-.023-1.639-.017-3.279,0-4.918,0-.406-.031-.558-.5-.347A12.215,12.215,0,0,1,447.946,194c-.48-.217-.5-.045-.5.352.011,1.639.018,3.279,0,4.918-.006.418.137.509.526.505C449.678,199.758,451.39,199.768,453.1,199.768Zm30.435-6.862c-4.4,0-8.574.006-12.75-.009-.409,0-.515.119-.506.515q.037,1.779,0,3.558c-.009.407.116.511.514.508,2.586-.017,5.173-.01,7.759-.007a.724.724,0,0,0,.576-.191C480.548,195.861,481.976,194.451,483.535,192.906Zm3.869,3.633c0-1.168.014-2.118-.01-3.067-.006-.231.18-.581-.141-.682-.275-.087-.525.135-.735.345q-3.118,3.128-6.249,6.242c-.271.268-.337.427-.026.728q1.715,1.658,3.376,3.373c.285.293.448.289.728,0,.956-.991,1.94-1.954,2.913-2.928.148-.149.327-.274.271-.536A22.332,22.332,0,0,1,487.4,196.538ZM481.7,207.617c-.855.34-1.639.657-2.428.964a3.007,3.007,0,0,1-4.178-1.638c-.114-.236-.218-.359-.51-.354-1.282.02-2.565.017-3.847,0-.32,0-.462.056-.455.421.022,1.234.018,2.469,0,3.7,0,.323.062.454.424.452,3.515-.013,7.029-.008,10.544-.007.243,0,.464.037.456-.343C481.685,209.78,481.7,208.741,481.7,207.617Zm6.847-.668c0-1.188,0-2.375,0-3.563,0-.2.114-.5-.089-.587-.267-.12-.379.212-.533.362-.984.964-1.955,1.941-2.928,2.917a1.357,1.357,0,0,1-.619.457c-.368.081-.4.317-.4.632.013,1.164.022,2.328,0,3.491-.009.4.109.52.512.512q1.781-.039,3.563,0c.41.009.515-.119.508-.516C488.53,209.42,488.545,208.184,488.545,206.949ZM463.426,158.4l-7.112,7.113c1.815,0,3.787.005,5.76,0a1.175,1.175,0,0,0,1.348-1.287C463.434,162.224,463.426,160.23,463.426,158.4Zm13.612,41.356h-6a2.747,2.747,0,0,1-.356,0c-.315-.042-.4.091-.4.4q.023,1.886,0,3.773c0,.314.093.4.4.4q2.1-.022,4.2,0a.42.42,0,0,0,.459-.324C475.885,202.615,476.442,201.239,477.038,199.751Zm15.5-15.826a13.667,13.667,0,0,0-3.978.006,4.894,4.894,0,0,0-3.4,5.8,1.131,1.131,0,0,0,2.23-.152,8.4,8.4,0,0,0,.017-1.068,2.262,2.262,0,0,1,2.437-2.437,1,1,0,0,0,.812-.311C491.264,185.133,491.9,184.535,492.534,183.926Zm-10.7,21.045a1.852,1.852,0,0,0-.154-.2c-.905-.908-1.814-1.811-2.718-2.72-.325-.327-.366-.026-.453.192-.421,1.054-.832,2.113-1.27,3.16a.77.77,0,0,0,.111.918.792.792,0,0,0,.971.168c1.047-.438,2.107-.846,3.161-1.269C481.608,205.173,481.772,205.173,481.834,204.971Zm8.993.359v4.051c0,1.876,0,1.865,1.852,1.79.336-.014.445-.1.438-.438-.02-1.066-.014-2.132,0-3.2a.667.667,0,0,0-.277-.6C492.2,206.445,491.583,205.935,490.827,205.329Z" transform="translate(0)" fill="#050506"/>
    <path id="Trazado_173009" data-name="Trazado 173009" d="M521.657,162.8H538.7c1.238,0,1.59.359,1.59,1.62q0,7.771.008,15.542a1.251,1.251,0,0,1-.394.994q-3.3,3.255-6.555,6.552a1.167,1.167,0,0,1-.924.388c-1.568-.021-3.137-.017-4.706-.007a6.534,6.534,0,0,0-4.679,1.908,1.284,1.284,0,0,1-1,.379c-5.086-.012-10.173,0-15.259-.022-.584,0-.737.123-.736.724q.033,14.116,0,28.233c0,.663.2.748.786.747,7.867-.02,15.734,0,23.6-.032.66,0,.765.194.749.784-.042,1.5-.013,1.5-1.507,1.5q-12.585,0-25.17.015c-.6,0-.725-.151-.724-.735q.029-16.077.014-32.154a12.571,12.571,0,0,0-10.331-12.577c-1.079-.212-1.079-.212-1.079-1.329s0-1.126,1.158-1.126c2.234,0,4.468,0,6.7,0a3.413,3.413,0,0,0,3.549-3.535c.005-2.424.018-4.848-.012-7.272-.006-.51.137-.615.627-.613C510.154,162.8,515.905,162.8,521.657,162.8Zm.431,2.269c-5.109,0-10.217.012-15.326-.016-.612,0-.731.166-.719.742.039,1.876.026,3.754.006,5.63,0,.4.1.512.509.511q15.468-.017,30.937,0c.46,0,.541-.137.536-.559-.022-1.876-.032-3.754,0-5.63.011-.554-.132-.7-.691-.695C532.258,165.077,527.173,165.067,522.088,165.067Zm-.049,11.422h14.4c1.584,0,1.543,0,1.6-1.557.025-.659-.189-.752-.783-.751q-14.79.029-29.58.014c-1.628,0-1.6,0-1.634,1.664-.012.561.167.644.673.642C511.823,176.481,516.931,176.489,522.039,176.489Zm.078,2.27H507.576c-1.52,0-1.482,0-1.536,1.549-.023.642.164.761.774.76q14.79-.032,29.581-.015c1.634,0,1.607,0,1.641-1.657.011-.546-.144-.653-.665-.65C532.286,178.766,527.2,178.758,522.117,178.758Zm-6.848,4.564h-7.624c-1.592,0-1.562,0-1.6,1.623-.014.574.161.686.7.684,5.3-.02,10.593-.012,15.889-.012,1.716,0,1.7,0,1.707-1.73,0-.479-.141-.578-.593-.575C520.922,183.331,518.1,183.322,515.269,183.322Z" transform="translate(-38.058 -6.395)" fill="#fff"/>
    <path id="Trazado_173010" data-name="Trazado 173010" d="M459.518,243.694a10.26,10.26,0,1,1,10.286-10.2A10.314,10.314,0,0,1,459.518,243.694Zm-1.124-3.661c0,1.395,0,1.395,1.252,1.395a4.757,4.757,0,0,1,.57,0c.365.044.51-.077.484-.466-.034-.5,0-1-.013-1.5a.58.58,0,0,1,.385-.648,3.088,3.088,0,0,0,1.894-2.859,3.169,3.169,0,0,0-1.853-3.038c-.649-.34-1.31-.658-1.967-.981a1.012,1.012,0,0,1-.7-1.173,1.075,1.075,0,0,1,1.288-.746,1,1,0,0,1,.939.987c.042.416-.2,1,.115,1.208s.867.07,1.315.08c.19,0,.38,0,.57,0,.148,0,.246-.021.3-.208.327-1.129-.131-3-1.225-3.57-1.123-.584-1.12-1.393-1.061-2.362.007-.118-.01-.239,0-.356.029-.275-.085-.347-.36-.372-1.938-.175-1.938-.183-1.939,1.715a1.923,1.923,0,0,0,0,.214.6.6,0,0,1-.413.7,3.091,3.091,0,0,0-1.865,2.878,3.146,3.146,0,0,0,1.822,2.985c.67.352,1.351.683,2.029,1.019.5.246.824.613.654,1.187a1.033,1.033,0,0,1-1.238.716,1.007,1.007,0,0,1-.977-1.025c-.038-.413.21-.978-.136-1.2-.3-.2-.829-.049-1.257-.052-.214,0-.428,0-.642,0-.172,0-.228.073-.266.246a3.535,3.535,0,0,0,1.416,3.707C458.258,238.931,458.593,239.363,458.394,240.033Z" transform="translate(-6.37 -50.796)" fill="#ffef0f"/>
    <path id="Trazado_173011" data-name="Trazado 173011" d="M449.273,289.386a13.975,13.975,0,0,0,2.093,2.276c.248.207.157.483.158.732.007,2.234,0,4.467.005,6.7a2.259,2.259,0,0,0,2.4,2.417q5.561.007,11.122,0a2.27,2.27,0,0,0,2.454-2.431c0-2.234.008-4.467-.006-6.7a1.041,1.041,0,0,1,.388-.921,11.358,11.358,0,0,0,1.778-1.954c.234.124.116.336.116.493q.011,14.222,0,28.443a3.438,3.438,0,0,1-3.573,3.606q-6.7.015-13.4,0a3.409,3.409,0,0,1-3.552-3.406q-.025-14.435-.007-28.871C449.246,289.687,449.257,289.6,449.273,289.386ZM467.5,311.853c0-1.877,0-3.755,0-5.632a2.259,2.259,0,0,0-2.389-2.424q-5.6-.008-11.195,0a2.265,2.265,0,0,0-2.389,2.423q-.006,5.561,0,11.121a2.259,2.259,0,0,0,2.388,2.425q5.6.008,11.194,0a2.262,2.262,0,0,0,2.39-2.424C467.506,315.513,467.5,313.683,467.5,311.853Z" transform="translate(-6.342 -99.48)" fill="#6677d6"/>
    <path id="Trazado_173012" data-name="Trazado 173012" d="M638.355,284.179a30.252,30.252,0,0,1,3.141,9.26c.2,1.147.269,2.308.382,3.464.041.425-.054.632-.491.748q-5.107,1.364-10.2,2.773a.685.685,0,0,1-.708-.134c-.842-.694-1.718-1.349-2.546-2.059a5.413,5.413,0,0,1-1.967-4.18c-.038-3.349-.007-6.7-.023-10.046,0-.437.114-.52.529-.406a2.331,2.331,0,0,1,1.759,2.376c.008,2.375.028,4.751-.015,7.125-.011.622.181.776.75.71.489-.057,1.111.131,1.444-.109s.079-.884.1-1.351a.761.761,0,0,1,.225-.564C633.256,289.276,635.773,286.759,638.355,284.179Z" transform="translate(-136.264 -95.192)" fill="#eec4a4"/>
    <path id="Trazado_173013" data-name="Trazado 173013" d="M638.924,250.7c0-1.072-.021-1.92,0-2.767a4.457,4.457,0,0,0-1.334-3.408c-.3-.3-.276-.442,0-.72,3.755-3.737,7.49-7.494,11.25-11.226a2.877,2.877,0,1,1,4.007,4.128q-6.286,6.313-12.595,12.6C639.857,249.716,639.47,250.135,638.924,250.7Z" transform="translate(-144.674 -57.086)" fill="#c6412a"/>
    <path id="Trazado_173014" data-name="Trazado 173014" d="M653.645,356.348c-1.853,0-3.707-.016-5.56.012-.45.007-.549-.124-.545-.556q.032-3.6,0-7.2c0-.4.155-.521.483-.61q4.719-1.279,9.432-2.578c.437-.121.573-.056.653.448.522,3.295,1.09,6.582,1.665,9.868.091.519-.061.634-.565.626C657.352,356.331,655.5,356.348,653.645,356.348Z" transform="translate(-152.143 -140.64)" fill="#4e2e8e"/>
    <path id="Trazado_173015" data-name="Trazado 173015" d="M565.336,279.374c-.189.009-.376.025-.563.026-3.825,0-7.65-.011-11.475.015-.53,0-.682-.119-.661-.658.046-1.138.032-2.28,0-3.42-.01-.408.116-.51.515-.509q5.951.021,11.9.006c.3,0,.563-.044.42.428A9.477,9.477,0,0,0,565.336,279.374Z" transform="translate(-82.364 -88.776)" fill="#4e2e8e"/>
    <path id="Trazado_173016" data-name="Trazado 173016" d="M472.053,310.359c-1.711,0-3.422-.011-5.133.008-.389,0-.532-.087-.526-.505.023-1.639.016-3.279,0-4.918,0-.4.019-.569.5-.352a12.215,12.215,0,0,0,10.454.006c.47-.21.5-.059.5.347-.013,1.639-.019,3.279,0,4.918.006.42-.141.508-.528.5C475.57,310.349,473.811,310.359,472.053,310.359Z" transform="translate(-18.952 -110.591)" fill="#838e9a"/>
    <path id="Trazado_173017" data-name="Trazado 173017" d="M565.917,300.693c-1.559,1.545-2.987,2.955-4.407,4.375a.724.724,0,0,1-.576.191c-2.586,0-5.173-.01-7.759.007-.4,0-.523-.1-.514-.508q.04-1.779,0-3.558c-.008-.4.1-.517.506-.515C557.343,300.7,561.518,300.693,565.917,300.693Z" transform="translate(-82.382 -107.787)" fill="#6677d6"/>
    <path id="Trazado_173018" data-name="Trazado 173018" d="M596.89,303.973a22.332,22.332,0,0,0,.127,3.473c.057.262-.122.387-.271.536-.973.974-1.957,1.938-2.913,2.928-.28.291-.443.295-.728,0q-1.662-1.711-3.375-3.373c-.311-.3-.245-.46.026-.728q3.137-3.108,6.249-6.242c.21-.211.46-.432.735-.345.321.1.136.452.141.682C596.9,301.855,596.89,302.805,596.89,303.973Z" transform="translate(-109.486 -107.435)" fill="#c6412a"/>
    <path id="Trazado_173019" data-name="Trazado 173019" d="M564.084,353.432c0,1.124-.013,2.163.007,3.2.007.379-.213.343-.456.343-3.515,0-7.029-.006-10.544.007-.361,0-.428-.129-.424-.452.016-1.235.02-2.47,0-3.7-.007-.365.135-.425.455-.421,1.282.015,2.565.017,3.847,0,.293,0,.4.118.51.354a3.007,3.007,0,0,0,4.178,1.638C562.445,354.09,563.229,353.772,564.084,353.432Z" transform="translate(-82.386 -145.815)" fill="#6677d6"/>
    <path id="Trazado_173020" data-name="Trazado 173020" d="M608.958,342.167c0,1.235-.016,2.471.009,3.705.008.4-.1.525-.508.516q-1.781-.041-3.563,0c-.4.009-.521-.108-.512-.512.026-1.163.017-2.327,0-3.491,0-.315.028-.551.4-.632a1.357,1.357,0,0,0,.619-.457c.973-.976,1.944-1.953,2.928-2.917.154-.151.266-.483.533-.362.2.092.088.386.089.587C608.963,339.792,608.958,340.98,608.958,342.167Z" transform="translate(-120.413 -135.219)" fill="#ffef0f"/>
    <path id="Trazado_173021" data-name="Trazado 173021" d="M507.023,170.356c0,1.835.008,3.829,0,5.823a1.175,1.175,0,0,1-1.348,1.287c-1.972.008-3.945,0-5.76,0Z" transform="translate(-43.597 -11.961)" fill="#4e2e8e"/>
    <path id="Trazado_173022" data-name="Trazado 173022" d="M559.429,326.55c-.6,1.487-1.153,2.864-1.694,4.246a.42.42,0,0,1-.459.324q-2.1-.018-4.2,0c-.31,0-.407-.086-.4-.4q.024-1.886,0-3.773c0-.309.085-.441.4-.4a2.75,2.75,0,0,0,.356,0Z" transform="translate(-82.391 -126.799)" fill="#4e2e8e"/>
    <path id="Trazado_173023" data-name="Trazado 173023" d="M615.845,266.375c-.629.609-1.27,1.207-1.882,1.835a1,1,0,0,1-.812.311,2.262,2.262,0,0,0-2.437,2.437,8.393,8.393,0,0,1-.017,1.068,1.131,1.131,0,0,1-2.23.152,4.894,4.894,0,0,1,3.4-5.8A13.667,13.667,0,0,1,615.845,266.375Z" transform="translate(-123.311 -82.45)" fill="#eec4a4"/>
    <path id="Trazado_173024" data-name="Trazado 173024" d="M583.277,337.792c-.062.2-.226.2-.352.253-1.053.424-2.113.831-3.161,1.269a.792.792,0,0,1-.971-.168.77.77,0,0,1-.111-.918c.438-1.048.849-2.106,1.27-3.16.087-.218.128-.519.453-.192.9.909,1.813,1.813,2.718,2.72A1.857,1.857,0,0,1,583.277,337.792Z" transform="translate(-101.443 -132.822)" fill="#838e9a"/>
    <path id="Trazado_173025" data-name="Trazado 173025" d="M630.283,347.649c.756.606,1.374,1.115,2.009,1.6a.667.667,0,0,1,.277.6c-.011,1.066-.017,2.132,0,3.2.007.343-.1.425-.438.438-1.852.075-1.852.086-1.852-1.79Z" transform="translate(-139.456 -142.319)" fill="#ffef0f"/>
    <path id="Trazado_173026" data-name="Trazado 173026" d="M560.041,171.356c5.085,0,10.169.01,15.254-.014.56,0,.7.141.691.695-.037,1.876-.027,3.754,0,5.63.005.421-.076.559-.536.559q-15.468-.023-30.937,0c-.4,0-.513-.111-.509-.511.021-1.877.034-3.754-.006-5.63-.012-.576.107-.745.719-.742C549.823,171.369,554.932,171.356,560.041,171.356Zm-.037,4.57h12.182c1.5,0,1.458,0,1.518-1.508.028-.692-.22-.788-.829-.786q-12.5.028-25,.013c-1.575,0-1.54,0-1.588,1.579-.019.628.195.718.756.715C551.359,175.916,555.681,175.926,560,175.926Z" transform="translate(-76.011 -12.684)" fill="#050506"/>
    <path id="Trazado_173027" data-name="Trazado 173027" d="M559.988,208.137c-5.108,0-10.217-.007-15.325.012-.506,0-.685-.081-.673-.642.036-1.663.007-1.664,1.634-1.664q14.79,0,29.58-.014c.594,0,.808.093.783.751-.058,1.555-.018,1.557-1.6,1.557Z" transform="translate(-76.007 -38.043)" fill="#050506"/>
    <path id="Trazado_173028" data-name="Trazado 173028" d="M560.057,223.084c5.084,0,10.169.008,15.253-.013.521,0,.676.1.665.65-.034,1.656-.007,1.657-1.641,1.657q-14.79,0-29.581.015c-.61,0-.8-.118-.774-.76.055-1.548.017-1.549,1.536-1.549Z" transform="translate(-75.998 -50.721)" fill="#050506"/>
    <path id="Trazado_173029" data-name="Trazado 173029" d="M553.219,240.33c2.826,0,5.653.01,8.479-.01.451,0,.6.1.593.575-.011,1.73.01,1.73-1.707,1.73-5.3,0-10.593-.008-15.889.012-.541,0-.716-.11-.7-.684.04-1.622.011-1.623,1.6-1.623Z" transform="translate(-76.008 -63.403)" fill="#050506"/>
    <path id="Trazado_173030" data-name="Trazado 173030" d="M477.13,246.1c.2-.67-.137-1.1-.871-1.513a3.535,3.535,0,0,1-1.416-3.707c.038-.174.094-.249.266-.246.214,0,.428,0,.642,0,.428,0,.952-.144,1.257.052.346.222.1.786.136,1.2a1.007,1.007,0,0,0,.977,1.025,1.033,1.033,0,0,0,1.238-.716c.17-.573-.158-.941-.654-1.187-.678-.336-1.359-.667-2.029-1.019a3.146,3.146,0,0,1-1.822-2.985,3.091,3.091,0,0,1,1.865-2.878.6.6,0,0,0,.413-.7,1.923,1.923,0,0,1,0-.214c0-1.9,0-1.89,1.939-1.715.275.025.389.1.36.372-.012.118,0,.238,0,.356-.059.969-.062,1.778,1.061,2.362,1.094.569,1.552,2.441,1.225,3.57-.054.187-.152.208-.3.208-.19,0-.38,0-.57,0-.448-.01-1,.13-1.315-.08s-.073-.791-.115-1.208a1,1,0,0,0-.939-.987,1.075,1.075,0,0,0-1.288.746,1.012,1.012,0,0,0,.7,1.173c.658.323,1.318.641,1.967.981a3.169,3.169,0,0,1,1.853,3.038,3.088,3.088,0,0,1-1.894,2.859.58.58,0,0,0-.385.648c.017.5-.021,1,.013,1.5.026.389-.118.51-.484.466a4.757,4.757,0,0,0-.57,0C477.13,247.5,477.13,247.5,477.13,246.1Z" transform="translate(-25.107 -56.864)" fill="#050506"/>
    <path id="Trazado_173031" data-name="Trazado 173031" d="M473.842,351.869c0,1.83,0,3.66,0,5.489a2.262,2.262,0,0,1-2.39,2.424q-5.6.008-11.194,0a2.259,2.259,0,0,1-2.388-2.425q-.006-5.56,0-11.121a2.265,2.265,0,0,1,2.389-2.423q5.6-.007,11.195,0a2.259,2.259,0,0,1,2.389,2.424C473.846,348.114,473.842,349.992,473.842,351.869Zm-4.564,2.136v1.776c0,1.776,0,1.762,1.777,1.732.4-.007.52-.114.514-.517-.022-1.539-.009-3.079-.009-4.618,0-1.827,0-1.817-1.849-1.73-.338.016-.447.105-.44.445C469.291,352.063,469.279,353.034,469.279,354.005Zm-7.982-7.912c-1.146,0-1.146,0-1.146,1.135s0,1.147,1.135,1.147,1.147,0,1.147-1.135S462.432,346.094,461.3,346.094Zm5.7,1.2c0-1.2,0-1.2-1.222-1.2-1.06,0-1.06,0-1.06,1.08,0,1.2,0,1.2,1.222,1.2C467,348.375,467,348.375,467,347.3Zm3.465-1.2c-1.183,0-1.183,0-1.183,1.17,0,1.112,0,1.112,1.1,1.112,1.183,0,1.183,0,1.183-1.17C471.56,346.094,471.56,346.094,470.461,346.094Zm-8.029,5.765c0-1.2,0-1.2-1.222-1.2-1.06,0-1.06,0-1.06,1.08,0,1.2,0,1.2,1.222,1.2C462.432,352.939,462.432,352.939,462.432,351.859Zm3.394,1.08c1.17,0,1.17,0,1.17-1.183,0-1.1,0-1.1-1.112-1.1-1.17,0-1.17,0-1.17,1.183C464.714,352.939,464.714,352.939,465.826,352.939Zm-4.493,2.282c-1.183,0-1.183,0-1.183,1.17,0,1.112,0,1.112,1.1,1.112,1.183,0,1.183,0,1.183-1.17C462.432,355.221,462.432,355.221,461.333,355.221Zm4.508,2.282c1.154,0,1.154,0,1.155-.773,0-1.508,0-1.508-.844-1.509-1.438,0-1.438,0-1.438.915C464.714,357.5,464.714,357.5,465.841,357.5Z" transform="translate(-12.683 -139.497)" fill="#050506"/>
    <path id="Trazado_173032" data-name="Trazado 173032" d="M566.351,182.292c-4.322,0-8.644-.011-12.966.013-.562,0-.775-.087-.756-.715.048-1.578.012-1.579,1.588-1.579q12.5,0,25-.013c.609,0,.857.095.829.787-.06,1.506-.017,1.508-1.518,1.508Z" transform="translate(-82.358 -19.05)" fill="#6677d6"/>
    <path id="Trazado_173033" data-name="Trazado 173033" d="M500.955,372.917c0-.971.013-1.942-.007-2.913-.007-.34.1-.429.44-.445,1.849-.087,1.849-.1,1.849,1.73,0,1.54-.013,3.079.009,4.618.006.4-.11.51-.514.517-1.778.03-1.777.044-1.777-1.732Z" transform="translate(-44.359 -158.408)" fill="#c6412a"/>
    <path id="Trazado_173034" data-name="Trazado 173034" d="M467.639,352.437c1.136,0,1.136,0,1.136,1.146s0,1.135-1.147,1.135-1.136,0-1.135-1.147S466.493,352.437,467.639,352.437Z" transform="translate(-19.026 -145.84)" fill="#c6412a"/>
    <path id="Trazado_173035" data-name="Trazado 173035" d="M486.016,353.639c0,1.08,0,1.08-1.06,1.08-1.222,0-1.222,0-1.222-1.2,0-1.08,0-1.08,1.06-1.08C486.016,352.437,486.016,352.437,486.016,353.639Z" transform="translate(-31.702 -145.84)" fill="#c6412a"/>
    <path id="Trazado_173036" data-name="Trazado 173036" d="M502.158,352.437c1.1,0,1.1,0,1.1,1.112,0,1.17,0,1.17-1.183,1.17-1.1,0-1.1,0-1.1-1.112C500.975,352.437,500.975,352.437,502.158,352.437Z" transform="translate(-44.379 -145.84)" fill="#c6412a"/>
    <path id="Trazado_173037" data-name="Trazado 173037" d="M468.774,370.878c0,1.08,0,1.08-1.06,1.08-1.222,0-1.222,0-1.222-1.2,0-1.08,0-1.08,1.06-1.08C468.774,369.676,468.774,369.676,468.774,370.878Z" transform="translate(-19.025 -158.515)" fill="#c6412a"/>
    <path id="Trazado_173038" data-name="Trazado 173038" d="M484.846,371.958c-1.112,0-1.112,0-1.112-1.1,0-1.183,0-1.183,1.17-1.183,1.112,0,1.112,0,1.112,1.1C486.016,371.958,486.016,371.958,484.846,371.958Z" transform="translate(-31.702 -158.515)" fill="#c6412a"/>
    <path id="Trazado_173039" data-name="Trazado 173039" d="M467.676,386.915c1.1,0,1.1,0,1.1,1.112,0,1.17,0,1.17-1.183,1.17-1.1,0-1.1,0-1.1-1.112C466.493,386.915,466.493,386.915,467.676,386.915Z" transform="translate(-19.026 -171.191)" fill="#c6412a"/>
    <path id="Trazado_173040" data-name="Trazado 173040" d="M484.861,389.2c-1.127,0-1.127,0-1.127-1.367,0-.915,0-.915,1.438-.915.846,0,.846,0,.844,1.509C486.015,389.2,486.015,389.2,484.861,389.2Z" transform="translate(-31.702 -171.191)" fill="#c6412a"/>
  </g>
</svg>
