<svg xmlns="http://www.w3.org/2000/svg" width="79.076" height="87.522" viewBox="0 0 79.076 87.522">
  <g id="Grupo_115980" data-name="Grupo 115980" transform="translate(-1468.671 -154.741)">
    <path id="Trazado_173082" data-name="Trazado 173082" d="M1564.4,196.568a2.163,2.163,0,0,1-1.037,1.8,1.045,1.045,0,0,0-.279,1.561,4.713,4.713,0,0,1,.619,1.445c.178.878.675,1.051,1.49,1.022,1.6-.057,2.016.288,2.245,1.819a19.183,19.183,0,0,1-.1,6.832,1.469,1.469,0,0,1-1.681,1.414,3.338,3.338,0,0,1-.617,0c-.74-.114-1.118.185-1.3.922a5.389,5.389,0,0,1-.682,1.608c-.4.635-.214,1.015.28,1.486,1.391,1.33,1.395,1.722.237,3.26a19.984,19.984,0,0,1-4.606,4.453,1.523,1.523,0,0,1-2.329-.2c-1.07-1.036-1.038-.941-2.4-.479s-2.332.971-2.053,2.69c.117.717-.461,1.208-1.235,1.355a19.06,19.06,0,0,1-7.347.014c-1.047-.208-1.519-.635-1.414-1.658.133-1.29-.323-1.973-1.575-2.173a.56.56,0,0,1-.244-.1c-1.1-.838-1.937-.568-2.771.471a1.353,1.353,0,0,1-2.044.167,20.072,20.072,0,0,1-5.2-5.205,1.369,1.369,0,0,1,.235-2.1c1.01-.8,1.227-1.593.433-2.626a.407.407,0,0,1-.056-.166,1.872,1.872,0,0,0-2.417-1.752c-.764.117-1.3-.406-1.462-1.223a18.933,18.933,0,0,1-.025-7.347c.216-1.091.642-1.548,1.726-1.446,1.209.114,1.879-.262,2.061-1.466a.591.591,0,0,1,.11-.238,1.84,1.84,0,0,0-.48-2.926,1.3,1.3,0,0,1-.188-1.9,19.977,19.977,0,0,1,5.322-5.333,1.35,1.35,0,0,1,2.034.247c.786.982,1.467,1.055,2.646.53,1.263-.563,2.168-.99,1.917-2.612-.117-.755.462-1.257,1.281-1.41a19.21,19.21,0,0,1,7.348,0,1.47,1.47,0,0,1,1.405,1.6,3.938,3.938,0,0,1,0,.793.9.9,0,0,0,.848,1.16,1.578,1.578,0,0,1,.574.21c1.239.8,2.315.929,3.307-.462a1.24,1.24,0,0,1,1.764-.1,19.99,19.99,0,0,1,5.387,5.39A3.009,3.009,0,0,1,1564.4,196.568Zm-28.031-3c-.148.11-.288.207-.421.314a17.635,17.635,0,0,0-2.254,2.226c-.314.363-.31.562.006.929a3.061,3.061,0,0,1,.533,3.368c-.391.948-.771,1.9-1.174,2.843a3.154,3.154,0,0,1-2.089,1.878c-1.366.4-1.373.4-1.4,1.826a11.954,11.954,0,0,0,.086,2.022c.064.415.188.579.638.628a3.332,3.332,0,0,1,2.935,2.43c.284.8.62,1.583.968,2.357a3.378,3.378,0,0,1-.078,2.888c-.186.426-.927.616-.62,1.2a5.1,5.1,0,0,0,.97,1.134c.456.457.966.86,1.413,1.325.34.353.563.313.926,0a3.044,3.044,0,0,1,3.365-.533c.948.391,1.9.768,2.843,1.175a2.742,2.742,0,0,1,1.86,2.175c.115,1.138.715,1.355,1.667,1.314a19.708,19.708,0,0,0,2.2-.092c.411-.064.581-.181.629-.634a3.331,3.331,0,0,1,2.428-2.937c.8-.284,1.58-.625,2.357-.968a3.358,3.358,0,0,1,2.807.035c.458.193.7.936,1.277.659a4.871,4.871,0,0,0,1.2-1.023c.437-.434.819-.924,1.26-1.354.344-.336.321-.553,0-.926a3.06,3.06,0,0,1-.537-3.367c.391-.948.768-1.9,1.176-2.842a2.748,2.748,0,0,1,2.174-1.863c1.137-.115,1.357-.715,1.316-1.666-.03-.7.012-1.406-.073-2.111-.058-.481-.206-.674-.736-.733a3.251,3.251,0,0,1-2.819-2.327c-.3-.825-.646-1.635-1-2.438a3.329,3.329,0,0,1,.075-2.886c.193-.421.917-.624.625-1.2a4.9,4.9,0,0,0-.966-1.137c-.456-.457-.964-.862-1.415-1.323-.334-.342-.553-.328-.927-.006a3,3,0,0,1-3.364.531c-.938-.417-1.889-.8-2.843-1.175a3.033,3.033,0,0,1-1.9-2.162c-.326-1.279-.329-1.292-1.718-1.31-.674-.009-1.348.054-2.022.07-.487.011-.675.2-.737.729a3.256,3.256,0,0,1-2.328,2.819c-.771.278-1.529.6-2.274.938a3.212,3.212,0,0,1-3.619-.435C1536.654,193.82,1536.523,193.7,1536.366,193.569Z" transform="translate(-38.992 -21.636)" fill="#0b0b0c"/>
    <path id="Trazado_173083" data-name="Trazado 173083" d="M1487.508,239.162c2.524,11.967,9.277,20.007,21.162,23.091a28.128,28.128,0,0,0,33.58-18.513c.232-.7.5-.826,1.1-.528a2.16,2.16,0,0,0,.335.1c1.64.5,1.669.51,1.02,2.149-4.4,11.1-12.442,18.011-24.18,20.069a30.709,30.709,0,0,1-35.411-24.2c-.142-.708-.074-1.728-.507-2.037-.511-.366-1.462-.118-2.223-.131-.411-.007-.823,0-1.234,0-1.495-.013-2.084-1.042-1.34-2.366.659-1.174,1.339-2.336,2.017-3.5.869-1.492,1.733-2.988,2.623-4.469a1.491,1.491,0,0,1,2.775-.013c1.563,2.648,3.051,5.342,4.666,7.957a1.519,1.519,0,0,1-1.441,2.412A25.518,25.518,0,0,0,1487.508,239.162Zm.744-2.856-2.417-4.136-2.4,4.136Z" transform="translate(-7.265 -49.133)" fill="#4e2e8e"/>
    <path id="Trazado_173084" data-name="Trazado 173084" d="M1528.949,154.747a30.973,30.973,0,0,1,30.287,24.21c.216.962.508,1.31,1.484,1.211a22.833,22.833,0,0,1,2.731-.016,1.4,1.4,0,0,1,1.289,2.192q-2.393,4.2-4.875,8.342a1.386,1.386,0,0,1-2.5.022q-2.5-4.181-4.914-8.417a1.388,1.388,0,0,1,1.282-2.139c.734-.019,1.471-.038,2.2.007.559.035.63-.169.513-.654a27.843,27.843,0,0,0-10.278-16.023A26.762,26.762,0,0,0,1525.8,157.8c-11.415,1.513-19.237,7.835-23.409,18.591-.246.634-.406.8-1.074.572-2.008-.683-2.064-.672-1.241-2.606,4.43-10.413,12.16-16.823,23.273-19.1A25.179,25.179,0,0,1,1528.949,154.747Zm29.66,32.4,2.387-4.1h-4.773Z" transform="translate(-20.764)" fill="#4e2e8e"/>
    <path id="Trazado_173085" data-name="Trazado 173085" d="M1508.21,415.55q-19.316,0-38.631.018c-.729,0-.927-.159-.906-.9.057-1.94.017-1.941,1.962-1.941q38.058,0,76.116-.018c.793,0,1.023.181.995.988-.065,1.851-.021,1.853-1.874,1.853Z" transform="translate(0 -173.304)" fill="#4e2e8e"/>
    <path id="Trazado_173086" data-name="Trazado 173086" d="M1653.642,343.674q0-5.38,0-10.76c0-1.422.419-1.852,1.808-1.852q4.542,0,9.084,0c1.356,0,1.808.439,1.808,1.765q0,10.936,0,21.873c0,1.3-.454,1.763-1.721,1.764q-4.631,0-9.261,0c-1.267,0-1.718-.465-1.719-1.765Q1653.64,349.186,1653.642,343.674Zm9.879.16c0-3.084-.009-6.168.01-9.252,0-.49-.05-.728-.646-.714-1.938.043-3.877.035-5.815,0-.529-.009-.614.186-.613.656q.021,9.252,0,18.5c0,.518.169.626.648.62,1.909-.025,3.819-.038,5.727.006.614.014.708-.207.7-.747C1663.509,349.885,1663.521,346.86,1663.521,343.835Z" transform="translate(-124.264 -118.452)" fill="#050506"/>
    <path id="Trazado_173087" data-name="Trazado 173087" d="M1597.738,361.709q0-3.748,0-7.5c0-1.167.485-1.65,1.654-1.651q4.719-.006,9.437,0c1.108,0,1.606.5,1.607,1.61q.007,7.54,0,15.081c0,1.166-.487,1.65-1.655,1.652q-4.719.007-9.437,0c-1.108,0-1.6-.5-1.606-1.61C1597.734,366.765,1597.738,364.237,1597.738,361.709Zm2.829-.023c0,1.91.023,3.821-.014,5.73-.011.559.158.683.69.674,1.909-.032,3.82-.027,5.73,0,.479.006.652-.1.649-.621q-.033-5.73,0-11.461c0-.508-.154-.634-.643-.628-1.91.026-3.821.041-5.73-.006-.634-.016-.7.236-.692.76C1600.583,357.983,1600.567,359.834,1600.567,361.685Z" transform="translate(-86.707 -132.894)" fill="#050506"/>
    <path id="Trazado_173088" data-name="Trazado 173088" d="M1541.838,372.473q0-2.646,0-5.291c0-1.24.465-1.718,1.675-1.72q4.674-.006,9.348,0c1.209,0,1.676.481,1.676,1.719q0,5.335,0,10.671c0,1.237-.468,1.718-1.675,1.72q-4.674.006-9.348,0c-1.209,0-1.673-.481-1.676-1.719Q1541.834,375.163,1541.838,372.473Zm2.808.051c0,1.2.011,2.41-.007,3.615-.006.412.047.644.558.637,2-.026,4-.021,6,0,.429,0,.548-.148.545-.56q-.022-3.7,0-7.407c0-.429-.147-.549-.56-.546q-3,.025-6,0c-.429,0-.553.147-.546.56C1544.659,370.054,1544.646,371.289,1544.646,372.524Z" transform="translate(-49.153 -141.561)" fill="#050506"/>
    <path id="Trazado_173089" data-name="Trazado 173089" d="M1492.195,388.24c-1.529,0-3.057,0-4.586,0-1.181,0-1.672-.478-1.675-1.631q-.009-3.307,0-6.614c0-1.154.492-1.629,1.674-1.631q4.674-.005,9.348,0c1.182,0,1.672.478,1.676,1.631q.009,3.307,0,6.614c0,1.153-.495,1.628-1.675,1.631C1495.369,388.244,1493.782,388.24,1492.195,388.24Zm.178-7.057c-1,0-2,.013-2.993-.006-.414-.008-.652.053-.635.561.035,1.055.021,2.112.005,3.168-.006.368.1.521.5.519q3.036-.022,6.073,0c.392,0,.5-.146.5-.516-.017-1.056-.03-2.113,0-3.169.016-.5-.216-.572-.633-.563C1494.25,381.2,1493.311,381.183,1492.372,381.183Z" transform="translate(-11.594 -150.228)" fill="#050506"/>
    <path id="Trazado_173090" data-name="Trazado 173090" d="M1542.209,199.423c.157.134.287.251.424.361a3.212,3.212,0,0,0,3.619.435c.745-.342,1.5-.661,2.274-.938a3.256,3.256,0,0,0,2.328-2.819c.062-.528.25-.718.737-.729.674-.016,1.349-.078,2.022-.07,1.388.018,1.392.031,1.718,1.31a3.033,3.033,0,0,0,1.9,2.162c.953.379,1.9.758,2.843,1.175a3,3,0,0,0,3.364-.531c.373-.322.592-.336.927.006.451.461.96.866,1.415,1.323a4.9,4.9,0,0,1,.966,1.137c.291.576-.433.778-.625,1.2a3.329,3.329,0,0,0-.075,2.886c.355.8.7,1.613,1,2.438a3.251,3.251,0,0,0,2.819,2.327c.53.059.678.252.736.733.085.7.043,1.408.073,2.111.041.951-.18,1.551-1.316,1.666a2.748,2.748,0,0,0-2.174,1.863c-.408.94-.785,1.894-1.176,2.842a3.06,3.06,0,0,0,.537,3.367c.321.372.344.59,0,.925-.441.43-.823.921-1.26,1.354a4.87,4.87,0,0,1-1.2,1.023c-.582.277-.819-.466-1.277-.659a3.358,3.358,0,0,0-2.807-.035c-.777.343-1.558.684-2.357.968a3.331,3.331,0,0,0-2.428,2.937c-.048.454-.218.571-.629.634a19.715,19.715,0,0,1-2.2.092c-.951.041-1.551-.177-1.667-1.314a2.742,2.742,0,0,0-1.86-2.175c-.941-.406-1.895-.784-2.843-1.175a3.044,3.044,0,0,0-3.365.533c-.364.316-.586.356-.926,0-.447-.464-.957-.868-1.413-1.325a5.1,5.1,0,0,1-.97-1.134c-.307-.584.434-.775.62-1.2a3.378,3.378,0,0,0,.078-2.888c-.348-.775-.685-1.557-.968-2.357a3.332,3.332,0,0,0-2.935-2.43c-.449-.048-.574-.213-.638-.628a11.954,11.954,0,0,1-.086-2.022c.022-1.429.03-1.425,1.4-1.826a3.154,3.154,0,0,0,2.089-1.878c.4-.942.783-1.9,1.174-2.843a3.061,3.061,0,0,0-.533-3.368c-.316-.368-.321-.566-.006-.929a17.635,17.635,0,0,1,2.254-2.226C1541.92,199.631,1542.061,199.533,1542.209,199.423Zm23.536,13.9a12.7,12.7,0,1,0-12.833,12.661A12.69,12.69,0,0,0,1565.745,213.327Z" transform="translate(-44.835 -27.491)" fill="#6677d6"/>
    <path id="Trazado_173091" data-name="Trazado 173091" d="M1496.326,245.1h-4.821l2.4-4.136Z" transform="translate(-15.34 -57.923)" fill="#6677d6"/>
    <path id="Trazado_173092" data-name="Trazado 173092" d="M1674.557,245.086l-2.386-4.1h4.773Z" transform="translate(-136.712 -57.942)" fill="#6677d6"/>
    <path id="Trazado_173093" data-name="Trazado 173093" d="M1669.276,349.58c0,3.025-.012,6.051.011,9.076,0,.541-.09.761-.7.747-1.908-.044-3.818-.031-5.727-.006-.479.006-.65-.1-.648-.62q.027-9.252,0-18.5c0-.47.084-.665.613-.656,1.938.032,3.877.039,5.815,0,.6-.013.649.224.646.714C1669.266,343.412,1669.276,346.5,1669.276,349.58Z" transform="translate(-130.019 -124.198)" fill="#6677d6"/>
    <path id="Trazado_173094" data-name="Trazado 173094" d="M1606.33,367.444c0-1.851.016-3.7-.01-5.554-.008-.524.058-.776.692-.76,1.909.047,3.82.033,5.73.006.488-.007.646.119.643.628q-.031,5.73,0,11.461c0,.518-.17.627-.65.621-1.91-.025-3.821-.03-5.73,0-.532.009-.7-.115-.69-.674C1606.354,371.265,1606.33,369.354,1606.33,367.444Z" transform="translate(-92.47 -138.653)" fill="#6677d6"/>
    <path id="Trazado_173095" data-name="Trazado 173095" d="M1550.38,378.258c0-1.235.014-2.469-.007-3.7-.007-.413.116-.564.545-.56q3,.028,6,0c.413,0,.562.117.56.546q-.025,3.7,0,7.407c0,.412-.117.564-.545.56-2-.018-4-.024-6,0-.511.007-.564-.226-.558-.637C1550.391,380.668,1550.38,379.463,1550.38,378.258Z" transform="translate(-54.887 -147.296)" fill="#6677d6"/>
    <path id="Trazado_173096" data-name="Trazado 173096" d="M1498.132,386.948c.939,0,1.878.014,2.817-.006.417-.009.65.058.633.563-.034,1.055-.021,2.113,0,3.169.006.371-.107.519-.5.516q-3.037-.022-6.073,0c-.394,0-.5-.151-.5-.519.016-1.056.03-2.113,0-3.168-.016-.508.221-.569.635-.561C1496.136,386.961,1497.134,386.948,1498.132,386.948Z" transform="translate(-17.354 -155.993)" fill="#6677d6"/>
    <path id="Trazado_173097" data-name="Trazado 173097" d="M1575.842,223.4a12.7,12.7,0,1,1-12.571-12.743A12.688,12.688,0,0,1,1575.842,223.4Zm-2.828-.022a9.876,9.876,0,1,0-9.957,9.858A9.917,9.917,0,0,0,1573.014,223.378Z" transform="translate(-54.931 -37.564)" fill="#0b0b0c"/>
    <path id="Trazado_173098" data-name="Trazado 173098" d="M1578.8,229.16a9.876,9.876,0,1,1-9.832-9.9A9.92,9.92,0,0,1,1578.8,229.16Zm-9.819-8.487a3.081,3.081,0,0,1-.528,0c-.762-.135-1.107.147-.935.929.121.547-.2.669-.632.815a4.087,4.087,0,0,0-2.892,4.768,4.588,4.588,0,0,0,4.338,3.368,3.239,3.239,0,0,1,2.007.506c.436.321.724.756.442,1.287a2.077,2.077,0,0,1-2.1,1.013c-.812-.035-1.732-.254-1.892-1.137-.163-.9-.646-.839-1.258-.812a5.02,5.02,0,0,1-.968-.005c-.766-.116-.82.306-.71.876a4.423,4.423,0,0,0,3.076,3.624c.268.09.7.071.585.569-.263,1.132.391,1.241,1.255,1.144a3.231,3.231,0,0,1,.792,0c.585.08.909-.086.776-.738s.177-.942.786-1.2a3.941,3.941,0,0,0,1.169-6.694,4.36,4.36,0,0,0-3.187-1.255,2.8,2.8,0,0,1-1.9-.538.987.987,0,0,1-.456-1.137,2.182,2.182,0,0,1,2.113-1.143c.943.026,1.962.546,1.959,1.187,0,.907.517.786,1.066.777a10.725,10.725,0,0,1,1.233.007c.536.053.646-.181.6-.662a4.076,4.076,0,0,0-2.637-3.635c-.61-.246-.836-.542-.737-1.142s-.1-.881-.742-.775A3.853,3.853,0,0,1,1568.976,220.673Z" transform="translate(-60.713 -43.347)" fill="#f2cb6e"/>
    <path id="Trazado_173099" data-name="Trazado 173099" d="M1578.722,223.483a3.853,3.853,0,0,0,.616,0c.64-.106.841.18.742.775s.127.9.737,1.142a4.076,4.076,0,0,1,2.637,3.635c.047.481-.062.715-.6.662a10.725,10.725,0,0,0-1.233-.007c-.549.009-1.071.13-1.066-.777,0-.641-1.016-1.161-1.959-1.187a2.182,2.182,0,0,0-2.113,1.143.987.987,0,0,0,.456,1.137,2.8,2.8,0,0,0,1.9.538,4.36,4.36,0,0,1,3.187,1.255,3.941,3.941,0,0,1-1.169,6.694c-.609.258-.921.533-.786,1.2s-.191.819-.776.738a3.231,3.231,0,0,0-.792,0c-.864.1-1.517-.011-1.255-1.144.115-.5-.317-.479-.585-.569a4.423,4.423,0,0,1-3.076-3.624c-.11-.57-.056-.992.71-.876a5.02,5.02,0,0,0,.968.005c.612-.027,1.1-.091,1.258.812.16.883,1.08,1.1,1.892,1.137a2.077,2.077,0,0,0,2.1-1.013c.283-.53-.006-.965-.442-1.287a3.239,3.239,0,0,0-2.007-.506,4.588,4.588,0,0,1-4.338-3.368,4.087,4.087,0,0,1,2.892-4.768c.429-.145.753-.267.632-.815-.173-.782.173-1.064.935-.929A3.081,3.081,0,0,0,1578.722,223.483Z" transform="translate(-70.459 -46.156)" fill="#0b0b0c"/>
  </g>
</svg>
