<svg xmlns="http://www.w3.org/2000/svg" width="73.347" height="73.347" viewBox="0 0 73.347 73.347">
  <g id="Grupo_115979" data-name="Grupo 115979" transform="translate(-1123.632 -158.985)">
    <path id="Trazado_173041" data-name="Trazado 173041" d="M1126.108,170.014c-.2,0-.4-.01-.606-.01-1.912,0-1.9,0-1.859,1.942.008.379.081.536.5.511.655-.038,1.313-.016,1.969-.02,0,.2-.011.4-.011.606,0,1.911,0,1.9,1.942,1.858.379-.008.536-.08.512-.5-.039-.654-.017-1.312-.021-1.969.2,0,.4.01.606.01,1.912,0,1.9,0,1.859-1.942-.008-.379-.081-.536-.5-.511-.655.039-1.313.016-1.969.02,0-.2.011-.4.011-.606,0-1.911,0-1.9-1.941-1.859-.379.008-.536.08-.512.5C1126.126,168.7,1126.1,169.358,1126.108,170.014Zm64.75-6.132c.2,0,.4.011.606.011,1.911,0,1.9,0,1.859-1.942-.008-.38-.082-.535-.5-.511-.655.039-1.313.016-1.969.02,0-.2.01-.4.011-.606,0-1.911,0-1.9-1.942-1.859-.379.008-.536.08-.512.5.039.654.017,1.312.021,1.969-.2,0-.4-.01-.606-.01-1.912,0-1.9,0-1.859,1.941.008.378.079.537.5.512.655-.039,1.313-.017,1.969-.021,0,.2-.01.4-.01.606,0,1.912,0,1.9,1.942,1.859.379-.008.536-.08.511-.5C1190.84,165.2,1190.862,164.539,1190.858,163.882Zm-13.433,14.157c0-5.564,0-10.933,0-16.3,0-1.113-.4-1.508-1.508-1.509q-5.8,0-11.609,0c-1.168,0-1.546.378-1.547,1.546,0,4.175-.007,8.35.009,12.525,0,.437-.057.624-.565.606-1.272-.042-2.546-.035-3.818,0a.726.726,0,0,1-.8-.5,15.079,15.079,0,0,0-1.539-2.875,1.122,1.122,0,0,1-.126-1.246q1.431-3.392,2.805-6.808a2.1,2.1,0,0,0-.5-2.44,2.155,2.155,0,0,0-2.479-.311,13.639,13.639,0,0,0-1.559.788c-.483.308-.784.273-1.09-.233a12.812,12.812,0,0,0-1-1.345,2.094,2.094,0,0,0-3.26-.223q-.775.736-1.511,1.513c-.234.248-.376.259-.574-.037-.283-.422-.6-.823-.911-1.223a2.09,2.09,0,0,0-3.307-.224c-.642.618-1.283,1.238-1.885,1.894a.807.807,0,0,1-.942.243c-.872-.263-1.757-.482-2.624-.76a2.169,2.169,0,0,0-2.613.642,2.216,2.216,0,0,0-.046,2.634c1.09,1.974,2.144,3.968,3.241,5.937a.718.718,0,0,1-.146,1.034,8.922,8.922,0,0,0-1.149,1.419,24.049,24.049,0,0,0-4.1,11.553,32.336,32.336,0,0,0,.013,6.178,7.209,7.209,0,0,0,7.338,6.38q22.951,0,45.9,0h.9c-.847,1.7-1.649,3.308-2.441,4.917a.984.984,0,0,1-.594.432c-1.883.809-3.774,1.6-5.645,2.439-.464.208-.6.1-.8-.336a5.92,5.92,0,0,0-5.729-3.783c-5.907-.008-11.813,0-17.72,0a33.285,33.285,0,0,0-11.9,2.217,36.691,36.691,0,0,0-5.719,2.813c0-.932.007-1.763,0-2.594a2.384,2.384,0,0,0-2.4-2.43q-3.7-.018-7.408,0a2.376,2.376,0,0,0-2.412,2.412q-.009,13.479,0,26.959a2.374,2.374,0,0,0,2.354,2.393q3.743.024,7.485,0a2.393,2.393,0,0,0,2.377-2.373,13.57,13.57,0,0,0-.011-1.755c-.074-.66.174-.772.789-.771,8.936.022,17.872.009,26.808.02a30.051,30.051,0,0,0,6.285-.608c11.049-2.339,18.907-8.694,23.693-18.882a39.16,39.16,0,0,0,2.84-10.524,4.671,4.671,0,0,0-3.248-5.265,4.876,4.876,0,0,0-3.381.3c0-1.61.027-3.16-.015-4.708-.015-.548.148-.735.672-.645.124.021.255,0,.381,0a1.189,1.189,0,0,0,1.3-.72,1.263,1.263,0,0,0-.365-1.509q-4.759-4.746-9.509-9.5a1.25,1.25,0,0,0-2.046.005C1179.219,176.223,1178.388,177.072,1177.426,178.039Zm-48.885-17.886c0,1.3,0,1.3,1.3,1.3,1.144,0,1.144,0,1.144-1.148,0-1.3,0-1.3-1.3-1.3C1128.541,159.005,1128.541,159.005,1128.541,160.154Zm58.717,13.516c1.167,0,1.167,0,1.167-1.125,0-1.319,0-1.319-1.354-1.319-1.091,0-1.091,0-1.091,1.125C1185.98,173.67,1185.98,173.67,1187.258,173.67Zm9.722-4.848c0-1.262,0-1.262-1.258-1.262-1.186,0-1.186,0-1.186,1.182,0,1.263,0,1.263,1.258,1.263C1196.98,170,1196.98,170,1196.98,168.822Zm-72.04,13.4c1.157,0,1.157,0,1.157-1.134,0-1.31,0-1.31-1.287-1.31-1.157,0-1.157,0-1.157,1.134C1123.653,182.224,1123.653,182.224,1124.94,182.224Z" fill="#fff"/>
    <path id="Trazado_173042" data-name="Trazado 173042" d="M1177.473,178.144c.962-.967,1.794-1.817,2.64-2.65a1.25,1.25,0,0,1,2.046-.005q4.76,4.744,9.509,9.5a1.263,1.263,0,0,1,.365,1.509,1.189,1.189,0,0,1-1.3.72c-.126-.009-.257.017-.381,0-.524-.09-.687.1-.672.645.041,1.548.015,3.1.015,4.708a4.877,4.877,0,0,1,3.382-.3,4.671,4.671,0,0,1,3.248,5.265,39.165,39.165,0,0,1-2.84,10.524c-4.786,10.187-12.644,16.543-23.693,18.882a30.052,30.052,0,0,1-6.285.608c-8.936-.011-17.872,0-26.808-.02-.616,0-.863.11-.789.771a13.526,13.526,0,0,1,.011,1.755,2.393,2.393,0,0,1-2.377,2.373q-3.743.021-7.485,0a2.374,2.374,0,0,1-2.354-2.393q-.009-13.479,0-26.959a2.376,2.376,0,0,1,2.412-2.412q3.7-.016,7.408,0a2.384,2.384,0,0,1,2.4,2.43c.009.831,0,1.662,0,2.594a36.687,36.687,0,0,1,5.72-2.813,33.285,33.285,0,0,1,11.9-2.217c5.907.006,11.813,0,17.72,0a5.92,5.92,0,0,1,5.729,3.783c.2.44.333.544.8.336,1.87-.837,3.761-1.63,5.644-2.439a.984.984,0,0,0,.594-.432c.792-1.609,1.594-3.214,2.441-4.917h-.9q-22.951,0-45.9,0a7.209,7.209,0,0,1-7.338-6.38,32.346,32.346,0,0,1-.013-6.178,24.051,24.051,0,0,1,4.1-11.553,8.917,8.917,0,0,1,1.149-1.419.718.718,0,0,0,.146-1.034c-1.1-1.969-2.151-3.963-3.241-5.937a2.216,2.216,0,0,1,.046-2.634,2.169,2.169,0,0,1,2.613-.642c.866.278,1.752.5,2.624.76a.806.806,0,0,0,.942-.243c.6-.656,1.244-1.276,1.885-1.894a2.09,2.09,0,0,1,3.307.224c.314.4.629.8.911,1.223.2.3.34.285.574.037q.733-.778,1.511-1.513a2.094,2.094,0,0,1,3.26.223,12.831,12.831,0,0,1,1,1.345c.306.506.607.541,1.09.233a13.606,13.606,0,0,1,1.559-.788,2.154,2.154,0,0,1,2.479.311,2.105,2.105,0,0,1,.5,2.44q-1.378,3.414-2.805,6.808a1.122,1.122,0,0,0,.126,1.246,15.092,15.092,0,0,1,1.539,2.875.726.726,0,0,0,.8.5c1.272-.032,2.547-.04,3.818,0,.508.017.567-.17.565-.606-.015-4.175-.01-8.35-.009-12.525,0-1.168.379-1.546,1.547-1.546q5.8,0,11.609,0c1.112,0,1.508.4,1.509,1.509C1177.474,167.211,1177.473,172.581,1177.473,178.144Zm-17.113,16.379c.584.009,1.172-.022,1.752.036s.712-.143.709-.71c-.024-4.7-.007-9.406-.021-14.109,0-.751.338-1.811-.15-2.173-.509-.377-1.506-.1-2.29-.1-1.881-.008-3.763-.008-5.644-.032-.368,0-.47.111-.47.474q.015,8.087,0,16.174c0,.363.1.479.47.474C1156.6,194.531,1158.479,194.531,1160.36,194.523ZM1175,177.576c.009-4.781.01-9.562.039-14.343,0-.552-.317-.457-.636-.457-2.8,0-5.6.024-8.394-.018-.658-.01-.774.187-.772.8q.031,13.238.014,26.476c0,1.323.016,2.646-.009,3.968-.008.425.107.571.546.555,1.041-.038,2.084-.026,3.126-.035,1.017.009,2.035-.009,3.051.036.506.023.637-.14.63-.635-.028-1.882-.011-3.765-.011-5.647,0-1.046,0-1.064-1.019-1.055a1.265,1.265,0,0,1-1.341-.789,1.249,1.249,0,0,1,.394-1.441c.851-.839,1.692-1.689,2.537-2.535,1.981-1.982,1.981-1.982,1.857-4.808A.659.659,0,0,0,1175,177.576ZM1150.742,225.1c4.1,0,8.2-.006,12.3,0a30.292,30.292,0,0,0,6.367-.6,29.971,29.971,0,0,0,21.023-15.779,34.975,34.975,0,0,0,3.483-11.832,1.958,1.958,0,0,0-1.065-2.04,2.111,2.111,0,0,0-3.052,1.035q-1.839,3.628-3.63,7.28a2.45,2.45,0,0,1-1.322,1.274c-2.315.963-4.616,1.961-6.923,2.944a.861.861,0,0,0-.622.662,6.031,6.031,0,0,1-6.1,4.83q-8.9,0-17.8,0c-1.593,0-1.547,0-1.613-1.621-.03-.741.235-.839.885-.837q9.28.035,18.56.011a3.665,3.665,0,1,0,.009-7.325c-5.958-.008-11.916-.044-17.873.014a31.1,31.1,0,0,0-16.944,5.19,1,1,0,0,0-.516.978q.028,7.561,0,15.122c0,.572.136.707.706.7C1141.322,225.087,1146.032,225.1,1150.742,225.1Zm4.328-50.144c-.361-.661-.681-1.2-.957-1.764a1.028,1.028,0,0,0-1.078-.609c-4.1.01-8.193.005-12.288-.047a1.8,1.8,0,0,0-1.6.787,22.92,22.92,0,0,0-3.531,6.953,27.55,27.55,0,0,0-.919,9.051,4.943,4.943,0,0,0,5.2,5.222q5.458.006,10.916,0c.995,0,1,0,.994-1.005q-.02-8.548-.041-17.1c0-1.023.426-1.479,1.387-1.492C1153.739,174.948,1154.324,174.954,1155.07,174.954Zm-28.927,41.552c0,4.251.014,8.5-.016,12.753,0,.617.178.751.76.741,1.985-.035,3.971-.028,5.957,0,.484.006.644-.107.642-.622q-.025-12.829,0-25.659c0-.514-.156-.63-.642-.624-1.985.026-3.972.032-5.957,0-.58-.01-.766.12-.761.74C1126.158,208.054,1126.144,212.28,1126.144,216.506Zm16.209-46.561a1.454,1.454,0,0,0-.215-.644c-.838-1.821-.836-1.811,1.024-2.57.3-.124.434-.114.571.2.272.628.632,1.219.878,1.856a1.761,1.761,0,0,0,2.169,1.3c.389-.067.635-.123.808-.5.335-.738.694-1.469,1.1-2.172.918-1.6.921-1.572,2.578-.726.449.229.446.435.245.818-.435.825-.838,1.666-1.285,2.561.929,0,1.767-.028,2.6.012a.683.683,0,0,0,.78-.52c.437-1.134.913-2.253,1.37-3.379.343-.844.679-1.691,1.06-2.641-.54.266-.946.471-1.356.666a2.178,2.178,0,0,1-3.016-.693c-.344-.441-.691-.882-1-1.344-.217-.319-.368-.315-.624-.033-.427.471-.888.911-1.345,1.354a2.144,2.144,0,0,1-3.521-.257c-.356-.456-.7-.921-1.088-1.433-.721.73-1.4,1.42-2.078,2.1a2.205,2.205,0,0,1-2.372.594c-.864-.264-1.741-.487-2.759-.768.888,1.636,1.793,3.105,2.5,4.665C1139.977,169.732,1140.7,170.579,1142.353,169.945Zm45.335,14.762c-.014-.069-.008-.13-.035-.157-2.064-2.067-4.14-4.122-6.189-6.2-.341-.346-.486-.148-.711.078q-2.582,2.591-5.172,5.174c-.348.348-.7.691-1.128,1.11Zm-6.539,2.517c-1.857,0-3.714.013-5.571-.01-.423-.005-.559.1-.552.54.026,1.653.01,3.307.01,4.96,0,1.854,0,1.828,1.839,1.843.54,0,.609-.191.6-.65-.026-1.347-.015-2.7-.008-4.044.005-.985.453-1.427,1.449-1.431q2.251-.009,4.5,0a1.242,1.242,0,0,1,1.392,1.412c.008.967,0,1.933,0,2.9,0,1.833,0,1.811,1.87,1.811.5,0,.574-.16.569-.6-.023-2.009-.031-4.019,0-6.028.009-.547-.093-.733-.69-.718C1184.761,187.254,1182.954,187.224,1181.148,187.224Zm-1.231,5.424c0,2.019,0,2.007,1.992,1.911.374-.018.467-.133.459-.484-.021-.861-.039-1.725.005-2.584.026-.513-.151-.622-.635-.62C1179.917,190.875,1179.917,190.858,1179.917,192.648Z" transform="translate(-0.047 -0.105)" fill="#070705"/>
    <path id="Trazado_173043" data-name="Trazado 173043" d="M1140.905,160.2c0-1.148,0-1.148,1.143-1.148,1.3,0,1.3,0,1.3,1.3,0,1.148,0,1.148-1.144,1.148C1140.905,161.5,1140.905,161.5,1140.905,160.2Z" transform="translate(-12.364 -0.051)" fill="#070705"/>
    <path id="Trazado_173044" data-name="Trazado 173044" d="M1351.605,161.46c0-.656.018-1.314-.021-1.969-.025-.415.133-.487.512-.5,1.945-.041,1.945-.052,1.942,1.859,0,.2-.007.4-.011.606l.022-.021h-2.465Z" transform="translate(-163.169)" fill="#070705"/>
    <path id="Trazado_173045" data-name="Trazado 173045" d="M1345.427,170.062c-.656,0-1.315-.018-1.969.021-.416.025-.487-.134-.5-.512-.041-1.944-.052-1.944,1.859-1.941.2,0,.4.007.606.01l-.022-.021v2.465Z" transform="translate(-156.992 -6.18)" fill="#070705"/>
    <path id="Trazado_173046" data-name="Trazado 173046" d="M1360.185,167.637c.656,0,1.315.019,1.969-.02.414-.024.488.131.5.511.041,1.945.052,1.946-1.859,1.942-.2,0-.4-.007-.606-.011l.021.022v-2.465Z" transform="translate(-169.327 -6.177)" fill="#070705"/>
    <path id="Trazado_173047" data-name="Trazado 173047" d="M1354.031,176.216c0,.657-.019,1.315.02,1.969.024.415-.132.488-.511.5-1.945.042-1.945.053-1.942-1.859,0-.2.006-.4.01-.606l-.021.022h2.465Z" transform="translate(-163.173 -12.334)" fill="#070705"/>
    <path id="Trazado_173048" data-name="Trazado 173048" d="M1344.3,204.5c-1.277,0-1.277,0-1.277-1.319,0-1.125,0-1.125,1.091-1.125,1.354,0,1.354,0,1.354,1.319C1345.467,204.5,1345.467,204.5,1344.3,204.5Z" transform="translate(-157.043 -30.83)" fill="#070705"/>
    <path id="Trazado_173049" data-name="Trazado 173049" d="M1134.71,206.32c0,.656-.018,1.314.021,1.969.025.415-.133.487-.511.5-1.945.042-1.945.053-1.942-1.858,0-.2.007-.4.011-.606l-.022.021h2.465Z" transform="translate(-6.181 -33.883)" fill="#070705"/>
    <path id="Trazado_173050" data-name="Trazado 173050" d="M1132.285,191.56c0-.656.018-1.314-.021-1.969-.025-.415.133-.487.512-.5,1.945-.041,1.945-.052,1.942,1.859,0,.2-.007.4-.011.606l.022-.021h-2.465Z" transform="translate(-6.177 -21.546)" fill="#070705"/>
    <path id="Trazado_173051" data-name="Trazado 173051" d="M1375.57,190.418c0,1.182,0,1.182-1.186,1.182-1.258,0-1.258,0-1.258-1.263,0-1.182,0-1.182,1.186-1.182C1375.57,189.156,1375.57,189.156,1375.57,190.418Z" transform="translate(-178.591 -21.596)" fill="#070705"/>
    <path id="Trazado_173052" data-name="Trazado 173052" d="M1126.108,200.163c-.657,0-1.315-.019-1.969.02-.415.025-.488-.132-.5-.511-.041-1.945-.052-1.945,1.859-1.942.2,0,.4.007.606.01l-.022-.021v2.465Z" transform="translate(0 -27.726)" fill="#070705"/>
    <path id="Trazado_173053" data-name="Trazado 173053" d="M1140.865,197.737c.657,0,1.315.019,1.969-.02.415-.024.488.132.5.511.041,1.945.052,1.945-1.859,1.942-.2,0-.4-.007-.606-.01l.022.021v-2.465Z" transform="translate(-12.335 -27.723)" fill="#070705"/>
    <path id="Trazado_173054" data-name="Trazado 173054" d="M1124.99,234.6c-1.287,0-1.287,0-1.287-1.31,0-1.134,0-1.134,1.157-1.134,1.287,0,1.287,0,1.287,1.31C1126.147,234.6,1126.147,234.6,1124.99,234.6Z" transform="translate(-0.051 -52.376)" fill="#070705"/>
    <path id="Trazado_173055" data-name="Trazado 173055" d="M1181.492,314.293c-4.71,0-9.42-.011-14.13.014-.569,0-.708-.132-.706-.7q.038-7.561,0-15.122a1.006,1.006,0,0,1,.516-.978,31.1,31.1,0,0,1,16.944-5.19c5.957-.058,11.915-.022,17.873-.014a3.665,3.665,0,1,1-.009,7.325q-9.28.013-18.561-.011c-.649,0-.915.1-.884.837.066,1.619.02,1.621,1.613,1.621q8.9,0,17.8,0a6.031,6.031,0,0,0,6.1-4.83.861.861,0,0,1,.622-.662c2.307-.983,4.608-1.982,6.923-2.944a2.45,2.45,0,0,0,1.322-1.274q1.789-3.653,3.63-7.28a2.111,2.111,0,0,1,3.052-1.035,1.958,1.958,0,0,1,1.065,2.04,34.969,34.969,0,0,1-3.483,11.832,29.971,29.971,0,0,1-21.023,15.779,30.289,30.289,0,0,1-6.367.6C1189.69,314.287,1185.591,314.293,1181.492,314.293Z" transform="translate(-30.797 -89.3)" fill="#feddc5"/>
    <path id="Trazado_173056" data-name="Trazado 173056" d="M1182.746,208.712c-.747,0-1.332-.007-1.917,0-.96.013-1.388.469-1.386,1.492q.017,8.548.041,17.1c0,1.005,0,1.005-.994,1.005q-5.458,0-10.916,0a4.943,4.943,0,0,1-5.2-5.222,27.556,27.556,0,0,1,.919-9.051,22.923,22.923,0,0,1,3.531-6.953,1.8,1.8,0,0,1,1.6-.787c4.1.052,8.192.057,12.288.047a1.028,1.028,0,0,1,1.078.609C1182.065,207.51,1182.385,208.051,1182.746,208.712Zm-8.162,6.152c.661,0,1.322.005,1.983,0,.161,0,.351.073.461-.147a1.609,1.609,0,0,0-1.416-2.293c-.2,0-.407-.012-.61,0-.275.019-.473-.057-.4-.37.21-.929-.382-.89-1-.858a10.133,10.133,0,0,1-1.067,0c-.3-.016-.44.1-.383.394.166.828-.3.867-.941.844-1.093-.038-1.5.406-1.506,1.51q0,1.526,0,3.051c0,1.111.411,1.531,1.495,1.535.941,0,1.883.03,2.822-.011.488-.022.588.145.587.6,0,.47-.087.665-.617.647-1.244-.042-2.491-.018-3.737-.008-.182,0-.41-.1-.537.146a1.607,1.607,0,0,0,1.411,2.293c.2,0,.408.012.61,0,.273-.018.475.053.4.368-.208.926.377.894.995.86a9.9,9.9,0,0,1,1.068,0c.3.015.44-.1.384-.393-.153-.81.286-.874.939-.847,1.09.044,1.5-.409,1.508-1.51q.005-1.525,0-3.051c0-1.111-.411-1.529-1.5-1.534-.915,0-1.831-.02-2.746.007-.452.013-.688-.047-.664-.6.02-.469.094-.685.622-.643C1173.361,214.9,1173.974,214.864,1174.584,214.864Z" transform="translate(-27.723 -33.862)" fill="#ffef0f"/>
    <path id="Trazado_173057" data-name="Trazado 173057" d="M1273.544,203.658c-1.042.009-2.085,0-3.126.035-.44.016-.554-.13-.546-.555.026-1.322.009-2.645.009-3.968q0-13.238-.014-26.476c0-.613.114-.81.772-.8,2.8.042,5.6.018,8.394.018.319,0,.639-.1.636.457-.028,4.781-.029,9.562-.039,14.343l-2.431,2.318c-1.182-.024-1.182-.024-1.211,1.121,0,.075-.016.149-.025.223l-4.61,4.756a12.915,12.915,0,0,0,1.306-.008c.665-.069.921.119.907.857C1273.516,198.537,1273.545,201.1,1273.544,203.658Zm-1.219-13.47a5.938,5.938,0,0,1-.006.758c-.059.461.163.516.563.534.513.023.743-.1.674-.654a4.992,4.992,0,0,1,0-1.136c.054-.507-.081-.7-.641-.693-.539,0-.645.208-.592.661A4.6,4.6,0,0,1,1272.324,190.187Zm1.222-14.589c0-.278-.019-.558.005-.834.031-.349-.138-.39-.442-.422-.6-.063-.9.089-.795.759a4.52,4.52,0,0,1,0,1.06c-.04.456.058.657.6.66.562,0,.71-.19.637-.694A3.728,3.728,0,0,1,1273.547,175.6Zm3.667-.026a4.217,4.217,0,0,1,0-.606c.073-.5-.129-.626-.62-.631-.509-.005-.663.155-.614.64a6.2,6.2,0,0,1,0,1.136c-.04.475.032.71.622.713.606,0,.659-.262.61-.722A4.992,4.992,0,0,1,1277.213,175.572Zm-1.222,4.819a5.037,5.037,0,0,1-.005.682c-.069.5.124.631.619.633s.665-.149.617-.638a6.137,6.137,0,0,1,0-1.212c.051-.5-.127-.631-.622-.633s-.683.15-.613.638A3.765,3.765,0,0,1,1275.991,180.391Zm-2.444,4.973a4.848,4.848,0,0,1,0-.606c.06-.472-.086-.638-.6-.65-.583-.014-.677.217-.63.7a6.494,6.494,0,0,1,0,1.061c-.031.45-.013.735.6.729.579-.006.689-.221.626-.706A4.107,4.107,0,0,1,1273.547,185.364Zm0-4.852a5.524,5.524,0,0,1,0-.682c.057-.448-.079-.607-.568-.608-.52,0-.734.12-.667.665a4.951,4.951,0,0,1,0,1.136c-.057.517.1.685.648.687s.634-.223.586-.667A4.928,4.928,0,0,1,1273.547,180.512Zm2.444,4.771a4.883,4.883,0,0,1-.005.682c-.072.5.135.623.623.629.512.007.658-.159.613-.642a6.158,6.158,0,0,1,0-1.212c.053-.505-.138-.623-.626-.629-.512-.007-.676.161-.609.641A3.883,3.883,0,0,1,1275.991,185.283Z" transform="translate(-104.676 -9.239)" fill="#6677d6"/>
    <path id="Trazado_173058" data-name="Trazado 173058" d="M1132.264,327.225c0-4.226.015-8.451-.016-12.677,0-.62.181-.75.761-.74,1.985.035,3.972.028,5.957,0,.485-.006.643.11.642.624q-.025,12.829,0,25.659c0,.516-.159.629-.642.622-1.986-.025-3.972-.032-5.957,0-.582.011-.765-.123-.761-.741C1132.279,335.727,1132.264,331.476,1132.264,327.225Zm4.889-7.915c0-1.864,0-1.864-1.863-1.822a1.013,1.013,0,0,1-.152,0c-.335-.044-.44.1-.434.433.017.941.007,1.883.006,2.825,0,.211-.009.417.3.409a5.2,5.2,0,0,0,2.017-.111c.378-.188.078-1.032.129-1.58C1137.157,319.412,1137.153,319.361,1137.153,319.31Z" transform="translate(-6.168 -110.824)" fill="#6677d6"/>
    <path id="Trazado_173059" data-name="Trazado 173059" d="M1237.3,240.62c-1.881.009-3.763.008-5.644.032-.368,0-.47-.111-.47-.474q.015-8.087,0-16.174c0-.363.1-.479.47-.474,1.881.024,3.763.024,5.644.032q.009,1.215.019,2.43v12.2Q1237.313,239.406,1237.3,240.62Zm-2.441-13.352a4.737,4.737,0,0,1,.005-.682c.076-.514-.15-.612-.628-.624-.522-.013-.649.174-.607.647a6.184,6.184,0,0,1,0,1.212c-.057.515.154.612.631.624.522.012.666-.175.6-.647A4.085,4.085,0,0,1,1234.862,227.268Zm0,4.872a5.5,5.5,0,0,1,0-.682c.056-.447-.077-.608-.568-.609-.519,0-.735.118-.668.665a4.955,4.955,0,0,1,0,1.136c-.057.516.1.686.647.688s.635-.223.587-.667A4.928,4.928,0,0,1,1234.862,232.14Zm-1.223,4.766a5,5,0,0,1-.005.682c-.069.5.124.631.619.633s.665-.149.617-.638a6.118,6.118,0,0,1,0-1.212c.051-.5-.127-.631-.622-.633s-.683.15-.613.638A3.746,3.746,0,0,1,1233.64,236.906Z" transform="translate(-76.99 -46.202)" fill="#6677d6"/>
    <path id="Trazado_173060" data-name="Trazado 173060" d="M1175.533,176.658c-1.651.634-2.376-.213-2.982-1.553-.706-1.56-1.611-3.029-2.5-4.665,1.018.281,1.9.5,2.759.768a2.205,2.205,0,0,0,2.372-.594c.681-.684,1.357-1.374,2.078-2.1.388.512.732.977,1.088,1.433a2.144,2.144,0,0,0,3.521.257c.457-.443.919-.883,1.345-1.354.255-.282.407-.286.624.033.314.462.66.9,1,1.344a2.178,2.178,0,0,0,3.016.693c.411-.195.816-.4,1.356-.666-.381.95-.718,1.8-1.06,2.641-.457,1.126-.933,2.245-1.37,3.379a.683.683,0,0,1-.78.52c-.835-.04-1.673-.012-2.6-.012.447-.9.849-1.737,1.285-2.561.2-.383.2-.589-.244-.818-1.656-.846-1.66-.874-2.578.726-.4.7-.762,1.434-1.1,2.172-.173.381-.419.438-.808.5a1.761,1.761,0,0,1-2.169-1.3c-.246-.637-.606-1.228-.878-1.856-.137-.316-.268-.326-.571-.2-1.86.76-1.862.75-1.024,2.57A1.453,1.453,0,0,1,1175.533,176.658Z" transform="translate(-33.228 -6.818)" fill="#c6412a"/>
    <path id="Trazado_173061" data-name="Trazado 173061" d="M1277.29,240.981c0-2.56-.028-5.12.022-7.68.015-.738-.242-.927-.907-.857a12.91,12.91,0,0,1-1.306.008l4.61-4.756a1.878,1.878,0,0,1,.025.3c-.037.492-.032.833.677.816.77-.018.526-.5.541-.867.022-.531,0-1.063-.008-1.6l2.431-2.318a.673.673,0,0,1,.012.075c.124,2.826.124,2.826-1.857,4.808-.845.846-1.686,1.7-2.538,2.535a1.249,1.249,0,0,0-.394,1.441,1.265,1.265,0,0,0,1.341.789c1.019-.01,1.019.008,1.019,1.055,0,1.882-.017,3.765.011,5.647.007.5-.124.658-.63.635C1279.325,240.972,1278.307,240.989,1277.29,240.981Z" transform="translate(-108.422 -46.563)" fill="#0056a2"/>
    <path id="Trazado_173062" data-name="Trazado 173062" d="M1315.526,232.63h-13.235c.427-.419.78-.762,1.129-1.11q2.588-2.585,5.172-5.174c.225-.226.371-.424.711-.078,2.049,2.082,4.125,4.137,6.189,6.2C1315.519,232.5,1315.512,232.561,1315.526,232.63Z" transform="translate(-127.886 -48.028)" fill="#4e2e8e"/>
    <path id="Trazado_173063" data-name="Trazado 173063" d="M1310.431,257.938c1.806,0,3.613.03,5.417-.017.6-.015.7.171.69.718-.034,2.009-.026,4.018,0,6.028.005.444-.071.6-.569.6-1.87,0-1.87.022-1.87-1.811,0-.967.006-1.933,0-2.9a1.242,1.242,0,0,0-1.392-1.412q-2.251-.013-4.5,0c-1,0-1.444.446-1.449,1.431-.007,1.348-.019,2.7.008,4.044.009.459-.06.654-.6.65-1.838-.014-1.839.011-1.839-1.843,0-1.653.016-3.307-.01-4.96-.007-.44.129-.545.552-.54C1306.717,257.951,1308.574,257.938,1310.431,257.938Z" transform="translate(-129.33 -70.819)" fill="#fff"/>
    <path id="Trazado_173064" data-name="Trazado 173064" d="M1252.7,240.464q.009-1.214.018-2.43c1.207.028,1.207.028,1.207-1.136v-.151c0-1.163,0-1.163-1.207-1.136v-2.466c1.207.028,1.207.028,1.207-1.136v-.151c0-1.163,0-1.163-1.207-1.136v-2.466c1.207.028,1.207.028,1.207-1.136v-.151c0-1.163,0-1.163-1.207-1.136q-.009-1.215-.018-2.43c.784.007,1.781-.275,2.29.1.488.361.148,1.422.15,2.173.014,4.7,0,9.406.021,14.109,0,.567-.13.768-.709.71S1253.288,240.472,1252.7,240.464Z" transform="translate(-92.391 -46.046)" fill="#0056a2"/>
    <path id="Trazado_173065" data-name="Trazado 173065" d="M1321.522,272.593c0-1.79,0-1.773,1.821-1.778.483,0,.661.108.635.62-.044.859-.026,1.723-.005,2.584.008.351-.085.466-.459.484C1321.521,274.6,1321.522,274.612,1321.522,272.593Z" transform="translate(-141.652 -80.049)" fill="#4d89c9"/>
    <circle id="Elipse_12486" data-name="Elipse 12486" cx="1.743" cy="1.743" r="1.743" transform="translate(1187.901 164.413) rotate(-89.929)" fill="#fff"/>
    <circle id="Elipse_12487" data-name="Elipse 12487" cx="1.743" cy="1.743" r="1.743" transform="translate(1125.573 169.485) rotate(-0.075)" fill="#fff"/>
    <path id="Trazado_173066" data-name="Trazado 173066" d="M1192.707,227.182c-.61,0-1.223.038-1.83-.011-.529-.043-.6.173-.622.643-.023.552.213.612.664.6.915-.028,1.831-.011,2.746-.007,1.086,0,1.493.423,1.5,1.534q0,1.526,0,3.051c0,1.1-.418,1.554-1.508,1.51-.653-.026-1.092.037-.939.847.055.292-.087.408-.384.393a9.909,9.909,0,0,0-1.068,0c-.617.034-1.2.066-.995-.86.071-.315-.132-.386-.4-.368-.2.014-.407,0-.61,0a1.607,1.607,0,0,1-1.411-2.293c.127-.248.355-.144.537-.146,1.246-.01,2.493-.034,3.737.008.53.018.617-.177.617-.647,0-.455-.1-.622-.587-.6-.939.042-1.881.015-2.822.011-1.084,0-1.492-.424-1.5-1.535q0-1.525,0-3.051c0-1.1.414-1.549,1.506-1.51.642.022,1.106-.016.941-.844-.058-.29.083-.41.382-.394a10.139,10.139,0,0,0,1.068,0c.614-.032,1.206-.071,1,.858-.071.313.128.389.4.37.2-.014.407,0,.61,0a1.609,1.609,0,0,1,1.416,2.293c-.11.22-.3.145-.461.147C1194.029,227.187,1193.368,227.182,1192.707,227.182Z" transform="translate(-45.845 -46.18)" fill="#070705"/>
    <path id="Trazado_173067" data-name="Trazado 173067" d="M1278.478,233.266a4.576,4.576,0,0,0,0-.531c-.053-.453.053-.658.592-.661.56,0,.7.186.641.693a4.992,4.992,0,0,0,0,1.136c.069.555-.161.678-.674.654-.4-.018-.622-.074-.562-.534A5.938,5.938,0,0,0,1278.478,233.266Z" transform="translate(-110.829 -52.318)" fill="#070705"/>
    <path id="Trazado_173068" data-name="Trazado 173068" d="M1279.665,181.735a3.71,3.71,0,0,0,0,.53c.074.5-.075.7-.637.694-.538,0-.635-.2-.6-.66a4.514,4.514,0,0,0,0-1.06c-.1-.67.192-.822.795-.759.3.032.472.073.442.422C1279.645,181.177,1279.665,181.457,1279.665,181.735Z" transform="translate(-110.794 -15.376)" fill="#070705"/>
    <path id="Trazado_173069" data-name="Trazado 173069" d="M1292.6,181.725a5.025,5.025,0,0,0,0,.531c.049.46,0,.724-.61.722-.59,0-.662-.238-.622-.713a6.2,6.2,0,0,0,0-1.136c-.049-.485.105-.645.614-.64.491,0,.693.13.62.631A4.217,4.217,0,0,0,1292.6,181.725Z" transform="translate(-120.063 -15.392)" fill="#070705"/>
    <path id="Trazado_173070" data-name="Trazado 173070" d="M1291.371,198.855a3.765,3.765,0,0,0,0-.53c-.07-.488.108-.641.613-.638s.673.135.622.633a6.146,6.146,0,0,0,0,1.212c.048.489-.112.641-.617.638s-.687-.136-.619-.633A5.057,5.057,0,0,0,1291.371,198.855Z" transform="translate(-120.056 -27.703)" fill="#070705"/>
    <path id="Trazado_173071" data-name="Trazado 173071" d="M1292.555,232.176c0,.532.03,1.065.008,1.6-.015.367.229.849-.541.867-.709.016-.714-.325-.677-.816a1.878,1.878,0,0,0-.025-.3c.009-.075.023-.149.025-.224C1291.374,232.151,1291.373,232.151,1292.555,232.176Z" transform="translate(-120.033 -52.386)" fill="#070705"/>
    <path id="Trazado_173072" data-name="Trazado 173072" d="M1279.7,216.13a4.107,4.107,0,0,0,0,.53c.063.485-.047.7-.626.706-.618.007-.636-.279-.6-.729a6.48,6.48,0,0,0,0-1.061c-.047-.487.047-.718.63-.7.517.012.664.178.6.65A4.824,4.824,0,0,0,1279.7,216.13Z" transform="translate(-110.825 -40.005)" fill="#070705"/>
    <path id="Trazado_173073" data-name="Trazado 173073" d="M1279.688,198.974a4.928,4.928,0,0,0,0,.531c.048.444-.035.669-.586.667s-.705-.17-.648-.687a4.951,4.951,0,0,0,0-1.136c-.066-.546.147-.667.668-.665.489,0,.625.16.568.608A5.5,5.5,0,0,0,1279.688,198.974Z" transform="translate(-110.817 -27.701)" fill="#070705"/>
    <path id="Trazado_173074" data-name="Trazado 173074" d="M1291.37,216.059a3.9,3.9,0,0,0,0-.531c-.067-.481.1-.649.609-.641.488.007.679.124.626.629a6.149,6.149,0,0,0,0,1.212c.046.482-.1.649-.613.642-.487-.007-.694-.125-.623-.629A4.883,4.883,0,0,0,1291.37,216.059Z" transform="translate(-120.055 -40.015)" fill="#070705"/>
    <path id="Trazado_173075" data-name="Trazado 173075" d="M1143.334,328.552c0,.051,0,.1,0,.153-.051.548.249,1.392-.129,1.58a5.2,5.2,0,0,1-2.017.111c-.307.008-.3-.2-.3-.409,0-.942.012-1.884-.006-2.825-.006-.33.1-.477.434-.433a1.012,1.012,0,0,0,.153,0C1143.334,326.689,1143.334,326.689,1143.334,328.552Z" transform="translate(-12.348 -120.067)" fill="#070705"/>
    <path id="Trazado_173076" data-name="Trazado 173076" d="M1240.991,233.392a4.064,4.064,0,0,0,0,.53c.062.472-.082.659-.6.647-.478-.012-.688-.109-.631-.624a6.184,6.184,0,0,0,0-1.212c-.042-.473.085-.659.607-.647.478.012.7.111.628.624A4.719,4.719,0,0,0,1240.991,233.392Z" transform="translate(-83.119 -52.326)" fill="#070705"/>
    <path id="Trazado_173077" data-name="Trazado 173077" d="M1252.769,232.177c1.207-.028,1.207-.028,1.207,1.136v.151c0,1.164,0,1.164-1.207,1.136Z" transform="translate(-92.438 -52.387)" fill="#070705"/>
    <path id="Trazado_173078" data-name="Trazado 173078" d="M1240.984,250.575a4.928,4.928,0,0,0,0,.531c.048.444-.036.668-.587.667s-.7-.172-.647-.688a4.962,4.962,0,0,0,0-1.136c-.067-.547.149-.666.668-.665.491,0,.624.162.568.609A5.524,5.524,0,0,0,1240.984,250.575Z" transform="translate(-83.112 -64.637)" fill="#070705"/>
    <path id="Trazado_173079" data-name="Trazado 173079" d="M1252.769,249.377c1.207-.028,1.207-.028,1.207,1.136v.151c0,1.164,0,1.164-1.207,1.136Z" transform="translate(-92.438 -64.699)" fill="#070705"/>
    <path id="Trazado_173080" data-name="Trazado 173080" d="M1252.769,266.577c1.207-.028,1.207-.028,1.207,1.136v.151c0,1.163,0,1.163-1.207,1.136Z" transform="translate(-92.438 -77.011)" fill="#070705"/>
    <path id="Trazado_173081" data-name="Trazado 173081" d="M1239.766,267.655a3.747,3.747,0,0,0,0-.53c-.07-.488.108-.641.613-.638s.673.135.622.633a6.137,6.137,0,0,0,0,1.212c.048.489-.112.641-.617.638s-.687-.136-.619-.633A5,5,0,0,0,1239.766,267.655Z" transform="translate(-83.117 -76.951)" fill="#070705"/>
  </g>
</svg>
