<svg xmlns="http://www.w3.org/2000/svg" width="80.702" height="80.7" viewBox="0 0 80.702 80.7">
  <g id="Grupo_115987" data-name="Grupo 115987" transform="translate(-99.372 -149.859)">
    <path id="Trazado_173274" data-name="Trazado 173274" d="M99.372,185.956c.271-.142.232-.438.317-.666A5.72,5.72,0,0,1,105,181.547c.683-.006,1.367-.03,2.048.01a.548.548,0,0,0,.653-.479,30.635,30.635,0,0,1,2.88-7.009.509.509,0,0,0-.116-.738q-.771-.732-1.505-1.5a5.654,5.654,0,0,1-.016-7.94q2.128-2.216,4.348-4.344a5.617,5.617,0,0,1,7.764-.116l.176.158c.624.558,1.1,1.554,1.831,1.634.669.072,1.42-.65,2.141-1.01a28.7,28.7,0,0,1,5.107-1.969c.465-.13.622-.31.612-.8a10.929,10.929,0,0,1,.284-3.667,5.673,5.673,0,0,1,5.335-3.913q3.034-.011,6.068,0a5.6,5.6,0,0,1,5.623,5.405c.027.735.032,1.471.013,2.206-.01.375.1.529.489.638a31.8,31.8,0,0,1,7.147,2.951c.326.185.546.2.81-.1.384-.431.808-.825,1.22-1.231a5.673,5.673,0,0,1,8.451,0q1.93,1.915,3.846,3.844a5.673,5.673,0,0,1,.039,8.341c-.531.543-1.384,1.038-1.487,1.656-.1.6.571,1.332.9,2.007a29.254,29.254,0,0,1,2.04,5.332c.126.472.3.661.832.653a13,13,0,0,1,3.137.126,5.674,5.674,0,0,1,4.389,5.443q.015,3.073,0,6.147a5.666,5.666,0,0,1-5.551,5.593c-.735.01-1.472.024-2.206-.007a.466.466,0,0,0-.543.407,31.441,31.441,0,0,1-2.964,7.149c-.192.341-.059.517.167.736.509.494,1.02.987,1.5,1.51a5.59,5.59,0,0,1,.064,7.762c-1.457,1.583-2.987,3.108-4.57,4.564a5.583,5.583,0,0,1-7.815-.142c-.493-.473-.985-.948-1.445-1.452a.529.529,0,0,0-.781-.122,30.489,30.489,0,0,1-7.074,2.927c-.378.1-.464.3-.472.666a15.029,15.029,0,0,1-.114,3.139,5.54,5.54,0,0,1-4.219,4.386c-.1.028-.2.035-.223.163h-8.353c-.074-.269-.344-.208-.516-.271a5.6,5.6,0,0,1-3.842-4.651,16.58,16.58,0,0,1-.045-2.751c0-.353-.054-.578-.447-.684a30.677,30.677,0,0,1-7.137-2.96.453.453,0,0,0-.663.1c-.537.575-1.095,1.131-1.675,1.663a5.555,5.555,0,0,1-7.512.1c-1.682-1.54-3.3-3.159-4.839-4.843a5.544,5.544,0,0,1,.036-7.393,19.984,19.984,0,0,1,1.6-1.625.664.664,0,0,0,.144-.989,30.856,30.856,0,0,1-2.312-5.131c-.262-.733-.291-1.766-.8-2.133s-1.514-.109-2.3-.113a5.7,5.7,0,0,1-5.513-3.895c-.063-.171,0-.441-.27-.516ZM139.6,153.034c-.919,0-1.839-.006-2.758,0a2.483,2.483,0,0,0-2.685,2.628c-.019,1.129.009,2.259-.008,3.388a1.638,1.638,0,0,1-1.45,1.847,31.134,31.134,0,0,0-8.924,3.754,1.573,1.573,0,0,1-2.258-.267c-.807-.79-1.589-1.606-2.4-2.392a2.482,2.482,0,0,0-3.76.016q-1.989,1.968-3.958,3.954a2.457,2.457,0,0,0-.02,3.749c.807.827,1.642,1.627,2.446,2.457a1.619,1.619,0,0,1,.274,2.208,30.749,30.749,0,0,0-3.7,9.026,1.531,1.531,0,0,1-1.692,1.316c-1.156.013-2.312-.014-3.467.008a2.558,2.558,0,0,0-2.695,2.729c-.011,1.812-.008,3.625,0,5.437a2.585,2.585,0,0,0,2.784,2.8c1.1.013,2.206,0,3.309,0a1.555,1.555,0,0,1,1.781,1.392,31.1,31.1,0,0,0,3.722,8.94,1.592,1.592,0,0,1-.316,2.316c-.774.786-1.568,1.553-2.337,2.343a2.509,2.509,0,0,0,.018,3.82q1.938,1.962,3.9,3.9a2.509,2.509,0,0,0,3.82,0c.807-.79,1.588-1.607,2.4-2.391a1.549,1.549,0,0,1,2.2-.281,31.8,31.8,0,0,0,9.083,3.775,1.529,1.529,0,0,1,1.33,1.753c.011,1.156-.016,2.312.008,3.467a2.546,2.546,0,0,0,2.694,2.648q2.758.017,5.516,0a2.565,2.565,0,0,0,2.751-2.754c.013-1.1,0-2.206,0-3.309a1.574,1.574,0,0,1,1.437-1.823,31.164,31.164,0,0,0,8.871-3.686,1.661,1.661,0,0,1,2.445.322c.785.775,1.555,1.565,2.345,2.335a2.481,2.481,0,0,0,3.7-.01q2.026-1.986,4.014-4.01a2.481,2.481,0,0,0,.007-3.707c-.766-.794-1.559-1.562-2.336-2.345a1.624,1.624,0,0,1-.32-2.438,30.838,30.838,0,0,0,3.665-8.875,1.57,1.57,0,0,1,1.8-1.385c1.1-.008,2.206.011,3.309-.005a2.577,2.577,0,0,0,2.757-2.755q.015-2.719,0-5.437a2.573,2.573,0,0,0-2.73-2.778c-1.129-.018-2.259.005-3.388-.007a1.565,1.565,0,0,1-1.732-1.371,30.668,30.668,0,0,0-3.676-8.956,1.628,1.628,0,0,1,.319-2.44c.757-.766,1.531-1.515,2.281-2.288a2.478,2.478,0,0,0-.023-3.81q-1.912-1.932-3.845-3.844a2.506,2.506,0,0,0-3.923-.017c-.8.792-1.591,1.6-2.4,2.389a1.517,1.517,0,0,1-2.07.275,31.225,31.225,0,0,0-9.308-3.842,1.565,1.565,0,0,1-1.322-1.775c-.005-1.1,0-2.206,0-3.309a2.538,2.538,0,0,0-2.717-2.7C141.44,153.029,140.521,153.034,139.6,153.034Z" transform="translate(0)" fill="#09090a"/>
    <path id="Trazado_173275" data-name="Trazado 173275" d="M147.248,160.706c.919,0,1.839-.006,2.758,0a2.538,2.538,0,0,1,2.717,2.7c.008,1.1,0,2.206,0,3.309a1.565,1.565,0,0,0,1.322,1.775,31.225,31.225,0,0,1,9.308,3.842,1.517,1.517,0,0,0,2.07-.275c.812-.785,1.6-1.6,2.4-2.389a2.506,2.506,0,0,1,3.923.017q1.93,1.914,3.845,3.844a2.478,2.478,0,0,1,.023,3.81c-.75.772-1.525,1.522-2.281,2.288a1.628,1.628,0,0,0-.319,2.44,30.669,30.669,0,0,1,3.676,8.956,1.565,1.565,0,0,0,1.732,1.371c1.129.012,2.259-.012,3.388.007a2.573,2.573,0,0,1,2.73,2.778q.014,2.719,0,5.437a2.577,2.577,0,0,1-2.757,2.755c-1.1.017-2.206,0-3.309.005a1.57,1.57,0,0,0-1.8,1.385,30.839,30.839,0,0,1-3.665,8.875,1.624,1.624,0,0,0,.32,2.438c.777.783,1.57,1.551,2.336,2.345a2.481,2.481,0,0,1-.007,3.707q-1.985,2.026-4.014,4.01a2.481,2.481,0,0,1-3.7.01c-.79-.77-1.56-1.56-2.345-2.335a1.661,1.661,0,0,0-2.445-.322,31.164,31.164,0,0,1-8.871,3.686A1.574,1.574,0,0,0,152.852,229c-.009,1.1.008,2.206,0,3.309a2.566,2.566,0,0,1-2.751,2.754q-2.758.012-5.516,0a2.546,2.546,0,0,1-2.694-2.648c-.024-1.155,0-2.311-.008-3.467a1.529,1.529,0,0,0-1.33-1.753,31.8,31.8,0,0,1-9.083-3.775,1.549,1.549,0,0,0-2.2.281c-.813.784-1.594,1.6-2.4,2.391a2.509,2.509,0,0,1-3.82,0q-1.962-1.938-3.9-3.9a2.509,2.509,0,0,1-.018-3.82c.77-.79,1.564-1.557,2.337-2.343a1.592,1.592,0,0,0,.316-2.316,31.1,31.1,0,0,1-3.722-8.94,1.555,1.555,0,0,0-1.781-1.392c-1.1-.008-2.206.009-3.309,0a2.585,2.585,0,0,1-2.784-2.8c-.007-1.812-.011-3.625,0-5.437a2.558,2.558,0,0,1,2.695-2.729c1.155-.022,2.311,0,3.467-.008a1.531,1.531,0,0,0,1.692-1.316,30.749,30.749,0,0,1,3.7-9.026,1.619,1.619,0,0,0-.274-2.208c-.8-.829-1.639-1.63-2.446-2.457a2.457,2.457,0,0,1,.02-3.749q1.969-1.987,3.958-3.954a2.482,2.482,0,0,1,3.76-.016c.811.786,1.593,1.6,2.4,2.392a1.573,1.573,0,0,0,2.258.267,31.135,31.135,0,0,1,8.924-3.754,1.638,1.638,0,0,0,1.45-1.847c.018-1.129-.011-2.259.008-3.388a2.483,2.483,0,0,1,2.685-2.628C145.409,160.7,146.328,160.706,147.248,160.706Zm1.727,56.747h4.042c.244,1.179.7,1.576,1.858,1.589.683.008,1.366.013,2.048-.012a5.755,5.755,0,0,0,5.434-4.33,16.989,16.989,0,0,0,.212-4.31c0-.507.125-.686.659-.671,1.26.037,2.522.032,3.782,0a5.293,5.293,0,0,0,5.261-5.337c.013-1.471-.009-2.942,0-4.413a13.379,13.379,0,0,0-3.923-9.795.838.838,0,0,1-.252-.957,9.327,9.327,0,0,0,.114-4.97,9.793,9.793,0,0,0-18.123-2.47c-.229.409-.414.536-.9.436a9.273,9.273,0,0,0-3.6-.014.739.739,0,0,1-.971-.435,9.8,9.8,0,0,0-18.033,7.319,1.025,1.025,0,0,1-.281,1.161,13.082,13.082,0,0,0-3.721,7.623,53.576,53.576,0,0,0-.117,6.609,5.248,5.248,0,0,0,5.1,5.238c1.26.037,2.523.057,3.781,0,.688-.03.846.214.806.845-.051.811-.023,1.628-.01,2.442a5.844,5.844,0,0,0,3.535,5.566,9.4,9.4,0,0,0,4.179.47c1.169.009,1.635-.416,1.85-1.584h4.045c.185,1.065.711,1.583,1.607,1.582S148.79,218.519,148.975,217.453Z" transform="translate(-7.646 -7.672)" fill="#6677d6"/>
    <path id="Trazado_173276" data-name="Trazado 173276" d="M171.334,256.131c-.214,1.168-.681,1.593-1.85,1.584a9.4,9.4,0,0,1-4.179-.47,5.844,5.844,0,0,1-3.535-5.566c-.013-.814-.042-1.631.01-2.442.04-.631-.118-.875-.806-.845-1.258.056-2.522.036-3.781,0a5.248,5.248,0,0,1-5.1-5.238,53.576,53.576,0,0,1,.117-6.609,13.082,13.082,0,0,1,3.721-7.623,1.025,1.025,0,0,0,.281-1.161,9.8,9.8,0,0,1,18.033-7.318.739.739,0,0,0,.971.435,9.274,9.274,0,0,1,3.6.014c.484.1.669-.027.9-.436a9.793,9.793,0,0,1,18.123,2.47,9.327,9.327,0,0,1-.114,4.97.838.838,0,0,0,.252.957,13.379,13.379,0,0,1,3.923,9.795c-.014,1.471.008,2.942,0,4.413a5.293,5.293,0,0,1-5.261,5.337c-1.26.032-2.522.037-3.782,0-.535-.016-.654.164-.659.671a16.99,16.99,0,0,1-.212,4.31,5.755,5.755,0,0,1-5.434,4.33c-.682.025-1.366.02-2.048.012-1.157-.014-1.614-.411-1.858-1.59a1.7,1.7,0,0,1,1.96-1.592c.551,0,1.1,0,1.654,0a2.619,2.619,0,0,0,2.728-2.716c.014-1.89.033-3.78-.009-5.669a11.629,11.629,0,0,0-2.925-7.449c-.289-.34-.419-.373-.749-.01-4.71,5.186-11.876,5.179-16.632-.009-.28-.306-.4-.369-.695-.029a11.413,11.413,0,0,0-2.793,5.795,48,48,0,0,0-.152,7.78,2.52,2.52,0,0,0,2.475,2.3c.655.025,1.312,0,1.969.009A1.663,1.663,0,0,1,171.334,256.131Zm5.675-32.2a7.7,7.7,0,0,0-7.751,7.638,7.725,7.725,0,1,0,15.45.132A7.7,7.7,0,0,0,177.009,223.929ZM165.7,218.583a5.325,5.325,0,0,0-1.563.173,6.633,6.633,0,0,0,1.33,13.084c.474.007.617-.109.636-.6a10.546,10.546,0,0,1,4.92-8.725c.475-.321.482-.536.178-.966A6.651,6.651,0,0,0,165.7,218.583Zm22.554,0a6.69,6.69,0,0,0-5.506,2.969c-.3.447-.268.643.2.958a10.5,10.5,0,0,1,4.89,8.5c.039.809.339.869.98.809a6.718,6.718,0,0,0,6.108-6.864A6.636,6.636,0,0,0,188.257,218.586Zm-30.245,12.795a10.286,10.286,0,0,0-2.467,4.75,31.7,31.7,0,0,0-.241,7.138,2.022,2.022,0,0,0,2.021,1.929c1.364.037,2.731,0,4.1.016.287,0,.389-.069.428-.383a14.994,14.994,0,0,1,4.533-9.165c.135-.131.38-.233.231-.511-.117-.219-.315-.145-.486-.146a12.656,12.656,0,0,1-1.963-.077A9.973,9.973,0,0,1,158.012,231.381Zm37.944-.012a9.783,9.783,0,0,1-8.21,3.616c-.193-.01-.374,0-.441.226-.082.271.161.364.3.5a15,15,0,0,1,4.479,9.039c.057.443.224.489.583.485,1.207-.014,2.415,0,3.623-.006a2.231,2.231,0,0,0,2.437-2.446c.014-1.444.025-2.888,0-4.332A10.472,10.472,0,0,0,195.956,231.369Z" transform="translate(-37.263 -46.349)" fill="#09090a"/>
    <path id="Trazado_173277" data-name="Trazado 173277" d="M202.512,311.864a1.663,1.663,0,0,0-1.87-1.593c-.656-.007-1.313.016-1.969-.009a2.52,2.52,0,0,1-2.475-2.3,48.005,48.005,0,0,1,.152-7.78,11.414,11.414,0,0,1,2.793-5.795c.3-.341.415-.277.695.029,4.756,5.189,11.922,5.195,16.632.009.33-.363.46-.33.749.01a11.629,11.629,0,0,1,2.925,7.449c.042,1.889.023,3.78.009,5.669a2.619,2.619,0,0,1-2.728,2.716c-.551.008-1.1,0-1.654,0a1.7,1.7,0,0,0-1.96,1.592h-4.042c-.18-1.015-.76-1.589-1.606-1.589s-1.423.576-1.607,1.59Z" transform="translate(-68.441 -102.082)" fill="#4e2e8e"/>
    <path id="Trazado_173278" data-name="Trazado 173278" d="M231.806,350.84c.184-1.013.767-1.59,1.607-1.59s1.426.575,1.606,1.589c-.185,1.066-.709,1.583-1.606,1.583S231.991,351.9,231.806,350.84Z" transform="translate(-93.69 -141.058)" fill="#09090a"/>
    <path id="Trazado_173279" data-name="Trazado 173279" d="M218.634,244.613a7.7,7.7,0,0,1,7.7,7.77,7.725,7.725,0,1,1-15.45-.132A7.7,7.7,0,0,1,218.634,244.613Z" transform="translate(-78.888 -67.033)" fill="#f7c2bb"/>
    <path id="Trazado_173280" data-name="Trazado 173280" d="M182.586,226.315a6.651,6.651,0,0,1,5.5,2.968c.3.43.3.644-.178.966a10.546,10.546,0,0,0-4.92,8.725c-.019.489-.161.605-.636.6a6.633,6.633,0,0,1-1.33-13.084A5.325,5.325,0,0,1,182.586,226.315Z" transform="translate(-54.146 -54.082)" fill="#f7c2bb"/>
    <path id="Trazado_173281" data-name="Trazado 173281" d="M262.042,226.351a6.636,6.636,0,0,1,6.668,6.373,6.718,6.718,0,0,1-6.108,6.864c-.64.059-.94,0-.98-.809a10.5,10.5,0,0,0-4.89-8.5c-.464-.316-.5-.511-.2-.958A6.69,6.69,0,0,1,262.042,226.351Z" transform="translate(-111.047 -54.114)" fill="#f7c2bb"/>
    <path id="Trazado_173282" data-name="Trazado 173282" d="M165.7,270.086a9.973,9.973,0,0,0,6.152,3.551,12.655,12.655,0,0,0,1.963.077c.171,0,.369-.073.486.146.149.278-.1.38-.231.511a14.994,14.994,0,0,0-4.533,9.165c-.039.314-.141.386-.428.383-1.365-.011-2.732.021-4.1-.016a2.022,2.022,0,0,1-2.021-1.929,31.7,31.7,0,0,1,.241-7.138A10.286,10.286,0,0,1,165.7,270.086Z" transform="translate(-44.948 -85.054)" fill="#ffef0f"/>
    <path id="Trazado_173283" data-name="Trazado 173283" d="M281.184,270.045a10.472,10.472,0,0,1,2.768,7.082c.028,1.443.016,2.888,0,4.332a2.231,2.231,0,0,1-2.437,2.446c-1.208,0-2.416-.008-3.623.006-.358,0-.525-.042-.583-.485a15,15,0,0,0-4.479-9.039c-.138-.135-.38-.228-.3-.5.067-.224.248-.236.441-.226A9.783,9.783,0,0,0,281.184,270.045Z" transform="translate(-122.491 -85.025)" fill="#c6412a"/>
  </g>
</svg>
