<svg xmlns="http://www.w3.org/2000/svg" width="74.979" height="75.534" viewBox="0 0 74.979 75.534">
  <g id="Grupo_115966" data-name="Grupo 115966" transform="translate(-1365.451 -903.538)">
    <path id="Trazado_172976" data-name="Trazado 172976" d="M1423.048,903.538c.545.157,1.1.282,1.632.475a8.275,8.275,0,0,1,5.394,8.062c.013,4.176,0,8.351.007,12.527a1.546,1.546,0,0,0,.1.842c.69-.613,1.348-1.217,2.026-1.8a38.728,38.728,0,0,1,4.139-3.056,2.531,2.531,0,0,1,2.83-.2,2.6,2.6,0,0,1,1.256,2.561,37.831,37.831,0,0,1-4.9,17.564c-.89,1.576-1.8,3.144-2.67,4.729a16.79,16.79,0,0,1-3.932,4.717,15.958,15.958,0,0,1-6.64,2.986.519.519,0,0,0-.417.251c-.325.592-.654,1.182-1.02,1.84.75,0,1.389-.008,2.027,0a1.178,1.178,0,0,1,1.308,1.106c.009.657-.489,1.1-1.283,1.113-.959.013-1.918,0-2.876.006-.211,0-.428-.052-.57.212-.4.745-.826,1.477-1.277,2.277,1.61,0,3.109,0,4.608,0,.847,0,1.376.424,1.4,1.091.022.7-.5,1.126-1.413,1.128-1.77,0-3.54,0-5.31,0-.254,0-.524-.082-.7.247-.383.731-.8,1.442-1.259,2.25h.8q3.208,0,6.417,0c.909,0,1.447.41,1.46,1.1s-.514,1.118-1.426,1.12q-4.352.005-8.7,0c-1.514,0-1.946-.738-1.209-2.052.485-.867.967-1.735,1.488-2.668H1387.3c-.246,0-.493.012-.737-.01a1.055,1.055,0,0,1-1-1.14c.027-.692.505-1.068,1.391-1.068q7.56,0,15.12,0,6.454,0,12.907-.007c.244,0,.547.143.727-.178.415-.74.833-1.478,1.3-2.307h-22.378c-2.582,0-5.163,0-7.745,0-.875,0-1.336-.405-1.326-1.119s.485-1.093,1.359-1.1c.467,0,.934,0,1.4,0q14.641,0,29.282-.007c.267,0,.6.152.792-.2.409-.74.825-1.477,1.28-2.288h-32.343c-.246,0-.493.007-.737-.01a1.012,1.012,0,0,1-1.02-.962,1.033,1.033,0,0,1,.836-1.207,3,3,0,0,1,.805-.045q15.711-.006,31.421-.008h.868a14.2,14.2,0,0,1,.651-9.749,59.212,59.212,0,0,1,6.969-11.649,2.84,2.84,0,0,0,.687-1.919c-.034-4.991-.087-9.983.007-14.972a6.109,6.109,0,0,0-6.245-6.274c-13.891.032-27.782.009-41.673.014-.145,0-.345-.109-.44.112a8.5,8.5,0,0,1,2.446,6.191q-.028,31.162-.011,62.324c0,1.825.65,2.474,2.477,2.474l41.009-.006c1.808,0,2.412-.611,2.412-2.442q0-9.957,0-19.914c0-1.039.236-1.348,1.165-1.562a1.215,1.215,0,0,1,1.117,1.385c0,6.86.028,13.72-.015,20.579a4.048,4.048,0,0,1-4.343,4.174h-41.749a4.059,4.059,0,0,1-4.292-4.285q0-26.553,0-53.107c0-.294-.016-.589-.025-.883.006-2.922.009-5.844.022-8.767a8.009,8.009,0,0,0-.141-1.535,5.962,5.962,0,0,0-6.159-4.721,5.85,5.85,0,0,0-5.511,5.431c-.092,2.158-.058,4.322-.038,6.482a1.819,1.819,0,0,0,2.013,1.934c1.842.007,3.684,0,5.526,0,.889,0,1.218.291,1.386,1.171a1.175,1.175,0,0,1-1.339,1.063c-1.893-.018-3.786.009-5.679-.01a3.949,3.949,0,0,1-4.144-3.745,40.711,40.711,0,0,1,.053-7.291c.449-3.7,2.615-6,6.155-7.069.167-.05.415.053.5-.205Zm6.02,36.944c1.6-.529,3.075-1.025,4.557-1.5.252-.081.332-.277.432-.466a34.7,34.7,0,0,0,4.086-15.631c0-.19.074-.424-.12-.541s-.364.081-.519.18a34.9,34.9,0,0,0-11.3,11.6.76.76,0,0,0-.167.611c.358,1.485.7,2.975,1.052,4.485.309-.152.366-.44.493-.661.782-1.357,1.539-2.729,2.317-4.088a1.063,1.063,0,0,1,1.392-.494,1,1,0,0,1,.671,1.173,2.355,2.355,0,0,1-.309.737C1430.821,937.382,1429.979,938.867,1429.068,940.482Zm3.073,1.347a17.186,17.186,0,0,1-2.079.65,5.085,5.085,0,0,0-4.024,3.246c-.681,1.564-1.645,3-2.541,4.6C1427.837,948.906,1430.319,945.778,1432.141,941.829Zm-10.585,7.427c1.072-1.9,1.978-3.686,3.061-5.359a3.705,3.705,0,0,0,.5-3.422c-.317-.966-.491-1.98-.743-3.034C1421.918,941.02,1420.553,944.749,1421.555,949.256Z" fill="#0a0909"/>
    <path id="Trazado_172977" data-name="Trazado 172977" d="M1477.609,960.546c-.929.215-1.164.523-1.165,1.563q0,9.957,0,19.914c0,1.831-.6,2.442-2.412,2.442l-41.009.006c-1.827,0-2.477-.649-2.477-2.474q0-31.162.011-62.324a8.5,8.5,0,0,0-2.446-6.192c.1-.22.294-.112.44-.112,13.891,0,27.782.018,41.673-.014a6.109,6.109,0,0,1,6.245,6.274c-.094,4.989-.041,9.981-.007,14.972a2.84,2.84,0,0,1-.687,1.919,59.207,59.207,0,0,0-6.969,11.649,14.2,14.2,0,0,0-.651,9.749h-.868q-15.71,0-31.421.008a3,3,0,0,0-.805.045,1.034,1.034,0,0,0-.836,1.207,1.012,1.012,0,0,0,1.02.962c.245.017.491.01.737.01h32.343c-.454.812-.871,1.548-1.279,2.288-.2.353-.524.2-.792.2q-14.641.012-29.282.007c-.467,0-.934,0-1.4,0-.873.009-1.349.4-1.359,1.1s.452,1.117,1.326,1.119c2.582.007,5.163,0,7.745,0h22.378c-.468.829-.886,1.567-1.3,2.307-.18.321-.483.177-.728.177q-6.454.014-12.907.007-7.56,0-15.12,0c-.886,0-1.364.376-1.391,1.068a1.055,1.055,0,0,0,1,1.14c.244.023.491.01.737.01h27.04c-.52.933-1,1.8-1.488,2.668-.737,1.314-.3,2.051,1.209,2.052q4.352,0,8.7,0c.912,0,1.439-.423,1.426-1.12s-.551-1.1-1.46-1.1q-3.208,0-6.417,0h-.8c.455-.808.876-1.519,1.259-2.25.173-.329.443-.246.7-.247,1.77,0,3.54,0,5.31,0,.91,0,1.435-.426,1.413-1.128-.021-.667-.55-1.088-1.4-1.091-1.5-.005-3,0-4.608,0,.451-.8.877-1.532,1.277-2.278.142-.264.359-.211.57-.212.959,0,1.918.008,2.876-.006.794-.011,1.292-.456,1.283-1.113a1.178,1.178,0,0,0-1.308-1.106c-.638-.01-1.276,0-2.027,0,.365-.658.695-1.248,1.02-1.84a.519.519,0,0,1,.417-.251,15.958,15.958,0,0,0,6.64-2.986Q1477.594,959.058,1477.609,960.546Zm-25.226-23.79c0,3.606-.009,7.094.01,10.583,0,.434-.182.476-.524.467q-.884-.025-1.769,0a3.551,3.551,0,0,0-3.323,2.043,10.278,10.278,0,0,0-.6,1.73,1.965,1.965,0,0,0,1.961,2.647q5.382.016,10.765,0a1.94,1.94,0,0,0,2-2.393,8.815,8.815,0,0,0-.681-2.009,3.3,3.3,0,0,0-2.75-1.953,22.074,22.074,0,0,0-2.354-.06c-.365,0-.52-.088-.519-.493q.021-5.051,0-10.1c0-.425.14-.424.479-.292a11.224,11.224,0,0,0,5.191.774c.51-.049.554.165.543.575-.024.884-.028,1.77,0,2.654a1.115,1.115,0,1,0,2.221-.022,17.579,17.579,0,0,0-.01-2.357c-.118-1.063.121-1.841,1.225-2.2a1.968,1.968,0,0,0,.544-.372,1.16,1.16,0,0,0,.392-1.655,1.117,1.117,0,0,0-1.682-.153,7.141,7.141,0,0,1-2.088,1.049,9.354,9.354,0,0,1-6.235-.639.805.805,0,0,1-.587-.935c.049-.709.022-1.425.009-2.137-.013-.772-.4-1.22-1.058-1.242a1.137,1.137,0,0,0-1.16,1.24c-.017.761-.032,1.525.007,2.285a.678.678,0,0,1-.508.76c-2.915,1.195-5.77,1.546-8.511-.475a1.105,1.105,0,1,0-1.264,1.813,8.591,8.591,0,0,0,1.43.894.664.664,0,0,1,.44.726c-.019,1.106-.017,2.212,0,3.318.009.792.447,1.289,1.105,1.3s1.1-.488,1.114-1.271q.017-1.364,0-2.728c0-.292.039-.462.4-.432A12.216,12.216,0,0,0,1452.383,936.756Zm1.16-18.1c-3.711,0-7.422-.006-11.133,0a2.281,2.281,0,0,0-2.42,2.381q-.019,1.585,0,3.17a2.3,2.3,0,0,0,2.35,2.4q11.17.023,22.34,0a2.257,2.257,0,0,0,2.322-2.334c.019-1.032.01-2.064,0-3.1a2.271,2.271,0,0,0-2.551-2.525Q1459,918.65,1453.543,918.654ZM1446.1,974.3q5.342,0,10.683,0c.9,0,1.351-.369,1.364-1.078.013-.736-.47-1.14-1.389-1.14q-10.573,0-21.146,0c-.925,0-1.407.395-1.4,1.128s.459,1.09,1.426,1.091Q1440.87,974.308,1446.1,974.3Zm-4.425,4.714q3.091,0,6.182,0c.858,0,1.368-.4,1.383-1.08.015-.693-.527-1.134-1.417-1.135q-6.109,0-12.217,0c-.921,0-1.4.4-1.394,1.132s.465,1.082,1.429,1.083Q1438.659,979.021,1441.677,979.018Z" transform="translate(-48.651 -7.613)" fill="#fff"/>
    <path id="Trazado_172978" data-name="Trazado 172978" d="M1384.91,928.52c-.168-.88-.5-1.168-1.386-1.171-1.842-.007-3.684,0-5.526,0a1.819,1.819,0,0,1-2.013-1.934c-.021-2.161-.054-4.325.038-6.482a5.85,5.85,0,0,1,5.511-5.431,5.962,5.962,0,0,1,6.159,4.721,8.009,8.009,0,0,1,.141,1.535c-.013,2.922-.016,5.844-.022,8.767Z" transform="translate(-8.16 -7.724)" fill="#6677d6"/>
    <path id="Trazado_172979" data-name="Trazado 172979" d="M1639.419,1005.659c.911-1.615,1.753-3.1,2.585-4.593a2.355,2.355,0,0,0,.309-.737,1,1,0,0,0-.671-1.173,1.063,1.063,0,0,0-1.392.494c-.778,1.36-1.535,2.731-2.317,4.088-.127.221-.184.509-.493.661-.352-1.51-.694-3-1.052-4.485a.76.76,0,0,1,.167-.611,34.9,34.9,0,0,1,11.3-11.6c.155-.1.313-.3.519-.18s.124.35.12.541a34.707,34.707,0,0,1-4.086,15.631c-.1.189-.18.385-.432.466C1642.494,1004.635,1641.019,1005.13,1639.419,1005.659Z" transform="translate(-210.351 -65.177)" fill="#fff"/>
    <path id="Trazado_172980" data-name="Trazado 172980" d="M1633.728,1074.812c-1.822,3.948-4.3,7.076-8.644,8.5.9-1.6,1.86-3.037,2.541-4.6a5.085,5.085,0,0,1,4.024-3.246A17.186,17.186,0,0,0,1633.728,1074.812Z" transform="translate(-201.588 -132.983)" fill="#4e2e8e"/>
    <path id="Trazado_172981" data-name="Trazado 172981" d="M1615.249,1067c-1-4.508.363-8.236,2.821-11.815.252,1.054.426,2.067.743,3.034a3.706,3.706,0,0,1-.5,3.422C1617.228,1063.314,1616.321,1065.1,1615.249,1067Z" transform="translate(-193.694 -117.744)" fill="#4e2e8e"/>
    <path id="Trazado_172982" data-name="Trazado 172982" d="M1499.248,995.516a12.216,12.216,0,0,1-5.788.94c-.359-.03-.4.14-.4.432q.016,1.364,0,2.728c-.01.783-.46,1.283-1.114,1.271s-1.1-.51-1.105-1.3c-.013-1.106-.016-2.212,0-3.318a.664.664,0,0,0-.44-.726,8.6,8.6,0,0,1-1.43-.894,1.105,1.105,0,1,1,1.264-1.813c2.741,2.021,5.6,1.669,8.511.475a.678.678,0,0,0,.508-.76c-.039-.76-.025-1.523-.007-2.285a1.137,1.137,0,0,1,1.16-1.24c.653.022,1.045.47,1.058,1.242.013.713.04,1.428-.009,2.137a.805.805,0,0,0,.587.935,9.354,9.354,0,0,0,6.235.639,7.141,7.141,0,0,0,2.088-1.049,1.117,1.117,0,0,1,1.682.153,1.16,1.16,0,0,1-.392,1.655,1.968,1.968,0,0,1-.544.372c-1.1.356-1.343,1.134-1.225,2.2a17.579,17.579,0,0,1,.01,2.358,1.115,1.115,0,1,1-2.221.022c-.029-.884-.024-1.77,0-2.654.011-.41-.033-.624-.543-.575a11.224,11.224,0,0,1-5.191-.774c-.339-.132-.48-.133-.479.292q.015,5.051,0,10.1c0,.405.153.495.519.493a22.09,22.09,0,0,1,2.354.06,3.3,3.3,0,0,1,2.75,1.953,8.815,8.815,0,0,1,.681,2.009,1.94,1.94,0,0,1-2,2.393q-5.382.017-10.765,0a1.965,1.965,0,0,1-1.961-2.647,10.279,10.279,0,0,1,.6-1.73,3.551,3.551,0,0,1,3.323-2.043q.884-.024,1.769,0c.341.009.526-.033.524-.467C1499.24,1002.61,1499.248,999.122,1499.248,995.516Zm-3.9,15.174h10.044c-.362-1.61-.624-1.826-2.169-1.827h-5.605C1495.969,1008.863,1495.71,1009.072,1495.35,1010.689Z" transform="translate(-95.516 -66.373)" fill="#0a0909"/>
    <path id="Trazado_172983" data-name="Trazado 172983" d="M1494.768,937.09q5.456,0,10.912,0a2.27,2.27,0,0,1,2.55,2.525c.007,1.032.015,2.065,0,3.1a2.257,2.257,0,0,1-2.322,2.334q-11.17.023-22.34,0a2.3,2.3,0,0,1-2.35-2.4q-.019-1.585,0-3.17a2.281,2.281,0,0,1,2.42-2.381C1487.346,937.084,1491.057,937.09,1494.768,937.09Zm-.061,5.746c3.562,0,7.124-.008,10.686.01.469,0,.651-.1.625-.606-.042-.808-.029-1.621,0-2.431.011-.374-.083-.505-.484-.5q-10.8.018-21.593,0c-.437,0-.536.146-.52.548a18.554,18.554,0,0,1,0,2.136c-.049.65.12.876.829.867C1487.73,942.814,1491.219,942.837,1494.707,942.836Z" transform="translate(-89.876 -26.049)" fill="#0a0909"/>
    <path id="Trazado_172984" data-name="Trazado 172984" d="M1467.294,1178.3q-5.231,0-10.462,0c-.967,0-1.421-.354-1.426-1.091s.476-1.127,1.4-1.128q10.573,0,21.146,0c.918,0,1.4.4,1.389,1.14-.013.709-.466,1.077-1.364,1.078Q1472.636,1178.307,1467.294,1178.3Z" transform="translate(-69.844 -211.611)" fill="#0a0909"/>
    <path id="Trazado_172985" data-name="Trazado 172985" d="M1462.87,1199.4q-3.017,0-6.035,0c-.964,0-1.42-.35-1.429-1.083s.473-1.132,1.394-1.132q6.109,0,12.217,0c.89,0,1.432.443,1.417,1.135-.015.675-.524,1.079-1.383,1.08Q1465.961,1199.4,1462.87,1199.4Z" transform="translate(-69.844 -227.992)" fill="#0a0909"/>
    <path id="Trazado_172986" data-name="Trazado 172986" d="M1519.243,1079.592c.36-1.618.619-1.826,2.27-1.827h5.605c1.545,0,1.807.217,2.169,1.827Z" transform="translate(-119.409 -135.276)" fill="#6677d6"/>
    <path id="Trazado_172987" data-name="Trazado 172987" d="M1502.347,950.531c-3.488,0-6.977-.022-10.465.019-.709.008-.877-.217-.829-.867a18.554,18.554,0,0,0,0-2.136c-.016-.4.083-.549.52-.548q10.8.02,21.593,0c.4,0,.5.131.484.5-.025.81-.038,1.623,0,2.431.026.5-.156.609-.625.606C1509.471,950.523,1505.909,950.531,1502.347,950.531Z" transform="translate(-97.516 -33.744)" fill="#6677d6"/>
  </g>
</svg>
