<svg xmlns="http://www.w3.org/2000/svg" width="82.707" height="82.733" viewBox="0 0 82.707 82.733">
  <g id="Grupo_115988" data-name="Grupo 115988" transform="translate(-1468.718 -495.924)">
    <path id="Trazado_173284" data-name="Trazado 173284" d="M1598.394,495.924a15.18,15.18,0,1,0,15.173,15.18A15.226,15.226,0,0,0,1598.394,495.924Zm-11.57,35.617c.059.195.107.267.1.33-.079.476-.147.956-.261,1.424a24.565,24.565,0,0,1-9.554,14.389,23.654,23.654,0,0,1-12.508,4.639c-2.074.152-2.057.087-2.074,2.2,0,.564.132.723.709.7a27.7,27.7,0,0,0,25.9-20.248,38,38,0,0,0,.811-4.008c.121.036.186.035.219.068.994.985,1.983,1.977,2.978,2.961.5.49.986,1.329,1.511,1.355.609.031,1.019-.914,1.579-1.362.405-.324.339-.532-.008-.873-2.053-2.021-4.078-4.069-6.116-6.1-1.038-1.037-1.664-1.029-2.724.03q-2.685,2.682-5.367,5.369c-1.15,1.151-1.15,1.151-.011,2.288.833.831.833.831,1.65.013Zm-21.533-28.784c0,1.439,0,1.439,1.415,1.439h.081c1.321,0,1.321,0,1.321-1.3,0-1.476,0-1.476-1.46-1.476C1565.29,501.424,1565.29,501.424,1565.29,502.756Zm6.987,1.439c1.35,0,1.35,0,1.35-1.331,0-1.441,0-1.441-1.478-1.441-1.35,0-1.35,0-1.35,1.328C1570.8,504.2,1570.8,504.2,1572.277,504.2Zm5.494,0a3.374,3.374,0,0,1,.564,0c.7.121.911-.2.8-.847a2.525,2.525,0,0,1,0-.4c0-1.526,0-1.526-1.566-1.526-1.251,0-1.251,0-1.251,1.282C1576.32,504.2,1576.32,504.2,1577.771,504.2Z" transform="translate(-62.142)" fill="#fefefe"/>
    <path id="Trazado_173285" data-name="Trazado 173285" d="M1468.718,540.956a22.761,22.761,0,0,1,.85-2.374,9.745,9.745,0,0,1,8.844-5.747,9.7,9.7,0,0,1-2.766-7.545,9.289,9.289,0,0,1,3.807-6.991,9.621,9.621,0,0,1,12.711.94,9.75,9.75,0,0,1,.015,13.555c.213.172.461.078.683.079,3.015.008,6.029-.007,9.044.018a1.5,1.5,0,0,0,1.188-.5c2.307-2.337,4.635-4.653,6.959-6.974,1.105-1.1,1.684-1.106,2.782-.011,1.163,1.159,2.328,2.316,3.481,3.485a1.5,1.5,0,0,1,.06,2.447c-2.955,3.386-5.929,6.756-8.862,10.162a2.8,2.8,0,0,1-2.366,1.082c-3.148-.053-6.3-.005-9.447-.032-.595-.005-.818.1-.813.771.033,5.035-.02,10.07.038,15.1a34.652,34.652,0,0,0,.85,5.4q1.551,9.05,3.142,18.093c.46,2.645.9,5.294,1.394,7.932a2.052,2.052,0,0,1-.741,2.326h-9.208a2.031,2.031,0,0,1-1.071-1.6c-.493-2.552-1-5.1-1.511-7.65-.327-1.638-.663-3.274-.995-4.912l-.139.02v.779c0,3.818-.021,7.636.016,11.454a1.936,1.936,0,0,1-.983,1.908h-9.208a2.109,2.109,0,0,1-.884-2c.017-4.034.008-8.068.008-12.1,0-5.137-.013-10.274.016-15.41,0-.687-.2-.855-.858-.831-1.343.049-2.689-.015-4.032.026a2.107,2.107,0,0,1-2-.87Zm9.664,25.031c0,7.54.009,15.08-.016,22.62,0,.675.166.867.84.836a37.23,37.23,0,0,1,3.794,0c.766.043.909-.221.907-.934q-.037-12.4-.015-24.8c0-1.162.409-1.765,1.242-1.854.778-.083,1.328.44,1.545,1.516q2.562,12.722,5.1,25.448c.092.464.234.626.712.616,1.426-.03,2.854-.04,4.28,0,.565.017.622-.2.533-.656-.175-.9-.325-1.8-.481-2.7q-1.889-10.884-3.773-21.768a35.653,35.653,0,0,1-.887-5.647c-.054-5.654-.02-11.31-.019-16.965,0-1.474.44-1.909,1.934-1.91q5.29,0,10.58,0a1.055,1.055,0,0,0,.933-.322q3.861-4.455,7.763-8.875c.264-.3.307-.5-.013-.785a15.723,15.723,0,0,1-1.426-1.427c-.364-.424-.589-.337-.942.021-2.1,2.129-4.233,4.22-6.322,6.357a2.742,2.742,0,0,1-2.135.886q-11.871-.041-23.743-.013c-4.135,0-7.19,2.777-7.271,6.829-.107,5.356-.025,10.717-.041,16.076,0,.439.15.545.557.534.941-.025,1.887-.051,2.825.007.653.041.8-.184.795-.809-.026-4.6-.014-9.209-.014-13.814,0-1.913,0-1.867,1.918-1.93.775-.026.855.26.853.917Q1478.364,554.717,1478.382,565.987Zm6.908-46.866a6.877,6.877,0,1,0,6.85,6.9A6.886,6.886,0,0,0,1485.289,519.12Z" transform="translate(0 -13.522)" fill="#0e2329"/>
    <path id="Trazado_173286" data-name="Trazado 173286" d="M1591.213,651.654c0-.754.018-1.508-.009-2.261-.014-.381.094-.558.49-.5a.713.713,0,0,0,.161,0c.688-.049,1.6.3,2-.156.337-.39.1-1.282.1-1.952,0-2.854,0-5.708,0-8.563,0-1.26.5-1.752,1.767-1.756,1.858-.006,3.716-.032,5.572.014.7.017.955-.114.934-.891-.061-2.287-.024-4.577-.021-6.866,0-1.429.5-1.925,1.952-1.928,1.884,0,3.769-.02,5.653.011.526.009.674-.135.669-.666-.027-2.747-.013-5.493-.012-8.24,0-1.688.423-2.119,2.076-2.12,1.83,0,3.662-.033,5.491.018.636.017.743-.188.735-.766-.033-2.315-.018-4.631-.012-6.947,0-1.5.478-1.972,1.978-1.974q3.593,0,7.187,0c1.4,0,1.887.5,1.887,1.9q0,19.994-.016,39.987c0,.73.172.938.911.915,1.853-.057,1.854-.018,1.854,1.848q0,.444,0,.888Zm35.848-22.731c0-6.409-.007-12.819.012-19.228,0-.581-.114-.8-.746-.781-1.344.051-2.693.052-4.037,0-.635-.025-.745.2-.742.779.022,4.686.012,9.372.012,14.057q0,12.2-.013,24.4c0,.583.111.8.742.769,1.317-.054,2.639-.056,3.956,0,.684.029.834-.186.832-.848C1627.05,641.688,1627.061,635.305,1627.061,628.923Zm-8.274,4.787c0-4.79-.012-9.58.014-14.37,0-.642-.174-.829-.81-.8-1.289.049-2.583.054-3.873,0-.681-.03-.844.188-.841.85.023,7.212.014,14.424.014,21.636,0,2.395.018,4.79-.013,7.185-.008.573.165.727.723.71,1.317-.04,2.637-.049,3.954,0,.664.026.853-.158.849-.837C1618.772,643.289,1618.787,638.5,1618.787,633.709Zm-8.3,5.588c0-2.986-.013-5.972.011-8.959,0-.543-.115-.757-.7-.739-1.37.042-2.743.032-4.114,0-.511-.011-.7.123-.7.671q.027,9,0,18c0,.487.126.653.63.641,1.317-.033,2.637-.05,3.953,0,.708.029.957-.133.943-.9C1610.457,645.108,1610.488,642.2,1610.488,639.3Zm-8.269,4.843c0-1.454-.012-2.908.008-4.362.006-.417-.12-.561-.548-.555q-2.22.034-4.441,0c-.454-.007-.527.188-.526.578q.018,4.281,0,8.562c0,.429.133.552.552.545,1.454-.022,2.908-.034,4.36.005.534.014.615-.193.606-.655C1602.2,646.887,1602.219,645.513,1602.219,644.14Z" transform="translate(-81.142 -72.997)" fill="#112429"/>
    <path id="Trazado_173287" data-name="Trazado 173287" d="M1518.968,713.238a1.936,1.936,0,0,0,.983-1.908c-.037-3.818-.016-7.636-.016-11.454V699.1l.139-.02c.332,1.637.668,3.274.995,4.912.509,2.549,1.018,5.1,1.511,7.65a2.031,2.031,0,0,0,1.071,1.6Z" transform="translate(-33.289 -134.582)" fill="#fefefe"/>
    <path id="Trazado_173288" data-name="Trazado 173288" d="M1639.008,495.924a15.18,15.18,0,1,1-15.177,15.2A15.177,15.177,0,0,1,1639.008,495.924Zm.019,27.541a12.391,12.391,0,1,0-12.379-12.344A12.409,12.409,0,0,0,1639.027,523.465Z" transform="translate(-102.756)" fill="#112429"/>
    <path id="Trazado_173289" data-name="Trazado 173289" d="M1586.823,591.043l-3.171,3.172c-.817.818-.817.818-1.65-.013-1.139-1.137-1.139-1.137.011-2.288q2.684-2.684,5.367-5.369c1.06-1.059,1.686-1.067,2.724-.03,2.038,2.035,4.063,4.084,6.116,6.1.347.341.413.549.008.873-.56.448-.97,1.393-1.579,1.362-.525-.026-1.015-.865-1.511-1.355-1-.984-1.984-1.975-2.978-2.961-.032-.032-.1-.032-.219-.068a38,38,0,0,1-.811,4.008,27.7,27.7,0,0,1-25.9,20.248c-.577.022-.714-.137-.709-.7.017-2.113,0-2.049,2.074-2.2a23.654,23.654,0,0,0,12.508-4.639,24.565,24.565,0,0,0,9.554-14.389c.114-.468.182-.948.261-1.424C1586.931,591.31,1586.883,591.238,1586.823,591.043Z" transform="translate(-62.142 -59.502)" fill="#4e2e8e"/>
    <path id="Trazado_173290" data-name="Trazado 173290" d="M1570.721,513.55c0-1.333,0-1.333,1.356-1.333,1.46,0,1.46,0,1.46,1.476,0,1.3,0,1.3-1.321,1.3h-.081C1570.721,514.989,1570.721,514.989,1570.721,513.55Z" transform="translate(-67.573 -10.793)" fill="#112429"/>
    <path id="Trazado_173291" data-name="Trazado 173291" d="M1588.52,514.989c-1.478,0-1.478,0-1.478-1.444,0-1.328,0-1.328,1.35-1.328,1.478,0,1.478,0,1.478,1.441C1589.871,514.989,1589.871,514.989,1588.52,514.989Z" transform="translate(-78.385 -10.793)" fill="#112429"/>
    <path id="Trazado_173292" data-name="Trazado 173292" d="M1604.849,514.989c-1.451,0-1.451,0-1.451-1.49,0-1.282,0-1.282,1.25-1.282,1.566,0,1.566,0,1.566,1.526a2.5,2.5,0,0,0,0,.4c.106.644-.1.968-.805.847A3.374,3.374,0,0,0,1604.849,514.989Z" transform="translate(-89.22 -10.793)" fill="#112429"/>
    <path id="Trazado_173293" data-name="Trazado 173293" d="M1483.734,589.081q0-11.269.013-22.539c0-.657-.078-.942-.853-.917-1.917.063-1.918.017-1.918,1.93,0,4.6-.012,9.21.014,13.814,0,.625-.141.849-.795.809-.938-.058-1.884-.032-2.825-.007-.408.011-.558-.095-.557-.534.016-5.359-.066-10.719.041-16.076.081-4.053,3.136-6.825,7.271-6.829q11.871-.014,23.743.013a2.742,2.742,0,0,0,2.136-.886c2.089-2.137,4.225-4.228,6.322-6.357.353-.359.578-.446.942-.021a15.716,15.716,0,0,0,1.427,1.427c.321.288.277.485.013.785q-3.9,4.424-7.763,8.875a1.055,1.055,0,0,1-.933.322q-5.29,0-10.58,0c-1.493,0-1.934.436-1.934,1.91,0,5.655-.035,11.31.019,16.965a35.682,35.682,0,0,0,.887,5.647q1.871,10.887,3.773,21.768c.157.9.307,1.8.481,2.7.089.458.032.674-.533.657-1.425-.043-2.854-.033-4.28,0-.478.01-.62-.152-.712-.616q-2.529-12.729-5.1-25.448c-.217-1.076-.767-1.6-1.545-1.516-.833.089-1.242.693-1.242,1.854q0,12.4.015,24.8c0,.712-.14.977-.907.934a37.227,37.227,0,0,0-3.794,0c-.674.031-.842-.161-.84-.836C1483.743,604.161,1483.734,596.621,1483.734,589.081Zm5.509-18.664c0,1.4-.018,2.8.008,4.2.012.662-.3,1.54.142,1.924.377.325,1.232.061,1.868.128.613.064.756-.15.751-.751-.03-3.635,0-7.27-.026-10.906,0-.558.071-.895.727-.773.554.1.691-.178.655-.682a12.587,12.587,0,0,1,0-1.534c.022-.422-.138-.562-.558-.552-1,.024-1.992.008-2.988.008-2,0-1.973,0-2,2.022-.008.622.182.84.773.74.555-.095.666.175.658.682C1489.226,566.755,1489.243,568.586,1489.243,570.417Z" transform="translate(-5.352 -36.616)" fill="#6677d6"/>
    <path id="Trazado_173294" data-name="Trazado 173294" d="M1504.271,524.586a6.877,6.877,0,1,1-6.9,6.846A6.908,6.908,0,0,1,1504.271,524.586Z" transform="translate(-18.982 -18.987)" fill="#6677d6"/>
    <path id="Trazado_173295" data-name="Trazado 173295" d="M1686.615,634.412c0,6.383-.01,12.765.016,19.147,0,.662-.148.877-.832.848-1.317-.057-2.639-.054-3.956,0-.631.026-.743-.186-.742-.769q.029-12.2.013-24.4c0-4.686.01-9.372-.012-14.057,0-.576.107-.8.742-.779,1.344.052,2.693.051,4.037,0,.633-.024.748.2.746.781C1686.608,621.593,1686.615,628,1686.615,634.412Z" transform="translate(-140.696 -78.486)" fill="#c6412a"/>
    <path id="Trazado_173296" data-name="Trazado 173296" d="M1662.109,658.078c0,4.79-.014,9.58.017,14.37,0,.68-.184.864-.849.837-1.316-.052-2.636-.042-3.954,0-.558.017-.731-.136-.723-.71.031-2.395.013-4.79.013-7.185,0-7.212.009-14.424-.015-21.636,0-.662.16-.88.842-.85,1.289.056,2.583.05,3.873,0,.637-.024.814.163.81.8C1662.1,648.5,1662.109,653.288,1662.109,658.078Z" transform="translate(-124.464 -97.365)" fill="#c6412a"/>
    <path id="Trazado_173297" data-name="Trazado 173297" d="M1637.529,685.386c0,2.906-.03,5.811.02,8.716.014.771-.236.933-.943.9-1.316-.054-2.636-.037-3.953,0-.5.013-.631-.154-.63-.641q.022-9,0-18c0-.548.187-.682.7-.671,1.371.029,2.744.038,4.114,0,.589-.018.709.2.7.739C1637.516,679.413,1637.529,682.4,1637.529,685.386Z" transform="translate(-108.183 -119.086)" fill="#c6412a"/>
    <path id="Trazado_173298" data-name="Trazado 173298" d="M1613.025,709.12c0,1.373-.016,2.747.009,4.119.008.461-.072.669-.606.655-1.453-.039-2.907-.027-4.36-.005-.419.006-.555-.116-.552-.545q.025-4.281,0-8.562c0-.39.072-.585.526-.578q2.22.037,4.441,0c.428-.006.554.138.548.555C1613.013,706.212,1613.025,707.666,1613.025,709.12Z" transform="translate(-91.948 -137.977)" fill="#c6412a"/>
    <path id="Trazado_173299" data-name="Trazado 173299" d="M1644.557,528.88a12.391,12.391,0,0,1-.058-24.782,12.391,12.391,0,1,1,.058,24.782Zm.024-22.042c-.3,0-.594.021-.888-.005-.416-.037-.625.119-.553.543a1.267,1.267,0,0,1-.927,1.6,1.26,1.26,0,0,0-.379.3c-1.741,1.573-1.706,3.594-1.224,5.6a3.867,3.867,0,0,0,3.666,3c1.294.15,1.606.548,1.618,1.836,0,.375-.012.753-.046,1.127a1.217,1.217,0,0,1-1.088,1.128,1.1,1.1,0,0,1-1.336-.649c-.24-.7-.671-.771-1.271-.712a5.063,5.063,0,0,1-1.048,0c-.63-.071-.726.238-.627.763a4.021,4.021,0,0,0,2.172,2.935c.268.142.473.261.5.637.08,1.261.1,1.26,1.378,1.26a7.152,7.152,0,0,1,.807.005c.508.058.708-.167.621-.646a1.219,1.219,0,0,1,.847-1.479,2.937,2.937,0,0,0,.9-.789,6.072,6.072,0,0,0,.49-5.963,4.243,4.243,0,0,0-3.527-2.221c-1.092-.116-1.445-.53-1.461-1.621a10.8,10.8,0,0,1,.028-1.29,1.228,1.228,0,0,1,1.081-1.138,1.143,1.143,0,0,1,1.394.7c.2.65.586.64,1.083.619a10.349,10.349,0,0,1,1.291,0c.594.049.659-.2.548-.718a4.048,4.048,0,0,0-2.116-2.889c-.419-.221-.643-.458-.554-.922.17-.892-.263-1.133-1.057-1.01A2.1,2.1,0,0,1,1644.581,506.838Z" transform="translate(-108.286 -5.415)" fill="#ffef0f"/>
    <path id="Trazado_173300" data-name="Trazado 173300" d="M1510.881,590.584c0-1.831-.017-3.662.01-5.493.008-.508-.1-.777-.658-.682-.591.1-.781-.117-.773-.74.024-2.021,0-2.022,2-2.022,1,0,1.993.017,2.988-.008.42-.01.58.13.558.552a12.564,12.564,0,0,0,0,1.534c.036.5-.1.784-.655.681-.656-.122-.73.215-.727.773.022,3.635,0,7.271.026,10.906,0,.6-.138.815-.751.751-.636-.067-1.491.2-1.868-.128-.446-.384-.13-1.262-.142-1.924C1510.864,593.385,1510.881,591.984,1510.881,590.584Z" transform="translate(-26.99 -56.783)" fill="#0e2329"/>
    <path id="Trazado_173301" data-name="Trazado 173301" d="M1660.57,512.152a2.1,2.1,0,0,0,.322,0c.794-.124,1.228.117,1.057,1.01-.089.464.135.7.554.922a4.048,4.048,0,0,1,2.116,2.889c.11.517.046.767-.548.718a10.349,10.349,0,0,0-1.291,0c-.5.021-.882.031-1.083-.619a1.143,1.143,0,0,0-1.394-.7,1.228,1.228,0,0,0-1.081,1.138,10.8,10.8,0,0,0-.028,1.29c.016,1.092.37,1.505,1.461,1.621a4.243,4.243,0,0,1,3.527,2.221,6.072,6.072,0,0,1-.49,5.963,2.937,2.937,0,0,1-.9.789,1.219,1.219,0,0,0-.847,1.479c.087.479-.113.7-.621.646a7.152,7.152,0,0,0-.807-.005c-1.278,0-1.3,0-1.378-1.26-.024-.376-.229-.494-.5-.637a4.021,4.021,0,0,1-2.172-2.935c-.1-.525,0-.833.627-.763a5.063,5.063,0,0,0,1.048,0c.6-.059,1.031.015,1.271.712a1.1,1.1,0,0,0,1.336.649,1.217,1.217,0,0,0,1.088-1.128c.034-.374.049-.751.046-1.127-.012-1.288-.324-1.686-1.618-1.836a3.867,3.867,0,0,1-3.666-3c-.483-2.006-.517-4.028,1.224-5.6a1.26,1.26,0,0,1,.379-.3,1.267,1.267,0,0,0,.927-1.6c-.073-.424.137-.58.553-.543C1659.976,512.174,1660.274,512.152,1660.57,512.152Z" transform="translate(-124.276 -10.729)" fill="#112429"/>
  </g>
</svg>
